G04 EAGLE Gerber RS-274X export*
G75*
%MOMM*%
%FSLAX34Y34*%
%LPD*%
%INSlot drills/holes*%
%IPPOS*%
%AMOC8*
5,1,8,0,0,1.08239X$1,22.5*%
G01*
%ADD10C,0.000000*%


D10*
X10000Y0D02*
X790000Y0D01*
X790242Y3D01*
X790483Y12D01*
X790724Y26D01*
X790965Y47D01*
X791205Y73D01*
X791445Y105D01*
X791684Y143D01*
X791921Y186D01*
X792158Y236D01*
X792393Y291D01*
X792627Y351D01*
X792859Y418D01*
X793090Y489D01*
X793319Y567D01*
X793546Y650D01*
X793771Y738D01*
X793994Y832D01*
X794214Y931D01*
X794432Y1036D01*
X794647Y1145D01*
X794860Y1260D01*
X795070Y1380D01*
X795276Y1505D01*
X795480Y1635D01*
X795681Y1770D01*
X795878Y1910D01*
X796072Y2054D01*
X796262Y2203D01*
X796448Y2357D01*
X796631Y2515D01*
X796810Y2677D01*
X796985Y2844D01*
X797156Y3015D01*
X797323Y3190D01*
X797485Y3369D01*
X797643Y3552D01*
X797797Y3738D01*
X797946Y3928D01*
X798090Y4122D01*
X798230Y4319D01*
X798365Y4520D01*
X798495Y4724D01*
X798620Y4930D01*
X798740Y5140D01*
X798855Y5353D01*
X798964Y5568D01*
X799069Y5786D01*
X799168Y6006D01*
X799262Y6229D01*
X799350Y6454D01*
X799433Y6681D01*
X799511Y6910D01*
X799582Y7141D01*
X799649Y7373D01*
X799709Y7607D01*
X799764Y7842D01*
X799814Y8079D01*
X799857Y8316D01*
X799895Y8555D01*
X799927Y8795D01*
X799953Y9035D01*
X799974Y9276D01*
X799988Y9517D01*
X799997Y9758D01*
X800000Y10000D01*
X800000Y610000D01*
X799997Y610242D01*
X799988Y610483D01*
X799974Y610724D01*
X799953Y610965D01*
X799927Y611205D01*
X799895Y611445D01*
X799857Y611684D01*
X799814Y611921D01*
X799764Y612158D01*
X799709Y612393D01*
X799649Y612627D01*
X799582Y612859D01*
X799511Y613090D01*
X799433Y613319D01*
X799350Y613546D01*
X799262Y613771D01*
X799168Y613994D01*
X799069Y614214D01*
X798964Y614432D01*
X798855Y614647D01*
X798740Y614860D01*
X798620Y615070D01*
X798495Y615276D01*
X798365Y615480D01*
X798230Y615681D01*
X798090Y615878D01*
X797946Y616072D01*
X797797Y616262D01*
X797643Y616448D01*
X797485Y616631D01*
X797323Y616810D01*
X797156Y616985D01*
X796985Y617156D01*
X796810Y617323D01*
X796631Y617485D01*
X796448Y617643D01*
X796262Y617797D01*
X796072Y617946D01*
X795878Y618090D01*
X795681Y618230D01*
X795480Y618365D01*
X795276Y618495D01*
X795070Y618620D01*
X794860Y618740D01*
X794647Y618855D01*
X794432Y618964D01*
X794214Y619069D01*
X793994Y619168D01*
X793771Y619262D01*
X793546Y619350D01*
X793319Y619433D01*
X793090Y619511D01*
X792859Y619582D01*
X792627Y619649D01*
X792393Y619709D01*
X792158Y619764D01*
X791921Y619814D01*
X791684Y619857D01*
X791445Y619895D01*
X791205Y619927D01*
X790965Y619953D01*
X790724Y619974D01*
X790483Y619988D01*
X790242Y619997D01*
X790000Y620000D01*
X10000Y620000D01*
X9758Y619997D01*
X9517Y619988D01*
X9276Y619974D01*
X9035Y619953D01*
X8795Y619927D01*
X8555Y619895D01*
X8316Y619857D01*
X8079Y619814D01*
X7842Y619764D01*
X7607Y619709D01*
X7373Y619649D01*
X7141Y619582D01*
X6910Y619511D01*
X6681Y619433D01*
X6454Y619350D01*
X6229Y619262D01*
X6006Y619168D01*
X5786Y619069D01*
X5568Y618964D01*
X5353Y618855D01*
X5140Y618740D01*
X4930Y618620D01*
X4724Y618495D01*
X4520Y618365D01*
X4319Y618230D01*
X4122Y618090D01*
X3928Y617946D01*
X3738Y617797D01*
X3552Y617643D01*
X3369Y617485D01*
X3190Y617323D01*
X3015Y617156D01*
X2844Y616985D01*
X2677Y616810D01*
X2515Y616631D01*
X2357Y616448D01*
X2203Y616262D01*
X2054Y616072D01*
X1910Y615878D01*
X1770Y615681D01*
X1635Y615480D01*
X1505Y615276D01*
X1380Y615070D01*
X1260Y614860D01*
X1145Y614647D01*
X1036Y614432D01*
X931Y614214D01*
X832Y613994D01*
X738Y613771D01*
X650Y613546D01*
X567Y613319D01*
X489Y613090D01*
X418Y612859D01*
X351Y612627D01*
X291Y612393D01*
X236Y612158D01*
X186Y611921D01*
X143Y611684D01*
X105Y611445D01*
X73Y611205D01*
X47Y610965D01*
X26Y610724D01*
X12Y610483D01*
X3Y610242D01*
X0Y610000D01*
X0Y10000D01*
X3Y9758D01*
X12Y9517D01*
X26Y9276D01*
X47Y9035D01*
X73Y8795D01*
X105Y8555D01*
X143Y8316D01*
X186Y8079D01*
X236Y7842D01*
X291Y7607D01*
X351Y7373D01*
X418Y7141D01*
X489Y6910D01*
X567Y6681D01*
X650Y6454D01*
X738Y6229D01*
X832Y6006D01*
X931Y5786D01*
X1036Y5568D01*
X1145Y5353D01*
X1260Y5140D01*
X1380Y4930D01*
X1505Y4724D01*
X1635Y4520D01*
X1770Y4319D01*
X1910Y4122D01*
X2054Y3928D01*
X2203Y3738D01*
X2357Y3552D01*
X2515Y3369D01*
X2677Y3190D01*
X2844Y3015D01*
X3015Y2844D01*
X3190Y2677D01*
X3369Y2515D01*
X3552Y2357D01*
X3738Y2203D01*
X3928Y2054D01*
X4122Y1910D01*
X4319Y1770D01*
X4520Y1635D01*
X4724Y1505D01*
X4930Y1380D01*
X5140Y1260D01*
X5353Y1145D01*
X5568Y1036D01*
X5786Y931D01*
X6006Y832D01*
X6229Y738D01*
X6454Y650D01*
X6681Y567D01*
X6910Y489D01*
X7141Y418D01*
X7373Y351D01*
X7607Y291D01*
X7842Y236D01*
X8079Y186D01*
X8316Y143D01*
X8555Y105D01*
X8795Y73D01*
X9035Y47D01*
X9276Y26D01*
X9517Y12D01*
X9758Y3D01*
X10000Y0D01*
M02*
