G04 EAGLE Gerber RS-274X export*
G75*
%MOMM*%
%FSLAX34Y34*%
%LPD*%
%INSilk top*%
%IPPOS*%
%AMOC8*
5,1,8,0,0,1.08239X$1,22.5*%
G01*
%ADD10C,0.000000*%
%ADD11C,0.406400*%
%ADD12C,0.101600*%
%ADD13C,0.152400*%
%ADD14C,0.762000*%
%ADD15R,0.762000X0.508000*%
%ADD16R,0.762000X1.016000*%
%ADD17R,0.762000X0.762000*%
%ADD18C,0.127000*%
%ADD19C,0.200000*%
%ADD20C,0.203200*%
%ADD21R,0.200000X1.400000*%
%ADD22C,0.025400*%
%ADD23R,1.500000X1.460000*%
%ADD24R,1.460000X1.500000*%


D10*
X10000Y0D02*
X790000Y0D01*
X790242Y3D01*
X790483Y12D01*
X790724Y26D01*
X790965Y47D01*
X791205Y73D01*
X791445Y105D01*
X791684Y143D01*
X791921Y186D01*
X792158Y236D01*
X792393Y291D01*
X792627Y351D01*
X792859Y418D01*
X793090Y489D01*
X793319Y567D01*
X793546Y650D01*
X793771Y738D01*
X793994Y832D01*
X794214Y931D01*
X794432Y1036D01*
X794647Y1145D01*
X794860Y1260D01*
X795070Y1380D01*
X795276Y1505D01*
X795480Y1635D01*
X795681Y1770D01*
X795878Y1910D01*
X796072Y2054D01*
X796262Y2203D01*
X796448Y2357D01*
X796631Y2515D01*
X796810Y2677D01*
X796985Y2844D01*
X797156Y3015D01*
X797323Y3190D01*
X797485Y3369D01*
X797643Y3552D01*
X797797Y3738D01*
X797946Y3928D01*
X798090Y4122D01*
X798230Y4319D01*
X798365Y4520D01*
X798495Y4724D01*
X798620Y4930D01*
X798740Y5140D01*
X798855Y5353D01*
X798964Y5568D01*
X799069Y5786D01*
X799168Y6006D01*
X799262Y6229D01*
X799350Y6454D01*
X799433Y6681D01*
X799511Y6910D01*
X799582Y7141D01*
X799649Y7373D01*
X799709Y7607D01*
X799764Y7842D01*
X799814Y8079D01*
X799857Y8316D01*
X799895Y8555D01*
X799927Y8795D01*
X799953Y9035D01*
X799974Y9276D01*
X799988Y9517D01*
X799997Y9758D01*
X800000Y10000D01*
X800000Y610000D01*
X799997Y610242D01*
X799988Y610483D01*
X799974Y610724D01*
X799953Y610965D01*
X799927Y611205D01*
X799895Y611445D01*
X799857Y611684D01*
X799814Y611921D01*
X799764Y612158D01*
X799709Y612393D01*
X799649Y612627D01*
X799582Y612859D01*
X799511Y613090D01*
X799433Y613319D01*
X799350Y613546D01*
X799262Y613771D01*
X799168Y613994D01*
X799069Y614214D01*
X798964Y614432D01*
X798855Y614647D01*
X798740Y614860D01*
X798620Y615070D01*
X798495Y615276D01*
X798365Y615480D01*
X798230Y615681D01*
X798090Y615878D01*
X797946Y616072D01*
X797797Y616262D01*
X797643Y616448D01*
X797485Y616631D01*
X797323Y616810D01*
X797156Y616985D01*
X796985Y617156D01*
X796810Y617323D01*
X796631Y617485D01*
X796448Y617643D01*
X796262Y617797D01*
X796072Y617946D01*
X795878Y618090D01*
X795681Y618230D01*
X795480Y618365D01*
X795276Y618495D01*
X795070Y618620D01*
X794860Y618740D01*
X794647Y618855D01*
X794432Y618964D01*
X794214Y619069D01*
X793994Y619168D01*
X793771Y619262D01*
X793546Y619350D01*
X793319Y619433D01*
X793090Y619511D01*
X792859Y619582D01*
X792627Y619649D01*
X792393Y619709D01*
X792158Y619764D01*
X791921Y619814D01*
X791684Y619857D01*
X791445Y619895D01*
X791205Y619927D01*
X790965Y619953D01*
X790724Y619974D01*
X790483Y619988D01*
X790242Y619997D01*
X790000Y620000D01*
X10000Y620000D01*
X9758Y619997D01*
X9517Y619988D01*
X9276Y619974D01*
X9035Y619953D01*
X8795Y619927D01*
X8555Y619895D01*
X8316Y619857D01*
X8079Y619814D01*
X7842Y619764D01*
X7607Y619709D01*
X7373Y619649D01*
X7141Y619582D01*
X6910Y619511D01*
X6681Y619433D01*
X6454Y619350D01*
X6229Y619262D01*
X6006Y619168D01*
X5786Y619069D01*
X5568Y618964D01*
X5353Y618855D01*
X5140Y618740D01*
X4930Y618620D01*
X4724Y618495D01*
X4520Y618365D01*
X4319Y618230D01*
X4122Y618090D01*
X3928Y617946D01*
X3738Y617797D01*
X3552Y617643D01*
X3369Y617485D01*
X3190Y617323D01*
X3015Y617156D01*
X2844Y616985D01*
X2677Y616810D01*
X2515Y616631D01*
X2357Y616448D01*
X2203Y616262D01*
X2054Y616072D01*
X1910Y615878D01*
X1770Y615681D01*
X1635Y615480D01*
X1505Y615276D01*
X1380Y615070D01*
X1260Y614860D01*
X1145Y614647D01*
X1036Y614432D01*
X931Y614214D01*
X832Y613994D01*
X738Y613771D01*
X650Y613546D01*
X567Y613319D01*
X489Y613090D01*
X418Y612859D01*
X351Y612627D01*
X291Y612393D01*
X236Y612158D01*
X186Y611921D01*
X143Y611684D01*
X105Y611445D01*
X73Y611205D01*
X47Y610965D01*
X26Y610724D01*
X12Y610483D01*
X3Y610242D01*
X0Y610000D01*
X0Y10000D01*
X3Y9758D01*
X12Y9517D01*
X26Y9276D01*
X47Y9035D01*
X73Y8795D01*
X105Y8555D01*
X143Y8316D01*
X186Y8079D01*
X236Y7842D01*
X291Y7607D01*
X351Y7373D01*
X418Y7141D01*
X489Y6910D01*
X567Y6681D01*
X650Y6454D01*
X738Y6229D01*
X832Y6006D01*
X931Y5786D01*
X1036Y5568D01*
X1145Y5353D01*
X1260Y5140D01*
X1380Y4930D01*
X1505Y4724D01*
X1635Y4520D01*
X1770Y4319D01*
X1910Y4122D01*
X2054Y3928D01*
X2203Y3738D01*
X2357Y3552D01*
X2515Y3369D01*
X2677Y3190D01*
X2844Y3015D01*
X3015Y2844D01*
X3190Y2677D01*
X3369Y2515D01*
X3552Y2357D01*
X3738Y2203D01*
X3928Y2054D01*
X4122Y1910D01*
X4319Y1770D01*
X4520Y1635D01*
X4724Y1505D01*
X4930Y1380D01*
X5140Y1260D01*
X5353Y1145D01*
X5568Y1036D01*
X5786Y931D01*
X6006Y832D01*
X6229Y738D01*
X6454Y650D01*
X6681Y567D01*
X6910Y489D01*
X7141Y418D01*
X7373Y351D01*
X7607Y291D01*
X7842Y236D01*
X8079Y186D01*
X8316Y143D01*
X8555Y105D01*
X8795Y73D01*
X9035Y47D01*
X9276Y26D01*
X9517Y12D01*
X9758Y3D01*
X10000Y0D01*
D11*
X82032Y562032D02*
X82032Y608768D01*
X97611Y582804D01*
X113189Y608768D01*
X113189Y562032D01*
X127808Y562032D02*
X127808Y608768D01*
X140791Y608768D01*
X141105Y608764D01*
X141418Y608753D01*
X141731Y608734D01*
X142044Y608707D01*
X142356Y608673D01*
X142667Y608632D01*
X142977Y608583D01*
X143285Y608526D01*
X143592Y608462D01*
X143898Y608391D01*
X144201Y608312D01*
X144503Y608226D01*
X144803Y608133D01*
X145100Y608032D01*
X145394Y607924D01*
X145686Y607810D01*
X145976Y607688D01*
X146262Y607559D01*
X146545Y607423D01*
X146824Y607281D01*
X147100Y607132D01*
X147372Y606976D01*
X147641Y606814D01*
X147905Y606645D01*
X148166Y606470D01*
X148422Y606289D01*
X148673Y606101D01*
X148920Y605908D01*
X149162Y605708D01*
X149400Y605503D01*
X149632Y605292D01*
X149859Y605076D01*
X150081Y604854D01*
X150297Y604627D01*
X150508Y604395D01*
X150713Y604157D01*
X150913Y603915D01*
X151106Y603668D01*
X151294Y603417D01*
X151475Y603161D01*
X151650Y602900D01*
X151819Y602636D01*
X151981Y602367D01*
X152137Y602095D01*
X152286Y601819D01*
X152428Y601539D01*
X152564Y601257D01*
X152693Y600971D01*
X152815Y600681D01*
X152929Y600389D01*
X153037Y600095D01*
X153138Y599798D01*
X153231Y599498D01*
X153317Y599196D01*
X153396Y598893D01*
X153467Y598587D01*
X153531Y598280D01*
X153588Y597972D01*
X153637Y597662D01*
X153678Y597351D01*
X153712Y597039D01*
X153739Y596726D01*
X153758Y596413D01*
X153769Y596100D01*
X153773Y595786D01*
X153773Y575014D01*
X153769Y574695D01*
X153757Y574377D01*
X153738Y574059D01*
X153710Y573742D01*
X153675Y573425D01*
X153632Y573109D01*
X153582Y572795D01*
X153524Y572481D01*
X153458Y572170D01*
X153384Y571860D01*
X153303Y571552D01*
X153214Y571246D01*
X153118Y570942D01*
X153014Y570641D01*
X152903Y570342D01*
X152785Y570046D01*
X152659Y569753D01*
X152527Y569463D01*
X152387Y569177D01*
X152240Y568894D01*
X152086Y568615D01*
X151926Y568340D01*
X151759Y568069D01*
X151585Y567802D01*
X151405Y567539D01*
X151218Y567281D01*
X151025Y567027D01*
X150826Y566778D01*
X150621Y566535D01*
X150410Y566296D01*
X150193Y566062D01*
X149971Y565834D01*
X149743Y565612D01*
X149509Y565395D01*
X149271Y565184D01*
X149027Y564979D01*
X148778Y564780D01*
X148524Y564587D01*
X148266Y564400D01*
X148003Y564220D01*
X147736Y564046D01*
X147465Y563879D01*
X147190Y563719D01*
X146911Y563565D01*
X146628Y563418D01*
X146342Y563278D01*
X146052Y563146D01*
X145759Y563020D01*
X145463Y562902D01*
X145165Y562791D01*
X144863Y562687D01*
X144559Y562591D01*
X144253Y562502D01*
X143945Y562421D01*
X143635Y562347D01*
X143324Y562281D01*
X143010Y562223D01*
X142696Y562173D01*
X142380Y562130D01*
X142063Y562095D01*
X141746Y562067D01*
X141428Y562048D01*
X141110Y562036D01*
X140791Y562032D01*
X127808Y562032D01*
X167122Y580207D02*
X198279Y580207D01*
X210358Y603575D02*
X210358Y608768D01*
X236323Y608768D01*
X223341Y562032D01*
X248458Y603575D02*
X248458Y608768D01*
X274423Y608768D01*
X261441Y562032D01*
X286558Y562032D02*
X302137Y562032D01*
X302388Y562035D01*
X302639Y562044D01*
X302889Y562059D01*
X303139Y562080D01*
X303389Y562108D01*
X303638Y562141D01*
X303886Y562180D01*
X304132Y562225D01*
X304378Y562277D01*
X304623Y562334D01*
X304865Y562397D01*
X305107Y562466D01*
X305346Y562540D01*
X305584Y562621D01*
X305820Y562707D01*
X306054Y562799D01*
X306285Y562896D01*
X306514Y562999D01*
X306740Y563108D01*
X306964Y563222D01*
X307184Y563341D01*
X307402Y563466D01*
X307617Y563595D01*
X307829Y563730D01*
X308037Y563870D01*
X308242Y564016D01*
X308443Y564166D01*
X308641Y564320D01*
X308834Y564480D01*
X309024Y564644D01*
X309210Y564813D01*
X309392Y564986D01*
X309569Y565163D01*
X309742Y565345D01*
X309911Y565531D01*
X310075Y565721D01*
X310235Y565914D01*
X310389Y566112D01*
X310539Y566313D01*
X310685Y566518D01*
X310825Y566726D01*
X310960Y566938D01*
X311089Y567153D01*
X311214Y567371D01*
X311333Y567591D01*
X311447Y567815D01*
X311556Y568041D01*
X311659Y568270D01*
X311756Y568501D01*
X311848Y568735D01*
X311934Y568971D01*
X312015Y569209D01*
X312089Y569448D01*
X312158Y569690D01*
X312221Y569932D01*
X312278Y570177D01*
X312330Y570423D01*
X312375Y570669D01*
X312414Y570917D01*
X312447Y571166D01*
X312475Y571416D01*
X312496Y571666D01*
X312511Y571916D01*
X312520Y572167D01*
X312523Y572418D01*
X312523Y577611D01*
X312520Y577862D01*
X312511Y578113D01*
X312496Y578363D01*
X312475Y578613D01*
X312447Y578863D01*
X312414Y579112D01*
X312375Y579360D01*
X312330Y579606D01*
X312278Y579852D01*
X312221Y580097D01*
X312158Y580339D01*
X312089Y580581D01*
X312015Y580820D01*
X311934Y581058D01*
X311848Y581294D01*
X311756Y581528D01*
X311659Y581759D01*
X311556Y581988D01*
X311447Y582214D01*
X311333Y582438D01*
X311214Y582658D01*
X311089Y582876D01*
X310960Y583091D01*
X310825Y583303D01*
X310685Y583511D01*
X310539Y583716D01*
X310389Y583917D01*
X310235Y584115D01*
X310075Y584308D01*
X309911Y584498D01*
X309742Y584684D01*
X309569Y584866D01*
X309392Y585043D01*
X309210Y585216D01*
X309024Y585385D01*
X308834Y585549D01*
X308641Y585709D01*
X308443Y585863D01*
X308242Y586013D01*
X308037Y586159D01*
X307829Y586299D01*
X307617Y586434D01*
X307402Y586563D01*
X307184Y586688D01*
X306964Y586807D01*
X306740Y586921D01*
X306514Y587030D01*
X306285Y587133D01*
X306054Y587230D01*
X305820Y587322D01*
X305584Y587408D01*
X305346Y587489D01*
X305107Y587563D01*
X304865Y587632D01*
X304623Y587695D01*
X304378Y587752D01*
X304132Y587804D01*
X303886Y587849D01*
X303638Y587888D01*
X303389Y587921D01*
X303139Y587949D01*
X302889Y587970D01*
X302639Y587985D01*
X302388Y587994D01*
X302137Y587997D01*
X302137Y587996D02*
X286558Y587996D01*
X286558Y608768D01*
X312523Y608768D01*
D12*
X322289Y359958D02*
X324886Y359958D01*
X322289Y359958D02*
X322190Y359960D01*
X322090Y359966D01*
X321991Y359975D01*
X321893Y359988D01*
X321795Y360005D01*
X321697Y360026D01*
X321601Y360051D01*
X321506Y360079D01*
X321412Y360111D01*
X321319Y360146D01*
X321227Y360185D01*
X321137Y360228D01*
X321049Y360273D01*
X320962Y360323D01*
X320878Y360375D01*
X320795Y360431D01*
X320715Y360489D01*
X320637Y360551D01*
X320562Y360616D01*
X320489Y360684D01*
X320419Y360754D01*
X320351Y360827D01*
X320286Y360902D01*
X320224Y360980D01*
X320166Y361060D01*
X320110Y361143D01*
X320058Y361227D01*
X320008Y361314D01*
X319963Y361402D01*
X319920Y361492D01*
X319881Y361584D01*
X319846Y361677D01*
X319814Y361771D01*
X319786Y361866D01*
X319761Y361962D01*
X319740Y362060D01*
X319723Y362158D01*
X319710Y362256D01*
X319701Y362355D01*
X319695Y362455D01*
X319693Y362554D01*
X319693Y369046D01*
X319695Y369145D01*
X319701Y369245D01*
X319710Y369344D01*
X319723Y369442D01*
X319740Y369540D01*
X319761Y369638D01*
X319786Y369734D01*
X319814Y369829D01*
X319846Y369923D01*
X319881Y370016D01*
X319920Y370108D01*
X319963Y370198D01*
X320008Y370286D01*
X320058Y370373D01*
X320110Y370457D01*
X320166Y370540D01*
X320224Y370620D01*
X320286Y370698D01*
X320351Y370773D01*
X320419Y370846D01*
X320489Y370916D01*
X320562Y370984D01*
X320637Y371049D01*
X320715Y371111D01*
X320795Y371169D01*
X320878Y371225D01*
X320962Y371277D01*
X321049Y371327D01*
X321137Y371372D01*
X321227Y371415D01*
X321319Y371454D01*
X321411Y371489D01*
X321506Y371521D01*
X321601Y371549D01*
X321697Y371574D01*
X321795Y371595D01*
X321893Y371612D01*
X321991Y371625D01*
X322090Y371634D01*
X322190Y371640D01*
X322289Y371642D01*
X324886Y371642D01*
X329251Y359958D02*
X332496Y359958D01*
X332609Y359960D01*
X332722Y359966D01*
X332835Y359976D01*
X332948Y359990D01*
X333060Y360007D01*
X333171Y360029D01*
X333281Y360054D01*
X333391Y360084D01*
X333499Y360117D01*
X333606Y360154D01*
X333712Y360194D01*
X333816Y360239D01*
X333919Y360287D01*
X334020Y360338D01*
X334119Y360393D01*
X334216Y360451D01*
X334311Y360513D01*
X334404Y360578D01*
X334494Y360646D01*
X334582Y360717D01*
X334668Y360792D01*
X334751Y360869D01*
X334831Y360949D01*
X334908Y361032D01*
X334983Y361118D01*
X335054Y361206D01*
X335122Y361296D01*
X335187Y361389D01*
X335249Y361484D01*
X335307Y361581D01*
X335362Y361680D01*
X335413Y361781D01*
X335461Y361884D01*
X335506Y361988D01*
X335546Y362094D01*
X335583Y362201D01*
X335616Y362309D01*
X335646Y362419D01*
X335671Y362529D01*
X335693Y362640D01*
X335710Y362752D01*
X335724Y362865D01*
X335734Y362978D01*
X335740Y363091D01*
X335742Y363204D01*
X335740Y363317D01*
X335734Y363430D01*
X335724Y363543D01*
X335710Y363656D01*
X335693Y363768D01*
X335671Y363879D01*
X335646Y363989D01*
X335616Y364099D01*
X335583Y364207D01*
X335546Y364314D01*
X335506Y364420D01*
X335461Y364524D01*
X335413Y364627D01*
X335362Y364728D01*
X335307Y364827D01*
X335249Y364924D01*
X335187Y365019D01*
X335122Y365112D01*
X335054Y365202D01*
X334983Y365290D01*
X334908Y365376D01*
X334831Y365459D01*
X334751Y365539D01*
X334668Y365616D01*
X334582Y365691D01*
X334494Y365762D01*
X334404Y365830D01*
X334311Y365895D01*
X334216Y365957D01*
X334119Y366015D01*
X334020Y366070D01*
X333919Y366121D01*
X333816Y366169D01*
X333712Y366214D01*
X333606Y366254D01*
X333499Y366291D01*
X333391Y366324D01*
X333281Y366354D01*
X333171Y366379D01*
X333060Y366401D01*
X332948Y366418D01*
X332835Y366432D01*
X332722Y366442D01*
X332609Y366448D01*
X332496Y366450D01*
X333146Y371642D02*
X329251Y371642D01*
X333146Y371642D02*
X333247Y371640D01*
X333347Y371634D01*
X333447Y371624D01*
X333547Y371611D01*
X333646Y371593D01*
X333745Y371572D01*
X333842Y371547D01*
X333939Y371518D01*
X334034Y371485D01*
X334128Y371449D01*
X334220Y371409D01*
X334311Y371366D01*
X334400Y371319D01*
X334487Y371269D01*
X334573Y371215D01*
X334656Y371158D01*
X334736Y371098D01*
X334815Y371035D01*
X334891Y370968D01*
X334964Y370899D01*
X335034Y370827D01*
X335102Y370753D01*
X335167Y370676D01*
X335228Y370596D01*
X335287Y370514D01*
X335342Y370430D01*
X335394Y370344D01*
X335443Y370256D01*
X335488Y370166D01*
X335530Y370074D01*
X335568Y369981D01*
X335602Y369886D01*
X335633Y369791D01*
X335660Y369694D01*
X335683Y369596D01*
X335703Y369497D01*
X335718Y369397D01*
X335730Y369297D01*
X335738Y369197D01*
X335742Y369096D01*
X335742Y368996D01*
X335738Y368895D01*
X335730Y368795D01*
X335718Y368695D01*
X335703Y368595D01*
X335683Y368496D01*
X335660Y368398D01*
X335633Y368301D01*
X335602Y368206D01*
X335568Y368111D01*
X335530Y368018D01*
X335488Y367926D01*
X335443Y367836D01*
X335394Y367748D01*
X335342Y367662D01*
X335287Y367578D01*
X335228Y367496D01*
X335167Y367416D01*
X335102Y367339D01*
X335034Y367265D01*
X334964Y367193D01*
X334891Y367124D01*
X334815Y367057D01*
X334736Y366994D01*
X334656Y366934D01*
X334573Y366877D01*
X334487Y366823D01*
X334400Y366773D01*
X334311Y366726D01*
X334220Y366683D01*
X334128Y366643D01*
X334034Y366607D01*
X333939Y366574D01*
X333842Y366545D01*
X333745Y366520D01*
X333646Y366499D01*
X333547Y366481D01*
X333447Y366468D01*
X333347Y366458D01*
X333247Y366452D01*
X333146Y366450D01*
X333146Y366449D02*
X330549Y366449D01*
X308651Y208358D02*
X306054Y208358D01*
X305955Y208360D01*
X305855Y208366D01*
X305756Y208375D01*
X305658Y208388D01*
X305560Y208405D01*
X305462Y208426D01*
X305366Y208451D01*
X305271Y208479D01*
X305177Y208511D01*
X305084Y208546D01*
X304992Y208585D01*
X304902Y208628D01*
X304814Y208673D01*
X304727Y208723D01*
X304643Y208775D01*
X304560Y208831D01*
X304480Y208889D01*
X304402Y208951D01*
X304327Y209016D01*
X304254Y209084D01*
X304184Y209154D01*
X304116Y209227D01*
X304051Y209302D01*
X303989Y209380D01*
X303931Y209460D01*
X303875Y209543D01*
X303823Y209627D01*
X303773Y209714D01*
X303728Y209802D01*
X303685Y209892D01*
X303646Y209984D01*
X303611Y210077D01*
X303579Y210171D01*
X303551Y210266D01*
X303526Y210362D01*
X303505Y210460D01*
X303488Y210558D01*
X303475Y210656D01*
X303466Y210755D01*
X303460Y210855D01*
X303458Y210954D01*
X303458Y217446D01*
X303460Y217545D01*
X303466Y217645D01*
X303475Y217744D01*
X303488Y217842D01*
X303505Y217940D01*
X303526Y218038D01*
X303551Y218134D01*
X303579Y218229D01*
X303611Y218323D01*
X303646Y218416D01*
X303685Y218508D01*
X303728Y218598D01*
X303773Y218686D01*
X303823Y218773D01*
X303875Y218857D01*
X303931Y218940D01*
X303989Y219020D01*
X304051Y219098D01*
X304116Y219173D01*
X304184Y219246D01*
X304254Y219316D01*
X304327Y219384D01*
X304402Y219449D01*
X304480Y219511D01*
X304560Y219569D01*
X304643Y219625D01*
X304727Y219677D01*
X304814Y219727D01*
X304902Y219772D01*
X304992Y219815D01*
X305084Y219854D01*
X305176Y219889D01*
X305271Y219921D01*
X305366Y219949D01*
X305462Y219974D01*
X305560Y219995D01*
X305658Y220012D01*
X305756Y220025D01*
X305855Y220034D01*
X305955Y220040D01*
X306054Y220042D01*
X308651Y220042D01*
X313016Y220042D02*
X313016Y218744D01*
X313016Y220042D02*
X319507Y220042D01*
X316262Y208358D01*
D13*
X230200Y25920D02*
X204800Y25920D01*
X204800Y520D01*
X230200Y520D01*
X230200Y25920D01*
D14*
X217500Y-5830D02*
X217500Y-62980D01*
D13*
X204800Y25920D02*
X179400Y25920D01*
X179400Y520D01*
X204800Y520D01*
D14*
X192100Y-5830D02*
X192100Y-62980D01*
D13*
X179400Y25920D02*
X154000Y25920D01*
X154000Y520D01*
X179400Y520D01*
D14*
X166700Y-5830D02*
X166700Y-62980D01*
D13*
X154000Y25920D02*
X128600Y25920D01*
X128600Y520D01*
X154000Y520D01*
D14*
X141300Y-5830D02*
X141300Y-62980D01*
D15*
X217500Y-2020D03*
X192100Y-2020D03*
X166700Y-2020D03*
X141300Y-2020D03*
D16*
X217500Y31000D03*
X192100Y31000D03*
D17*
X217500Y57670D03*
X192100Y57670D03*
D16*
X166700Y31000D03*
X141300Y31000D03*
D17*
X166700Y57670D03*
X141300Y57670D03*
D18*
X237185Y21146D02*
X246075Y21146D01*
X246175Y21144D01*
X246274Y21138D01*
X246374Y21128D01*
X246472Y21115D01*
X246571Y21097D01*
X246668Y21076D01*
X246764Y21051D01*
X246860Y21022D01*
X246954Y20989D01*
X247047Y20953D01*
X247138Y20913D01*
X247228Y20869D01*
X247316Y20822D01*
X247402Y20772D01*
X247486Y20718D01*
X247568Y20661D01*
X247647Y20601D01*
X247725Y20537D01*
X247799Y20471D01*
X247871Y20402D01*
X247940Y20330D01*
X248006Y20256D01*
X248070Y20178D01*
X248130Y20099D01*
X248187Y20017D01*
X248241Y19933D01*
X248291Y19847D01*
X248338Y19759D01*
X248382Y19669D01*
X248422Y19578D01*
X248458Y19485D01*
X248491Y19391D01*
X248520Y19295D01*
X248545Y19199D01*
X248566Y19102D01*
X248584Y19003D01*
X248597Y18905D01*
X248607Y18805D01*
X248613Y18706D01*
X248615Y18606D01*
X248615Y17336D01*
X248615Y27127D02*
X237185Y27127D01*
X237185Y30302D01*
X237187Y30413D01*
X237193Y30523D01*
X237202Y30634D01*
X237216Y30744D01*
X237233Y30853D01*
X237254Y30962D01*
X237279Y31070D01*
X237308Y31177D01*
X237340Y31283D01*
X237376Y31388D01*
X237416Y31491D01*
X237459Y31593D01*
X237506Y31694D01*
X237557Y31793D01*
X237610Y31889D01*
X237667Y31984D01*
X237728Y32077D01*
X237791Y32168D01*
X237858Y32257D01*
X237928Y32343D01*
X238001Y32426D01*
X238076Y32508D01*
X238154Y32586D01*
X238236Y32661D01*
X238319Y32734D01*
X238405Y32804D01*
X238494Y32871D01*
X238585Y32934D01*
X238678Y32995D01*
X238773Y33052D01*
X238869Y33105D01*
X238968Y33156D01*
X239069Y33203D01*
X239171Y33246D01*
X239274Y33286D01*
X239379Y33322D01*
X239485Y33354D01*
X239592Y33383D01*
X239700Y33408D01*
X239809Y33429D01*
X239918Y33446D01*
X240028Y33460D01*
X240139Y33469D01*
X240249Y33475D01*
X240360Y33477D01*
X240471Y33475D01*
X240581Y33469D01*
X240692Y33460D01*
X240802Y33446D01*
X240911Y33429D01*
X241020Y33408D01*
X241128Y33383D01*
X241235Y33354D01*
X241341Y33322D01*
X241446Y33286D01*
X241549Y33246D01*
X241651Y33203D01*
X241752Y33156D01*
X241851Y33105D01*
X241948Y33052D01*
X242042Y32995D01*
X242135Y32934D01*
X242226Y32871D01*
X242315Y32804D01*
X242401Y32734D01*
X242484Y32661D01*
X242566Y32586D01*
X242644Y32508D01*
X242719Y32426D01*
X242792Y32343D01*
X242862Y32257D01*
X242929Y32168D01*
X242992Y32077D01*
X243053Y31984D01*
X243110Y31890D01*
X243163Y31793D01*
X243214Y31694D01*
X243261Y31593D01*
X243304Y31491D01*
X243344Y31388D01*
X243380Y31283D01*
X243412Y31177D01*
X243441Y31070D01*
X243466Y30962D01*
X243487Y30853D01*
X243504Y30744D01*
X243518Y30634D01*
X243527Y30523D01*
X243533Y30413D01*
X243535Y30302D01*
X243535Y27127D01*
X239725Y37985D02*
X237185Y41160D01*
X248615Y41160D01*
X248615Y37985D02*
X248615Y44335D01*
D13*
X636150Y25760D02*
X661550Y25760D01*
X636150Y25760D02*
X636150Y360D01*
X661550Y360D01*
X661550Y25760D01*
D14*
X648850Y-5990D02*
X648850Y-63140D01*
D13*
X636150Y25760D02*
X610750Y25760D01*
X610750Y360D01*
X636150Y360D01*
D14*
X623450Y-5990D02*
X623450Y-63140D01*
D13*
X610750Y25760D02*
X585350Y25760D01*
X585350Y360D01*
X610750Y360D01*
D14*
X598050Y-5990D02*
X598050Y-63140D01*
D13*
X585350Y25760D02*
X559950Y25760D01*
X559950Y360D01*
X585350Y360D01*
D14*
X572650Y-5990D02*
X572650Y-63140D01*
D13*
X559950Y25760D02*
X534550Y25760D01*
X534550Y360D01*
X559950Y360D01*
D14*
X547250Y-5990D02*
X547250Y-63140D01*
D13*
X534550Y25760D02*
X509150Y25760D01*
X509150Y360D01*
X534550Y360D01*
D14*
X521850Y-5990D02*
X521850Y-63140D01*
D13*
X509150Y25760D02*
X483750Y25760D01*
X483750Y360D01*
X509150Y360D01*
D14*
X496450Y-5990D02*
X496450Y-63140D01*
D13*
X483750Y25760D02*
X458350Y25760D01*
X458350Y360D01*
X483750Y360D01*
D14*
X471050Y-5990D02*
X471050Y-63140D01*
D13*
X458350Y25760D02*
X432950Y25760D01*
X432950Y360D01*
X458350Y360D01*
D14*
X445650Y-5990D02*
X445650Y-63140D01*
D13*
X432950Y25760D02*
X407550Y25760D01*
X407550Y360D01*
X432950Y360D01*
D14*
X420250Y-5990D02*
X420250Y-63140D01*
D13*
X407550Y25760D02*
X382150Y25760D01*
X382150Y360D01*
X407550Y360D01*
D14*
X394850Y-5990D02*
X394850Y-63140D01*
D13*
X382150Y25760D02*
X356750Y25760D01*
X356750Y360D01*
X382150Y360D01*
D14*
X369450Y-5990D02*
X369450Y-63140D01*
D13*
X356750Y25760D02*
X331350Y25760D01*
X331350Y360D01*
X356750Y360D01*
D14*
X344050Y-5990D02*
X344050Y-63140D01*
D15*
X648850Y-2180D03*
X623450Y-2180D03*
X598050Y-2180D03*
X572650Y-2180D03*
X547250Y-2180D03*
X521850Y-2180D03*
X496450Y-2180D03*
X471050Y-2180D03*
X445650Y-2180D03*
X420250Y-2180D03*
X394850Y-2180D03*
X369450Y-2180D03*
X344050Y-2180D03*
D16*
X648850Y30840D03*
X623450Y30840D03*
D17*
X648850Y57510D03*
X623450Y57510D03*
D16*
X598050Y30840D03*
X572650Y30840D03*
D17*
X598050Y57510D03*
X572650Y57510D03*
D16*
X547250Y30840D03*
X521850Y30840D03*
D17*
X547250Y57510D03*
X521850Y57510D03*
D16*
X496450Y30840D03*
X471050Y30840D03*
D17*
X496450Y57510D03*
X471050Y57510D03*
D16*
X445650Y30840D03*
X420250Y30840D03*
D17*
X445650Y57510D03*
X420250Y57510D03*
D16*
X394850Y30840D03*
X369450Y30840D03*
D17*
X394850Y57510D03*
X369450Y57510D03*
D16*
X344050Y30840D03*
D17*
X344050Y57510D03*
D18*
X668535Y20986D02*
X677425Y20986D01*
X677525Y20984D01*
X677624Y20978D01*
X677724Y20968D01*
X677822Y20955D01*
X677921Y20937D01*
X678018Y20916D01*
X678114Y20891D01*
X678210Y20862D01*
X678304Y20829D01*
X678397Y20793D01*
X678488Y20753D01*
X678578Y20709D01*
X678666Y20662D01*
X678752Y20612D01*
X678836Y20558D01*
X678918Y20501D01*
X678997Y20441D01*
X679075Y20377D01*
X679149Y20311D01*
X679221Y20242D01*
X679290Y20170D01*
X679356Y20096D01*
X679420Y20018D01*
X679480Y19939D01*
X679537Y19857D01*
X679591Y19773D01*
X679641Y19687D01*
X679688Y19599D01*
X679732Y19509D01*
X679772Y19418D01*
X679808Y19325D01*
X679841Y19231D01*
X679870Y19135D01*
X679895Y19039D01*
X679916Y18942D01*
X679934Y18843D01*
X679947Y18745D01*
X679957Y18645D01*
X679963Y18546D01*
X679965Y18446D01*
X679965Y17176D01*
X679965Y26967D02*
X668535Y26967D01*
X668535Y30142D01*
X668537Y30253D01*
X668543Y30363D01*
X668552Y30474D01*
X668566Y30584D01*
X668583Y30693D01*
X668604Y30802D01*
X668629Y30910D01*
X668658Y31017D01*
X668690Y31123D01*
X668726Y31228D01*
X668766Y31331D01*
X668809Y31433D01*
X668856Y31534D01*
X668907Y31633D01*
X668960Y31729D01*
X669017Y31824D01*
X669078Y31917D01*
X669141Y32008D01*
X669208Y32097D01*
X669278Y32183D01*
X669351Y32266D01*
X669426Y32348D01*
X669504Y32426D01*
X669586Y32501D01*
X669669Y32574D01*
X669755Y32644D01*
X669844Y32711D01*
X669935Y32774D01*
X670028Y32835D01*
X670123Y32892D01*
X670219Y32945D01*
X670318Y32996D01*
X670419Y33043D01*
X670521Y33086D01*
X670624Y33126D01*
X670729Y33162D01*
X670835Y33194D01*
X670942Y33223D01*
X671050Y33248D01*
X671159Y33269D01*
X671268Y33286D01*
X671378Y33300D01*
X671489Y33309D01*
X671599Y33315D01*
X671710Y33317D01*
X671821Y33315D01*
X671931Y33309D01*
X672042Y33300D01*
X672152Y33286D01*
X672261Y33269D01*
X672370Y33248D01*
X672478Y33223D01*
X672585Y33194D01*
X672691Y33162D01*
X672796Y33126D01*
X672899Y33086D01*
X673001Y33043D01*
X673102Y32996D01*
X673201Y32945D01*
X673298Y32892D01*
X673392Y32835D01*
X673485Y32774D01*
X673576Y32711D01*
X673665Y32644D01*
X673751Y32574D01*
X673834Y32501D01*
X673916Y32426D01*
X673994Y32348D01*
X674069Y32266D01*
X674142Y32183D01*
X674212Y32097D01*
X674279Y32008D01*
X674342Y31917D01*
X674403Y31824D01*
X674460Y31730D01*
X674513Y31633D01*
X674564Y31534D01*
X674611Y31433D01*
X674654Y31331D01*
X674694Y31228D01*
X674730Y31123D01*
X674762Y31017D01*
X674791Y30910D01*
X674816Y30802D01*
X674837Y30693D01*
X674854Y30584D01*
X674868Y30474D01*
X674877Y30363D01*
X674883Y30253D01*
X674885Y30142D01*
X674885Y26967D01*
X668535Y41318D02*
X668537Y41422D01*
X668543Y41527D01*
X668552Y41631D01*
X668565Y41734D01*
X668583Y41837D01*
X668603Y41939D01*
X668628Y42041D01*
X668656Y42141D01*
X668688Y42241D01*
X668724Y42339D01*
X668763Y42436D01*
X668805Y42531D01*
X668851Y42625D01*
X668901Y42717D01*
X668953Y42807D01*
X669009Y42895D01*
X669069Y42981D01*
X669131Y43065D01*
X669196Y43146D01*
X669264Y43225D01*
X669336Y43302D01*
X669409Y43375D01*
X669486Y43447D01*
X669565Y43515D01*
X669646Y43580D01*
X669730Y43642D01*
X669816Y43702D01*
X669904Y43758D01*
X669994Y43810D01*
X670086Y43860D01*
X670180Y43906D01*
X670275Y43948D01*
X670372Y43987D01*
X670470Y44023D01*
X670570Y44055D01*
X670670Y44083D01*
X670772Y44108D01*
X670874Y44128D01*
X670977Y44146D01*
X671080Y44159D01*
X671184Y44168D01*
X671289Y44174D01*
X671393Y44176D01*
X668535Y41318D02*
X668537Y41200D01*
X668543Y41081D01*
X668552Y40963D01*
X668565Y40846D01*
X668583Y40729D01*
X668603Y40612D01*
X668628Y40496D01*
X668656Y40381D01*
X668689Y40268D01*
X668724Y40155D01*
X668764Y40043D01*
X668806Y39933D01*
X668853Y39824D01*
X668903Y39716D01*
X668956Y39611D01*
X669013Y39507D01*
X669073Y39405D01*
X669136Y39305D01*
X669203Y39207D01*
X669272Y39111D01*
X669345Y39018D01*
X669421Y38927D01*
X669499Y38838D01*
X669581Y38752D01*
X669665Y38669D01*
X669751Y38588D01*
X669841Y38511D01*
X669932Y38436D01*
X670026Y38364D01*
X670123Y38295D01*
X670221Y38230D01*
X670322Y38167D01*
X670425Y38108D01*
X670529Y38052D01*
X670635Y38000D01*
X670743Y37951D01*
X670852Y37906D01*
X670963Y37864D01*
X671075Y37826D01*
X673615Y43223D02*
X673540Y43299D01*
X673461Y43374D01*
X673380Y43445D01*
X673296Y43514D01*
X673210Y43579D01*
X673122Y43641D01*
X673032Y43701D01*
X672940Y43757D01*
X672845Y43810D01*
X672749Y43859D01*
X672651Y43905D01*
X672552Y43948D01*
X672451Y43987D01*
X672349Y44022D01*
X672246Y44054D01*
X672142Y44082D01*
X672037Y44107D01*
X671930Y44128D01*
X671824Y44145D01*
X671717Y44158D01*
X671609Y44167D01*
X671501Y44173D01*
X671393Y44175D01*
X673615Y43223D02*
X679965Y37825D01*
X679965Y44175D01*
X375699Y563300D02*
X375699Y584399D01*
X360301Y584399D01*
X360301Y563300D01*
D12*
X382557Y552254D02*
X394241Y552254D01*
X394241Y557447D01*
X394241Y562160D02*
X394241Y567353D01*
X394241Y562160D02*
X382557Y562160D01*
X382557Y567353D01*
X387750Y566055D02*
X387750Y562160D01*
X382557Y572044D02*
X394241Y572044D01*
X382557Y572044D02*
X382557Y575289D01*
X382559Y575402D01*
X382565Y575515D01*
X382575Y575628D01*
X382589Y575741D01*
X382606Y575853D01*
X382628Y575964D01*
X382653Y576074D01*
X382683Y576184D01*
X382716Y576292D01*
X382753Y576399D01*
X382793Y576505D01*
X382838Y576609D01*
X382886Y576712D01*
X382937Y576813D01*
X382992Y576912D01*
X383050Y577009D01*
X383112Y577104D01*
X383177Y577197D01*
X383245Y577287D01*
X383316Y577375D01*
X383391Y577461D01*
X383468Y577544D01*
X383548Y577624D01*
X383631Y577701D01*
X383717Y577776D01*
X383805Y577847D01*
X383895Y577915D01*
X383988Y577980D01*
X384083Y578042D01*
X384180Y578100D01*
X384279Y578155D01*
X384380Y578206D01*
X384483Y578254D01*
X384587Y578299D01*
X384693Y578339D01*
X384800Y578376D01*
X384908Y578409D01*
X385018Y578439D01*
X385128Y578464D01*
X385239Y578486D01*
X385351Y578503D01*
X385464Y578517D01*
X385577Y578527D01*
X385690Y578533D01*
X385803Y578535D01*
X390995Y578535D01*
X391108Y578533D01*
X391221Y578527D01*
X391334Y578517D01*
X391447Y578503D01*
X391559Y578486D01*
X391670Y578464D01*
X391780Y578439D01*
X391890Y578409D01*
X391998Y578376D01*
X392105Y578339D01*
X392211Y578299D01*
X392315Y578254D01*
X392418Y578206D01*
X392519Y578155D01*
X392618Y578100D01*
X392715Y578042D01*
X392810Y577980D01*
X392903Y577915D01*
X392993Y577847D01*
X393081Y577776D01*
X393167Y577701D01*
X393250Y577624D01*
X393330Y577544D01*
X393407Y577461D01*
X393482Y577375D01*
X393553Y577287D01*
X393621Y577197D01*
X393686Y577104D01*
X393748Y577009D01*
X393806Y576912D01*
X393861Y576813D01*
X393912Y576712D01*
X393960Y576609D01*
X394005Y576505D01*
X394045Y576399D01*
X394082Y576292D01*
X394115Y576184D01*
X394145Y576074D01*
X394170Y575964D01*
X394192Y575853D01*
X394209Y575741D01*
X394223Y575628D01*
X394233Y575515D01*
X394239Y575402D01*
X394241Y575289D01*
X394241Y572044D01*
X383855Y583855D02*
X382557Y583855D01*
X382557Y590346D01*
X394241Y587100D01*
D18*
X25699Y582999D02*
X25699Y561900D01*
X25699Y582999D02*
X10301Y582999D01*
X10301Y561900D01*
D12*
X32557Y550854D02*
X44241Y550854D01*
X44241Y556047D01*
X44241Y560760D02*
X44241Y565953D01*
X44241Y560760D02*
X32557Y560760D01*
X32557Y565953D01*
X37750Y564655D02*
X37750Y560760D01*
X32557Y570644D02*
X44241Y570644D01*
X32557Y570644D02*
X32557Y573889D01*
X32559Y574002D01*
X32565Y574115D01*
X32575Y574228D01*
X32589Y574341D01*
X32606Y574453D01*
X32628Y574564D01*
X32653Y574674D01*
X32683Y574784D01*
X32716Y574892D01*
X32753Y574999D01*
X32793Y575105D01*
X32838Y575209D01*
X32886Y575312D01*
X32937Y575413D01*
X32992Y575512D01*
X33050Y575609D01*
X33112Y575704D01*
X33177Y575797D01*
X33245Y575887D01*
X33316Y575975D01*
X33391Y576061D01*
X33468Y576144D01*
X33548Y576224D01*
X33631Y576301D01*
X33717Y576376D01*
X33805Y576447D01*
X33895Y576515D01*
X33988Y576580D01*
X34083Y576642D01*
X34180Y576700D01*
X34279Y576755D01*
X34380Y576806D01*
X34483Y576854D01*
X34587Y576899D01*
X34693Y576939D01*
X34800Y576976D01*
X34908Y577009D01*
X35018Y577039D01*
X35128Y577064D01*
X35239Y577086D01*
X35351Y577103D01*
X35464Y577117D01*
X35577Y577127D01*
X35690Y577133D01*
X35803Y577135D01*
X40995Y577135D01*
X41108Y577133D01*
X41221Y577127D01*
X41334Y577117D01*
X41447Y577103D01*
X41559Y577086D01*
X41670Y577064D01*
X41780Y577039D01*
X41890Y577009D01*
X41998Y576976D01*
X42105Y576939D01*
X42211Y576899D01*
X42315Y576854D01*
X42418Y576806D01*
X42519Y576755D01*
X42618Y576700D01*
X42715Y576642D01*
X42810Y576580D01*
X42903Y576515D01*
X42993Y576447D01*
X43081Y576376D01*
X43167Y576301D01*
X43250Y576224D01*
X43330Y576144D01*
X43407Y576061D01*
X43482Y575975D01*
X43553Y575887D01*
X43621Y575797D01*
X43686Y575704D01*
X43748Y575609D01*
X43806Y575512D01*
X43861Y575413D01*
X43912Y575312D01*
X43960Y575209D01*
X44005Y575105D01*
X44045Y574999D01*
X44082Y574892D01*
X44115Y574784D01*
X44145Y574674D01*
X44170Y574564D01*
X44192Y574453D01*
X44209Y574341D01*
X44223Y574228D01*
X44233Y574115D01*
X44239Y574002D01*
X44241Y573889D01*
X44241Y570644D01*
X40995Y582454D02*
X40882Y582456D01*
X40769Y582462D01*
X40656Y582472D01*
X40543Y582486D01*
X40431Y582503D01*
X40320Y582525D01*
X40210Y582550D01*
X40100Y582580D01*
X39992Y582613D01*
X39885Y582650D01*
X39779Y582690D01*
X39675Y582735D01*
X39572Y582783D01*
X39471Y582834D01*
X39372Y582889D01*
X39275Y582947D01*
X39180Y583009D01*
X39087Y583074D01*
X38997Y583142D01*
X38909Y583213D01*
X38823Y583288D01*
X38740Y583365D01*
X38660Y583445D01*
X38583Y583528D01*
X38508Y583614D01*
X38437Y583702D01*
X38369Y583792D01*
X38304Y583885D01*
X38242Y583980D01*
X38184Y584077D01*
X38129Y584176D01*
X38078Y584277D01*
X38030Y584380D01*
X37985Y584484D01*
X37945Y584590D01*
X37908Y584697D01*
X37875Y584805D01*
X37845Y584915D01*
X37820Y585025D01*
X37798Y585136D01*
X37781Y585248D01*
X37767Y585361D01*
X37757Y585474D01*
X37751Y585587D01*
X37749Y585700D01*
X37751Y585813D01*
X37757Y585926D01*
X37767Y586039D01*
X37781Y586152D01*
X37798Y586264D01*
X37820Y586375D01*
X37845Y586485D01*
X37875Y586595D01*
X37908Y586703D01*
X37945Y586810D01*
X37985Y586916D01*
X38030Y587020D01*
X38078Y587123D01*
X38129Y587224D01*
X38184Y587323D01*
X38242Y587420D01*
X38304Y587515D01*
X38369Y587608D01*
X38437Y587698D01*
X38508Y587786D01*
X38583Y587872D01*
X38660Y587955D01*
X38740Y588035D01*
X38823Y588112D01*
X38909Y588187D01*
X38997Y588258D01*
X39087Y588326D01*
X39180Y588391D01*
X39275Y588453D01*
X39372Y588511D01*
X39471Y588566D01*
X39572Y588617D01*
X39675Y588665D01*
X39779Y588710D01*
X39885Y588750D01*
X39992Y588787D01*
X40100Y588820D01*
X40210Y588850D01*
X40320Y588875D01*
X40431Y588897D01*
X40543Y588914D01*
X40656Y588928D01*
X40769Y588938D01*
X40882Y588944D01*
X40995Y588946D01*
X41108Y588944D01*
X41221Y588938D01*
X41334Y588928D01*
X41447Y588914D01*
X41559Y588897D01*
X41670Y588875D01*
X41780Y588850D01*
X41890Y588820D01*
X41998Y588787D01*
X42105Y588750D01*
X42211Y588710D01*
X42315Y588665D01*
X42418Y588617D01*
X42519Y588566D01*
X42618Y588511D01*
X42715Y588453D01*
X42810Y588391D01*
X42903Y588326D01*
X42993Y588258D01*
X43081Y588187D01*
X43167Y588112D01*
X43250Y588035D01*
X43330Y587955D01*
X43407Y587872D01*
X43482Y587786D01*
X43553Y587698D01*
X43621Y587608D01*
X43686Y587515D01*
X43748Y587420D01*
X43806Y587323D01*
X43861Y587224D01*
X43912Y587123D01*
X43960Y587020D01*
X44005Y586916D01*
X44045Y586810D01*
X44082Y586703D01*
X44115Y586595D01*
X44145Y586485D01*
X44170Y586375D01*
X44192Y586264D01*
X44209Y586152D01*
X44223Y586039D01*
X44233Y585926D01*
X44239Y585813D01*
X44241Y585700D01*
X44239Y585587D01*
X44233Y585474D01*
X44223Y585361D01*
X44209Y585248D01*
X44192Y585136D01*
X44170Y585025D01*
X44145Y584915D01*
X44115Y584805D01*
X44082Y584697D01*
X44045Y584590D01*
X44005Y584484D01*
X43960Y584380D01*
X43912Y584277D01*
X43861Y584176D01*
X43806Y584077D01*
X43748Y583980D01*
X43686Y583885D01*
X43621Y583792D01*
X43553Y583702D01*
X43482Y583614D01*
X43407Y583528D01*
X43330Y583445D01*
X43250Y583365D01*
X43167Y583288D01*
X43081Y583213D01*
X42993Y583142D01*
X42903Y583074D01*
X42810Y583009D01*
X42715Y582947D01*
X42618Y582889D01*
X42519Y582834D01*
X42418Y582783D01*
X42315Y582735D01*
X42211Y582690D01*
X42105Y582650D01*
X41998Y582613D01*
X41890Y582580D01*
X41780Y582550D01*
X41670Y582525D01*
X41559Y582503D01*
X41447Y582486D01*
X41334Y582472D01*
X41221Y582462D01*
X41108Y582456D01*
X40995Y582454D01*
X35153Y583104D02*
X35052Y583106D01*
X34952Y583112D01*
X34852Y583122D01*
X34752Y583135D01*
X34653Y583153D01*
X34554Y583174D01*
X34457Y583199D01*
X34360Y583228D01*
X34265Y583261D01*
X34171Y583297D01*
X34079Y583337D01*
X33988Y583380D01*
X33899Y583427D01*
X33812Y583477D01*
X33726Y583531D01*
X33643Y583588D01*
X33563Y583648D01*
X33484Y583711D01*
X33408Y583778D01*
X33335Y583847D01*
X33265Y583919D01*
X33197Y583993D01*
X33132Y584070D01*
X33071Y584150D01*
X33012Y584232D01*
X32957Y584316D01*
X32905Y584402D01*
X32856Y584490D01*
X32811Y584580D01*
X32769Y584672D01*
X32731Y584765D01*
X32697Y584860D01*
X32666Y584955D01*
X32639Y585052D01*
X32616Y585150D01*
X32596Y585249D01*
X32581Y585349D01*
X32569Y585449D01*
X32561Y585549D01*
X32557Y585650D01*
X32557Y585750D01*
X32561Y585851D01*
X32569Y585951D01*
X32581Y586051D01*
X32596Y586151D01*
X32616Y586250D01*
X32639Y586348D01*
X32666Y586445D01*
X32697Y586540D01*
X32731Y586635D01*
X32769Y586728D01*
X32811Y586820D01*
X32856Y586910D01*
X32905Y586998D01*
X32957Y587084D01*
X33012Y587168D01*
X33071Y587250D01*
X33132Y587330D01*
X33197Y587407D01*
X33265Y587481D01*
X33335Y587553D01*
X33408Y587622D01*
X33484Y587689D01*
X33563Y587752D01*
X33643Y587812D01*
X33726Y587869D01*
X33812Y587923D01*
X33899Y587973D01*
X33988Y588020D01*
X34079Y588063D01*
X34171Y588103D01*
X34265Y588139D01*
X34360Y588172D01*
X34457Y588201D01*
X34554Y588226D01*
X34653Y588247D01*
X34752Y588265D01*
X34852Y588278D01*
X34952Y588288D01*
X35052Y588294D01*
X35153Y588296D01*
X35254Y588294D01*
X35354Y588288D01*
X35454Y588278D01*
X35554Y588265D01*
X35653Y588247D01*
X35752Y588226D01*
X35849Y588201D01*
X35946Y588172D01*
X36041Y588139D01*
X36135Y588103D01*
X36227Y588063D01*
X36318Y588020D01*
X36407Y587973D01*
X36494Y587923D01*
X36580Y587869D01*
X36663Y587812D01*
X36743Y587752D01*
X36822Y587689D01*
X36898Y587622D01*
X36971Y587553D01*
X37041Y587481D01*
X37109Y587407D01*
X37174Y587330D01*
X37235Y587250D01*
X37294Y587168D01*
X37349Y587084D01*
X37401Y586998D01*
X37450Y586910D01*
X37495Y586820D01*
X37537Y586728D01*
X37575Y586635D01*
X37609Y586540D01*
X37640Y586445D01*
X37667Y586348D01*
X37690Y586250D01*
X37710Y586151D01*
X37725Y586051D01*
X37737Y585951D01*
X37745Y585851D01*
X37749Y585750D01*
X37749Y585650D01*
X37745Y585549D01*
X37737Y585449D01*
X37725Y585349D01*
X37710Y585249D01*
X37690Y585150D01*
X37667Y585052D01*
X37640Y584955D01*
X37609Y584860D01*
X37575Y584765D01*
X37537Y584672D01*
X37495Y584580D01*
X37450Y584490D01*
X37401Y584402D01*
X37349Y584316D01*
X37294Y584232D01*
X37235Y584150D01*
X37174Y584070D01*
X37109Y583993D01*
X37041Y583919D01*
X36971Y583847D01*
X36898Y583778D01*
X36822Y583711D01*
X36743Y583648D01*
X36663Y583588D01*
X36580Y583531D01*
X36494Y583477D01*
X36407Y583427D01*
X36318Y583380D01*
X36227Y583337D01*
X36135Y583297D01*
X36041Y583261D01*
X35946Y583228D01*
X35849Y583199D01*
X35752Y583174D01*
X35653Y583153D01*
X35554Y583135D01*
X35454Y583122D01*
X35354Y583112D01*
X35254Y583106D01*
X35153Y583104D01*
X98395Y38142D02*
X98395Y26458D01*
X98395Y38142D02*
X101640Y38142D01*
X101753Y38140D01*
X101866Y38134D01*
X101979Y38124D01*
X102092Y38110D01*
X102204Y38093D01*
X102315Y38071D01*
X102425Y38046D01*
X102535Y38016D01*
X102643Y37983D01*
X102750Y37946D01*
X102856Y37906D01*
X102960Y37861D01*
X103063Y37813D01*
X103164Y37762D01*
X103263Y37707D01*
X103360Y37649D01*
X103455Y37587D01*
X103548Y37522D01*
X103638Y37454D01*
X103726Y37383D01*
X103812Y37308D01*
X103895Y37231D01*
X103975Y37151D01*
X104052Y37068D01*
X104127Y36982D01*
X104198Y36894D01*
X104266Y36804D01*
X104331Y36711D01*
X104393Y36616D01*
X104451Y36519D01*
X104506Y36420D01*
X104557Y36319D01*
X104605Y36216D01*
X104650Y36112D01*
X104690Y36006D01*
X104727Y35899D01*
X104760Y35791D01*
X104790Y35681D01*
X104815Y35571D01*
X104837Y35460D01*
X104854Y35348D01*
X104868Y35235D01*
X104878Y35122D01*
X104884Y35009D01*
X104886Y34896D01*
X104884Y34783D01*
X104878Y34670D01*
X104868Y34557D01*
X104854Y34444D01*
X104837Y34332D01*
X104815Y34221D01*
X104790Y34111D01*
X104760Y34001D01*
X104727Y33893D01*
X104690Y33786D01*
X104650Y33680D01*
X104605Y33576D01*
X104557Y33473D01*
X104506Y33372D01*
X104451Y33273D01*
X104393Y33176D01*
X104331Y33081D01*
X104266Y32988D01*
X104198Y32898D01*
X104127Y32810D01*
X104052Y32724D01*
X103975Y32641D01*
X103895Y32561D01*
X103812Y32484D01*
X103726Y32409D01*
X103638Y32338D01*
X103548Y32270D01*
X103455Y32205D01*
X103360Y32143D01*
X103263Y32085D01*
X103164Y32030D01*
X103063Y31979D01*
X102960Y31931D01*
X102856Y31886D01*
X102750Y31846D01*
X102643Y31809D01*
X102535Y31776D01*
X102425Y31746D01*
X102315Y31721D01*
X102204Y31699D01*
X102092Y31682D01*
X101979Y31668D01*
X101866Y31658D01*
X101753Y31652D01*
X101640Y31650D01*
X101640Y31651D02*
X98395Y31651D01*
X102289Y31651D02*
X104886Y26458D01*
X116242Y35221D02*
X116240Y35328D01*
X116234Y35434D01*
X116224Y35540D01*
X116211Y35646D01*
X116193Y35752D01*
X116172Y35856D01*
X116147Y35960D01*
X116118Y36063D01*
X116086Y36164D01*
X116049Y36264D01*
X116009Y36363D01*
X115966Y36461D01*
X115919Y36557D01*
X115868Y36651D01*
X115814Y36743D01*
X115757Y36833D01*
X115697Y36921D01*
X115633Y37006D01*
X115566Y37089D01*
X115496Y37170D01*
X115424Y37248D01*
X115348Y37324D01*
X115270Y37396D01*
X115189Y37466D01*
X115106Y37533D01*
X115021Y37597D01*
X114933Y37657D01*
X114843Y37714D01*
X114751Y37768D01*
X114657Y37819D01*
X114561Y37866D01*
X114463Y37909D01*
X114364Y37949D01*
X114264Y37986D01*
X114163Y38018D01*
X114060Y38047D01*
X113956Y38072D01*
X113852Y38093D01*
X113746Y38111D01*
X113640Y38124D01*
X113534Y38134D01*
X113428Y38140D01*
X113321Y38142D01*
X113200Y38140D01*
X113079Y38134D01*
X112959Y38124D01*
X112838Y38111D01*
X112719Y38093D01*
X112599Y38072D01*
X112481Y38047D01*
X112364Y38018D01*
X112247Y37985D01*
X112132Y37949D01*
X112018Y37908D01*
X111905Y37865D01*
X111793Y37817D01*
X111684Y37766D01*
X111576Y37711D01*
X111469Y37653D01*
X111365Y37592D01*
X111263Y37527D01*
X111163Y37459D01*
X111065Y37388D01*
X110969Y37314D01*
X110876Y37237D01*
X110786Y37156D01*
X110698Y37073D01*
X110613Y36987D01*
X110530Y36898D01*
X110451Y36807D01*
X110374Y36713D01*
X110301Y36617D01*
X110231Y36519D01*
X110164Y36418D01*
X110100Y36315D01*
X110040Y36210D01*
X109983Y36103D01*
X109929Y35995D01*
X109879Y35885D01*
X109833Y35773D01*
X109790Y35660D01*
X109751Y35545D01*
X115269Y32949D02*
X115348Y33026D01*
X115424Y33107D01*
X115497Y33190D01*
X115567Y33275D01*
X115634Y33363D01*
X115698Y33453D01*
X115758Y33545D01*
X115815Y33640D01*
X115869Y33736D01*
X115920Y33834D01*
X115967Y33934D01*
X116011Y34036D01*
X116051Y34139D01*
X116087Y34243D01*
X116119Y34349D01*
X116148Y34455D01*
X116173Y34563D01*
X116195Y34671D01*
X116212Y34781D01*
X116226Y34890D01*
X116235Y35000D01*
X116241Y35111D01*
X116243Y35221D01*
X115268Y32949D02*
X109751Y26458D01*
X116242Y26458D01*
X374258Y441858D02*
X374258Y453542D01*
X377504Y453542D01*
X377617Y453540D01*
X377730Y453534D01*
X377843Y453524D01*
X377956Y453510D01*
X378068Y453493D01*
X378179Y453471D01*
X378289Y453446D01*
X378399Y453416D01*
X378507Y453383D01*
X378614Y453346D01*
X378720Y453306D01*
X378824Y453261D01*
X378927Y453213D01*
X379028Y453162D01*
X379127Y453107D01*
X379224Y453049D01*
X379319Y452987D01*
X379412Y452922D01*
X379502Y452854D01*
X379590Y452783D01*
X379676Y452708D01*
X379759Y452631D01*
X379839Y452551D01*
X379916Y452468D01*
X379991Y452382D01*
X380062Y452294D01*
X380130Y452204D01*
X380195Y452111D01*
X380257Y452016D01*
X380315Y451919D01*
X380370Y451820D01*
X380421Y451719D01*
X380469Y451616D01*
X380514Y451512D01*
X380554Y451406D01*
X380591Y451299D01*
X380624Y451191D01*
X380654Y451081D01*
X380679Y450971D01*
X380701Y450860D01*
X380718Y450748D01*
X380732Y450635D01*
X380742Y450522D01*
X380748Y450409D01*
X380750Y450296D01*
X380748Y450183D01*
X380742Y450070D01*
X380732Y449957D01*
X380718Y449844D01*
X380701Y449732D01*
X380679Y449621D01*
X380654Y449511D01*
X380624Y449401D01*
X380591Y449293D01*
X380554Y449186D01*
X380514Y449080D01*
X380469Y448976D01*
X380421Y448873D01*
X380370Y448772D01*
X380315Y448673D01*
X380257Y448576D01*
X380195Y448481D01*
X380130Y448388D01*
X380062Y448298D01*
X379991Y448210D01*
X379916Y448124D01*
X379839Y448041D01*
X379759Y447961D01*
X379676Y447884D01*
X379590Y447809D01*
X379502Y447738D01*
X379412Y447670D01*
X379319Y447605D01*
X379224Y447543D01*
X379127Y447485D01*
X379028Y447430D01*
X378927Y447379D01*
X378824Y447331D01*
X378720Y447286D01*
X378614Y447246D01*
X378507Y447209D01*
X378399Y447176D01*
X378289Y447146D01*
X378179Y447121D01*
X378068Y447099D01*
X377956Y447082D01*
X377843Y447068D01*
X377730Y447058D01*
X377617Y447052D01*
X377504Y447050D01*
X377504Y447051D02*
X374258Y447051D01*
X378153Y447051D02*
X380749Y441858D01*
X388211Y447051D02*
X392105Y447051D01*
X388211Y447051D02*
X388112Y447053D01*
X388012Y447059D01*
X387913Y447068D01*
X387815Y447081D01*
X387717Y447098D01*
X387619Y447119D01*
X387523Y447144D01*
X387428Y447172D01*
X387334Y447204D01*
X387241Y447239D01*
X387149Y447278D01*
X387059Y447321D01*
X386971Y447366D01*
X386884Y447416D01*
X386800Y447468D01*
X386717Y447524D01*
X386637Y447582D01*
X386559Y447644D01*
X386484Y447709D01*
X386411Y447777D01*
X386341Y447847D01*
X386273Y447920D01*
X386208Y447995D01*
X386146Y448073D01*
X386088Y448153D01*
X386032Y448236D01*
X385980Y448320D01*
X385930Y448407D01*
X385885Y448495D01*
X385842Y448585D01*
X385803Y448677D01*
X385768Y448770D01*
X385736Y448864D01*
X385708Y448959D01*
X385683Y449055D01*
X385662Y449153D01*
X385645Y449251D01*
X385632Y449349D01*
X385623Y449448D01*
X385617Y449548D01*
X385615Y449647D01*
X385614Y449647D02*
X385614Y450296D01*
X385616Y450409D01*
X385622Y450522D01*
X385632Y450635D01*
X385646Y450748D01*
X385663Y450860D01*
X385685Y450971D01*
X385710Y451081D01*
X385740Y451191D01*
X385773Y451299D01*
X385810Y451406D01*
X385850Y451512D01*
X385895Y451616D01*
X385943Y451719D01*
X385994Y451820D01*
X386049Y451919D01*
X386107Y452016D01*
X386169Y452111D01*
X386234Y452204D01*
X386302Y452294D01*
X386373Y452382D01*
X386448Y452468D01*
X386525Y452551D01*
X386605Y452631D01*
X386688Y452708D01*
X386774Y452783D01*
X386862Y452854D01*
X386952Y452922D01*
X387045Y452987D01*
X387140Y453049D01*
X387237Y453107D01*
X387336Y453162D01*
X387437Y453213D01*
X387540Y453261D01*
X387644Y453306D01*
X387750Y453346D01*
X387857Y453383D01*
X387965Y453416D01*
X388075Y453446D01*
X388185Y453471D01*
X388296Y453493D01*
X388408Y453510D01*
X388521Y453524D01*
X388634Y453534D01*
X388747Y453540D01*
X388860Y453542D01*
X388973Y453540D01*
X389086Y453534D01*
X389199Y453524D01*
X389312Y453510D01*
X389424Y453493D01*
X389535Y453471D01*
X389645Y453446D01*
X389755Y453416D01*
X389863Y453383D01*
X389970Y453346D01*
X390076Y453306D01*
X390180Y453261D01*
X390283Y453213D01*
X390384Y453162D01*
X390483Y453107D01*
X390580Y453049D01*
X390675Y452987D01*
X390768Y452922D01*
X390858Y452854D01*
X390946Y452783D01*
X391032Y452708D01*
X391115Y452631D01*
X391195Y452551D01*
X391272Y452468D01*
X391347Y452382D01*
X391418Y452294D01*
X391486Y452204D01*
X391551Y452111D01*
X391613Y452016D01*
X391671Y451919D01*
X391726Y451820D01*
X391777Y451719D01*
X391825Y451616D01*
X391870Y451512D01*
X391910Y451406D01*
X391947Y451299D01*
X391980Y451191D01*
X392010Y451081D01*
X392035Y450971D01*
X392057Y450860D01*
X392074Y450748D01*
X392088Y450635D01*
X392098Y450522D01*
X392104Y450409D01*
X392106Y450296D01*
X392105Y450296D02*
X392105Y447051D01*
X392106Y447051D02*
X392104Y446908D01*
X392098Y446765D01*
X392088Y446622D01*
X392074Y446480D01*
X392057Y446338D01*
X392035Y446196D01*
X392010Y446055D01*
X391980Y445915D01*
X391947Y445776D01*
X391910Y445638D01*
X391869Y445501D01*
X391825Y445365D01*
X391776Y445230D01*
X391724Y445097D01*
X391669Y444965D01*
X391609Y444835D01*
X391546Y444706D01*
X391480Y444579D01*
X391410Y444454D01*
X391337Y444332D01*
X391260Y444211D01*
X391180Y444092D01*
X391097Y443976D01*
X391011Y443861D01*
X390922Y443750D01*
X390829Y443640D01*
X390734Y443534D01*
X390635Y443430D01*
X390534Y443329D01*
X390430Y443230D01*
X390324Y443135D01*
X390214Y443042D01*
X390103Y442953D01*
X389988Y442867D01*
X389872Y442784D01*
X389753Y442704D01*
X389632Y442627D01*
X389510Y442554D01*
X389385Y442484D01*
X389258Y442418D01*
X389129Y442355D01*
X388999Y442295D01*
X388867Y442240D01*
X388734Y442188D01*
X388599Y442139D01*
X388463Y442095D01*
X388326Y442054D01*
X388188Y442017D01*
X388049Y441984D01*
X387909Y441954D01*
X387768Y441929D01*
X387626Y441907D01*
X387484Y441890D01*
X387342Y441876D01*
X387199Y441866D01*
X387056Y441860D01*
X386913Y441858D01*
X612828Y328095D02*
X624512Y328095D01*
X612828Y328095D02*
X612828Y331340D01*
X612830Y331453D01*
X612836Y331566D01*
X612846Y331679D01*
X612860Y331792D01*
X612877Y331904D01*
X612899Y332015D01*
X612924Y332125D01*
X612954Y332235D01*
X612987Y332343D01*
X613024Y332450D01*
X613064Y332556D01*
X613109Y332660D01*
X613157Y332763D01*
X613208Y332864D01*
X613263Y332963D01*
X613321Y333060D01*
X613383Y333155D01*
X613448Y333248D01*
X613516Y333338D01*
X613587Y333426D01*
X613662Y333512D01*
X613739Y333595D01*
X613819Y333675D01*
X613902Y333752D01*
X613988Y333827D01*
X614076Y333898D01*
X614166Y333966D01*
X614259Y334031D01*
X614354Y334093D01*
X614451Y334151D01*
X614550Y334206D01*
X614651Y334257D01*
X614754Y334305D01*
X614858Y334350D01*
X614964Y334390D01*
X615071Y334427D01*
X615179Y334460D01*
X615289Y334490D01*
X615399Y334515D01*
X615510Y334537D01*
X615622Y334554D01*
X615735Y334568D01*
X615848Y334578D01*
X615961Y334584D01*
X616074Y334586D01*
X616187Y334584D01*
X616300Y334578D01*
X616413Y334568D01*
X616526Y334554D01*
X616638Y334537D01*
X616749Y334515D01*
X616859Y334490D01*
X616969Y334460D01*
X617077Y334427D01*
X617184Y334390D01*
X617290Y334350D01*
X617394Y334305D01*
X617497Y334257D01*
X617598Y334206D01*
X617697Y334151D01*
X617794Y334093D01*
X617889Y334031D01*
X617982Y333966D01*
X618072Y333898D01*
X618160Y333827D01*
X618246Y333752D01*
X618329Y333675D01*
X618409Y333595D01*
X618486Y333512D01*
X618561Y333426D01*
X618632Y333338D01*
X618700Y333248D01*
X618765Y333155D01*
X618827Y333060D01*
X618885Y332963D01*
X618940Y332864D01*
X618991Y332763D01*
X619039Y332660D01*
X619084Y332556D01*
X619124Y332450D01*
X619161Y332343D01*
X619194Y332235D01*
X619224Y332125D01*
X619249Y332015D01*
X619271Y331904D01*
X619288Y331792D01*
X619302Y331679D01*
X619312Y331566D01*
X619318Y331453D01*
X619320Y331340D01*
X619319Y331340D02*
X619319Y328095D01*
X619319Y331989D02*
X624512Y334586D01*
X615424Y339451D02*
X612828Y342696D01*
X624512Y342696D01*
X624512Y339451D02*
X624512Y345942D01*
X618670Y350881D02*
X618440Y350884D01*
X618210Y350892D01*
X617981Y350906D01*
X617752Y350925D01*
X617523Y350950D01*
X617295Y350980D01*
X617068Y351015D01*
X616842Y351056D01*
X616617Y351102D01*
X616393Y351154D01*
X616170Y351211D01*
X615949Y351273D01*
X615729Y351341D01*
X615511Y351414D01*
X615295Y351492D01*
X615081Y351575D01*
X614869Y351663D01*
X614658Y351756D01*
X614451Y351855D01*
X614451Y351854D02*
X614361Y351887D01*
X614272Y351923D01*
X614184Y351963D01*
X614099Y352007D01*
X614015Y352054D01*
X613933Y352104D01*
X613853Y352158D01*
X613776Y352214D01*
X613700Y352274D01*
X613627Y352337D01*
X613557Y352402D01*
X613489Y352471D01*
X613425Y352542D01*
X613363Y352615D01*
X613304Y352691D01*
X613248Y352769D01*
X613195Y352850D01*
X613146Y352932D01*
X613100Y353016D01*
X613057Y353103D01*
X613018Y353190D01*
X612982Y353280D01*
X612950Y353370D01*
X612922Y353462D01*
X612897Y353555D01*
X612876Y353649D01*
X612859Y353743D01*
X612845Y353838D01*
X612836Y353934D01*
X612830Y354030D01*
X612828Y354126D01*
X612830Y354222D01*
X612836Y354318D01*
X612845Y354414D01*
X612859Y354509D01*
X612876Y354603D01*
X612897Y354697D01*
X612922Y354790D01*
X612950Y354882D01*
X612982Y354972D01*
X613018Y355062D01*
X613057Y355150D01*
X613100Y355236D01*
X613146Y355320D01*
X613195Y355402D01*
X613248Y355483D01*
X613304Y355561D01*
X613363Y355637D01*
X613425Y355710D01*
X613489Y355781D01*
X613557Y355850D01*
X613627Y355915D01*
X613700Y355978D01*
X613776Y356038D01*
X613853Y356094D01*
X613933Y356148D01*
X614015Y356198D01*
X614099Y356245D01*
X614184Y356289D01*
X614272Y356329D01*
X614361Y356365D01*
X614451Y356398D01*
X614658Y356497D01*
X614869Y356590D01*
X615081Y356678D01*
X615295Y356761D01*
X615511Y356839D01*
X615729Y356912D01*
X615949Y356980D01*
X616170Y357042D01*
X616393Y357099D01*
X616617Y357151D01*
X616842Y357197D01*
X617068Y357238D01*
X617295Y357273D01*
X617523Y357303D01*
X617752Y357328D01*
X617981Y357347D01*
X618210Y357361D01*
X618440Y357369D01*
X618670Y357372D01*
X618670Y350881D02*
X618900Y350884D01*
X619130Y350892D01*
X619359Y350906D01*
X619588Y350925D01*
X619817Y350950D01*
X620045Y350980D01*
X620272Y351015D01*
X620498Y351056D01*
X620723Y351102D01*
X620947Y351154D01*
X621170Y351211D01*
X621391Y351273D01*
X621611Y351341D01*
X621829Y351414D01*
X622045Y351492D01*
X622259Y351575D01*
X622471Y351663D01*
X622682Y351756D01*
X622889Y351855D01*
X622889Y351854D02*
X622979Y351887D01*
X623068Y351923D01*
X623156Y351964D01*
X623241Y352007D01*
X623325Y352054D01*
X623407Y352104D01*
X623487Y352158D01*
X623564Y352214D01*
X623640Y352274D01*
X623713Y352337D01*
X623783Y352402D01*
X623851Y352471D01*
X623915Y352542D01*
X623977Y352615D01*
X624036Y352691D01*
X624092Y352769D01*
X624145Y352850D01*
X624194Y352932D01*
X624240Y353016D01*
X624283Y353103D01*
X624322Y353190D01*
X624358Y353280D01*
X624390Y353370D01*
X624418Y353462D01*
X624443Y353555D01*
X624464Y353649D01*
X624481Y353743D01*
X624495Y353838D01*
X624504Y353934D01*
X624510Y354030D01*
X624512Y354126D01*
X622889Y356398D02*
X622682Y356497D01*
X622471Y356590D01*
X622259Y356678D01*
X622045Y356761D01*
X621829Y356839D01*
X621611Y356912D01*
X621391Y356980D01*
X621170Y357042D01*
X620947Y357099D01*
X620723Y357151D01*
X620498Y357197D01*
X620272Y357238D01*
X620045Y357273D01*
X619817Y357303D01*
X619588Y357328D01*
X619359Y357347D01*
X619130Y357361D01*
X618900Y357369D01*
X618670Y357372D01*
X622889Y356398D02*
X622979Y356365D01*
X623068Y356329D01*
X623156Y356289D01*
X623241Y356245D01*
X623325Y356198D01*
X623407Y356148D01*
X623487Y356094D01*
X623564Y356038D01*
X623640Y355978D01*
X623713Y355915D01*
X623783Y355850D01*
X623851Y355781D01*
X623915Y355710D01*
X623977Y355637D01*
X624036Y355561D01*
X624092Y355483D01*
X624145Y355402D01*
X624194Y355320D01*
X624240Y355236D01*
X624283Y355149D01*
X624322Y355062D01*
X624358Y354972D01*
X624390Y354882D01*
X624418Y354790D01*
X624443Y354697D01*
X624464Y354603D01*
X624481Y354509D01*
X624495Y354414D01*
X624504Y354318D01*
X624510Y354222D01*
X624512Y354126D01*
X621916Y351530D02*
X615424Y356723D01*
X183832Y104918D02*
X172148Y104918D01*
X172148Y108164D01*
X172150Y108277D01*
X172156Y108390D01*
X172166Y108503D01*
X172180Y108616D01*
X172197Y108728D01*
X172219Y108839D01*
X172244Y108949D01*
X172274Y109059D01*
X172307Y109167D01*
X172344Y109274D01*
X172384Y109380D01*
X172429Y109484D01*
X172477Y109587D01*
X172528Y109688D01*
X172583Y109787D01*
X172641Y109884D01*
X172703Y109979D01*
X172768Y110072D01*
X172836Y110162D01*
X172907Y110250D01*
X172982Y110336D01*
X173059Y110419D01*
X173139Y110499D01*
X173222Y110576D01*
X173308Y110651D01*
X173396Y110722D01*
X173486Y110790D01*
X173579Y110855D01*
X173674Y110917D01*
X173771Y110975D01*
X173870Y111030D01*
X173971Y111081D01*
X174074Y111129D01*
X174178Y111174D01*
X174284Y111214D01*
X174391Y111251D01*
X174499Y111284D01*
X174609Y111314D01*
X174719Y111339D01*
X174830Y111361D01*
X174942Y111378D01*
X175055Y111392D01*
X175168Y111402D01*
X175281Y111408D01*
X175394Y111410D01*
X175507Y111408D01*
X175620Y111402D01*
X175733Y111392D01*
X175846Y111378D01*
X175958Y111361D01*
X176069Y111339D01*
X176179Y111314D01*
X176289Y111284D01*
X176397Y111251D01*
X176504Y111214D01*
X176610Y111174D01*
X176714Y111129D01*
X176817Y111081D01*
X176918Y111030D01*
X177017Y110975D01*
X177114Y110917D01*
X177209Y110855D01*
X177302Y110790D01*
X177392Y110722D01*
X177480Y110651D01*
X177566Y110576D01*
X177649Y110499D01*
X177729Y110419D01*
X177806Y110336D01*
X177881Y110250D01*
X177952Y110162D01*
X178020Y110072D01*
X178085Y109979D01*
X178147Y109884D01*
X178205Y109787D01*
X178260Y109688D01*
X178311Y109587D01*
X178359Y109484D01*
X178404Y109380D01*
X178444Y109274D01*
X178481Y109167D01*
X178514Y109059D01*
X178544Y108949D01*
X178569Y108839D01*
X178591Y108728D01*
X178608Y108616D01*
X178622Y108503D01*
X178632Y108390D01*
X178638Y108277D01*
X178640Y108164D01*
X178639Y108164D02*
X178639Y104918D01*
X178639Y108813D02*
X183832Y111409D01*
X183832Y116274D02*
X183832Y120169D01*
X183830Y120268D01*
X183824Y120368D01*
X183815Y120467D01*
X183802Y120565D01*
X183785Y120663D01*
X183764Y120761D01*
X183739Y120857D01*
X183711Y120952D01*
X183679Y121046D01*
X183644Y121139D01*
X183605Y121231D01*
X183562Y121321D01*
X183517Y121409D01*
X183467Y121496D01*
X183415Y121580D01*
X183359Y121663D01*
X183301Y121743D01*
X183239Y121821D01*
X183174Y121896D01*
X183106Y121969D01*
X183036Y122039D01*
X182963Y122107D01*
X182888Y122172D01*
X182810Y122234D01*
X182730Y122292D01*
X182647Y122348D01*
X182563Y122400D01*
X182476Y122450D01*
X182388Y122495D01*
X182298Y122538D01*
X182206Y122577D01*
X182113Y122612D01*
X182019Y122644D01*
X181924Y122672D01*
X181828Y122697D01*
X181730Y122718D01*
X181632Y122735D01*
X181534Y122748D01*
X181435Y122757D01*
X181335Y122763D01*
X181236Y122765D01*
X179937Y122765D01*
X179838Y122763D01*
X179738Y122757D01*
X179639Y122748D01*
X179541Y122735D01*
X179443Y122718D01*
X179345Y122697D01*
X179249Y122672D01*
X179154Y122644D01*
X179060Y122612D01*
X178967Y122577D01*
X178875Y122538D01*
X178785Y122495D01*
X178697Y122450D01*
X178610Y122400D01*
X178526Y122348D01*
X178443Y122292D01*
X178363Y122234D01*
X178285Y122172D01*
X178210Y122107D01*
X178137Y122039D01*
X178067Y121969D01*
X177999Y121896D01*
X177934Y121821D01*
X177872Y121743D01*
X177814Y121663D01*
X177758Y121580D01*
X177706Y121496D01*
X177656Y121409D01*
X177611Y121321D01*
X177568Y121231D01*
X177529Y121139D01*
X177494Y121046D01*
X177462Y120952D01*
X177434Y120857D01*
X177409Y120761D01*
X177388Y120663D01*
X177371Y120565D01*
X177358Y120467D01*
X177349Y120368D01*
X177343Y120268D01*
X177341Y120169D01*
X177341Y116274D01*
X172148Y116274D01*
X172148Y122765D01*
X381858Y507265D02*
X393542Y507265D01*
X381858Y507265D02*
X381858Y510510D01*
X381860Y510623D01*
X381866Y510736D01*
X381876Y510849D01*
X381890Y510962D01*
X381907Y511074D01*
X381929Y511185D01*
X381954Y511295D01*
X381984Y511405D01*
X382017Y511513D01*
X382054Y511620D01*
X382094Y511726D01*
X382139Y511830D01*
X382187Y511933D01*
X382238Y512034D01*
X382293Y512133D01*
X382351Y512230D01*
X382413Y512325D01*
X382478Y512418D01*
X382546Y512508D01*
X382617Y512596D01*
X382692Y512682D01*
X382769Y512765D01*
X382849Y512845D01*
X382932Y512922D01*
X383018Y512997D01*
X383106Y513068D01*
X383196Y513136D01*
X383289Y513201D01*
X383384Y513263D01*
X383481Y513321D01*
X383580Y513376D01*
X383681Y513427D01*
X383784Y513475D01*
X383888Y513520D01*
X383994Y513560D01*
X384101Y513597D01*
X384209Y513630D01*
X384319Y513660D01*
X384429Y513685D01*
X384540Y513707D01*
X384652Y513724D01*
X384765Y513738D01*
X384878Y513748D01*
X384991Y513754D01*
X385104Y513756D01*
X385217Y513754D01*
X385330Y513748D01*
X385443Y513738D01*
X385556Y513724D01*
X385668Y513707D01*
X385779Y513685D01*
X385889Y513660D01*
X385999Y513630D01*
X386107Y513597D01*
X386214Y513560D01*
X386320Y513520D01*
X386424Y513475D01*
X386527Y513427D01*
X386628Y513376D01*
X386727Y513321D01*
X386824Y513263D01*
X386919Y513201D01*
X387012Y513136D01*
X387102Y513068D01*
X387190Y512997D01*
X387276Y512922D01*
X387359Y512845D01*
X387439Y512765D01*
X387516Y512682D01*
X387591Y512596D01*
X387662Y512508D01*
X387730Y512418D01*
X387795Y512325D01*
X387857Y512230D01*
X387915Y512133D01*
X387970Y512034D01*
X388021Y511933D01*
X388069Y511830D01*
X388114Y511726D01*
X388154Y511620D01*
X388191Y511513D01*
X388224Y511405D01*
X388254Y511295D01*
X388279Y511185D01*
X388301Y511074D01*
X388318Y510962D01*
X388332Y510849D01*
X388342Y510736D01*
X388348Y510623D01*
X388350Y510510D01*
X388349Y510510D02*
X388349Y507265D01*
X388349Y511159D02*
X393542Y513756D01*
X384454Y518621D02*
X381858Y521866D01*
X393542Y521866D01*
X393542Y518621D02*
X393542Y525112D01*
X383156Y530051D02*
X381858Y530051D01*
X381858Y536542D01*
X393542Y533296D01*
X95955Y265702D02*
X95955Y254018D01*
X95955Y265702D02*
X99200Y265702D01*
X99313Y265700D01*
X99426Y265694D01*
X99539Y265684D01*
X99652Y265670D01*
X99764Y265653D01*
X99875Y265631D01*
X99985Y265606D01*
X100095Y265576D01*
X100203Y265543D01*
X100310Y265506D01*
X100416Y265466D01*
X100520Y265421D01*
X100623Y265373D01*
X100724Y265322D01*
X100823Y265267D01*
X100920Y265209D01*
X101015Y265147D01*
X101108Y265082D01*
X101198Y265014D01*
X101286Y264943D01*
X101372Y264868D01*
X101455Y264791D01*
X101535Y264711D01*
X101612Y264628D01*
X101687Y264542D01*
X101758Y264454D01*
X101826Y264364D01*
X101891Y264271D01*
X101953Y264176D01*
X102011Y264079D01*
X102066Y263980D01*
X102117Y263879D01*
X102165Y263776D01*
X102210Y263672D01*
X102250Y263566D01*
X102287Y263459D01*
X102320Y263351D01*
X102350Y263241D01*
X102375Y263131D01*
X102397Y263020D01*
X102414Y262908D01*
X102428Y262795D01*
X102438Y262682D01*
X102444Y262569D01*
X102446Y262456D01*
X102444Y262343D01*
X102438Y262230D01*
X102428Y262117D01*
X102414Y262004D01*
X102397Y261892D01*
X102375Y261781D01*
X102350Y261671D01*
X102320Y261561D01*
X102287Y261453D01*
X102250Y261346D01*
X102210Y261240D01*
X102165Y261136D01*
X102117Y261033D01*
X102066Y260932D01*
X102011Y260833D01*
X101953Y260736D01*
X101891Y260641D01*
X101826Y260548D01*
X101758Y260458D01*
X101687Y260370D01*
X101612Y260284D01*
X101535Y260201D01*
X101455Y260121D01*
X101372Y260044D01*
X101286Y259969D01*
X101198Y259898D01*
X101108Y259830D01*
X101015Y259765D01*
X100920Y259703D01*
X100823Y259645D01*
X100724Y259590D01*
X100623Y259539D01*
X100520Y259491D01*
X100416Y259446D01*
X100310Y259406D01*
X100203Y259369D01*
X100095Y259336D01*
X99985Y259306D01*
X99875Y259281D01*
X99764Y259259D01*
X99652Y259242D01*
X99539Y259228D01*
X99426Y259218D01*
X99313Y259212D01*
X99200Y259210D01*
X99200Y259211D02*
X95955Y259211D01*
X99849Y259211D02*
X102446Y254018D01*
X107311Y264404D02*
X107311Y265702D01*
X113802Y265702D01*
X110556Y254018D01*
X186435Y245812D02*
X186435Y234128D01*
X186435Y245812D02*
X189680Y245812D01*
X189793Y245810D01*
X189906Y245804D01*
X190019Y245794D01*
X190132Y245780D01*
X190244Y245763D01*
X190355Y245741D01*
X190465Y245716D01*
X190575Y245686D01*
X190683Y245653D01*
X190790Y245616D01*
X190896Y245576D01*
X191000Y245531D01*
X191103Y245483D01*
X191204Y245432D01*
X191303Y245377D01*
X191400Y245319D01*
X191495Y245257D01*
X191588Y245192D01*
X191678Y245124D01*
X191766Y245053D01*
X191852Y244978D01*
X191935Y244901D01*
X192015Y244821D01*
X192092Y244738D01*
X192167Y244652D01*
X192238Y244564D01*
X192306Y244474D01*
X192371Y244381D01*
X192433Y244286D01*
X192491Y244189D01*
X192546Y244090D01*
X192597Y243989D01*
X192645Y243886D01*
X192690Y243782D01*
X192730Y243676D01*
X192767Y243569D01*
X192800Y243461D01*
X192830Y243351D01*
X192855Y243241D01*
X192877Y243130D01*
X192894Y243018D01*
X192908Y242905D01*
X192918Y242792D01*
X192924Y242679D01*
X192926Y242566D01*
X192924Y242453D01*
X192918Y242340D01*
X192908Y242227D01*
X192894Y242114D01*
X192877Y242002D01*
X192855Y241891D01*
X192830Y241781D01*
X192800Y241671D01*
X192767Y241563D01*
X192730Y241456D01*
X192690Y241350D01*
X192645Y241246D01*
X192597Y241143D01*
X192546Y241042D01*
X192491Y240943D01*
X192433Y240846D01*
X192371Y240751D01*
X192306Y240658D01*
X192238Y240568D01*
X192167Y240480D01*
X192092Y240394D01*
X192015Y240311D01*
X191935Y240231D01*
X191852Y240154D01*
X191766Y240079D01*
X191678Y240008D01*
X191588Y239940D01*
X191495Y239875D01*
X191400Y239813D01*
X191303Y239755D01*
X191204Y239700D01*
X191103Y239649D01*
X191000Y239601D01*
X190896Y239556D01*
X190790Y239516D01*
X190683Y239479D01*
X190575Y239446D01*
X190465Y239416D01*
X190355Y239391D01*
X190244Y239369D01*
X190132Y239352D01*
X190019Y239338D01*
X189906Y239328D01*
X189793Y239322D01*
X189680Y239320D01*
X189680Y239321D02*
X186435Y239321D01*
X190329Y239321D02*
X192926Y234128D01*
X197790Y237374D02*
X197792Y237487D01*
X197798Y237600D01*
X197808Y237713D01*
X197822Y237826D01*
X197839Y237938D01*
X197861Y238049D01*
X197886Y238159D01*
X197916Y238269D01*
X197949Y238377D01*
X197986Y238484D01*
X198026Y238590D01*
X198071Y238694D01*
X198119Y238797D01*
X198170Y238898D01*
X198225Y238997D01*
X198283Y239094D01*
X198345Y239189D01*
X198410Y239282D01*
X198478Y239372D01*
X198549Y239460D01*
X198624Y239546D01*
X198701Y239629D01*
X198781Y239709D01*
X198864Y239786D01*
X198950Y239861D01*
X199038Y239932D01*
X199128Y240000D01*
X199221Y240065D01*
X199316Y240127D01*
X199413Y240185D01*
X199512Y240240D01*
X199613Y240291D01*
X199716Y240339D01*
X199820Y240384D01*
X199926Y240424D01*
X200033Y240461D01*
X200141Y240494D01*
X200251Y240524D01*
X200361Y240549D01*
X200472Y240571D01*
X200584Y240588D01*
X200697Y240602D01*
X200810Y240612D01*
X200923Y240618D01*
X201036Y240620D01*
X201149Y240618D01*
X201262Y240612D01*
X201375Y240602D01*
X201488Y240588D01*
X201600Y240571D01*
X201711Y240549D01*
X201821Y240524D01*
X201931Y240494D01*
X202039Y240461D01*
X202146Y240424D01*
X202252Y240384D01*
X202356Y240339D01*
X202459Y240291D01*
X202560Y240240D01*
X202659Y240185D01*
X202756Y240127D01*
X202851Y240065D01*
X202944Y240000D01*
X203034Y239932D01*
X203122Y239861D01*
X203208Y239786D01*
X203291Y239709D01*
X203371Y239629D01*
X203448Y239546D01*
X203523Y239460D01*
X203594Y239372D01*
X203662Y239282D01*
X203727Y239189D01*
X203789Y239094D01*
X203847Y238997D01*
X203902Y238898D01*
X203953Y238797D01*
X204001Y238694D01*
X204046Y238590D01*
X204086Y238484D01*
X204123Y238377D01*
X204156Y238269D01*
X204186Y238159D01*
X204211Y238049D01*
X204233Y237938D01*
X204250Y237826D01*
X204264Y237713D01*
X204274Y237600D01*
X204280Y237487D01*
X204282Y237374D01*
X204280Y237261D01*
X204274Y237148D01*
X204264Y237035D01*
X204250Y236922D01*
X204233Y236810D01*
X204211Y236699D01*
X204186Y236589D01*
X204156Y236479D01*
X204123Y236371D01*
X204086Y236264D01*
X204046Y236158D01*
X204001Y236054D01*
X203953Y235951D01*
X203902Y235850D01*
X203847Y235751D01*
X203789Y235654D01*
X203727Y235559D01*
X203662Y235466D01*
X203594Y235376D01*
X203523Y235288D01*
X203448Y235202D01*
X203371Y235119D01*
X203291Y235039D01*
X203208Y234962D01*
X203122Y234887D01*
X203034Y234816D01*
X202944Y234748D01*
X202851Y234683D01*
X202756Y234621D01*
X202659Y234563D01*
X202560Y234508D01*
X202459Y234457D01*
X202356Y234409D01*
X202252Y234364D01*
X202146Y234324D01*
X202039Y234287D01*
X201931Y234254D01*
X201821Y234224D01*
X201711Y234199D01*
X201600Y234177D01*
X201488Y234160D01*
X201375Y234146D01*
X201262Y234136D01*
X201149Y234130D01*
X201036Y234128D01*
X200923Y234130D01*
X200810Y234136D01*
X200697Y234146D01*
X200584Y234160D01*
X200472Y234177D01*
X200361Y234199D01*
X200251Y234224D01*
X200141Y234254D01*
X200033Y234287D01*
X199926Y234324D01*
X199820Y234364D01*
X199716Y234409D01*
X199613Y234457D01*
X199512Y234508D01*
X199413Y234563D01*
X199316Y234621D01*
X199221Y234683D01*
X199128Y234748D01*
X199038Y234816D01*
X198950Y234887D01*
X198864Y234962D01*
X198781Y235039D01*
X198701Y235119D01*
X198624Y235202D01*
X198549Y235288D01*
X198478Y235376D01*
X198410Y235466D01*
X198345Y235559D01*
X198283Y235654D01*
X198225Y235751D01*
X198170Y235850D01*
X198119Y235951D01*
X198071Y236054D01*
X198026Y236158D01*
X197986Y236264D01*
X197949Y236371D01*
X197916Y236479D01*
X197886Y236589D01*
X197861Y236699D01*
X197839Y236810D01*
X197822Y236922D01*
X197808Y237035D01*
X197798Y237148D01*
X197792Y237261D01*
X197790Y237374D01*
X198440Y243216D02*
X198442Y243317D01*
X198448Y243417D01*
X198458Y243517D01*
X198471Y243617D01*
X198489Y243716D01*
X198510Y243815D01*
X198535Y243912D01*
X198564Y244009D01*
X198597Y244104D01*
X198633Y244198D01*
X198673Y244290D01*
X198716Y244381D01*
X198763Y244470D01*
X198813Y244557D01*
X198867Y244643D01*
X198924Y244726D01*
X198984Y244806D01*
X199047Y244885D01*
X199114Y244961D01*
X199183Y245034D01*
X199255Y245104D01*
X199329Y245172D01*
X199406Y245237D01*
X199486Y245298D01*
X199568Y245357D01*
X199652Y245412D01*
X199738Y245464D01*
X199826Y245513D01*
X199916Y245558D01*
X200008Y245600D01*
X200101Y245638D01*
X200196Y245672D01*
X200291Y245703D01*
X200388Y245730D01*
X200486Y245753D01*
X200585Y245773D01*
X200685Y245788D01*
X200785Y245800D01*
X200885Y245808D01*
X200986Y245812D01*
X201086Y245812D01*
X201187Y245808D01*
X201287Y245800D01*
X201387Y245788D01*
X201487Y245773D01*
X201586Y245753D01*
X201684Y245730D01*
X201781Y245703D01*
X201876Y245672D01*
X201971Y245638D01*
X202064Y245600D01*
X202156Y245558D01*
X202246Y245513D01*
X202334Y245464D01*
X202420Y245412D01*
X202504Y245357D01*
X202586Y245298D01*
X202666Y245237D01*
X202743Y245172D01*
X202817Y245104D01*
X202889Y245034D01*
X202958Y244961D01*
X203025Y244885D01*
X203088Y244806D01*
X203148Y244726D01*
X203205Y244643D01*
X203259Y244557D01*
X203309Y244470D01*
X203356Y244381D01*
X203399Y244290D01*
X203439Y244198D01*
X203475Y244104D01*
X203508Y244009D01*
X203537Y243912D01*
X203562Y243815D01*
X203583Y243716D01*
X203601Y243617D01*
X203614Y243517D01*
X203624Y243417D01*
X203630Y243317D01*
X203632Y243216D01*
X203630Y243115D01*
X203624Y243015D01*
X203614Y242915D01*
X203601Y242815D01*
X203583Y242716D01*
X203562Y242617D01*
X203537Y242520D01*
X203508Y242423D01*
X203475Y242328D01*
X203439Y242234D01*
X203399Y242142D01*
X203356Y242051D01*
X203309Y241962D01*
X203259Y241875D01*
X203205Y241789D01*
X203148Y241706D01*
X203088Y241626D01*
X203025Y241547D01*
X202958Y241471D01*
X202889Y241398D01*
X202817Y241328D01*
X202743Y241260D01*
X202666Y241195D01*
X202586Y241134D01*
X202504Y241075D01*
X202420Y241020D01*
X202334Y240968D01*
X202246Y240919D01*
X202156Y240874D01*
X202064Y240832D01*
X201971Y240794D01*
X201876Y240760D01*
X201781Y240729D01*
X201684Y240702D01*
X201586Y240679D01*
X201487Y240659D01*
X201387Y240644D01*
X201287Y240632D01*
X201187Y240624D01*
X201086Y240620D01*
X200986Y240620D01*
X200885Y240624D01*
X200785Y240632D01*
X200685Y240644D01*
X200585Y240659D01*
X200486Y240679D01*
X200388Y240702D01*
X200291Y240729D01*
X200196Y240760D01*
X200101Y240794D01*
X200008Y240832D01*
X199916Y240874D01*
X199826Y240919D01*
X199738Y240968D01*
X199652Y241020D01*
X199568Y241075D01*
X199486Y241134D01*
X199406Y241195D01*
X199329Y241260D01*
X199255Y241328D01*
X199183Y241398D01*
X199114Y241471D01*
X199047Y241547D01*
X198984Y241626D01*
X198924Y241706D01*
X198867Y241789D01*
X198813Y241875D01*
X198763Y241962D01*
X198716Y242051D01*
X198673Y242142D01*
X198633Y242234D01*
X198597Y242328D01*
X198564Y242423D01*
X198535Y242520D01*
X198510Y242617D01*
X198489Y242716D01*
X198471Y242815D01*
X198458Y242915D01*
X198448Y243015D01*
X198442Y243115D01*
X198440Y243216D01*
D18*
X296500Y264700D02*
X335500Y264700D01*
X335500Y215700D02*
X296500Y215700D01*
D19*
X276000Y259200D02*
X276002Y259263D01*
X276008Y259325D01*
X276018Y259387D01*
X276031Y259449D01*
X276049Y259509D01*
X276070Y259568D01*
X276095Y259626D01*
X276124Y259682D01*
X276156Y259736D01*
X276191Y259788D01*
X276229Y259837D01*
X276271Y259885D01*
X276315Y259929D01*
X276363Y259971D01*
X276412Y260009D01*
X276464Y260044D01*
X276518Y260076D01*
X276574Y260105D01*
X276632Y260130D01*
X276691Y260151D01*
X276751Y260169D01*
X276813Y260182D01*
X276875Y260192D01*
X276937Y260198D01*
X277000Y260200D01*
X277063Y260198D01*
X277125Y260192D01*
X277187Y260182D01*
X277249Y260169D01*
X277309Y260151D01*
X277368Y260130D01*
X277426Y260105D01*
X277482Y260076D01*
X277536Y260044D01*
X277588Y260009D01*
X277637Y259971D01*
X277685Y259929D01*
X277729Y259885D01*
X277771Y259837D01*
X277809Y259788D01*
X277844Y259736D01*
X277876Y259682D01*
X277905Y259626D01*
X277930Y259568D01*
X277951Y259509D01*
X277969Y259449D01*
X277982Y259387D01*
X277992Y259325D01*
X277998Y259263D01*
X278000Y259200D01*
X277998Y259137D01*
X277992Y259075D01*
X277982Y259013D01*
X277969Y258951D01*
X277951Y258891D01*
X277930Y258832D01*
X277905Y258774D01*
X277876Y258718D01*
X277844Y258664D01*
X277809Y258612D01*
X277771Y258563D01*
X277729Y258515D01*
X277685Y258471D01*
X277637Y258429D01*
X277588Y258391D01*
X277536Y258356D01*
X277482Y258324D01*
X277426Y258295D01*
X277368Y258270D01*
X277309Y258249D01*
X277249Y258231D01*
X277187Y258218D01*
X277125Y258208D01*
X277063Y258202D01*
X277000Y258200D01*
X276937Y258202D01*
X276875Y258208D01*
X276813Y258218D01*
X276751Y258231D01*
X276691Y258249D01*
X276632Y258270D01*
X276574Y258295D01*
X276518Y258324D01*
X276464Y258356D01*
X276412Y258391D01*
X276363Y258429D01*
X276315Y258471D01*
X276271Y258515D01*
X276229Y258563D01*
X276191Y258612D01*
X276156Y258664D01*
X276124Y258718D01*
X276095Y258774D01*
X276070Y258832D01*
X276049Y258891D01*
X276031Y258951D01*
X276018Y259013D01*
X276008Y259075D01*
X276002Y259137D01*
X276000Y259200D01*
D12*
X273968Y406604D02*
X273968Y415042D01*
X273968Y406604D02*
X273970Y406491D01*
X273976Y406378D01*
X273986Y406265D01*
X274000Y406152D01*
X274017Y406040D01*
X274039Y405929D01*
X274064Y405819D01*
X274094Y405709D01*
X274127Y405601D01*
X274164Y405494D01*
X274204Y405388D01*
X274249Y405284D01*
X274297Y405181D01*
X274348Y405080D01*
X274403Y404981D01*
X274461Y404884D01*
X274523Y404789D01*
X274588Y404696D01*
X274656Y404606D01*
X274727Y404518D01*
X274802Y404432D01*
X274879Y404349D01*
X274959Y404269D01*
X275042Y404192D01*
X275128Y404117D01*
X275216Y404046D01*
X275306Y403978D01*
X275399Y403913D01*
X275494Y403851D01*
X275591Y403793D01*
X275690Y403738D01*
X275791Y403687D01*
X275894Y403639D01*
X275998Y403594D01*
X276104Y403554D01*
X276211Y403517D01*
X276319Y403484D01*
X276429Y403454D01*
X276539Y403429D01*
X276650Y403407D01*
X276762Y403390D01*
X276875Y403376D01*
X276988Y403366D01*
X277101Y403360D01*
X277214Y403358D01*
X277327Y403360D01*
X277440Y403366D01*
X277553Y403376D01*
X277666Y403390D01*
X277778Y403407D01*
X277889Y403429D01*
X277999Y403454D01*
X278109Y403484D01*
X278217Y403517D01*
X278324Y403554D01*
X278430Y403594D01*
X278534Y403639D01*
X278637Y403687D01*
X278738Y403738D01*
X278837Y403793D01*
X278934Y403851D01*
X279029Y403913D01*
X279122Y403978D01*
X279212Y404046D01*
X279300Y404117D01*
X279386Y404192D01*
X279469Y404269D01*
X279549Y404349D01*
X279626Y404432D01*
X279701Y404518D01*
X279772Y404606D01*
X279840Y404696D01*
X279905Y404789D01*
X279967Y404884D01*
X280025Y404981D01*
X280080Y405080D01*
X280131Y405181D01*
X280179Y405284D01*
X280224Y405388D01*
X280264Y405494D01*
X280301Y405601D01*
X280334Y405709D01*
X280364Y405819D01*
X280389Y405929D01*
X280411Y406040D01*
X280428Y406152D01*
X280442Y406265D01*
X280452Y406378D01*
X280458Y406491D01*
X280460Y406604D01*
X280459Y406604D02*
X280459Y415042D01*
X288263Y415042D02*
X288263Y403358D01*
X288263Y409200D02*
X286640Y410174D01*
X286639Y410173D02*
X286566Y410220D01*
X286495Y410269D01*
X286425Y410322D01*
X286359Y410378D01*
X286295Y410437D01*
X286233Y410498D01*
X286175Y410562D01*
X286119Y410629D01*
X286067Y410698D01*
X286017Y410770D01*
X285971Y410844D01*
X285928Y410919D01*
X285889Y410997D01*
X285853Y411076D01*
X285821Y411157D01*
X285792Y411239D01*
X285767Y411322D01*
X285746Y411406D01*
X285729Y411491D01*
X285715Y411577D01*
X285706Y411663D01*
X285700Y411750D01*
X285698Y411837D01*
X285700Y411924D01*
X285706Y412011D01*
X285716Y412097D01*
X285729Y412183D01*
X285747Y412268D01*
X285768Y412352D01*
X285793Y412435D01*
X285822Y412518D01*
X285854Y412598D01*
X285890Y412677D01*
X285929Y412755D01*
X285972Y412830D01*
X286019Y412904D01*
X286068Y412975D01*
X286121Y413045D01*
X286176Y413111D01*
X286235Y413175D01*
X286296Y413237D01*
X286361Y413296D01*
X286427Y413351D01*
X286496Y413404D01*
X286568Y413454D01*
X286641Y413500D01*
X286717Y413543D01*
X286794Y413582D01*
X286873Y413618D01*
X286954Y413651D01*
X287036Y413679D01*
X287119Y413705D01*
X287203Y413726D01*
X287289Y413743D01*
X287289Y413744D02*
X287429Y413768D01*
X287571Y413788D01*
X287712Y413804D01*
X287854Y413815D01*
X287997Y413823D01*
X288139Y413827D01*
X288282Y413828D01*
X288425Y413824D01*
X288567Y413816D01*
X288709Y413804D01*
X288851Y413788D01*
X288992Y413769D01*
X289133Y413745D01*
X289273Y413718D01*
X289412Y413686D01*
X289550Y413651D01*
X289688Y413612D01*
X289824Y413569D01*
X289958Y413523D01*
X290092Y413472D01*
X290224Y413419D01*
X290354Y413361D01*
X290483Y413300D01*
X290610Y413235D01*
X290736Y413167D01*
X290859Y413095D01*
X288263Y409200D02*
X289885Y408226D01*
X289886Y408227D02*
X289959Y408180D01*
X290030Y408131D01*
X290100Y408078D01*
X290166Y408022D01*
X290230Y407963D01*
X290292Y407902D01*
X290350Y407838D01*
X290406Y407771D01*
X290458Y407702D01*
X290508Y407630D01*
X290554Y407556D01*
X290597Y407481D01*
X290636Y407403D01*
X290672Y407324D01*
X290704Y407243D01*
X290733Y407161D01*
X290758Y407078D01*
X290779Y406994D01*
X290796Y406909D01*
X290810Y406823D01*
X290819Y406737D01*
X290825Y406650D01*
X290827Y406563D01*
X290825Y406476D01*
X290819Y406389D01*
X290809Y406303D01*
X290796Y406217D01*
X290778Y406132D01*
X290757Y406048D01*
X290732Y405965D01*
X290703Y405882D01*
X290671Y405802D01*
X290635Y405723D01*
X290596Y405645D01*
X290553Y405570D01*
X290506Y405496D01*
X290457Y405425D01*
X290404Y405355D01*
X290349Y405289D01*
X290290Y405225D01*
X290229Y405163D01*
X290164Y405104D01*
X290098Y405049D01*
X290029Y404996D01*
X289957Y404946D01*
X289884Y404900D01*
X289808Y404857D01*
X289731Y404818D01*
X289652Y404782D01*
X289571Y404749D01*
X289489Y404721D01*
X289406Y404695D01*
X289322Y404674D01*
X289237Y404657D01*
X289236Y404656D02*
X289096Y404632D01*
X288954Y404612D01*
X288813Y404596D01*
X288671Y404585D01*
X288528Y404577D01*
X288386Y404573D01*
X288243Y404572D01*
X288100Y404576D01*
X287958Y404584D01*
X287816Y404596D01*
X287674Y404612D01*
X287533Y404631D01*
X287392Y404655D01*
X287252Y404682D01*
X287113Y404714D01*
X286975Y404749D01*
X286837Y404788D01*
X286701Y404831D01*
X286567Y404877D01*
X286433Y404928D01*
X286301Y404981D01*
X286171Y405039D01*
X286042Y405100D01*
X285915Y405165D01*
X285789Y405233D01*
X285666Y405305D01*
X295685Y412446D02*
X298931Y415042D01*
X298931Y403358D01*
X302176Y403358D02*
X295685Y403358D01*
D20*
X212584Y194059D02*
X212584Y152361D01*
X212584Y194059D02*
X189216Y194059D01*
X189216Y152361D01*
X212584Y152361D01*
D12*
X194011Y160360D02*
X194013Y160476D01*
X194019Y160591D01*
X194029Y160706D01*
X194043Y160821D01*
X194061Y160935D01*
X194083Y161049D01*
X194108Y161161D01*
X194138Y161273D01*
X194171Y161384D01*
X194209Y161493D01*
X194250Y161601D01*
X194294Y161708D01*
X194343Y161813D01*
X194395Y161916D01*
X194450Y162018D01*
X194509Y162117D01*
X194571Y162215D01*
X194637Y162310D01*
X194706Y162403D01*
X194778Y162493D01*
X194853Y162581D01*
X194931Y162666D01*
X195012Y162748D01*
X195096Y162828D01*
X195183Y162905D01*
X195272Y162978D01*
X195364Y163049D01*
X195458Y163116D01*
X195554Y163180D01*
X195652Y163241D01*
X195753Y163298D01*
X195855Y163352D01*
X195959Y163402D01*
X196065Y163449D01*
X196172Y163491D01*
X196281Y163530D01*
X196391Y163566D01*
X196503Y163597D01*
X196615Y163625D01*
X196728Y163649D01*
X196842Y163669D01*
X196956Y163685D01*
X197071Y163697D01*
X197187Y163705D01*
X197302Y163709D01*
X197418Y163709D01*
X197533Y163705D01*
X197649Y163697D01*
X197764Y163685D01*
X197878Y163669D01*
X197992Y163649D01*
X198105Y163625D01*
X198217Y163597D01*
X198329Y163566D01*
X198439Y163530D01*
X198548Y163491D01*
X198655Y163449D01*
X198761Y163402D01*
X198865Y163352D01*
X198967Y163298D01*
X199068Y163241D01*
X199166Y163180D01*
X199262Y163116D01*
X199356Y163049D01*
X199448Y162978D01*
X199537Y162905D01*
X199624Y162828D01*
X199708Y162748D01*
X199789Y162666D01*
X199867Y162581D01*
X199942Y162493D01*
X200014Y162403D01*
X200083Y162310D01*
X200149Y162215D01*
X200211Y162117D01*
X200270Y162018D01*
X200325Y161916D01*
X200377Y161813D01*
X200426Y161708D01*
X200470Y161601D01*
X200511Y161493D01*
X200549Y161384D01*
X200582Y161273D01*
X200612Y161161D01*
X200637Y161049D01*
X200659Y160935D01*
X200677Y160821D01*
X200691Y160706D01*
X200701Y160591D01*
X200707Y160476D01*
X200709Y160360D01*
X200707Y160244D01*
X200701Y160129D01*
X200691Y160014D01*
X200677Y159899D01*
X200659Y159785D01*
X200637Y159671D01*
X200612Y159559D01*
X200582Y159447D01*
X200549Y159336D01*
X200511Y159227D01*
X200470Y159119D01*
X200426Y159012D01*
X200377Y158907D01*
X200325Y158804D01*
X200270Y158702D01*
X200211Y158603D01*
X200149Y158505D01*
X200083Y158410D01*
X200014Y158317D01*
X199942Y158227D01*
X199867Y158139D01*
X199789Y158054D01*
X199708Y157972D01*
X199624Y157892D01*
X199537Y157815D01*
X199448Y157742D01*
X199356Y157671D01*
X199262Y157604D01*
X199166Y157540D01*
X199068Y157479D01*
X198967Y157422D01*
X198865Y157368D01*
X198761Y157318D01*
X198655Y157271D01*
X198548Y157229D01*
X198439Y157190D01*
X198329Y157154D01*
X198217Y157123D01*
X198105Y157095D01*
X197992Y157071D01*
X197878Y157051D01*
X197764Y157035D01*
X197649Y157023D01*
X197533Y157015D01*
X197418Y157011D01*
X197302Y157011D01*
X197187Y157015D01*
X197071Y157023D01*
X196956Y157035D01*
X196842Y157051D01*
X196728Y157071D01*
X196615Y157095D01*
X196503Y157123D01*
X196391Y157154D01*
X196281Y157190D01*
X196172Y157229D01*
X196065Y157271D01*
X195959Y157318D01*
X195855Y157368D01*
X195753Y157422D01*
X195652Y157479D01*
X195554Y157540D01*
X195458Y157604D01*
X195364Y157671D01*
X195272Y157742D01*
X195183Y157815D01*
X195096Y157892D01*
X195012Y157972D01*
X194931Y158054D01*
X194853Y158139D01*
X194778Y158227D01*
X194706Y158317D01*
X194637Y158410D01*
X194571Y158505D01*
X194509Y158603D01*
X194450Y158702D01*
X194395Y158804D01*
X194343Y158907D01*
X194294Y159012D01*
X194250Y159119D01*
X194209Y159227D01*
X194171Y159336D01*
X194138Y159447D01*
X194108Y159559D01*
X194083Y159671D01*
X194061Y159785D01*
X194043Y159899D01*
X194029Y160014D01*
X194019Y160129D01*
X194013Y160244D01*
X194011Y160360D01*
X178096Y154668D02*
X169658Y154668D01*
X178096Y154668D02*
X178209Y154670D01*
X178322Y154676D01*
X178435Y154686D01*
X178548Y154700D01*
X178660Y154717D01*
X178771Y154739D01*
X178881Y154764D01*
X178991Y154794D01*
X179099Y154827D01*
X179206Y154864D01*
X179312Y154904D01*
X179416Y154949D01*
X179519Y154997D01*
X179620Y155048D01*
X179719Y155103D01*
X179816Y155161D01*
X179911Y155223D01*
X180004Y155288D01*
X180094Y155356D01*
X180182Y155427D01*
X180268Y155502D01*
X180351Y155579D01*
X180431Y155659D01*
X180508Y155742D01*
X180583Y155828D01*
X180654Y155916D01*
X180722Y156006D01*
X180787Y156099D01*
X180849Y156194D01*
X180907Y156291D01*
X180962Y156390D01*
X181013Y156491D01*
X181061Y156594D01*
X181106Y156698D01*
X181146Y156804D01*
X181183Y156911D01*
X181216Y157019D01*
X181246Y157129D01*
X181271Y157239D01*
X181293Y157350D01*
X181310Y157462D01*
X181324Y157575D01*
X181334Y157688D01*
X181340Y157801D01*
X181342Y157914D01*
X181340Y158027D01*
X181334Y158140D01*
X181324Y158253D01*
X181310Y158366D01*
X181293Y158478D01*
X181271Y158589D01*
X181246Y158699D01*
X181216Y158809D01*
X181183Y158917D01*
X181146Y159024D01*
X181106Y159130D01*
X181061Y159234D01*
X181013Y159337D01*
X180962Y159438D01*
X180907Y159537D01*
X180849Y159634D01*
X180787Y159729D01*
X180722Y159822D01*
X180654Y159912D01*
X180583Y160000D01*
X180508Y160086D01*
X180431Y160169D01*
X180351Y160249D01*
X180268Y160326D01*
X180182Y160401D01*
X180094Y160472D01*
X180004Y160540D01*
X179911Y160605D01*
X179816Y160667D01*
X179719Y160725D01*
X179620Y160780D01*
X179519Y160831D01*
X179416Y160879D01*
X179312Y160924D01*
X179206Y160964D01*
X179099Y161001D01*
X178991Y161034D01*
X178881Y161064D01*
X178771Y161089D01*
X178660Y161111D01*
X178548Y161128D01*
X178435Y161142D01*
X178322Y161152D01*
X178209Y161158D01*
X178096Y161160D01*
X178096Y161159D02*
X169658Y161159D01*
X169658Y168963D02*
X181342Y168963D01*
X175500Y168963D02*
X174526Y167340D01*
X174527Y167339D02*
X174480Y167266D01*
X174431Y167195D01*
X174378Y167126D01*
X174322Y167059D01*
X174263Y166995D01*
X174202Y166933D01*
X174138Y166875D01*
X174071Y166819D01*
X174002Y166767D01*
X173930Y166717D01*
X173856Y166671D01*
X173781Y166628D01*
X173703Y166589D01*
X173624Y166553D01*
X173543Y166521D01*
X173461Y166492D01*
X173378Y166467D01*
X173294Y166446D01*
X173209Y166429D01*
X173123Y166415D01*
X173037Y166406D01*
X172950Y166400D01*
X172863Y166398D01*
X172776Y166400D01*
X172689Y166406D01*
X172603Y166416D01*
X172517Y166429D01*
X172432Y166447D01*
X172348Y166468D01*
X172265Y166493D01*
X172182Y166522D01*
X172102Y166554D01*
X172023Y166590D01*
X171945Y166629D01*
X171870Y166672D01*
X171796Y166719D01*
X171725Y166768D01*
X171655Y166821D01*
X171589Y166876D01*
X171525Y166935D01*
X171463Y166996D01*
X171404Y167060D01*
X171349Y167127D01*
X171296Y167196D01*
X171246Y167268D01*
X171200Y167341D01*
X171157Y167417D01*
X171118Y167494D01*
X171082Y167573D01*
X171049Y167654D01*
X171021Y167736D01*
X170995Y167819D01*
X170974Y167903D01*
X170957Y167988D01*
X170956Y167989D02*
X170932Y168129D01*
X170912Y168271D01*
X170896Y168412D01*
X170885Y168554D01*
X170877Y168697D01*
X170873Y168839D01*
X170872Y168982D01*
X170876Y169125D01*
X170884Y169267D01*
X170896Y169409D01*
X170912Y169551D01*
X170931Y169692D01*
X170955Y169833D01*
X170982Y169973D01*
X171014Y170112D01*
X171049Y170250D01*
X171088Y170388D01*
X171131Y170524D01*
X171177Y170658D01*
X171228Y170792D01*
X171281Y170924D01*
X171339Y171054D01*
X171400Y171183D01*
X171465Y171310D01*
X171533Y171436D01*
X171605Y171559D01*
X175500Y168963D02*
X176474Y170585D01*
X176473Y170586D02*
X176520Y170659D01*
X176569Y170730D01*
X176622Y170800D01*
X176678Y170866D01*
X176737Y170930D01*
X176798Y170992D01*
X176862Y171050D01*
X176929Y171106D01*
X176998Y171158D01*
X177070Y171208D01*
X177144Y171254D01*
X177219Y171297D01*
X177297Y171336D01*
X177376Y171372D01*
X177457Y171404D01*
X177539Y171433D01*
X177622Y171458D01*
X177706Y171479D01*
X177791Y171496D01*
X177877Y171510D01*
X177964Y171519D01*
X178050Y171525D01*
X178137Y171527D01*
X178224Y171525D01*
X178311Y171519D01*
X178397Y171509D01*
X178483Y171496D01*
X178568Y171478D01*
X178652Y171457D01*
X178735Y171432D01*
X178818Y171403D01*
X178898Y171371D01*
X178977Y171335D01*
X179055Y171296D01*
X179130Y171253D01*
X179204Y171206D01*
X179275Y171157D01*
X179345Y171104D01*
X179411Y171049D01*
X179475Y170990D01*
X179537Y170929D01*
X179596Y170864D01*
X179651Y170798D01*
X179704Y170729D01*
X179754Y170657D01*
X179800Y170584D01*
X179843Y170508D01*
X179882Y170431D01*
X179918Y170352D01*
X179951Y170271D01*
X179979Y170189D01*
X180005Y170106D01*
X180026Y170022D01*
X180043Y169936D01*
X180044Y169936D02*
X180068Y169796D01*
X180088Y169654D01*
X180104Y169513D01*
X180115Y169371D01*
X180123Y169228D01*
X180127Y169086D01*
X180128Y168943D01*
X180124Y168800D01*
X180116Y168658D01*
X180104Y168516D01*
X180088Y168374D01*
X180069Y168233D01*
X180045Y168092D01*
X180018Y167952D01*
X179986Y167813D01*
X179951Y167675D01*
X179912Y167537D01*
X179869Y167401D01*
X179823Y167267D01*
X179772Y167133D01*
X179719Y167001D01*
X179661Y166871D01*
X179600Y166742D01*
X179535Y166615D01*
X179467Y166489D01*
X179395Y166366D01*
X172254Y176385D02*
X169658Y179631D01*
X181342Y179631D01*
X181342Y182876D02*
X181342Y176385D01*
X172254Y187815D02*
X169658Y191060D01*
X181342Y191060D01*
X181342Y187815D02*
X181342Y194306D01*
D20*
X122584Y195549D02*
X122584Y153851D01*
X122584Y195549D02*
X99216Y195549D01*
X99216Y153851D01*
X122584Y153851D01*
D12*
X104011Y161850D02*
X104013Y161966D01*
X104019Y162081D01*
X104029Y162196D01*
X104043Y162311D01*
X104061Y162425D01*
X104083Y162539D01*
X104108Y162651D01*
X104138Y162763D01*
X104171Y162874D01*
X104209Y162983D01*
X104250Y163091D01*
X104294Y163198D01*
X104343Y163303D01*
X104395Y163406D01*
X104450Y163508D01*
X104509Y163607D01*
X104571Y163705D01*
X104637Y163800D01*
X104706Y163893D01*
X104778Y163983D01*
X104853Y164071D01*
X104931Y164156D01*
X105012Y164238D01*
X105096Y164318D01*
X105183Y164395D01*
X105272Y164468D01*
X105364Y164539D01*
X105458Y164606D01*
X105554Y164670D01*
X105652Y164731D01*
X105753Y164788D01*
X105855Y164842D01*
X105959Y164892D01*
X106065Y164939D01*
X106172Y164981D01*
X106281Y165020D01*
X106391Y165056D01*
X106503Y165087D01*
X106615Y165115D01*
X106728Y165139D01*
X106842Y165159D01*
X106956Y165175D01*
X107071Y165187D01*
X107187Y165195D01*
X107302Y165199D01*
X107418Y165199D01*
X107533Y165195D01*
X107649Y165187D01*
X107764Y165175D01*
X107878Y165159D01*
X107992Y165139D01*
X108105Y165115D01*
X108217Y165087D01*
X108329Y165056D01*
X108439Y165020D01*
X108548Y164981D01*
X108655Y164939D01*
X108761Y164892D01*
X108865Y164842D01*
X108967Y164788D01*
X109068Y164731D01*
X109166Y164670D01*
X109262Y164606D01*
X109356Y164539D01*
X109448Y164468D01*
X109537Y164395D01*
X109624Y164318D01*
X109708Y164238D01*
X109789Y164156D01*
X109867Y164071D01*
X109942Y163983D01*
X110014Y163893D01*
X110083Y163800D01*
X110149Y163705D01*
X110211Y163607D01*
X110270Y163508D01*
X110325Y163406D01*
X110377Y163303D01*
X110426Y163198D01*
X110470Y163091D01*
X110511Y162983D01*
X110549Y162874D01*
X110582Y162763D01*
X110612Y162651D01*
X110637Y162539D01*
X110659Y162425D01*
X110677Y162311D01*
X110691Y162196D01*
X110701Y162081D01*
X110707Y161966D01*
X110709Y161850D01*
X110707Y161734D01*
X110701Y161619D01*
X110691Y161504D01*
X110677Y161389D01*
X110659Y161275D01*
X110637Y161161D01*
X110612Y161049D01*
X110582Y160937D01*
X110549Y160826D01*
X110511Y160717D01*
X110470Y160609D01*
X110426Y160502D01*
X110377Y160397D01*
X110325Y160294D01*
X110270Y160192D01*
X110211Y160093D01*
X110149Y159995D01*
X110083Y159900D01*
X110014Y159807D01*
X109942Y159717D01*
X109867Y159629D01*
X109789Y159544D01*
X109708Y159462D01*
X109624Y159382D01*
X109537Y159305D01*
X109448Y159232D01*
X109356Y159161D01*
X109262Y159094D01*
X109166Y159030D01*
X109068Y158969D01*
X108967Y158912D01*
X108865Y158858D01*
X108761Y158808D01*
X108655Y158761D01*
X108548Y158719D01*
X108439Y158680D01*
X108329Y158644D01*
X108217Y158613D01*
X108105Y158585D01*
X107992Y158561D01*
X107878Y158541D01*
X107764Y158525D01*
X107649Y158513D01*
X107533Y158505D01*
X107418Y158501D01*
X107302Y158501D01*
X107187Y158505D01*
X107071Y158513D01*
X106956Y158525D01*
X106842Y158541D01*
X106728Y158561D01*
X106615Y158585D01*
X106503Y158613D01*
X106391Y158644D01*
X106281Y158680D01*
X106172Y158719D01*
X106065Y158761D01*
X105959Y158808D01*
X105855Y158858D01*
X105753Y158912D01*
X105652Y158969D01*
X105554Y159030D01*
X105458Y159094D01*
X105364Y159161D01*
X105272Y159232D01*
X105183Y159305D01*
X105096Y159382D01*
X105012Y159462D01*
X104931Y159544D01*
X104853Y159629D01*
X104778Y159717D01*
X104706Y159807D01*
X104637Y159900D01*
X104571Y159995D01*
X104509Y160093D01*
X104450Y160192D01*
X104395Y160294D01*
X104343Y160397D01*
X104294Y160502D01*
X104250Y160609D01*
X104209Y160717D01*
X104171Y160826D01*
X104138Y160937D01*
X104108Y161049D01*
X104083Y161161D01*
X104061Y161275D01*
X104043Y161389D01*
X104029Y161504D01*
X104019Y161619D01*
X104013Y161734D01*
X104011Y161850D01*
X88096Y156158D02*
X79658Y156158D01*
X88096Y156158D02*
X88209Y156160D01*
X88322Y156166D01*
X88435Y156176D01*
X88548Y156190D01*
X88660Y156207D01*
X88771Y156229D01*
X88881Y156254D01*
X88991Y156284D01*
X89099Y156317D01*
X89206Y156354D01*
X89312Y156394D01*
X89416Y156439D01*
X89519Y156487D01*
X89620Y156538D01*
X89719Y156593D01*
X89816Y156651D01*
X89911Y156713D01*
X90004Y156778D01*
X90094Y156846D01*
X90182Y156917D01*
X90268Y156992D01*
X90351Y157069D01*
X90431Y157149D01*
X90508Y157232D01*
X90583Y157318D01*
X90654Y157406D01*
X90722Y157496D01*
X90787Y157589D01*
X90849Y157684D01*
X90907Y157781D01*
X90962Y157880D01*
X91013Y157981D01*
X91061Y158084D01*
X91106Y158188D01*
X91146Y158294D01*
X91183Y158401D01*
X91216Y158509D01*
X91246Y158619D01*
X91271Y158729D01*
X91293Y158840D01*
X91310Y158952D01*
X91324Y159065D01*
X91334Y159178D01*
X91340Y159291D01*
X91342Y159404D01*
X91340Y159517D01*
X91334Y159630D01*
X91324Y159743D01*
X91310Y159856D01*
X91293Y159968D01*
X91271Y160079D01*
X91246Y160189D01*
X91216Y160299D01*
X91183Y160407D01*
X91146Y160514D01*
X91106Y160620D01*
X91061Y160724D01*
X91013Y160827D01*
X90962Y160928D01*
X90907Y161027D01*
X90849Y161124D01*
X90787Y161219D01*
X90722Y161312D01*
X90654Y161402D01*
X90583Y161490D01*
X90508Y161576D01*
X90431Y161659D01*
X90351Y161739D01*
X90268Y161816D01*
X90182Y161891D01*
X90094Y161962D01*
X90004Y162030D01*
X89911Y162095D01*
X89816Y162157D01*
X89719Y162215D01*
X89620Y162270D01*
X89519Y162321D01*
X89416Y162369D01*
X89312Y162414D01*
X89206Y162454D01*
X89099Y162491D01*
X88991Y162524D01*
X88881Y162554D01*
X88771Y162579D01*
X88660Y162601D01*
X88548Y162618D01*
X88435Y162632D01*
X88322Y162642D01*
X88209Y162648D01*
X88096Y162650D01*
X88096Y162649D02*
X79658Y162649D01*
X79658Y170453D02*
X91342Y170453D01*
X85500Y170453D02*
X84526Y168830D01*
X84527Y168829D02*
X84480Y168756D01*
X84431Y168685D01*
X84378Y168616D01*
X84322Y168549D01*
X84263Y168485D01*
X84202Y168423D01*
X84138Y168365D01*
X84071Y168309D01*
X84002Y168257D01*
X83930Y168207D01*
X83856Y168161D01*
X83781Y168118D01*
X83703Y168079D01*
X83624Y168043D01*
X83543Y168011D01*
X83461Y167982D01*
X83378Y167957D01*
X83294Y167936D01*
X83209Y167919D01*
X83123Y167905D01*
X83037Y167896D01*
X82950Y167890D01*
X82863Y167888D01*
X82776Y167890D01*
X82689Y167896D01*
X82603Y167906D01*
X82517Y167919D01*
X82432Y167937D01*
X82348Y167958D01*
X82265Y167983D01*
X82182Y168012D01*
X82102Y168044D01*
X82023Y168080D01*
X81945Y168119D01*
X81870Y168162D01*
X81796Y168209D01*
X81725Y168258D01*
X81655Y168311D01*
X81589Y168366D01*
X81525Y168425D01*
X81463Y168486D01*
X81404Y168550D01*
X81349Y168617D01*
X81296Y168686D01*
X81246Y168758D01*
X81200Y168831D01*
X81157Y168907D01*
X81118Y168984D01*
X81082Y169063D01*
X81049Y169144D01*
X81021Y169226D01*
X80995Y169309D01*
X80974Y169393D01*
X80957Y169478D01*
X80956Y169479D02*
X80932Y169619D01*
X80912Y169761D01*
X80896Y169902D01*
X80885Y170044D01*
X80877Y170187D01*
X80873Y170329D01*
X80872Y170472D01*
X80876Y170615D01*
X80884Y170757D01*
X80896Y170899D01*
X80912Y171041D01*
X80931Y171182D01*
X80955Y171323D01*
X80982Y171463D01*
X81014Y171602D01*
X81049Y171740D01*
X81088Y171878D01*
X81131Y172014D01*
X81177Y172148D01*
X81228Y172282D01*
X81281Y172414D01*
X81339Y172544D01*
X81400Y172673D01*
X81465Y172800D01*
X81533Y172926D01*
X81605Y173049D01*
X85500Y170453D02*
X86474Y172075D01*
X86473Y172076D02*
X86520Y172149D01*
X86569Y172220D01*
X86622Y172290D01*
X86678Y172356D01*
X86737Y172420D01*
X86798Y172482D01*
X86862Y172540D01*
X86929Y172596D01*
X86998Y172648D01*
X87070Y172698D01*
X87144Y172744D01*
X87219Y172787D01*
X87297Y172826D01*
X87376Y172862D01*
X87457Y172894D01*
X87539Y172923D01*
X87622Y172948D01*
X87706Y172969D01*
X87791Y172986D01*
X87877Y173000D01*
X87964Y173009D01*
X88050Y173015D01*
X88137Y173017D01*
X88224Y173015D01*
X88311Y173009D01*
X88397Y172999D01*
X88483Y172986D01*
X88568Y172968D01*
X88652Y172947D01*
X88735Y172922D01*
X88818Y172893D01*
X88898Y172861D01*
X88977Y172825D01*
X89055Y172786D01*
X89130Y172743D01*
X89204Y172696D01*
X89275Y172647D01*
X89345Y172594D01*
X89411Y172539D01*
X89475Y172480D01*
X89537Y172419D01*
X89596Y172354D01*
X89651Y172288D01*
X89704Y172219D01*
X89754Y172147D01*
X89800Y172074D01*
X89843Y171998D01*
X89882Y171921D01*
X89918Y171842D01*
X89951Y171761D01*
X89979Y171679D01*
X90005Y171596D01*
X90026Y171512D01*
X90043Y171426D01*
X90044Y171426D02*
X90068Y171286D01*
X90088Y171144D01*
X90104Y171003D01*
X90115Y170861D01*
X90123Y170718D01*
X90127Y170576D01*
X90128Y170433D01*
X90124Y170290D01*
X90116Y170148D01*
X90104Y170006D01*
X90088Y169864D01*
X90069Y169723D01*
X90045Y169582D01*
X90018Y169442D01*
X89986Y169303D01*
X89951Y169165D01*
X89912Y169027D01*
X89869Y168891D01*
X89823Y168757D01*
X89772Y168623D01*
X89719Y168491D01*
X89661Y168361D01*
X89600Y168232D01*
X89535Y168105D01*
X89467Y167979D01*
X89395Y167856D01*
X82254Y177875D02*
X79658Y181121D01*
X91342Y181121D01*
X91342Y184366D02*
X91342Y177875D01*
X79658Y192875D02*
X79660Y192982D01*
X79666Y193088D01*
X79676Y193194D01*
X79689Y193300D01*
X79707Y193406D01*
X79728Y193510D01*
X79753Y193614D01*
X79782Y193717D01*
X79814Y193818D01*
X79851Y193918D01*
X79891Y194017D01*
X79934Y194115D01*
X79981Y194211D01*
X80032Y194305D01*
X80086Y194397D01*
X80143Y194487D01*
X80203Y194575D01*
X80267Y194660D01*
X80334Y194743D01*
X80404Y194824D01*
X80476Y194902D01*
X80552Y194978D01*
X80630Y195050D01*
X80711Y195120D01*
X80794Y195187D01*
X80879Y195251D01*
X80967Y195311D01*
X81057Y195368D01*
X81149Y195422D01*
X81243Y195473D01*
X81339Y195520D01*
X81437Y195563D01*
X81536Y195603D01*
X81636Y195640D01*
X81737Y195672D01*
X81840Y195701D01*
X81944Y195726D01*
X82048Y195747D01*
X82154Y195765D01*
X82260Y195778D01*
X82366Y195788D01*
X82472Y195794D01*
X82579Y195796D01*
X79658Y192875D02*
X79660Y192754D01*
X79666Y192633D01*
X79676Y192513D01*
X79689Y192392D01*
X79707Y192273D01*
X79728Y192153D01*
X79753Y192035D01*
X79782Y191918D01*
X79815Y191801D01*
X79851Y191686D01*
X79892Y191572D01*
X79935Y191459D01*
X79983Y191347D01*
X80034Y191238D01*
X80089Y191130D01*
X80147Y191023D01*
X80208Y190919D01*
X80273Y190817D01*
X80341Y190717D01*
X80412Y190619D01*
X80486Y190523D01*
X80563Y190430D01*
X80644Y190340D01*
X80727Y190252D01*
X80813Y190167D01*
X80902Y190084D01*
X80993Y190005D01*
X81087Y189928D01*
X81183Y189855D01*
X81281Y189785D01*
X81382Y189718D01*
X81485Y189654D01*
X81590Y189594D01*
X81697Y189536D01*
X81805Y189483D01*
X81915Y189433D01*
X82027Y189387D01*
X82140Y189344D01*
X82255Y189305D01*
X84851Y194822D02*
X84773Y194901D01*
X84693Y194977D01*
X84610Y195050D01*
X84524Y195120D01*
X84437Y195187D01*
X84346Y195251D01*
X84254Y195311D01*
X84160Y195369D01*
X84063Y195423D01*
X83965Y195473D01*
X83865Y195520D01*
X83764Y195564D01*
X83661Y195604D01*
X83556Y195640D01*
X83451Y195672D01*
X83344Y195701D01*
X83237Y195726D01*
X83128Y195748D01*
X83019Y195765D01*
X82910Y195779D01*
X82800Y195788D01*
X82689Y195794D01*
X82579Y195796D01*
X84851Y194822D02*
X91342Y189305D01*
X91342Y195796D01*
D13*
X356400Y485800D02*
X366400Y489800D01*
X366400Y481800D01*
X356400Y485800D01*
D18*
X347900Y494050D02*
X374900Y494050D01*
X374900Y477550D02*
X347900Y477550D01*
D21*
X355400Y485800D03*
D22*
X350527Y496985D02*
X350527Y499737D01*
X350527Y496985D02*
X350529Y496921D01*
X350535Y496857D01*
X350544Y496794D01*
X350558Y496732D01*
X350575Y496670D01*
X350596Y496610D01*
X350620Y496551D01*
X350648Y496493D01*
X350680Y496438D01*
X350714Y496384D01*
X350752Y496333D01*
X350793Y496283D01*
X350837Y496237D01*
X350883Y496193D01*
X350933Y496152D01*
X350984Y496114D01*
X351038Y496080D01*
X351093Y496048D01*
X351151Y496020D01*
X351210Y495996D01*
X351270Y495975D01*
X351332Y495958D01*
X351394Y495944D01*
X351457Y495935D01*
X351521Y495929D01*
X351585Y495927D01*
X351649Y495929D01*
X351713Y495935D01*
X351776Y495944D01*
X351838Y495958D01*
X351900Y495975D01*
X351960Y495996D01*
X352019Y496020D01*
X352077Y496048D01*
X352132Y496080D01*
X352186Y496114D01*
X352237Y496152D01*
X352287Y496193D01*
X352333Y496237D01*
X352377Y496283D01*
X352418Y496333D01*
X352456Y496384D01*
X352490Y496438D01*
X352522Y496493D01*
X352550Y496551D01*
X352574Y496610D01*
X352595Y496670D01*
X352612Y496732D01*
X352626Y496794D01*
X352635Y496857D01*
X352641Y496921D01*
X352643Y496985D01*
X352644Y496985D02*
X352644Y499737D01*
X355121Y499737D02*
X355121Y495927D01*
X355121Y497832D02*
X354592Y498150D01*
X354551Y498177D01*
X354511Y498207D01*
X354475Y498240D01*
X354441Y498276D01*
X354410Y498315D01*
X354382Y498355D01*
X354358Y498398D01*
X354336Y498443D01*
X354319Y498489D01*
X354305Y498536D01*
X354294Y498584D01*
X354288Y498633D01*
X354285Y498682D01*
X354286Y498732D01*
X354291Y498781D01*
X354300Y498829D01*
X354313Y498877D01*
X354329Y498924D01*
X354349Y498969D01*
X354372Y499012D01*
X354399Y499054D01*
X354429Y499093D01*
X354461Y499130D01*
X354497Y499164D01*
X354535Y499195D01*
X354575Y499224D01*
X354618Y499249D01*
X354662Y499270D01*
X354708Y499288D01*
X354755Y499303D01*
X354803Y499314D01*
X354804Y499314D02*
X354883Y499326D01*
X354963Y499335D01*
X355044Y499340D01*
X355124Y499341D01*
X355205Y499338D01*
X355285Y499331D01*
X355365Y499321D01*
X355445Y499306D01*
X355523Y499288D01*
X355601Y499266D01*
X355677Y499240D01*
X355752Y499211D01*
X355826Y499178D01*
X355898Y499142D01*
X355968Y499102D01*
X355121Y497832D02*
X355650Y497515D01*
X355650Y497514D02*
X355691Y497487D01*
X355730Y497457D01*
X355767Y497424D01*
X355801Y497388D01*
X355832Y497349D01*
X355860Y497309D01*
X355884Y497266D01*
X355906Y497221D01*
X355923Y497175D01*
X355937Y497128D01*
X355948Y497080D01*
X355954Y497031D01*
X355957Y496982D01*
X355956Y496932D01*
X355951Y496883D01*
X355942Y496835D01*
X355929Y496787D01*
X355913Y496740D01*
X355893Y496695D01*
X355870Y496652D01*
X355843Y496610D01*
X355813Y496571D01*
X355781Y496534D01*
X355745Y496500D01*
X355707Y496469D01*
X355667Y496440D01*
X355624Y496415D01*
X355580Y496394D01*
X355534Y496376D01*
X355487Y496361D01*
X355439Y496350D01*
X355438Y496350D02*
X355359Y496338D01*
X355279Y496329D01*
X355198Y496324D01*
X355118Y496323D01*
X355037Y496326D01*
X354957Y496333D01*
X354877Y496343D01*
X354797Y496358D01*
X354719Y496376D01*
X354641Y496398D01*
X354565Y496424D01*
X354490Y496453D01*
X354416Y496486D01*
X354344Y496522D01*
X354274Y496562D01*
X358641Y499738D02*
X358701Y499736D01*
X358760Y499730D01*
X358820Y499721D01*
X358878Y499708D01*
X358935Y499691D01*
X358992Y499671D01*
X359047Y499647D01*
X359100Y499620D01*
X359152Y499590D01*
X359201Y499556D01*
X359248Y499519D01*
X359293Y499480D01*
X359336Y499437D01*
X359375Y499392D01*
X359412Y499345D01*
X359446Y499296D01*
X359476Y499244D01*
X359503Y499191D01*
X359527Y499136D01*
X359547Y499079D01*
X359564Y499022D01*
X359577Y498964D01*
X359586Y498904D01*
X359592Y498845D01*
X359594Y498785D01*
X358641Y499737D02*
X358574Y499735D01*
X358507Y499730D01*
X358441Y499721D01*
X358375Y499708D01*
X358311Y499692D01*
X358247Y499672D01*
X358184Y499648D01*
X358122Y499622D01*
X358063Y499592D01*
X358005Y499559D01*
X357948Y499522D01*
X357894Y499483D01*
X357842Y499441D01*
X357793Y499396D01*
X357746Y499348D01*
X357702Y499298D01*
X357660Y499245D01*
X357622Y499190D01*
X357586Y499134D01*
X357554Y499075D01*
X357525Y499015D01*
X357499Y498953D01*
X357477Y498890D01*
X359276Y498044D02*
X359317Y498086D01*
X359356Y498131D01*
X359393Y498177D01*
X359427Y498226D01*
X359458Y498276D01*
X359485Y498328D01*
X359510Y498382D01*
X359532Y498437D01*
X359551Y498493D01*
X359566Y498550D01*
X359578Y498608D01*
X359586Y498667D01*
X359591Y498726D01*
X359593Y498785D01*
X359276Y498044D02*
X357476Y495927D01*
X359593Y495927D01*
D13*
X365600Y289800D02*
X355600Y285800D01*
X365600Y289800D02*
X365600Y281800D01*
X355600Y285800D01*
D18*
X347100Y294050D02*
X374100Y294050D01*
X374100Y277550D02*
X347100Y277550D01*
D21*
X354600Y285800D03*
D22*
X349727Y296985D02*
X349727Y299737D01*
X349727Y296985D02*
X349729Y296921D01*
X349735Y296857D01*
X349744Y296794D01*
X349758Y296732D01*
X349775Y296670D01*
X349796Y296610D01*
X349820Y296551D01*
X349848Y296493D01*
X349880Y296438D01*
X349914Y296384D01*
X349952Y296333D01*
X349993Y296283D01*
X350037Y296237D01*
X350083Y296193D01*
X350133Y296152D01*
X350184Y296114D01*
X350238Y296080D01*
X350293Y296048D01*
X350351Y296020D01*
X350410Y295996D01*
X350470Y295975D01*
X350532Y295958D01*
X350594Y295944D01*
X350657Y295935D01*
X350721Y295929D01*
X350785Y295927D01*
X350849Y295929D01*
X350913Y295935D01*
X350976Y295944D01*
X351038Y295958D01*
X351100Y295975D01*
X351160Y295996D01*
X351219Y296020D01*
X351277Y296048D01*
X351332Y296080D01*
X351386Y296114D01*
X351437Y296152D01*
X351487Y296193D01*
X351533Y296237D01*
X351577Y296283D01*
X351618Y296333D01*
X351656Y296384D01*
X351690Y296438D01*
X351722Y296493D01*
X351750Y296551D01*
X351774Y296610D01*
X351795Y296670D01*
X351812Y296732D01*
X351826Y296794D01*
X351835Y296857D01*
X351841Y296921D01*
X351843Y296985D01*
X351844Y296985D02*
X351844Y299737D01*
X354321Y299737D02*
X354321Y295927D01*
X354321Y297832D02*
X353792Y298150D01*
X353751Y298177D01*
X353711Y298207D01*
X353675Y298240D01*
X353641Y298276D01*
X353610Y298315D01*
X353582Y298355D01*
X353558Y298398D01*
X353536Y298443D01*
X353519Y298489D01*
X353505Y298536D01*
X353494Y298584D01*
X353488Y298633D01*
X353485Y298682D01*
X353486Y298732D01*
X353491Y298781D01*
X353500Y298829D01*
X353513Y298877D01*
X353529Y298924D01*
X353549Y298969D01*
X353572Y299012D01*
X353599Y299054D01*
X353629Y299093D01*
X353661Y299130D01*
X353697Y299164D01*
X353735Y299195D01*
X353775Y299224D01*
X353818Y299249D01*
X353862Y299270D01*
X353908Y299288D01*
X353955Y299303D01*
X354003Y299314D01*
X354004Y299314D02*
X354083Y299326D01*
X354163Y299335D01*
X354244Y299340D01*
X354324Y299341D01*
X354405Y299338D01*
X354485Y299331D01*
X354565Y299321D01*
X354645Y299306D01*
X354723Y299288D01*
X354801Y299266D01*
X354877Y299240D01*
X354952Y299211D01*
X355026Y299178D01*
X355098Y299142D01*
X355168Y299102D01*
X354321Y297832D02*
X354850Y297515D01*
X354850Y297514D02*
X354891Y297487D01*
X354930Y297457D01*
X354967Y297424D01*
X355001Y297388D01*
X355032Y297349D01*
X355060Y297309D01*
X355084Y297266D01*
X355106Y297221D01*
X355123Y297175D01*
X355137Y297128D01*
X355148Y297080D01*
X355154Y297031D01*
X355157Y296982D01*
X355156Y296932D01*
X355151Y296883D01*
X355142Y296835D01*
X355129Y296787D01*
X355113Y296740D01*
X355093Y296695D01*
X355070Y296652D01*
X355043Y296610D01*
X355013Y296571D01*
X354981Y296534D01*
X354945Y296500D01*
X354907Y296469D01*
X354867Y296440D01*
X354824Y296415D01*
X354780Y296394D01*
X354734Y296376D01*
X354687Y296361D01*
X354639Y296350D01*
X354638Y296350D02*
X354559Y296338D01*
X354479Y296329D01*
X354398Y296324D01*
X354318Y296323D01*
X354237Y296326D01*
X354157Y296333D01*
X354077Y296343D01*
X353997Y296358D01*
X353919Y296376D01*
X353841Y296398D01*
X353765Y296424D01*
X353690Y296453D01*
X353616Y296486D01*
X353544Y296522D01*
X353474Y296562D01*
X356676Y295927D02*
X357735Y295927D01*
X357799Y295929D01*
X357863Y295935D01*
X357926Y295944D01*
X357988Y295958D01*
X358050Y295975D01*
X358110Y295996D01*
X358169Y296020D01*
X358227Y296048D01*
X358282Y296080D01*
X358336Y296114D01*
X358387Y296152D01*
X358437Y296193D01*
X358483Y296237D01*
X358527Y296283D01*
X358568Y296333D01*
X358606Y296384D01*
X358640Y296438D01*
X358672Y296493D01*
X358700Y296551D01*
X358724Y296610D01*
X358745Y296670D01*
X358762Y296732D01*
X358776Y296794D01*
X358785Y296857D01*
X358791Y296921D01*
X358793Y296985D01*
X358791Y297049D01*
X358785Y297113D01*
X358776Y297176D01*
X358762Y297238D01*
X358745Y297300D01*
X358724Y297360D01*
X358700Y297419D01*
X358672Y297477D01*
X358640Y297532D01*
X358606Y297586D01*
X358568Y297637D01*
X358527Y297687D01*
X358483Y297733D01*
X358437Y297777D01*
X358387Y297818D01*
X358336Y297856D01*
X358282Y297890D01*
X358227Y297922D01*
X358169Y297950D01*
X358110Y297974D01*
X358050Y297995D01*
X357988Y298012D01*
X357926Y298026D01*
X357863Y298035D01*
X357799Y298041D01*
X357735Y298043D01*
X357946Y299737D02*
X356676Y299737D01*
X357946Y299737D02*
X358003Y299735D01*
X358059Y299729D01*
X358115Y299720D01*
X358170Y299707D01*
X358224Y299690D01*
X358277Y299670D01*
X358328Y299646D01*
X358378Y299619D01*
X358425Y299588D01*
X358471Y299555D01*
X358514Y299518D01*
X358555Y299479D01*
X358593Y299437D01*
X358628Y299392D01*
X358660Y299346D01*
X358689Y299297D01*
X358714Y299247D01*
X358736Y299194D01*
X358755Y299141D01*
X358770Y299086D01*
X358781Y299031D01*
X358789Y298975D01*
X358793Y298918D01*
X358793Y298862D01*
X358789Y298805D01*
X358781Y298749D01*
X358770Y298694D01*
X358755Y298639D01*
X358736Y298586D01*
X358714Y298533D01*
X358689Y298483D01*
X358660Y298434D01*
X358628Y298388D01*
X358593Y298343D01*
X358555Y298301D01*
X358514Y298262D01*
X358471Y298225D01*
X358425Y298192D01*
X358378Y298161D01*
X358328Y298134D01*
X358277Y298110D01*
X358224Y298090D01*
X358170Y298073D01*
X358115Y298060D01*
X358059Y298051D01*
X358003Y298045D01*
X357946Y298043D01*
X357946Y298044D02*
X357100Y298044D01*
D18*
X340400Y454700D02*
X301400Y454700D01*
X301400Y405700D02*
X340400Y405700D01*
D19*
X280900Y449200D02*
X280902Y449263D01*
X280908Y449325D01*
X280918Y449387D01*
X280931Y449449D01*
X280949Y449509D01*
X280970Y449568D01*
X280995Y449626D01*
X281024Y449682D01*
X281056Y449736D01*
X281091Y449788D01*
X281129Y449837D01*
X281171Y449885D01*
X281215Y449929D01*
X281263Y449971D01*
X281312Y450009D01*
X281364Y450044D01*
X281418Y450076D01*
X281474Y450105D01*
X281532Y450130D01*
X281591Y450151D01*
X281651Y450169D01*
X281713Y450182D01*
X281775Y450192D01*
X281837Y450198D01*
X281900Y450200D01*
X281963Y450198D01*
X282025Y450192D01*
X282087Y450182D01*
X282149Y450169D01*
X282209Y450151D01*
X282268Y450130D01*
X282326Y450105D01*
X282382Y450076D01*
X282436Y450044D01*
X282488Y450009D01*
X282537Y449971D01*
X282585Y449929D01*
X282629Y449885D01*
X282671Y449837D01*
X282709Y449788D01*
X282744Y449736D01*
X282776Y449682D01*
X282805Y449626D01*
X282830Y449568D01*
X282851Y449509D01*
X282869Y449449D01*
X282882Y449387D01*
X282892Y449325D01*
X282898Y449263D01*
X282900Y449200D01*
X282898Y449137D01*
X282892Y449075D01*
X282882Y449013D01*
X282869Y448951D01*
X282851Y448891D01*
X282830Y448832D01*
X282805Y448774D01*
X282776Y448718D01*
X282744Y448664D01*
X282709Y448612D01*
X282671Y448563D01*
X282629Y448515D01*
X282585Y448471D01*
X282537Y448429D01*
X282488Y448391D01*
X282436Y448356D01*
X282382Y448324D01*
X282326Y448295D01*
X282268Y448270D01*
X282209Y448249D01*
X282149Y448231D01*
X282087Y448218D01*
X282025Y448208D01*
X281963Y448202D01*
X281900Y448200D01*
X281837Y448202D01*
X281775Y448208D01*
X281713Y448218D01*
X281651Y448231D01*
X281591Y448249D01*
X281532Y448270D01*
X281474Y448295D01*
X281418Y448324D01*
X281364Y448356D01*
X281312Y448391D01*
X281263Y448429D01*
X281215Y448471D01*
X281171Y448515D01*
X281129Y448563D01*
X281091Y448612D01*
X281056Y448664D01*
X281024Y448718D01*
X280995Y448774D01*
X280970Y448832D01*
X280949Y448891D01*
X280931Y448951D01*
X280918Y449013D01*
X280908Y449075D01*
X280902Y449137D01*
X280900Y449200D01*
D12*
X288868Y466604D02*
X288868Y475042D01*
X288868Y466604D02*
X288870Y466491D01*
X288876Y466378D01*
X288886Y466265D01*
X288900Y466152D01*
X288917Y466040D01*
X288939Y465929D01*
X288964Y465819D01*
X288994Y465709D01*
X289027Y465601D01*
X289064Y465494D01*
X289104Y465388D01*
X289149Y465284D01*
X289197Y465181D01*
X289248Y465080D01*
X289303Y464981D01*
X289361Y464884D01*
X289423Y464789D01*
X289488Y464696D01*
X289556Y464606D01*
X289627Y464518D01*
X289702Y464432D01*
X289779Y464349D01*
X289859Y464269D01*
X289942Y464192D01*
X290028Y464117D01*
X290116Y464046D01*
X290206Y463978D01*
X290299Y463913D01*
X290394Y463851D01*
X290491Y463793D01*
X290590Y463738D01*
X290691Y463687D01*
X290794Y463639D01*
X290898Y463594D01*
X291004Y463554D01*
X291111Y463517D01*
X291219Y463484D01*
X291329Y463454D01*
X291439Y463429D01*
X291550Y463407D01*
X291662Y463390D01*
X291775Y463376D01*
X291888Y463366D01*
X292001Y463360D01*
X292114Y463358D01*
X292227Y463360D01*
X292340Y463366D01*
X292453Y463376D01*
X292566Y463390D01*
X292678Y463407D01*
X292789Y463429D01*
X292899Y463454D01*
X293009Y463484D01*
X293117Y463517D01*
X293224Y463554D01*
X293330Y463594D01*
X293434Y463639D01*
X293537Y463687D01*
X293638Y463738D01*
X293737Y463793D01*
X293834Y463851D01*
X293929Y463913D01*
X294022Y463978D01*
X294112Y464046D01*
X294200Y464117D01*
X294286Y464192D01*
X294369Y464269D01*
X294449Y464349D01*
X294526Y464432D01*
X294601Y464518D01*
X294672Y464606D01*
X294740Y464696D01*
X294805Y464789D01*
X294867Y464884D01*
X294925Y464981D01*
X294980Y465080D01*
X295031Y465181D01*
X295079Y465284D01*
X295124Y465388D01*
X295164Y465494D01*
X295201Y465601D01*
X295234Y465709D01*
X295264Y465819D01*
X295289Y465929D01*
X295311Y466040D01*
X295328Y466152D01*
X295342Y466265D01*
X295352Y466378D01*
X295358Y466491D01*
X295360Y466604D01*
X295359Y466604D02*
X295359Y475042D01*
X303163Y475042D02*
X303163Y463358D01*
X303163Y469200D02*
X301540Y470174D01*
X301539Y470173D02*
X301466Y470220D01*
X301395Y470269D01*
X301325Y470322D01*
X301259Y470378D01*
X301195Y470437D01*
X301133Y470498D01*
X301075Y470562D01*
X301019Y470629D01*
X300967Y470698D01*
X300917Y470770D01*
X300871Y470844D01*
X300828Y470919D01*
X300789Y470997D01*
X300753Y471076D01*
X300721Y471157D01*
X300692Y471239D01*
X300667Y471322D01*
X300646Y471406D01*
X300629Y471491D01*
X300615Y471577D01*
X300606Y471663D01*
X300600Y471750D01*
X300598Y471837D01*
X300600Y471924D01*
X300606Y472011D01*
X300616Y472097D01*
X300629Y472183D01*
X300647Y472268D01*
X300668Y472352D01*
X300693Y472435D01*
X300722Y472518D01*
X300754Y472598D01*
X300790Y472677D01*
X300829Y472755D01*
X300872Y472830D01*
X300919Y472904D01*
X300968Y472975D01*
X301021Y473045D01*
X301076Y473111D01*
X301135Y473175D01*
X301196Y473237D01*
X301261Y473296D01*
X301327Y473351D01*
X301396Y473404D01*
X301468Y473454D01*
X301541Y473500D01*
X301617Y473543D01*
X301694Y473582D01*
X301773Y473618D01*
X301854Y473651D01*
X301936Y473679D01*
X302019Y473705D01*
X302103Y473726D01*
X302189Y473743D01*
X302189Y473744D02*
X302329Y473768D01*
X302471Y473788D01*
X302612Y473804D01*
X302754Y473815D01*
X302897Y473823D01*
X303039Y473827D01*
X303182Y473828D01*
X303325Y473824D01*
X303467Y473816D01*
X303609Y473804D01*
X303751Y473788D01*
X303892Y473769D01*
X304033Y473745D01*
X304173Y473718D01*
X304312Y473686D01*
X304450Y473651D01*
X304588Y473612D01*
X304724Y473569D01*
X304858Y473523D01*
X304992Y473472D01*
X305124Y473419D01*
X305254Y473361D01*
X305383Y473300D01*
X305510Y473235D01*
X305636Y473167D01*
X305759Y473095D01*
X303163Y469200D02*
X304785Y468226D01*
X304786Y468227D02*
X304859Y468180D01*
X304930Y468131D01*
X305000Y468078D01*
X305066Y468022D01*
X305130Y467963D01*
X305192Y467902D01*
X305250Y467838D01*
X305306Y467771D01*
X305358Y467702D01*
X305408Y467630D01*
X305454Y467556D01*
X305497Y467481D01*
X305536Y467403D01*
X305572Y467324D01*
X305604Y467243D01*
X305633Y467161D01*
X305658Y467078D01*
X305679Y466994D01*
X305696Y466909D01*
X305710Y466823D01*
X305719Y466737D01*
X305725Y466650D01*
X305727Y466563D01*
X305725Y466476D01*
X305719Y466389D01*
X305709Y466303D01*
X305696Y466217D01*
X305678Y466132D01*
X305657Y466048D01*
X305632Y465965D01*
X305603Y465882D01*
X305571Y465802D01*
X305535Y465723D01*
X305496Y465645D01*
X305453Y465570D01*
X305406Y465496D01*
X305357Y465425D01*
X305304Y465355D01*
X305249Y465289D01*
X305190Y465225D01*
X305129Y465163D01*
X305064Y465104D01*
X304998Y465049D01*
X304929Y464996D01*
X304857Y464946D01*
X304784Y464900D01*
X304708Y464857D01*
X304631Y464818D01*
X304552Y464782D01*
X304471Y464749D01*
X304389Y464721D01*
X304306Y464695D01*
X304222Y464674D01*
X304137Y464657D01*
X304136Y464656D02*
X303996Y464632D01*
X303854Y464612D01*
X303713Y464596D01*
X303571Y464585D01*
X303428Y464577D01*
X303286Y464573D01*
X303143Y464572D01*
X303000Y464576D01*
X302858Y464584D01*
X302716Y464596D01*
X302574Y464612D01*
X302433Y464631D01*
X302292Y464655D01*
X302152Y464682D01*
X302013Y464714D01*
X301875Y464749D01*
X301737Y464788D01*
X301601Y464831D01*
X301467Y464877D01*
X301333Y464928D01*
X301201Y464981D01*
X301071Y465039D01*
X300942Y465100D01*
X300815Y465165D01*
X300689Y465233D01*
X300566Y465305D01*
X310585Y469849D02*
X314480Y469849D01*
X314579Y469847D01*
X314679Y469841D01*
X314778Y469832D01*
X314876Y469819D01*
X314974Y469802D01*
X315072Y469781D01*
X315168Y469756D01*
X315263Y469728D01*
X315357Y469696D01*
X315450Y469661D01*
X315542Y469622D01*
X315632Y469579D01*
X315720Y469534D01*
X315807Y469484D01*
X315891Y469432D01*
X315974Y469376D01*
X316054Y469318D01*
X316132Y469256D01*
X316207Y469191D01*
X316280Y469123D01*
X316350Y469053D01*
X316418Y468980D01*
X316483Y468905D01*
X316545Y468827D01*
X316603Y468747D01*
X316659Y468664D01*
X316711Y468580D01*
X316761Y468493D01*
X316806Y468405D01*
X316849Y468315D01*
X316888Y468223D01*
X316923Y468130D01*
X316955Y468036D01*
X316983Y467941D01*
X317008Y467845D01*
X317029Y467747D01*
X317046Y467649D01*
X317059Y467551D01*
X317068Y467452D01*
X317074Y467352D01*
X317076Y467253D01*
X317076Y466604D01*
X317077Y466604D02*
X317075Y466491D01*
X317069Y466378D01*
X317059Y466265D01*
X317045Y466152D01*
X317028Y466040D01*
X317006Y465929D01*
X316981Y465819D01*
X316951Y465709D01*
X316918Y465601D01*
X316881Y465494D01*
X316841Y465388D01*
X316796Y465284D01*
X316748Y465181D01*
X316697Y465080D01*
X316642Y464981D01*
X316584Y464884D01*
X316522Y464789D01*
X316457Y464696D01*
X316389Y464606D01*
X316318Y464518D01*
X316243Y464432D01*
X316166Y464349D01*
X316086Y464269D01*
X316003Y464192D01*
X315917Y464117D01*
X315829Y464046D01*
X315739Y463978D01*
X315646Y463913D01*
X315551Y463851D01*
X315454Y463793D01*
X315355Y463738D01*
X315254Y463687D01*
X315151Y463639D01*
X315047Y463594D01*
X314941Y463554D01*
X314834Y463517D01*
X314726Y463484D01*
X314616Y463454D01*
X314506Y463429D01*
X314395Y463407D01*
X314283Y463390D01*
X314170Y463376D01*
X314057Y463366D01*
X313944Y463360D01*
X313831Y463358D01*
X313718Y463360D01*
X313605Y463366D01*
X313492Y463376D01*
X313379Y463390D01*
X313267Y463407D01*
X313156Y463429D01*
X313046Y463454D01*
X312936Y463484D01*
X312828Y463517D01*
X312721Y463554D01*
X312615Y463594D01*
X312511Y463639D01*
X312408Y463687D01*
X312307Y463738D01*
X312208Y463793D01*
X312111Y463851D01*
X312016Y463913D01*
X311923Y463978D01*
X311833Y464046D01*
X311745Y464117D01*
X311659Y464192D01*
X311576Y464269D01*
X311496Y464349D01*
X311419Y464432D01*
X311344Y464518D01*
X311273Y464606D01*
X311205Y464696D01*
X311140Y464789D01*
X311078Y464884D01*
X311020Y464981D01*
X310965Y465080D01*
X310914Y465181D01*
X310866Y465284D01*
X310821Y465388D01*
X310781Y465494D01*
X310744Y465601D01*
X310711Y465709D01*
X310681Y465819D01*
X310656Y465929D01*
X310634Y466040D01*
X310617Y466152D01*
X310603Y466265D01*
X310593Y466378D01*
X310587Y466491D01*
X310585Y466604D01*
X310585Y469849D01*
X310587Y469992D01*
X310593Y470135D01*
X310603Y470278D01*
X310617Y470420D01*
X310634Y470562D01*
X310656Y470704D01*
X310681Y470845D01*
X310711Y470985D01*
X310744Y471124D01*
X310781Y471262D01*
X310822Y471399D01*
X310866Y471535D01*
X310915Y471670D01*
X310967Y471803D01*
X311022Y471935D01*
X311082Y472065D01*
X311145Y472194D01*
X311211Y472321D01*
X311281Y472445D01*
X311354Y472568D01*
X311431Y472689D01*
X311511Y472808D01*
X311594Y472924D01*
X311680Y473039D01*
X311769Y473150D01*
X311862Y473260D01*
X311957Y473366D01*
X312056Y473470D01*
X312157Y473571D01*
X312261Y473670D01*
X312367Y473765D01*
X312477Y473858D01*
X312588Y473947D01*
X312703Y474033D01*
X312819Y474116D01*
X312938Y474196D01*
X313059Y474273D01*
X313181Y474346D01*
X313306Y474416D01*
X313433Y474482D01*
X313562Y474545D01*
X313692Y474605D01*
X313824Y474660D01*
X313957Y474712D01*
X314092Y474761D01*
X314228Y474805D01*
X314365Y474846D01*
X314503Y474883D01*
X314642Y474916D01*
X314782Y474946D01*
X314923Y474971D01*
X315065Y474993D01*
X315207Y475010D01*
X315349Y475024D01*
X315492Y475034D01*
X315635Y475040D01*
X315778Y475042D01*
D18*
X803680Y446400D02*
X803680Y370200D01*
D12*
X112072Y69588D02*
X100388Y69588D01*
X100388Y72834D01*
X100390Y72947D01*
X100396Y73060D01*
X100406Y73173D01*
X100420Y73286D01*
X100437Y73398D01*
X100459Y73509D01*
X100484Y73619D01*
X100514Y73729D01*
X100547Y73837D01*
X100584Y73944D01*
X100624Y74050D01*
X100669Y74154D01*
X100717Y74257D01*
X100768Y74358D01*
X100823Y74457D01*
X100881Y74554D01*
X100943Y74649D01*
X101008Y74742D01*
X101076Y74832D01*
X101147Y74920D01*
X101222Y75006D01*
X101299Y75089D01*
X101379Y75169D01*
X101462Y75246D01*
X101548Y75321D01*
X101636Y75392D01*
X101726Y75460D01*
X101819Y75525D01*
X101914Y75587D01*
X102011Y75645D01*
X102110Y75700D01*
X102211Y75751D01*
X102314Y75799D01*
X102418Y75844D01*
X102524Y75884D01*
X102631Y75921D01*
X102739Y75954D01*
X102849Y75984D01*
X102959Y76009D01*
X103070Y76031D01*
X103182Y76048D01*
X103295Y76062D01*
X103408Y76072D01*
X103521Y76078D01*
X103634Y76080D01*
X103747Y76078D01*
X103860Y76072D01*
X103973Y76062D01*
X104086Y76048D01*
X104198Y76031D01*
X104309Y76009D01*
X104419Y75984D01*
X104529Y75954D01*
X104637Y75921D01*
X104744Y75884D01*
X104850Y75844D01*
X104954Y75799D01*
X105057Y75751D01*
X105158Y75700D01*
X105257Y75645D01*
X105354Y75587D01*
X105449Y75525D01*
X105542Y75460D01*
X105632Y75392D01*
X105720Y75321D01*
X105806Y75246D01*
X105889Y75169D01*
X105969Y75089D01*
X106046Y75006D01*
X106121Y74920D01*
X106192Y74832D01*
X106260Y74742D01*
X106325Y74649D01*
X106387Y74554D01*
X106445Y74457D01*
X106500Y74358D01*
X106551Y74257D01*
X106599Y74154D01*
X106644Y74050D01*
X106684Y73944D01*
X106721Y73837D01*
X106754Y73729D01*
X106784Y73619D01*
X106809Y73509D01*
X106831Y73398D01*
X106848Y73286D01*
X106862Y73173D01*
X106872Y73060D01*
X106878Y72947D01*
X106880Y72834D01*
X106879Y72834D02*
X106879Y69588D01*
X106879Y73483D02*
X112072Y76079D01*
X102984Y80944D02*
X100388Y84190D01*
X112072Y84190D01*
X112072Y87435D02*
X112072Y80944D01*
D18*
X127699Y102000D02*
X127699Y123099D01*
X112301Y123099D01*
X112301Y102000D01*
D12*
X134557Y90954D02*
X146241Y90954D01*
X146241Y96147D01*
X146241Y100860D02*
X146241Y106053D01*
X146241Y100860D02*
X134557Y100860D01*
X134557Y106053D01*
X139750Y104755D02*
X139750Y100860D01*
X134557Y110744D02*
X146241Y110744D01*
X134557Y110744D02*
X134557Y113989D01*
X134559Y114102D01*
X134565Y114215D01*
X134575Y114328D01*
X134589Y114441D01*
X134606Y114553D01*
X134628Y114664D01*
X134653Y114774D01*
X134683Y114884D01*
X134716Y114992D01*
X134753Y115099D01*
X134793Y115205D01*
X134838Y115309D01*
X134886Y115412D01*
X134937Y115513D01*
X134992Y115612D01*
X135050Y115709D01*
X135112Y115804D01*
X135177Y115897D01*
X135245Y115987D01*
X135316Y116075D01*
X135391Y116161D01*
X135468Y116244D01*
X135548Y116324D01*
X135631Y116401D01*
X135717Y116476D01*
X135805Y116547D01*
X135895Y116615D01*
X135988Y116680D01*
X136083Y116742D01*
X136180Y116800D01*
X136279Y116855D01*
X136380Y116906D01*
X136483Y116954D01*
X136587Y116999D01*
X136693Y117039D01*
X136800Y117076D01*
X136908Y117109D01*
X137018Y117139D01*
X137128Y117164D01*
X137239Y117186D01*
X137351Y117203D01*
X137464Y117217D01*
X137577Y117227D01*
X137690Y117233D01*
X137803Y117235D01*
X142995Y117235D01*
X143108Y117233D01*
X143221Y117227D01*
X143334Y117217D01*
X143447Y117203D01*
X143559Y117186D01*
X143670Y117164D01*
X143780Y117139D01*
X143890Y117109D01*
X143998Y117076D01*
X144105Y117039D01*
X144211Y116999D01*
X144315Y116954D01*
X144418Y116906D01*
X144519Y116855D01*
X144618Y116800D01*
X144715Y116742D01*
X144810Y116680D01*
X144903Y116615D01*
X144993Y116547D01*
X145081Y116476D01*
X145167Y116401D01*
X145250Y116324D01*
X145330Y116244D01*
X145407Y116161D01*
X145482Y116075D01*
X145553Y115987D01*
X145621Y115897D01*
X145686Y115804D01*
X145748Y115709D01*
X145806Y115612D01*
X145861Y115513D01*
X145912Y115412D01*
X145960Y115309D01*
X146005Y115205D01*
X146045Y115099D01*
X146082Y114992D01*
X146115Y114884D01*
X146145Y114774D01*
X146170Y114664D01*
X146192Y114553D01*
X146209Y114441D01*
X146223Y114328D01*
X146233Y114215D01*
X146239Y114102D01*
X146241Y113989D01*
X146241Y110744D01*
X137153Y122555D02*
X134557Y125800D01*
X146241Y125800D01*
X146241Y122555D02*
X146241Y129046D01*
D18*
X222339Y122939D02*
X222339Y101840D01*
X222339Y122939D02*
X206941Y122939D01*
X206941Y101840D01*
D12*
X229197Y90794D02*
X240881Y90794D01*
X240881Y95987D01*
X240881Y100700D02*
X240881Y105893D01*
X240881Y100700D02*
X229197Y100700D01*
X229197Y105893D01*
X234390Y104595D02*
X234390Y100700D01*
X229197Y110584D02*
X240881Y110584D01*
X229197Y110584D02*
X229197Y113829D01*
X229199Y113942D01*
X229205Y114055D01*
X229215Y114168D01*
X229229Y114281D01*
X229246Y114393D01*
X229268Y114504D01*
X229293Y114614D01*
X229323Y114724D01*
X229356Y114832D01*
X229393Y114939D01*
X229433Y115045D01*
X229478Y115149D01*
X229526Y115252D01*
X229577Y115353D01*
X229632Y115452D01*
X229690Y115549D01*
X229752Y115644D01*
X229817Y115737D01*
X229885Y115827D01*
X229956Y115915D01*
X230031Y116001D01*
X230108Y116084D01*
X230188Y116164D01*
X230271Y116241D01*
X230357Y116316D01*
X230445Y116387D01*
X230535Y116455D01*
X230628Y116520D01*
X230723Y116582D01*
X230820Y116640D01*
X230919Y116695D01*
X231020Y116746D01*
X231123Y116794D01*
X231227Y116839D01*
X231333Y116879D01*
X231440Y116916D01*
X231548Y116949D01*
X231658Y116979D01*
X231768Y117004D01*
X231879Y117026D01*
X231991Y117043D01*
X232104Y117057D01*
X232217Y117067D01*
X232330Y117073D01*
X232443Y117075D01*
X237635Y117075D01*
X237748Y117073D01*
X237861Y117067D01*
X237974Y117057D01*
X238087Y117043D01*
X238199Y117026D01*
X238310Y117004D01*
X238420Y116979D01*
X238530Y116949D01*
X238638Y116916D01*
X238745Y116879D01*
X238851Y116839D01*
X238955Y116794D01*
X239058Y116746D01*
X239159Y116695D01*
X239258Y116640D01*
X239355Y116582D01*
X239450Y116520D01*
X239543Y116455D01*
X239633Y116387D01*
X239721Y116316D01*
X239807Y116241D01*
X239890Y116164D01*
X239970Y116084D01*
X240047Y116001D01*
X240122Y115915D01*
X240193Y115827D01*
X240261Y115737D01*
X240326Y115644D01*
X240388Y115549D01*
X240446Y115452D01*
X240501Y115353D01*
X240552Y115252D01*
X240600Y115149D01*
X240645Y115045D01*
X240685Y114939D01*
X240722Y114832D01*
X240755Y114724D01*
X240785Y114614D01*
X240810Y114504D01*
X240832Y114393D01*
X240849Y114281D01*
X240863Y114168D01*
X240873Y114055D01*
X240879Y113942D01*
X240881Y113829D01*
X240881Y110584D01*
X229197Y125965D02*
X229199Y126072D01*
X229205Y126178D01*
X229215Y126284D01*
X229228Y126390D01*
X229246Y126496D01*
X229267Y126600D01*
X229292Y126704D01*
X229321Y126807D01*
X229353Y126908D01*
X229390Y127008D01*
X229430Y127107D01*
X229473Y127205D01*
X229520Y127301D01*
X229571Y127395D01*
X229625Y127487D01*
X229682Y127577D01*
X229742Y127665D01*
X229806Y127750D01*
X229873Y127833D01*
X229943Y127914D01*
X230015Y127992D01*
X230091Y128068D01*
X230169Y128140D01*
X230250Y128210D01*
X230333Y128277D01*
X230418Y128341D01*
X230506Y128401D01*
X230596Y128458D01*
X230688Y128512D01*
X230782Y128563D01*
X230878Y128610D01*
X230976Y128653D01*
X231075Y128693D01*
X231175Y128730D01*
X231276Y128762D01*
X231379Y128791D01*
X231483Y128816D01*
X231587Y128837D01*
X231693Y128855D01*
X231799Y128868D01*
X231905Y128878D01*
X232011Y128884D01*
X232118Y128886D01*
X229197Y125965D02*
X229199Y125844D01*
X229205Y125723D01*
X229215Y125603D01*
X229228Y125482D01*
X229246Y125363D01*
X229267Y125243D01*
X229292Y125125D01*
X229321Y125008D01*
X229354Y124891D01*
X229390Y124776D01*
X229431Y124662D01*
X229474Y124549D01*
X229522Y124437D01*
X229573Y124328D01*
X229628Y124220D01*
X229686Y124113D01*
X229747Y124009D01*
X229812Y123907D01*
X229880Y123807D01*
X229951Y123709D01*
X230025Y123613D01*
X230102Y123520D01*
X230183Y123430D01*
X230266Y123342D01*
X230352Y123257D01*
X230441Y123174D01*
X230532Y123095D01*
X230626Y123018D01*
X230722Y122945D01*
X230820Y122875D01*
X230921Y122808D01*
X231024Y122744D01*
X231129Y122684D01*
X231236Y122626D01*
X231344Y122573D01*
X231454Y122523D01*
X231566Y122477D01*
X231679Y122434D01*
X231794Y122395D01*
X234390Y127911D02*
X234312Y127990D01*
X234232Y128066D01*
X234149Y128139D01*
X234063Y128209D01*
X233976Y128276D01*
X233885Y128340D01*
X233793Y128400D01*
X233699Y128458D01*
X233602Y128512D01*
X233504Y128562D01*
X233404Y128609D01*
X233303Y128653D01*
X233200Y128693D01*
X233095Y128729D01*
X232990Y128761D01*
X232883Y128790D01*
X232776Y128815D01*
X232667Y128837D01*
X232558Y128854D01*
X232449Y128868D01*
X232339Y128877D01*
X232228Y128883D01*
X232118Y128885D01*
X234390Y127912D02*
X240881Y122395D01*
X240881Y128886D01*
D20*
X510000Y480000D02*
X534000Y480000D01*
X534000Y380000D01*
X510000Y380000D01*
D23*
X541500Y430000D03*
X541500Y404600D03*
X541500Y455400D03*
D18*
X490704Y372215D02*
X490704Y368730D01*
X490706Y368659D01*
X490712Y368587D01*
X490721Y368517D01*
X490734Y368447D01*
X490751Y368377D01*
X490772Y368309D01*
X490796Y368242D01*
X490824Y368176D01*
X490855Y368112D01*
X490890Y368049D01*
X490928Y367989D01*
X490969Y367930D01*
X491013Y367874D01*
X491060Y367820D01*
X491109Y367769D01*
X491162Y367721D01*
X491217Y367675D01*
X491274Y367633D01*
X491334Y367593D01*
X491395Y367557D01*
X491459Y367524D01*
X491524Y367495D01*
X491590Y367469D01*
X491658Y367446D01*
X491727Y367427D01*
X491797Y367412D01*
X491867Y367401D01*
X491938Y367393D01*
X492009Y367389D01*
X492081Y367389D01*
X492152Y367393D01*
X492223Y367401D01*
X492293Y367412D01*
X492363Y367427D01*
X492432Y367446D01*
X492500Y367469D01*
X492566Y367495D01*
X492631Y367524D01*
X492695Y367557D01*
X492756Y367593D01*
X492816Y367633D01*
X492873Y367675D01*
X492928Y367721D01*
X492981Y367769D01*
X493030Y367820D01*
X493077Y367874D01*
X493121Y367930D01*
X493162Y367989D01*
X493200Y368049D01*
X493235Y368112D01*
X493266Y368176D01*
X493294Y368242D01*
X493318Y368309D01*
X493339Y368377D01*
X493356Y368447D01*
X493369Y368517D01*
X493378Y368587D01*
X493384Y368659D01*
X493386Y368730D01*
X493385Y368730D02*
X493385Y372215D01*
X497348Y372215D02*
X497348Y367389D01*
X497348Y369802D02*
X496678Y370204D01*
X496631Y370234D01*
X496587Y370268D01*
X496545Y370304D01*
X496506Y370343D01*
X496469Y370384D01*
X496436Y370429D01*
X496406Y370475D01*
X496378Y370523D01*
X496355Y370573D01*
X496335Y370625D01*
X496318Y370678D01*
X496305Y370731D01*
X496296Y370786D01*
X496291Y370841D01*
X496289Y370897D01*
X496291Y370952D01*
X496297Y371007D01*
X496307Y371061D01*
X496321Y371115D01*
X496338Y371168D01*
X496359Y371219D01*
X496384Y371269D01*
X496411Y371317D01*
X496442Y371362D01*
X496477Y371406D01*
X496514Y371447D01*
X496553Y371486D01*
X496596Y371521D01*
X496641Y371554D01*
X496687Y371584D01*
X496736Y371610D01*
X496787Y371632D01*
X496839Y371652D01*
X496892Y371667D01*
X496946Y371679D01*
X496946Y371678D02*
X497035Y371693D01*
X497125Y371703D01*
X497215Y371710D01*
X497305Y371713D01*
X497395Y371712D01*
X497485Y371707D01*
X497574Y371699D01*
X497664Y371686D01*
X497752Y371670D01*
X497840Y371650D01*
X497927Y371627D01*
X498013Y371600D01*
X498097Y371569D01*
X498181Y371534D01*
X498262Y371496D01*
X498343Y371455D01*
X498421Y371410D01*
X497348Y369802D02*
X498019Y369400D01*
X498066Y369370D01*
X498110Y369336D01*
X498152Y369300D01*
X498191Y369261D01*
X498228Y369220D01*
X498261Y369175D01*
X498291Y369129D01*
X498319Y369081D01*
X498342Y369031D01*
X498362Y368979D01*
X498379Y368926D01*
X498392Y368873D01*
X498401Y368818D01*
X498406Y368763D01*
X498408Y368707D01*
X498406Y368652D01*
X498400Y368597D01*
X498390Y368543D01*
X498376Y368489D01*
X498359Y368436D01*
X498338Y368385D01*
X498313Y368335D01*
X498286Y368287D01*
X498255Y368241D01*
X498220Y368198D01*
X498183Y368157D01*
X498144Y368118D01*
X498101Y368083D01*
X498056Y368050D01*
X498009Y368020D01*
X497961Y367994D01*
X497910Y367972D01*
X497858Y367952D01*
X497805Y367937D01*
X497751Y367925D01*
X497751Y367926D02*
X497662Y367911D01*
X497572Y367901D01*
X497482Y367894D01*
X497392Y367891D01*
X497302Y367892D01*
X497212Y367897D01*
X497123Y367905D01*
X497033Y367918D01*
X496945Y367934D01*
X496857Y367954D01*
X496770Y367977D01*
X496684Y368004D01*
X496600Y368035D01*
X496516Y368070D01*
X496435Y368108D01*
X496355Y368149D01*
X496276Y368194D01*
X501128Y371143D02*
X502469Y372215D01*
X502469Y367389D01*
X503809Y367389D02*
X501128Y367389D01*
X506615Y369802D02*
X506617Y369922D01*
X506622Y370042D01*
X506631Y370162D01*
X506644Y370282D01*
X506660Y370401D01*
X506680Y370520D01*
X506704Y370638D01*
X506731Y370755D01*
X506761Y370871D01*
X506795Y370986D01*
X506833Y371101D01*
X506874Y371214D01*
X506918Y371325D01*
X506966Y371436D01*
X507017Y371545D01*
X507038Y371602D01*
X507064Y371658D01*
X507092Y371713D01*
X507124Y371765D01*
X507160Y371816D01*
X507198Y371864D01*
X507239Y371910D01*
X507283Y371953D01*
X507329Y371993D01*
X507378Y372030D01*
X507430Y372064D01*
X507483Y372095D01*
X507538Y372123D01*
X507594Y372147D01*
X507652Y372168D01*
X507711Y372185D01*
X507771Y372198D01*
X507832Y372207D01*
X507894Y372213D01*
X507955Y372215D01*
X508016Y372213D01*
X508078Y372207D01*
X508139Y372198D01*
X508199Y372185D01*
X508258Y372168D01*
X508316Y372147D01*
X508372Y372123D01*
X508427Y372095D01*
X508480Y372064D01*
X508532Y372030D01*
X508581Y371993D01*
X508627Y371953D01*
X508671Y371910D01*
X508712Y371864D01*
X508750Y371816D01*
X508786Y371765D01*
X508818Y371713D01*
X508846Y371658D01*
X508872Y371602D01*
X508893Y371545D01*
X508894Y371545D02*
X508945Y371436D01*
X508993Y371325D01*
X509037Y371214D01*
X509078Y371101D01*
X509116Y370986D01*
X509150Y370871D01*
X509180Y370755D01*
X509207Y370638D01*
X509231Y370520D01*
X509251Y370401D01*
X509267Y370282D01*
X509280Y370162D01*
X509289Y370042D01*
X509294Y369922D01*
X509296Y369802D01*
X506615Y369802D02*
X506617Y369682D01*
X506622Y369562D01*
X506631Y369442D01*
X506644Y369322D01*
X506660Y369203D01*
X506680Y369084D01*
X506704Y368966D01*
X506731Y368849D01*
X506761Y368733D01*
X506795Y368618D01*
X506833Y368503D01*
X506874Y368390D01*
X506918Y368279D01*
X506966Y368168D01*
X507017Y368059D01*
X507038Y368002D01*
X507064Y367946D01*
X507092Y367891D01*
X507124Y367839D01*
X507160Y367788D01*
X507198Y367740D01*
X507239Y367694D01*
X507283Y367651D01*
X507329Y367611D01*
X507378Y367574D01*
X507430Y367540D01*
X507483Y367509D01*
X507538Y367481D01*
X507594Y367457D01*
X507652Y367436D01*
X507711Y367419D01*
X507771Y367406D01*
X507832Y367397D01*
X507894Y367391D01*
X507955Y367389D01*
X508894Y368059D02*
X508945Y368168D01*
X508993Y368279D01*
X509037Y368390D01*
X509078Y368503D01*
X509116Y368618D01*
X509150Y368733D01*
X509180Y368849D01*
X509207Y368966D01*
X509231Y369084D01*
X509251Y369203D01*
X509267Y369322D01*
X509280Y369442D01*
X509289Y369562D01*
X509294Y369682D01*
X509296Y369802D01*
X508893Y368059D02*
X508872Y368002D01*
X508846Y367946D01*
X508818Y367891D01*
X508786Y367839D01*
X508750Y367788D01*
X508712Y367740D01*
X508671Y367694D01*
X508627Y367651D01*
X508580Y367611D01*
X508532Y367574D01*
X508480Y367540D01*
X508427Y367509D01*
X508372Y367481D01*
X508316Y367457D01*
X508258Y367436D01*
X508199Y367419D01*
X508139Y367406D01*
X508078Y367397D01*
X508016Y367391D01*
X507955Y367389D01*
X506883Y368461D02*
X509028Y371143D01*
D20*
X600000Y520000D02*
X600000Y544000D01*
X700000Y544000D01*
X700000Y520000D01*
D24*
X650000Y551500D03*
X675400Y551500D03*
X624600Y551500D03*
D18*
X707785Y503447D02*
X711270Y503447D01*
X711341Y503449D01*
X711413Y503455D01*
X711483Y503464D01*
X711553Y503477D01*
X711623Y503494D01*
X711691Y503515D01*
X711758Y503539D01*
X711824Y503567D01*
X711888Y503598D01*
X711951Y503633D01*
X712011Y503671D01*
X712070Y503712D01*
X712126Y503756D01*
X712180Y503803D01*
X712231Y503852D01*
X712279Y503905D01*
X712325Y503960D01*
X712367Y504017D01*
X712407Y504077D01*
X712443Y504138D01*
X712476Y504202D01*
X712505Y504267D01*
X712531Y504333D01*
X712554Y504401D01*
X712573Y504470D01*
X712588Y504540D01*
X712599Y504610D01*
X712607Y504681D01*
X712611Y504752D01*
X712611Y504824D01*
X712607Y504895D01*
X712599Y504966D01*
X712588Y505036D01*
X712573Y505106D01*
X712554Y505175D01*
X712531Y505243D01*
X712505Y505309D01*
X712476Y505374D01*
X712443Y505438D01*
X712407Y505499D01*
X712367Y505559D01*
X712325Y505616D01*
X712279Y505671D01*
X712231Y505724D01*
X712180Y505773D01*
X712126Y505820D01*
X712070Y505864D01*
X712011Y505905D01*
X711951Y505943D01*
X711888Y505978D01*
X711824Y506009D01*
X711758Y506037D01*
X711691Y506061D01*
X711623Y506082D01*
X711553Y506099D01*
X711483Y506112D01*
X711413Y506121D01*
X711341Y506127D01*
X711270Y506129D01*
X707785Y506129D01*
X707785Y510091D02*
X712611Y510091D01*
X710198Y510091D02*
X709796Y509421D01*
X709766Y509374D01*
X709732Y509330D01*
X709696Y509288D01*
X709657Y509249D01*
X709616Y509212D01*
X709571Y509179D01*
X709525Y509149D01*
X709477Y509121D01*
X709427Y509098D01*
X709375Y509078D01*
X709322Y509061D01*
X709269Y509048D01*
X709214Y509039D01*
X709159Y509034D01*
X709103Y509032D01*
X709048Y509034D01*
X708993Y509040D01*
X708939Y509050D01*
X708885Y509064D01*
X708832Y509081D01*
X708781Y509102D01*
X708731Y509127D01*
X708683Y509154D01*
X708638Y509185D01*
X708594Y509220D01*
X708553Y509257D01*
X708514Y509296D01*
X708479Y509339D01*
X708446Y509384D01*
X708416Y509430D01*
X708390Y509479D01*
X708368Y509530D01*
X708348Y509582D01*
X708333Y509635D01*
X708321Y509689D01*
X708322Y509689D02*
X708307Y509778D01*
X708297Y509868D01*
X708290Y509957D01*
X708287Y510048D01*
X708288Y510138D01*
X708293Y510228D01*
X708301Y510317D01*
X708314Y510407D01*
X708330Y510495D01*
X708350Y510583D01*
X708373Y510670D01*
X708400Y510756D01*
X708431Y510841D01*
X708466Y510924D01*
X708504Y511006D01*
X708545Y511086D01*
X708590Y511164D01*
X710198Y510091D02*
X710600Y510762D01*
X710630Y510809D01*
X710664Y510853D01*
X710700Y510895D01*
X710739Y510934D01*
X710780Y510971D01*
X710825Y511004D01*
X710871Y511034D01*
X710919Y511062D01*
X710969Y511085D01*
X711021Y511105D01*
X711074Y511122D01*
X711127Y511135D01*
X711182Y511144D01*
X711237Y511149D01*
X711293Y511151D01*
X711348Y511149D01*
X711403Y511143D01*
X711457Y511133D01*
X711511Y511119D01*
X711564Y511102D01*
X711615Y511081D01*
X711665Y511056D01*
X711713Y511029D01*
X711759Y510998D01*
X711802Y510963D01*
X711843Y510926D01*
X711882Y510887D01*
X711917Y510844D01*
X711950Y510799D01*
X711980Y510752D01*
X712006Y510704D01*
X712028Y510653D01*
X712048Y510601D01*
X712063Y510548D01*
X712075Y510494D01*
X712074Y510494D02*
X712089Y510405D01*
X712099Y510315D01*
X712106Y510225D01*
X712109Y510135D01*
X712108Y510045D01*
X712103Y509955D01*
X712095Y509866D01*
X712082Y509776D01*
X712066Y509688D01*
X712046Y509600D01*
X712023Y509513D01*
X711996Y509427D01*
X711965Y509343D01*
X711930Y509259D01*
X711892Y509178D01*
X711851Y509098D01*
X711806Y509019D01*
X711539Y513871D02*
X707785Y514944D01*
X711539Y513871D02*
X711539Y516553D01*
X712611Y515748D02*
X710466Y515748D01*
D12*
X367678Y263682D02*
X367678Y251998D01*
X367678Y263682D02*
X370924Y263682D01*
X371037Y263680D01*
X371150Y263674D01*
X371263Y263664D01*
X371376Y263650D01*
X371488Y263633D01*
X371599Y263611D01*
X371709Y263586D01*
X371819Y263556D01*
X371927Y263523D01*
X372034Y263486D01*
X372140Y263446D01*
X372244Y263401D01*
X372347Y263353D01*
X372448Y263302D01*
X372547Y263247D01*
X372644Y263189D01*
X372739Y263127D01*
X372832Y263062D01*
X372922Y262994D01*
X373010Y262923D01*
X373096Y262848D01*
X373179Y262771D01*
X373259Y262691D01*
X373336Y262608D01*
X373411Y262522D01*
X373482Y262434D01*
X373550Y262344D01*
X373615Y262251D01*
X373677Y262156D01*
X373735Y262059D01*
X373790Y261960D01*
X373841Y261859D01*
X373889Y261756D01*
X373934Y261652D01*
X373974Y261546D01*
X374011Y261439D01*
X374044Y261331D01*
X374074Y261221D01*
X374099Y261111D01*
X374121Y261000D01*
X374138Y260888D01*
X374152Y260775D01*
X374162Y260662D01*
X374168Y260549D01*
X374170Y260436D01*
X374168Y260323D01*
X374162Y260210D01*
X374152Y260097D01*
X374138Y259984D01*
X374121Y259872D01*
X374099Y259761D01*
X374074Y259651D01*
X374044Y259541D01*
X374011Y259433D01*
X373974Y259326D01*
X373934Y259220D01*
X373889Y259116D01*
X373841Y259013D01*
X373790Y258912D01*
X373735Y258813D01*
X373677Y258716D01*
X373615Y258621D01*
X373550Y258528D01*
X373482Y258438D01*
X373411Y258350D01*
X373336Y258264D01*
X373259Y258181D01*
X373179Y258101D01*
X373096Y258024D01*
X373010Y257949D01*
X372922Y257878D01*
X372832Y257810D01*
X372739Y257745D01*
X372644Y257683D01*
X372547Y257625D01*
X372448Y257570D01*
X372347Y257519D01*
X372244Y257471D01*
X372140Y257426D01*
X372034Y257386D01*
X371927Y257349D01*
X371819Y257316D01*
X371709Y257286D01*
X371599Y257261D01*
X371488Y257239D01*
X371376Y257222D01*
X371263Y257208D01*
X371150Y257198D01*
X371037Y257192D01*
X370924Y257190D01*
X370924Y257191D02*
X367678Y257191D01*
X371573Y257191D02*
X374169Y251998D01*
X379034Y261086D02*
X382280Y263682D01*
X382280Y251998D01*
X385525Y251998D02*
X379034Y251998D01*
X390464Y251998D02*
X393710Y251998D01*
X393823Y252000D01*
X393936Y252006D01*
X394049Y252016D01*
X394162Y252030D01*
X394274Y252047D01*
X394385Y252069D01*
X394495Y252094D01*
X394605Y252124D01*
X394713Y252157D01*
X394820Y252194D01*
X394926Y252234D01*
X395030Y252279D01*
X395133Y252327D01*
X395234Y252378D01*
X395333Y252433D01*
X395430Y252491D01*
X395525Y252553D01*
X395618Y252618D01*
X395708Y252686D01*
X395796Y252757D01*
X395882Y252832D01*
X395965Y252909D01*
X396045Y252989D01*
X396122Y253072D01*
X396197Y253158D01*
X396268Y253246D01*
X396336Y253336D01*
X396401Y253429D01*
X396463Y253524D01*
X396521Y253621D01*
X396576Y253720D01*
X396627Y253821D01*
X396675Y253924D01*
X396720Y254028D01*
X396760Y254134D01*
X396797Y254241D01*
X396830Y254349D01*
X396860Y254459D01*
X396885Y254569D01*
X396907Y254680D01*
X396924Y254792D01*
X396938Y254905D01*
X396948Y255018D01*
X396954Y255131D01*
X396956Y255244D01*
X396954Y255357D01*
X396948Y255470D01*
X396938Y255583D01*
X396924Y255696D01*
X396907Y255808D01*
X396885Y255919D01*
X396860Y256029D01*
X396830Y256139D01*
X396797Y256247D01*
X396760Y256354D01*
X396720Y256460D01*
X396675Y256564D01*
X396627Y256667D01*
X396576Y256768D01*
X396521Y256867D01*
X396463Y256964D01*
X396401Y257059D01*
X396336Y257152D01*
X396268Y257242D01*
X396197Y257330D01*
X396122Y257416D01*
X396045Y257499D01*
X395965Y257579D01*
X395882Y257656D01*
X395796Y257731D01*
X395708Y257802D01*
X395618Y257870D01*
X395525Y257935D01*
X395430Y257997D01*
X395333Y258055D01*
X395234Y258110D01*
X395133Y258161D01*
X395030Y258209D01*
X394926Y258254D01*
X394820Y258294D01*
X394713Y258331D01*
X394605Y258364D01*
X394495Y258394D01*
X394385Y258419D01*
X394274Y258441D01*
X394162Y258458D01*
X394049Y258472D01*
X393936Y258482D01*
X393823Y258488D01*
X393710Y258490D01*
X394359Y263682D02*
X390464Y263682D01*
X394359Y263682D02*
X394460Y263680D01*
X394560Y263674D01*
X394660Y263664D01*
X394760Y263651D01*
X394859Y263633D01*
X394958Y263612D01*
X395055Y263587D01*
X395152Y263558D01*
X395247Y263525D01*
X395341Y263489D01*
X395433Y263449D01*
X395524Y263406D01*
X395613Y263359D01*
X395700Y263309D01*
X395786Y263255D01*
X395869Y263198D01*
X395949Y263138D01*
X396028Y263075D01*
X396104Y263008D01*
X396177Y262939D01*
X396247Y262867D01*
X396315Y262793D01*
X396380Y262716D01*
X396441Y262636D01*
X396500Y262554D01*
X396555Y262470D01*
X396607Y262384D01*
X396656Y262296D01*
X396701Y262206D01*
X396743Y262114D01*
X396781Y262021D01*
X396815Y261926D01*
X396846Y261831D01*
X396873Y261734D01*
X396896Y261636D01*
X396916Y261537D01*
X396931Y261437D01*
X396943Y261337D01*
X396951Y261237D01*
X396955Y261136D01*
X396955Y261036D01*
X396951Y260935D01*
X396943Y260835D01*
X396931Y260735D01*
X396916Y260635D01*
X396896Y260536D01*
X396873Y260438D01*
X396846Y260341D01*
X396815Y260246D01*
X396781Y260151D01*
X396743Y260058D01*
X396701Y259966D01*
X396656Y259876D01*
X396607Y259788D01*
X396555Y259702D01*
X396500Y259618D01*
X396441Y259536D01*
X396380Y259456D01*
X396315Y259379D01*
X396247Y259305D01*
X396177Y259233D01*
X396104Y259164D01*
X396028Y259097D01*
X395949Y259034D01*
X395869Y258974D01*
X395786Y258917D01*
X395700Y258863D01*
X395613Y258813D01*
X395524Y258766D01*
X395433Y258723D01*
X395341Y258683D01*
X395247Y258647D01*
X395152Y258614D01*
X395055Y258585D01*
X394958Y258560D01*
X394859Y258539D01*
X394760Y258521D01*
X394660Y258508D01*
X394560Y258498D01*
X394460Y258492D01*
X394359Y258490D01*
X394359Y258489D02*
X391763Y258489D01*
X546565Y183142D02*
X546565Y171458D01*
X546565Y183142D02*
X549810Y183142D01*
X549923Y183140D01*
X550036Y183134D01*
X550149Y183124D01*
X550262Y183110D01*
X550374Y183093D01*
X550485Y183071D01*
X550595Y183046D01*
X550705Y183016D01*
X550813Y182983D01*
X550920Y182946D01*
X551026Y182906D01*
X551130Y182861D01*
X551233Y182813D01*
X551334Y182762D01*
X551433Y182707D01*
X551530Y182649D01*
X551625Y182587D01*
X551718Y182522D01*
X551808Y182454D01*
X551896Y182383D01*
X551982Y182308D01*
X552065Y182231D01*
X552145Y182151D01*
X552222Y182068D01*
X552297Y181982D01*
X552368Y181894D01*
X552436Y181804D01*
X552501Y181711D01*
X552563Y181616D01*
X552621Y181519D01*
X552676Y181420D01*
X552727Y181319D01*
X552775Y181216D01*
X552820Y181112D01*
X552860Y181006D01*
X552897Y180899D01*
X552930Y180791D01*
X552960Y180681D01*
X552985Y180571D01*
X553007Y180460D01*
X553024Y180348D01*
X553038Y180235D01*
X553048Y180122D01*
X553054Y180009D01*
X553056Y179896D01*
X553054Y179783D01*
X553048Y179670D01*
X553038Y179557D01*
X553024Y179444D01*
X553007Y179332D01*
X552985Y179221D01*
X552960Y179111D01*
X552930Y179001D01*
X552897Y178893D01*
X552860Y178786D01*
X552820Y178680D01*
X552775Y178576D01*
X552727Y178473D01*
X552676Y178372D01*
X552621Y178273D01*
X552563Y178176D01*
X552501Y178081D01*
X552436Y177988D01*
X552368Y177898D01*
X552297Y177810D01*
X552222Y177724D01*
X552145Y177641D01*
X552065Y177561D01*
X551982Y177484D01*
X551896Y177409D01*
X551808Y177338D01*
X551718Y177270D01*
X551625Y177205D01*
X551530Y177143D01*
X551433Y177085D01*
X551334Y177030D01*
X551233Y176979D01*
X551130Y176931D01*
X551026Y176886D01*
X550920Y176846D01*
X550813Y176809D01*
X550705Y176776D01*
X550595Y176746D01*
X550485Y176721D01*
X550374Y176699D01*
X550262Y176682D01*
X550149Y176668D01*
X550036Y176658D01*
X549923Y176652D01*
X549810Y176650D01*
X549810Y176651D02*
X546565Y176651D01*
X550459Y176651D02*
X553056Y171458D01*
X557921Y180546D02*
X561166Y183142D01*
X561166Y171458D01*
X557921Y171458D02*
X564412Y171458D01*
X569351Y174054D02*
X571947Y183142D01*
X569351Y174054D02*
X575842Y174054D01*
X573895Y176651D02*
X573895Y171458D01*
X543142Y104158D02*
X531458Y104158D01*
X531458Y107404D01*
X531460Y107517D01*
X531466Y107630D01*
X531476Y107743D01*
X531490Y107856D01*
X531507Y107968D01*
X531529Y108079D01*
X531554Y108189D01*
X531584Y108299D01*
X531617Y108407D01*
X531654Y108514D01*
X531694Y108620D01*
X531739Y108724D01*
X531787Y108827D01*
X531838Y108928D01*
X531893Y109027D01*
X531951Y109124D01*
X532013Y109219D01*
X532078Y109312D01*
X532146Y109402D01*
X532217Y109490D01*
X532292Y109576D01*
X532369Y109659D01*
X532449Y109739D01*
X532532Y109816D01*
X532618Y109891D01*
X532706Y109962D01*
X532796Y110030D01*
X532889Y110095D01*
X532984Y110157D01*
X533081Y110215D01*
X533180Y110270D01*
X533281Y110321D01*
X533384Y110369D01*
X533488Y110414D01*
X533594Y110454D01*
X533701Y110491D01*
X533809Y110524D01*
X533919Y110554D01*
X534029Y110579D01*
X534140Y110601D01*
X534252Y110618D01*
X534365Y110632D01*
X534478Y110642D01*
X534591Y110648D01*
X534704Y110650D01*
X534817Y110648D01*
X534930Y110642D01*
X535043Y110632D01*
X535156Y110618D01*
X535268Y110601D01*
X535379Y110579D01*
X535489Y110554D01*
X535599Y110524D01*
X535707Y110491D01*
X535814Y110454D01*
X535920Y110414D01*
X536024Y110369D01*
X536127Y110321D01*
X536228Y110270D01*
X536327Y110215D01*
X536424Y110157D01*
X536519Y110095D01*
X536612Y110030D01*
X536702Y109962D01*
X536790Y109891D01*
X536876Y109816D01*
X536959Y109739D01*
X537039Y109659D01*
X537116Y109576D01*
X537191Y109490D01*
X537262Y109402D01*
X537330Y109312D01*
X537395Y109219D01*
X537457Y109124D01*
X537515Y109027D01*
X537570Y108928D01*
X537621Y108827D01*
X537669Y108724D01*
X537714Y108620D01*
X537754Y108514D01*
X537791Y108407D01*
X537824Y108299D01*
X537854Y108189D01*
X537879Y108079D01*
X537901Y107968D01*
X537918Y107856D01*
X537932Y107743D01*
X537942Y107630D01*
X537948Y107517D01*
X537950Y107404D01*
X537949Y107404D02*
X537949Y104158D01*
X537949Y108053D02*
X543142Y110649D01*
X534054Y115514D02*
X531458Y118760D01*
X543142Y118760D01*
X543142Y122005D02*
X543142Y115514D01*
X543142Y126944D02*
X543142Y130839D01*
X543140Y130938D01*
X543134Y131038D01*
X543125Y131137D01*
X543112Y131235D01*
X543095Y131333D01*
X543074Y131431D01*
X543049Y131527D01*
X543021Y131622D01*
X542989Y131716D01*
X542954Y131809D01*
X542915Y131901D01*
X542872Y131991D01*
X542827Y132079D01*
X542777Y132166D01*
X542725Y132250D01*
X542669Y132333D01*
X542611Y132413D01*
X542549Y132491D01*
X542484Y132566D01*
X542416Y132639D01*
X542346Y132709D01*
X542273Y132777D01*
X542198Y132842D01*
X542120Y132904D01*
X542040Y132962D01*
X541957Y133018D01*
X541873Y133070D01*
X541786Y133120D01*
X541698Y133165D01*
X541608Y133208D01*
X541516Y133247D01*
X541423Y133282D01*
X541329Y133314D01*
X541234Y133342D01*
X541138Y133367D01*
X541040Y133388D01*
X540942Y133405D01*
X540844Y133418D01*
X540745Y133427D01*
X540645Y133433D01*
X540546Y133435D01*
X539247Y133435D01*
X539148Y133433D01*
X539048Y133427D01*
X538949Y133418D01*
X538851Y133405D01*
X538753Y133388D01*
X538655Y133367D01*
X538559Y133342D01*
X538464Y133314D01*
X538370Y133282D01*
X538277Y133247D01*
X538185Y133208D01*
X538095Y133165D01*
X538007Y133120D01*
X537920Y133070D01*
X537836Y133018D01*
X537753Y132962D01*
X537673Y132904D01*
X537595Y132842D01*
X537520Y132777D01*
X537447Y132709D01*
X537377Y132639D01*
X537309Y132566D01*
X537244Y132491D01*
X537182Y132413D01*
X537124Y132333D01*
X537068Y132250D01*
X537016Y132166D01*
X536966Y132079D01*
X536921Y131991D01*
X536878Y131901D01*
X536839Y131809D01*
X536804Y131716D01*
X536772Y131622D01*
X536744Y131527D01*
X536719Y131431D01*
X536698Y131333D01*
X536681Y131235D01*
X536668Y131137D01*
X536659Y131038D01*
X536653Y130938D01*
X536651Y130839D01*
X536651Y126944D01*
X531458Y126944D01*
X531458Y133435D01*
X378542Y156565D02*
X366858Y156565D01*
X366858Y159810D01*
X366860Y159923D01*
X366866Y160036D01*
X366876Y160149D01*
X366890Y160262D01*
X366907Y160374D01*
X366929Y160485D01*
X366954Y160595D01*
X366984Y160705D01*
X367017Y160813D01*
X367054Y160920D01*
X367094Y161026D01*
X367139Y161130D01*
X367187Y161233D01*
X367238Y161334D01*
X367293Y161433D01*
X367351Y161530D01*
X367413Y161625D01*
X367478Y161718D01*
X367546Y161808D01*
X367617Y161896D01*
X367692Y161982D01*
X367769Y162065D01*
X367849Y162145D01*
X367932Y162222D01*
X368018Y162297D01*
X368106Y162368D01*
X368196Y162436D01*
X368289Y162501D01*
X368384Y162563D01*
X368481Y162621D01*
X368580Y162676D01*
X368681Y162727D01*
X368784Y162775D01*
X368888Y162820D01*
X368994Y162860D01*
X369101Y162897D01*
X369209Y162930D01*
X369319Y162960D01*
X369429Y162985D01*
X369540Y163007D01*
X369652Y163024D01*
X369765Y163038D01*
X369878Y163048D01*
X369991Y163054D01*
X370104Y163056D01*
X370217Y163054D01*
X370330Y163048D01*
X370443Y163038D01*
X370556Y163024D01*
X370668Y163007D01*
X370779Y162985D01*
X370889Y162960D01*
X370999Y162930D01*
X371107Y162897D01*
X371214Y162860D01*
X371320Y162820D01*
X371424Y162775D01*
X371527Y162727D01*
X371628Y162676D01*
X371727Y162621D01*
X371824Y162563D01*
X371919Y162501D01*
X372012Y162436D01*
X372102Y162368D01*
X372190Y162297D01*
X372276Y162222D01*
X372359Y162145D01*
X372439Y162065D01*
X372516Y161982D01*
X372591Y161896D01*
X372662Y161808D01*
X372730Y161718D01*
X372795Y161625D01*
X372857Y161530D01*
X372915Y161433D01*
X372970Y161334D01*
X373021Y161233D01*
X373069Y161130D01*
X373114Y161026D01*
X373154Y160920D01*
X373191Y160813D01*
X373224Y160705D01*
X373254Y160595D01*
X373279Y160485D01*
X373301Y160374D01*
X373318Y160262D01*
X373332Y160149D01*
X373342Y160036D01*
X373348Y159923D01*
X373350Y159810D01*
X373349Y159810D02*
X373349Y156565D01*
X373349Y160459D02*
X378542Y163056D01*
X369454Y167921D02*
X366858Y171166D01*
X378542Y171166D01*
X378542Y167921D02*
X378542Y174412D01*
X372051Y179351D02*
X372051Y183246D01*
X372053Y183345D01*
X372059Y183445D01*
X372068Y183544D01*
X372081Y183642D01*
X372098Y183740D01*
X372119Y183838D01*
X372144Y183934D01*
X372172Y184029D01*
X372204Y184123D01*
X372239Y184216D01*
X372278Y184308D01*
X372321Y184398D01*
X372366Y184486D01*
X372416Y184573D01*
X372468Y184657D01*
X372524Y184740D01*
X372582Y184820D01*
X372644Y184898D01*
X372709Y184973D01*
X372777Y185046D01*
X372847Y185116D01*
X372920Y185184D01*
X372995Y185249D01*
X373073Y185311D01*
X373153Y185369D01*
X373236Y185425D01*
X373320Y185477D01*
X373407Y185527D01*
X373495Y185572D01*
X373585Y185615D01*
X373677Y185654D01*
X373770Y185689D01*
X373864Y185721D01*
X373959Y185749D01*
X374055Y185774D01*
X374153Y185795D01*
X374251Y185812D01*
X374349Y185825D01*
X374448Y185834D01*
X374548Y185840D01*
X374647Y185842D01*
X375296Y185842D01*
X375409Y185840D01*
X375522Y185834D01*
X375635Y185824D01*
X375748Y185810D01*
X375860Y185793D01*
X375971Y185771D01*
X376081Y185746D01*
X376191Y185716D01*
X376299Y185683D01*
X376406Y185646D01*
X376512Y185606D01*
X376616Y185561D01*
X376719Y185513D01*
X376820Y185462D01*
X376919Y185407D01*
X377016Y185349D01*
X377111Y185287D01*
X377204Y185222D01*
X377294Y185154D01*
X377382Y185083D01*
X377468Y185008D01*
X377551Y184931D01*
X377631Y184851D01*
X377708Y184768D01*
X377783Y184682D01*
X377854Y184594D01*
X377922Y184504D01*
X377987Y184411D01*
X378049Y184316D01*
X378107Y184219D01*
X378162Y184120D01*
X378213Y184019D01*
X378261Y183916D01*
X378306Y183812D01*
X378346Y183706D01*
X378383Y183599D01*
X378416Y183491D01*
X378446Y183381D01*
X378471Y183271D01*
X378493Y183160D01*
X378510Y183048D01*
X378524Y182935D01*
X378534Y182822D01*
X378540Y182709D01*
X378542Y182596D01*
X378540Y182483D01*
X378534Y182370D01*
X378524Y182257D01*
X378510Y182144D01*
X378493Y182032D01*
X378471Y181921D01*
X378446Y181811D01*
X378416Y181701D01*
X378383Y181593D01*
X378346Y181486D01*
X378306Y181380D01*
X378261Y181276D01*
X378213Y181173D01*
X378162Y181072D01*
X378107Y180973D01*
X378049Y180876D01*
X377987Y180781D01*
X377922Y180688D01*
X377854Y180598D01*
X377783Y180510D01*
X377708Y180424D01*
X377631Y180341D01*
X377551Y180261D01*
X377468Y180184D01*
X377382Y180109D01*
X377294Y180038D01*
X377204Y179970D01*
X377111Y179905D01*
X377016Y179843D01*
X376919Y179785D01*
X376820Y179730D01*
X376719Y179679D01*
X376616Y179631D01*
X376512Y179586D01*
X376406Y179546D01*
X376299Y179509D01*
X376191Y179476D01*
X376081Y179446D01*
X375971Y179421D01*
X375860Y179399D01*
X375748Y179382D01*
X375635Y179368D01*
X375522Y179358D01*
X375409Y179352D01*
X375296Y179350D01*
X375296Y179351D02*
X372051Y179351D01*
X371908Y179353D01*
X371765Y179359D01*
X371622Y179369D01*
X371480Y179383D01*
X371338Y179400D01*
X371196Y179422D01*
X371055Y179447D01*
X370915Y179477D01*
X370776Y179510D01*
X370638Y179547D01*
X370501Y179588D01*
X370365Y179632D01*
X370230Y179681D01*
X370097Y179733D01*
X369965Y179788D01*
X369835Y179848D01*
X369706Y179911D01*
X369579Y179977D01*
X369455Y180047D01*
X369332Y180120D01*
X369211Y180197D01*
X369092Y180276D01*
X368976Y180360D01*
X368861Y180446D01*
X368750Y180535D01*
X368641Y180628D01*
X368534Y180723D01*
X368430Y180822D01*
X368329Y180923D01*
X368230Y181027D01*
X368135Y181133D01*
X368042Y181243D01*
X367953Y181354D01*
X367867Y181468D01*
X367784Y181585D01*
X367704Y181704D01*
X367627Y181825D01*
X367554Y181947D01*
X367484Y182072D01*
X367418Y182199D01*
X367355Y182328D01*
X367295Y182458D01*
X367240Y182590D01*
X367188Y182723D01*
X367139Y182858D01*
X367095Y182994D01*
X367054Y183131D01*
X367017Y183269D01*
X366984Y183408D01*
X366954Y183548D01*
X366929Y183689D01*
X366907Y183831D01*
X366890Y183973D01*
X366876Y184115D01*
X366866Y184258D01*
X366860Y184401D01*
X366858Y184544D01*
D18*
X800800Y251900D02*
X800800Y328100D01*
D20*
X524630Y298810D02*
X500630Y298810D01*
X524630Y298810D02*
X524630Y198810D01*
X500630Y198810D01*
D23*
X532130Y248810D03*
X532130Y223410D03*
X532130Y274210D03*
D18*
X484077Y191025D02*
X484077Y187540D01*
X484079Y187469D01*
X484085Y187397D01*
X484094Y187327D01*
X484107Y187257D01*
X484124Y187187D01*
X484145Y187119D01*
X484169Y187052D01*
X484197Y186986D01*
X484228Y186922D01*
X484263Y186859D01*
X484301Y186799D01*
X484342Y186740D01*
X484386Y186684D01*
X484433Y186630D01*
X484482Y186579D01*
X484535Y186531D01*
X484590Y186485D01*
X484647Y186443D01*
X484707Y186403D01*
X484768Y186367D01*
X484832Y186334D01*
X484897Y186305D01*
X484963Y186279D01*
X485031Y186256D01*
X485100Y186237D01*
X485170Y186222D01*
X485240Y186211D01*
X485311Y186203D01*
X485382Y186199D01*
X485454Y186199D01*
X485525Y186203D01*
X485596Y186211D01*
X485666Y186222D01*
X485736Y186237D01*
X485805Y186256D01*
X485873Y186279D01*
X485939Y186305D01*
X486004Y186334D01*
X486068Y186367D01*
X486129Y186403D01*
X486189Y186443D01*
X486246Y186485D01*
X486301Y186531D01*
X486354Y186579D01*
X486403Y186630D01*
X486450Y186684D01*
X486494Y186740D01*
X486535Y186799D01*
X486573Y186859D01*
X486608Y186922D01*
X486639Y186986D01*
X486667Y187052D01*
X486691Y187119D01*
X486712Y187187D01*
X486729Y187257D01*
X486742Y187327D01*
X486751Y187397D01*
X486757Y187469D01*
X486759Y187540D01*
X486759Y191025D01*
X490721Y191025D02*
X490721Y186199D01*
X490721Y188612D02*
X490051Y189014D01*
X490004Y189044D01*
X489960Y189078D01*
X489918Y189114D01*
X489879Y189153D01*
X489842Y189194D01*
X489809Y189239D01*
X489779Y189285D01*
X489751Y189333D01*
X489728Y189383D01*
X489708Y189435D01*
X489691Y189488D01*
X489678Y189541D01*
X489669Y189596D01*
X489664Y189651D01*
X489662Y189707D01*
X489664Y189762D01*
X489670Y189817D01*
X489680Y189871D01*
X489694Y189925D01*
X489711Y189978D01*
X489732Y190029D01*
X489757Y190079D01*
X489784Y190127D01*
X489815Y190172D01*
X489850Y190216D01*
X489887Y190257D01*
X489926Y190296D01*
X489969Y190331D01*
X490014Y190364D01*
X490060Y190394D01*
X490109Y190420D01*
X490160Y190442D01*
X490212Y190462D01*
X490265Y190477D01*
X490319Y190489D01*
X490319Y190488D02*
X490408Y190503D01*
X490498Y190513D01*
X490588Y190520D01*
X490678Y190523D01*
X490768Y190522D01*
X490858Y190517D01*
X490947Y190509D01*
X491037Y190496D01*
X491125Y190480D01*
X491213Y190460D01*
X491300Y190437D01*
X491386Y190410D01*
X491470Y190379D01*
X491554Y190344D01*
X491635Y190306D01*
X491716Y190265D01*
X491794Y190220D01*
X490721Y188612D02*
X491392Y188210D01*
X491439Y188180D01*
X491483Y188146D01*
X491525Y188110D01*
X491564Y188071D01*
X491601Y188030D01*
X491634Y187985D01*
X491664Y187939D01*
X491692Y187891D01*
X491715Y187841D01*
X491735Y187789D01*
X491752Y187736D01*
X491765Y187683D01*
X491774Y187628D01*
X491779Y187573D01*
X491781Y187517D01*
X491779Y187462D01*
X491773Y187407D01*
X491763Y187353D01*
X491749Y187299D01*
X491732Y187246D01*
X491711Y187195D01*
X491686Y187145D01*
X491659Y187097D01*
X491628Y187051D01*
X491593Y187008D01*
X491556Y186967D01*
X491517Y186928D01*
X491474Y186893D01*
X491429Y186860D01*
X491382Y186830D01*
X491334Y186804D01*
X491283Y186782D01*
X491231Y186762D01*
X491178Y186747D01*
X491124Y186735D01*
X491124Y186736D02*
X491035Y186721D01*
X490945Y186711D01*
X490855Y186704D01*
X490765Y186701D01*
X490675Y186702D01*
X490585Y186707D01*
X490496Y186715D01*
X490406Y186728D01*
X490318Y186744D01*
X490230Y186764D01*
X490143Y186787D01*
X490057Y186814D01*
X489973Y186845D01*
X489889Y186880D01*
X489808Y186918D01*
X489728Y186959D01*
X489649Y187004D01*
X494501Y190489D02*
X494501Y191025D01*
X497183Y191025D01*
X495842Y186199D01*
D20*
X700770Y163850D02*
X700770Y139850D01*
X600770Y139850D01*
X600770Y163850D01*
D24*
X650770Y132350D03*
X625370Y132350D03*
X676170Y132350D03*
D18*
X591644Y167297D02*
X588159Y167297D01*
X591644Y167297D02*
X591715Y167299D01*
X591787Y167305D01*
X591857Y167314D01*
X591927Y167327D01*
X591997Y167344D01*
X592065Y167365D01*
X592132Y167389D01*
X592198Y167417D01*
X592262Y167448D01*
X592325Y167483D01*
X592385Y167521D01*
X592444Y167562D01*
X592500Y167606D01*
X592554Y167653D01*
X592605Y167702D01*
X592653Y167755D01*
X592699Y167810D01*
X592741Y167867D01*
X592781Y167927D01*
X592817Y167988D01*
X592850Y168052D01*
X592879Y168117D01*
X592905Y168183D01*
X592928Y168251D01*
X592947Y168320D01*
X592962Y168390D01*
X592973Y168460D01*
X592981Y168531D01*
X592985Y168602D01*
X592985Y168674D01*
X592981Y168745D01*
X592973Y168816D01*
X592962Y168886D01*
X592947Y168956D01*
X592928Y169025D01*
X592905Y169093D01*
X592879Y169159D01*
X592850Y169224D01*
X592817Y169288D01*
X592781Y169349D01*
X592741Y169409D01*
X592699Y169466D01*
X592653Y169521D01*
X592605Y169574D01*
X592554Y169623D01*
X592500Y169670D01*
X592444Y169714D01*
X592385Y169755D01*
X592325Y169793D01*
X592262Y169828D01*
X592198Y169859D01*
X592132Y169887D01*
X592065Y169911D01*
X591997Y169932D01*
X591927Y169949D01*
X591857Y169962D01*
X591787Y169971D01*
X591715Y169977D01*
X591644Y169979D01*
X588159Y169979D01*
X588159Y173941D02*
X592985Y173941D01*
X590572Y173941D02*
X590170Y173271D01*
X590140Y173224D01*
X590106Y173180D01*
X590070Y173138D01*
X590031Y173099D01*
X589990Y173062D01*
X589945Y173029D01*
X589899Y172999D01*
X589851Y172971D01*
X589801Y172948D01*
X589749Y172928D01*
X589696Y172911D01*
X589643Y172898D01*
X589588Y172889D01*
X589533Y172884D01*
X589477Y172882D01*
X589422Y172884D01*
X589367Y172890D01*
X589313Y172900D01*
X589259Y172914D01*
X589206Y172931D01*
X589155Y172952D01*
X589105Y172977D01*
X589057Y173004D01*
X589012Y173035D01*
X588968Y173070D01*
X588927Y173107D01*
X588888Y173146D01*
X588853Y173189D01*
X588820Y173234D01*
X588790Y173280D01*
X588764Y173329D01*
X588742Y173380D01*
X588722Y173432D01*
X588707Y173485D01*
X588695Y173539D01*
X588696Y173539D02*
X588681Y173628D01*
X588671Y173718D01*
X588664Y173807D01*
X588661Y173898D01*
X588662Y173988D01*
X588667Y174078D01*
X588675Y174167D01*
X588688Y174257D01*
X588704Y174345D01*
X588724Y174433D01*
X588747Y174520D01*
X588774Y174606D01*
X588805Y174691D01*
X588840Y174774D01*
X588878Y174856D01*
X588919Y174936D01*
X588964Y175014D01*
X590572Y173941D02*
X590974Y174612D01*
X591004Y174659D01*
X591038Y174703D01*
X591074Y174745D01*
X591113Y174784D01*
X591154Y174821D01*
X591199Y174854D01*
X591245Y174884D01*
X591293Y174912D01*
X591343Y174935D01*
X591395Y174955D01*
X591448Y174972D01*
X591501Y174985D01*
X591556Y174994D01*
X591611Y174999D01*
X591667Y175001D01*
X591722Y174999D01*
X591777Y174993D01*
X591831Y174983D01*
X591885Y174969D01*
X591938Y174952D01*
X591989Y174931D01*
X592039Y174906D01*
X592087Y174879D01*
X592133Y174848D01*
X592176Y174813D01*
X592217Y174776D01*
X592256Y174737D01*
X592291Y174694D01*
X592324Y174649D01*
X592354Y174602D01*
X592380Y174554D01*
X592402Y174503D01*
X592422Y174451D01*
X592437Y174398D01*
X592449Y174344D01*
X592448Y174344D02*
X592463Y174255D01*
X592473Y174165D01*
X592480Y174075D01*
X592483Y173985D01*
X592482Y173895D01*
X592477Y173805D01*
X592469Y173716D01*
X592456Y173626D01*
X592440Y173538D01*
X592420Y173450D01*
X592397Y173363D01*
X592370Y173277D01*
X592339Y173193D01*
X592304Y173109D01*
X592266Y173028D01*
X592225Y172948D01*
X592180Y172869D01*
X591644Y177721D02*
X591573Y177723D01*
X591501Y177729D01*
X591431Y177738D01*
X591361Y177751D01*
X591291Y177768D01*
X591223Y177789D01*
X591156Y177813D01*
X591090Y177841D01*
X591026Y177872D01*
X590963Y177907D01*
X590903Y177945D01*
X590844Y177986D01*
X590788Y178030D01*
X590734Y178077D01*
X590683Y178126D01*
X590635Y178179D01*
X590589Y178234D01*
X590547Y178291D01*
X590507Y178351D01*
X590471Y178412D01*
X590438Y178476D01*
X590409Y178541D01*
X590383Y178607D01*
X590360Y178675D01*
X590341Y178744D01*
X590326Y178814D01*
X590315Y178884D01*
X590307Y178955D01*
X590303Y179026D01*
X590303Y179098D01*
X590307Y179169D01*
X590315Y179240D01*
X590326Y179310D01*
X590341Y179380D01*
X590360Y179449D01*
X590383Y179517D01*
X590409Y179583D01*
X590438Y179648D01*
X590471Y179712D01*
X590507Y179773D01*
X590547Y179833D01*
X590589Y179890D01*
X590635Y179945D01*
X590683Y179998D01*
X590734Y180047D01*
X590788Y180094D01*
X590844Y180138D01*
X590903Y180179D01*
X590963Y180217D01*
X591026Y180252D01*
X591090Y180283D01*
X591156Y180311D01*
X591223Y180335D01*
X591291Y180356D01*
X591361Y180373D01*
X591431Y180386D01*
X591501Y180395D01*
X591573Y180401D01*
X591644Y180403D01*
X591715Y180401D01*
X591787Y180395D01*
X591857Y180386D01*
X591927Y180373D01*
X591997Y180356D01*
X592065Y180335D01*
X592132Y180311D01*
X592198Y180283D01*
X592262Y180252D01*
X592325Y180217D01*
X592385Y180179D01*
X592444Y180138D01*
X592500Y180094D01*
X592554Y180047D01*
X592605Y179998D01*
X592653Y179945D01*
X592699Y179890D01*
X592741Y179833D01*
X592781Y179773D01*
X592817Y179712D01*
X592850Y179648D01*
X592879Y179583D01*
X592905Y179517D01*
X592928Y179449D01*
X592947Y179380D01*
X592962Y179310D01*
X592973Y179240D01*
X592981Y179169D01*
X592985Y179098D01*
X592985Y179026D01*
X592981Y178955D01*
X592973Y178884D01*
X592962Y178814D01*
X592947Y178744D01*
X592928Y178675D01*
X592905Y178607D01*
X592879Y178541D01*
X592850Y178476D01*
X592817Y178412D01*
X592781Y178351D01*
X592741Y178291D01*
X592699Y178234D01*
X592653Y178179D01*
X592605Y178126D01*
X592554Y178077D01*
X592500Y178030D01*
X592444Y177986D01*
X592385Y177945D01*
X592325Y177907D01*
X592262Y177872D01*
X592198Y177841D01*
X592132Y177813D01*
X592065Y177789D01*
X591997Y177768D01*
X591927Y177751D01*
X591857Y177738D01*
X591787Y177729D01*
X591715Y177723D01*
X591644Y177721D01*
X589231Y177990D02*
X589166Y177992D01*
X589102Y177998D01*
X589038Y178008D01*
X588974Y178021D01*
X588912Y178039D01*
X588851Y178060D01*
X588791Y178084D01*
X588733Y178113D01*
X588676Y178145D01*
X588622Y178180D01*
X588570Y178218D01*
X588520Y178260D01*
X588473Y178304D01*
X588429Y178351D01*
X588387Y178401D01*
X588349Y178453D01*
X588314Y178507D01*
X588282Y178564D01*
X588253Y178622D01*
X588229Y178682D01*
X588208Y178743D01*
X588190Y178805D01*
X588177Y178869D01*
X588167Y178933D01*
X588161Y178997D01*
X588159Y179062D01*
X588161Y179127D01*
X588167Y179191D01*
X588177Y179255D01*
X588190Y179319D01*
X588208Y179381D01*
X588229Y179442D01*
X588253Y179502D01*
X588282Y179560D01*
X588314Y179617D01*
X588349Y179671D01*
X588387Y179723D01*
X588429Y179773D01*
X588473Y179820D01*
X588520Y179864D01*
X588570Y179906D01*
X588622Y179944D01*
X588676Y179979D01*
X588733Y180011D01*
X588791Y180040D01*
X588851Y180064D01*
X588912Y180085D01*
X588974Y180103D01*
X589038Y180116D01*
X589102Y180126D01*
X589166Y180132D01*
X589231Y180134D01*
X589296Y180132D01*
X589360Y180126D01*
X589424Y180116D01*
X589488Y180103D01*
X589550Y180085D01*
X589611Y180064D01*
X589671Y180040D01*
X589729Y180011D01*
X589786Y179979D01*
X589840Y179944D01*
X589892Y179906D01*
X589942Y179864D01*
X589989Y179820D01*
X590033Y179773D01*
X590075Y179723D01*
X590113Y179671D01*
X590148Y179617D01*
X590180Y179560D01*
X590209Y179502D01*
X590233Y179442D01*
X590254Y179381D01*
X590272Y179319D01*
X590285Y179255D01*
X590295Y179191D01*
X590301Y179127D01*
X590303Y179062D01*
X590301Y178997D01*
X590295Y178933D01*
X590285Y178869D01*
X590272Y178805D01*
X590254Y178743D01*
X590233Y178682D01*
X590209Y178622D01*
X590180Y178564D01*
X590148Y178507D01*
X590113Y178453D01*
X590075Y178401D01*
X590033Y178351D01*
X589989Y178304D01*
X589942Y178260D01*
X589892Y178218D01*
X589840Y178180D01*
X589786Y178145D01*
X589729Y178113D01*
X589671Y178084D01*
X589611Y178060D01*
X589550Y178039D01*
X589488Y178021D01*
X589424Y178008D01*
X589360Y177998D01*
X589296Y177992D01*
X589231Y177990D01*
M02*
