G04 EAGLE Gerber RS-274X export*
G75*
%MOMM*%
%FSLAX34Y34*%
%LPD*%
%INSilk bottom*%
%IPPOS*%
%AMOC8*
5,1,8,0,0,1.08239X$1,22.5*%
G01*
%ADD10C,0.000000*%
%ADD11C,0.101600*%
%ADD12C,0.127000*%


D10*
X10000Y0D02*
X790000Y0D01*
X790242Y3D01*
X790483Y12D01*
X790724Y26D01*
X790965Y47D01*
X791205Y73D01*
X791445Y105D01*
X791684Y143D01*
X791921Y186D01*
X792158Y236D01*
X792393Y291D01*
X792627Y351D01*
X792859Y418D01*
X793090Y489D01*
X793319Y567D01*
X793546Y650D01*
X793771Y738D01*
X793994Y832D01*
X794214Y931D01*
X794432Y1036D01*
X794647Y1145D01*
X794860Y1260D01*
X795070Y1380D01*
X795276Y1505D01*
X795480Y1635D01*
X795681Y1770D01*
X795878Y1910D01*
X796072Y2054D01*
X796262Y2203D01*
X796448Y2357D01*
X796631Y2515D01*
X796810Y2677D01*
X796985Y2844D01*
X797156Y3015D01*
X797323Y3190D01*
X797485Y3369D01*
X797643Y3552D01*
X797797Y3738D01*
X797946Y3928D01*
X798090Y4122D01*
X798230Y4319D01*
X798365Y4520D01*
X798495Y4724D01*
X798620Y4930D01*
X798740Y5140D01*
X798855Y5353D01*
X798964Y5568D01*
X799069Y5786D01*
X799168Y6006D01*
X799262Y6229D01*
X799350Y6454D01*
X799433Y6681D01*
X799511Y6910D01*
X799582Y7141D01*
X799649Y7373D01*
X799709Y7607D01*
X799764Y7842D01*
X799814Y8079D01*
X799857Y8316D01*
X799895Y8555D01*
X799927Y8795D01*
X799953Y9035D01*
X799974Y9276D01*
X799988Y9517D01*
X799997Y9758D01*
X800000Y10000D01*
X800000Y610000D01*
X799997Y610242D01*
X799988Y610483D01*
X799974Y610724D01*
X799953Y610965D01*
X799927Y611205D01*
X799895Y611445D01*
X799857Y611684D01*
X799814Y611921D01*
X799764Y612158D01*
X799709Y612393D01*
X799649Y612627D01*
X799582Y612859D01*
X799511Y613090D01*
X799433Y613319D01*
X799350Y613546D01*
X799262Y613771D01*
X799168Y613994D01*
X799069Y614214D01*
X798964Y614432D01*
X798855Y614647D01*
X798740Y614860D01*
X798620Y615070D01*
X798495Y615276D01*
X798365Y615480D01*
X798230Y615681D01*
X798090Y615878D01*
X797946Y616072D01*
X797797Y616262D01*
X797643Y616448D01*
X797485Y616631D01*
X797323Y616810D01*
X797156Y616985D01*
X796985Y617156D01*
X796810Y617323D01*
X796631Y617485D01*
X796448Y617643D01*
X796262Y617797D01*
X796072Y617946D01*
X795878Y618090D01*
X795681Y618230D01*
X795480Y618365D01*
X795276Y618495D01*
X795070Y618620D01*
X794860Y618740D01*
X794647Y618855D01*
X794432Y618964D01*
X794214Y619069D01*
X793994Y619168D01*
X793771Y619262D01*
X793546Y619350D01*
X793319Y619433D01*
X793090Y619511D01*
X792859Y619582D01*
X792627Y619649D01*
X792393Y619709D01*
X792158Y619764D01*
X791921Y619814D01*
X791684Y619857D01*
X791445Y619895D01*
X791205Y619927D01*
X790965Y619953D01*
X790724Y619974D01*
X790483Y619988D01*
X790242Y619997D01*
X790000Y620000D01*
X10000Y620000D01*
X9758Y619997D01*
X9517Y619988D01*
X9276Y619974D01*
X9035Y619953D01*
X8795Y619927D01*
X8555Y619895D01*
X8316Y619857D01*
X8079Y619814D01*
X7842Y619764D01*
X7607Y619709D01*
X7373Y619649D01*
X7141Y619582D01*
X6910Y619511D01*
X6681Y619433D01*
X6454Y619350D01*
X6229Y619262D01*
X6006Y619168D01*
X5786Y619069D01*
X5568Y618964D01*
X5353Y618855D01*
X5140Y618740D01*
X4930Y618620D01*
X4724Y618495D01*
X4520Y618365D01*
X4319Y618230D01*
X4122Y618090D01*
X3928Y617946D01*
X3738Y617797D01*
X3552Y617643D01*
X3369Y617485D01*
X3190Y617323D01*
X3015Y617156D01*
X2844Y616985D01*
X2677Y616810D01*
X2515Y616631D01*
X2357Y616448D01*
X2203Y616262D01*
X2054Y616072D01*
X1910Y615878D01*
X1770Y615681D01*
X1635Y615480D01*
X1505Y615276D01*
X1380Y615070D01*
X1260Y614860D01*
X1145Y614647D01*
X1036Y614432D01*
X931Y614214D01*
X832Y613994D01*
X738Y613771D01*
X650Y613546D01*
X567Y613319D01*
X489Y613090D01*
X418Y612859D01*
X351Y612627D01*
X291Y612393D01*
X236Y612158D01*
X186Y611921D01*
X143Y611684D01*
X105Y611445D01*
X73Y611205D01*
X47Y610965D01*
X26Y610724D01*
X12Y610483D01*
X3Y610242D01*
X0Y610000D01*
X0Y10000D01*
X3Y9758D01*
X12Y9517D01*
X26Y9276D01*
X47Y9035D01*
X73Y8795D01*
X105Y8555D01*
X143Y8316D01*
X186Y8079D01*
X236Y7842D01*
X291Y7607D01*
X351Y7373D01*
X418Y7141D01*
X489Y6910D01*
X567Y6681D01*
X650Y6454D01*
X738Y6229D01*
X832Y6006D01*
X931Y5786D01*
X1036Y5568D01*
X1145Y5353D01*
X1260Y5140D01*
X1380Y4930D01*
X1505Y4724D01*
X1635Y4520D01*
X1770Y4319D01*
X1910Y4122D01*
X2054Y3928D01*
X2203Y3738D01*
X2357Y3552D01*
X2515Y3369D01*
X2677Y3190D01*
X2844Y3015D01*
X3015Y2844D01*
X3190Y2677D01*
X3369Y2515D01*
X3552Y2357D01*
X3738Y2203D01*
X3928Y2054D01*
X4122Y1910D01*
X4319Y1770D01*
X4520Y1635D01*
X4724Y1505D01*
X4930Y1380D01*
X5140Y1260D01*
X5353Y1145D01*
X5568Y1036D01*
X5786Y931D01*
X6006Y832D01*
X6229Y738D01*
X6454Y650D01*
X6681Y567D01*
X6910Y489D01*
X7141Y418D01*
X7373Y351D01*
X7607Y291D01*
X7842Y236D01*
X8079Y186D01*
X8316Y143D01*
X8555Y105D01*
X8795Y73D01*
X9035Y47D01*
X9276Y26D01*
X9517Y12D01*
X9758Y3D01*
X10000Y0D01*
D11*
X290918Y185644D02*
X290918Y188241D01*
X290918Y185644D02*
X290920Y185545D01*
X290926Y185445D01*
X290935Y185346D01*
X290948Y185248D01*
X290965Y185150D01*
X290986Y185052D01*
X291011Y184956D01*
X291039Y184861D01*
X291071Y184767D01*
X291106Y184674D01*
X291145Y184582D01*
X291188Y184492D01*
X291233Y184404D01*
X291283Y184317D01*
X291335Y184233D01*
X291391Y184150D01*
X291449Y184070D01*
X291511Y183992D01*
X291576Y183917D01*
X291644Y183844D01*
X291714Y183774D01*
X291787Y183706D01*
X291862Y183641D01*
X291940Y183579D01*
X292020Y183521D01*
X292103Y183465D01*
X292187Y183413D01*
X292274Y183363D01*
X292362Y183318D01*
X292452Y183275D01*
X292544Y183236D01*
X292637Y183201D01*
X292731Y183169D01*
X292826Y183141D01*
X292922Y183116D01*
X293020Y183095D01*
X293118Y183078D01*
X293216Y183065D01*
X293315Y183056D01*
X293415Y183050D01*
X293514Y183048D01*
X300006Y183048D01*
X300105Y183050D01*
X300205Y183056D01*
X300304Y183065D01*
X300402Y183078D01*
X300500Y183095D01*
X300598Y183116D01*
X300694Y183141D01*
X300789Y183169D01*
X300883Y183201D01*
X300976Y183236D01*
X301068Y183275D01*
X301158Y183318D01*
X301246Y183363D01*
X301333Y183413D01*
X301417Y183465D01*
X301500Y183521D01*
X301580Y183579D01*
X301658Y183641D01*
X301733Y183706D01*
X301806Y183774D01*
X301876Y183844D01*
X301944Y183917D01*
X302009Y183992D01*
X302071Y184070D01*
X302129Y184150D01*
X302185Y184233D01*
X302237Y184317D01*
X302287Y184404D01*
X302332Y184492D01*
X302375Y184582D01*
X302414Y184674D01*
X302449Y184766D01*
X302481Y184861D01*
X302509Y184956D01*
X302534Y185052D01*
X302555Y185150D01*
X302572Y185248D01*
X302585Y185346D01*
X302594Y185445D01*
X302600Y185545D01*
X302602Y185644D01*
X302602Y188241D01*
X300006Y192606D02*
X302602Y195852D01*
X290918Y195852D01*
X290918Y199097D02*
X290918Y192606D01*
X320199Y114708D02*
X322796Y114708D01*
X322895Y114710D01*
X322995Y114716D01*
X323094Y114725D01*
X323192Y114738D01*
X323290Y114755D01*
X323388Y114776D01*
X323484Y114801D01*
X323579Y114829D01*
X323673Y114861D01*
X323766Y114896D01*
X323858Y114935D01*
X323948Y114978D01*
X324036Y115023D01*
X324123Y115073D01*
X324207Y115125D01*
X324290Y115181D01*
X324370Y115239D01*
X324448Y115301D01*
X324523Y115366D01*
X324596Y115434D01*
X324666Y115504D01*
X324734Y115577D01*
X324799Y115652D01*
X324861Y115730D01*
X324919Y115810D01*
X324975Y115893D01*
X325027Y115977D01*
X325077Y116064D01*
X325122Y116152D01*
X325165Y116242D01*
X325204Y116334D01*
X325239Y116427D01*
X325271Y116521D01*
X325299Y116616D01*
X325324Y116712D01*
X325345Y116810D01*
X325362Y116908D01*
X325375Y117006D01*
X325384Y117105D01*
X325390Y117205D01*
X325392Y117304D01*
X325392Y123796D01*
X325390Y123895D01*
X325384Y123995D01*
X325375Y124094D01*
X325362Y124192D01*
X325345Y124290D01*
X325324Y124388D01*
X325299Y124484D01*
X325271Y124579D01*
X325239Y124673D01*
X325204Y124766D01*
X325165Y124858D01*
X325122Y124948D01*
X325077Y125036D01*
X325027Y125123D01*
X324975Y125207D01*
X324919Y125290D01*
X324861Y125370D01*
X324799Y125448D01*
X324734Y125523D01*
X324666Y125596D01*
X324596Y125666D01*
X324523Y125734D01*
X324448Y125799D01*
X324370Y125861D01*
X324290Y125919D01*
X324207Y125975D01*
X324123Y126027D01*
X324036Y126077D01*
X323948Y126122D01*
X323858Y126165D01*
X323766Y126204D01*
X323673Y126239D01*
X323579Y126271D01*
X323484Y126299D01*
X323388Y126324D01*
X323290Y126345D01*
X323192Y126362D01*
X323094Y126375D01*
X322995Y126384D01*
X322895Y126390D01*
X322796Y126392D01*
X320199Y126392D01*
X312264Y126392D02*
X312157Y126390D01*
X312051Y126384D01*
X311945Y126374D01*
X311839Y126361D01*
X311733Y126343D01*
X311629Y126322D01*
X311525Y126297D01*
X311422Y126268D01*
X311321Y126236D01*
X311221Y126199D01*
X311122Y126159D01*
X311024Y126116D01*
X310928Y126069D01*
X310834Y126018D01*
X310742Y125964D01*
X310652Y125907D01*
X310564Y125847D01*
X310479Y125783D01*
X310396Y125716D01*
X310315Y125646D01*
X310237Y125574D01*
X310161Y125498D01*
X310089Y125420D01*
X310019Y125339D01*
X309952Y125256D01*
X309888Y125171D01*
X309828Y125083D01*
X309771Y124993D01*
X309717Y124901D01*
X309666Y124807D01*
X309619Y124711D01*
X309576Y124613D01*
X309536Y124514D01*
X309499Y124414D01*
X309467Y124313D01*
X309438Y124210D01*
X309413Y124106D01*
X309392Y124002D01*
X309374Y123896D01*
X309361Y123790D01*
X309351Y123684D01*
X309345Y123578D01*
X309343Y123471D01*
X312264Y126392D02*
X312385Y126390D01*
X312506Y126384D01*
X312626Y126374D01*
X312747Y126361D01*
X312866Y126343D01*
X312986Y126322D01*
X313104Y126297D01*
X313221Y126268D01*
X313338Y126235D01*
X313453Y126199D01*
X313567Y126158D01*
X313680Y126115D01*
X313792Y126067D01*
X313901Y126016D01*
X314009Y125961D01*
X314116Y125903D01*
X314220Y125842D01*
X314322Y125777D01*
X314422Y125709D01*
X314520Y125638D01*
X314616Y125564D01*
X314709Y125487D01*
X314799Y125406D01*
X314887Y125323D01*
X314972Y125237D01*
X315055Y125148D01*
X315134Y125057D01*
X315211Y124963D01*
X315284Y124867D01*
X315354Y124769D01*
X315421Y124668D01*
X315485Y124565D01*
X315546Y124460D01*
X315603Y124353D01*
X315656Y124245D01*
X315706Y124135D01*
X315752Y124023D01*
X315795Y123910D01*
X315834Y123795D01*
X310317Y121199D02*
X310238Y121277D01*
X310162Y121357D01*
X310089Y121440D01*
X310019Y121526D01*
X309952Y121613D01*
X309888Y121704D01*
X309828Y121796D01*
X309770Y121890D01*
X309716Y121987D01*
X309666Y122085D01*
X309619Y122185D01*
X309575Y122286D01*
X309535Y122389D01*
X309499Y122494D01*
X309467Y122599D01*
X309438Y122706D01*
X309413Y122813D01*
X309391Y122922D01*
X309374Y123031D01*
X309360Y123140D01*
X309351Y123250D01*
X309345Y123361D01*
X309343Y123471D01*
X310316Y121199D02*
X315834Y114708D01*
X309343Y114708D01*
X396458Y534065D02*
X408142Y534065D01*
X408142Y537310D01*
X408140Y537423D01*
X408134Y537536D01*
X408124Y537649D01*
X408110Y537762D01*
X408093Y537874D01*
X408071Y537985D01*
X408046Y538095D01*
X408016Y538205D01*
X407983Y538313D01*
X407946Y538420D01*
X407906Y538526D01*
X407861Y538630D01*
X407813Y538733D01*
X407762Y538834D01*
X407707Y538933D01*
X407649Y539030D01*
X407587Y539125D01*
X407522Y539218D01*
X407454Y539308D01*
X407383Y539396D01*
X407308Y539482D01*
X407231Y539565D01*
X407151Y539645D01*
X407068Y539722D01*
X406982Y539797D01*
X406894Y539868D01*
X406804Y539936D01*
X406711Y540001D01*
X406616Y540063D01*
X406519Y540121D01*
X406420Y540176D01*
X406319Y540227D01*
X406216Y540275D01*
X406112Y540320D01*
X406006Y540360D01*
X405899Y540397D01*
X405791Y540430D01*
X405681Y540460D01*
X405571Y540485D01*
X405460Y540507D01*
X405348Y540524D01*
X405235Y540538D01*
X405122Y540548D01*
X405009Y540554D01*
X404896Y540556D01*
X404783Y540554D01*
X404670Y540548D01*
X404557Y540538D01*
X404444Y540524D01*
X404332Y540507D01*
X404221Y540485D01*
X404111Y540460D01*
X404001Y540430D01*
X403893Y540397D01*
X403786Y540360D01*
X403680Y540320D01*
X403576Y540275D01*
X403473Y540227D01*
X403372Y540176D01*
X403273Y540121D01*
X403176Y540063D01*
X403081Y540001D01*
X402988Y539936D01*
X402898Y539868D01*
X402810Y539797D01*
X402724Y539722D01*
X402641Y539645D01*
X402561Y539565D01*
X402484Y539482D01*
X402409Y539396D01*
X402338Y539308D01*
X402270Y539218D01*
X402205Y539125D01*
X402143Y539030D01*
X402085Y538933D01*
X402030Y538834D01*
X401979Y538733D01*
X401931Y538630D01*
X401886Y538526D01*
X401846Y538420D01*
X401809Y538313D01*
X401776Y538205D01*
X401746Y538095D01*
X401721Y537985D01*
X401699Y537874D01*
X401682Y537762D01*
X401668Y537649D01*
X401658Y537536D01*
X401652Y537423D01*
X401650Y537310D01*
X401651Y537310D02*
X401651Y534065D01*
X401651Y537959D02*
X396458Y540556D01*
X405546Y545421D02*
X408142Y548666D01*
X396458Y548666D01*
X396458Y545421D02*
X396458Y551912D01*
X405221Y563342D02*
X405328Y563340D01*
X405434Y563334D01*
X405540Y563324D01*
X405646Y563311D01*
X405752Y563293D01*
X405856Y563272D01*
X405960Y563247D01*
X406063Y563218D01*
X406164Y563186D01*
X406264Y563149D01*
X406363Y563109D01*
X406461Y563066D01*
X406557Y563019D01*
X406651Y562968D01*
X406743Y562914D01*
X406833Y562857D01*
X406921Y562797D01*
X407006Y562733D01*
X407089Y562666D01*
X407170Y562596D01*
X407248Y562524D01*
X407324Y562448D01*
X407396Y562370D01*
X407466Y562289D01*
X407533Y562206D01*
X407597Y562121D01*
X407657Y562033D01*
X407714Y561943D01*
X407768Y561851D01*
X407819Y561757D01*
X407866Y561661D01*
X407909Y561563D01*
X407949Y561464D01*
X407986Y561364D01*
X408018Y561263D01*
X408047Y561160D01*
X408072Y561056D01*
X408093Y560952D01*
X408111Y560846D01*
X408124Y560740D01*
X408134Y560634D01*
X408140Y560528D01*
X408142Y560421D01*
X408140Y560300D01*
X408134Y560179D01*
X408124Y560059D01*
X408111Y559938D01*
X408093Y559819D01*
X408072Y559699D01*
X408047Y559581D01*
X408018Y559464D01*
X407985Y559347D01*
X407949Y559232D01*
X407908Y559118D01*
X407865Y559005D01*
X407817Y558893D01*
X407766Y558784D01*
X407711Y558676D01*
X407653Y558569D01*
X407592Y558465D01*
X407527Y558363D01*
X407459Y558263D01*
X407388Y558165D01*
X407314Y558069D01*
X407237Y557976D01*
X407156Y557886D01*
X407073Y557798D01*
X406987Y557713D01*
X406898Y557630D01*
X406807Y557551D01*
X406713Y557474D01*
X406617Y557401D01*
X406519Y557331D01*
X406418Y557264D01*
X406315Y557200D01*
X406210Y557140D01*
X406103Y557083D01*
X405995Y557029D01*
X405885Y556979D01*
X405773Y556933D01*
X405660Y556890D01*
X405545Y556851D01*
X402949Y562369D02*
X403026Y562448D01*
X403107Y562524D01*
X403190Y562597D01*
X403275Y562667D01*
X403363Y562734D01*
X403453Y562798D01*
X403545Y562858D01*
X403640Y562915D01*
X403736Y562969D01*
X403834Y563020D01*
X403934Y563067D01*
X404036Y563111D01*
X404139Y563151D01*
X404243Y563187D01*
X404349Y563219D01*
X404455Y563248D01*
X404563Y563273D01*
X404671Y563295D01*
X404781Y563312D01*
X404890Y563326D01*
X405000Y563335D01*
X405111Y563341D01*
X405221Y563343D01*
X402949Y562368D02*
X396458Y556851D01*
X396458Y563342D01*
X333542Y495858D02*
X321858Y495858D01*
X333542Y495858D02*
X333542Y499104D01*
X333540Y499217D01*
X333534Y499330D01*
X333524Y499443D01*
X333510Y499556D01*
X333493Y499668D01*
X333471Y499779D01*
X333446Y499889D01*
X333416Y499999D01*
X333383Y500107D01*
X333346Y500214D01*
X333306Y500320D01*
X333261Y500424D01*
X333213Y500527D01*
X333162Y500628D01*
X333107Y500727D01*
X333049Y500824D01*
X332987Y500919D01*
X332922Y501012D01*
X332854Y501102D01*
X332783Y501190D01*
X332708Y501276D01*
X332631Y501359D01*
X332551Y501439D01*
X332468Y501516D01*
X332382Y501591D01*
X332294Y501662D01*
X332204Y501730D01*
X332111Y501795D01*
X332016Y501857D01*
X331919Y501915D01*
X331820Y501970D01*
X331719Y502021D01*
X331616Y502069D01*
X331512Y502114D01*
X331406Y502154D01*
X331299Y502191D01*
X331191Y502224D01*
X331081Y502254D01*
X330971Y502279D01*
X330860Y502301D01*
X330748Y502318D01*
X330635Y502332D01*
X330522Y502342D01*
X330409Y502348D01*
X330296Y502350D01*
X330183Y502348D01*
X330070Y502342D01*
X329957Y502332D01*
X329844Y502318D01*
X329732Y502301D01*
X329621Y502279D01*
X329511Y502254D01*
X329401Y502224D01*
X329293Y502191D01*
X329186Y502154D01*
X329080Y502114D01*
X328976Y502069D01*
X328873Y502021D01*
X328772Y501970D01*
X328673Y501915D01*
X328576Y501857D01*
X328481Y501795D01*
X328388Y501730D01*
X328298Y501662D01*
X328210Y501591D01*
X328124Y501516D01*
X328041Y501439D01*
X327961Y501359D01*
X327884Y501276D01*
X327809Y501190D01*
X327738Y501102D01*
X327670Y501012D01*
X327605Y500919D01*
X327543Y500824D01*
X327485Y500727D01*
X327430Y500628D01*
X327379Y500527D01*
X327331Y500424D01*
X327286Y500320D01*
X327246Y500214D01*
X327209Y500107D01*
X327176Y499999D01*
X327146Y499889D01*
X327121Y499779D01*
X327099Y499668D01*
X327082Y499556D01*
X327068Y499443D01*
X327058Y499330D01*
X327052Y499217D01*
X327050Y499104D01*
X327051Y499104D02*
X327051Y495858D01*
X327051Y499753D02*
X321858Y502349D01*
X330946Y507214D02*
X333542Y510460D01*
X321858Y510460D01*
X321858Y513705D02*
X321858Y507214D01*
X330946Y518644D02*
X333542Y521890D01*
X321858Y521890D01*
X321858Y525135D02*
X321858Y518644D01*
X78142Y218065D02*
X66458Y218065D01*
X78142Y218065D02*
X78142Y221310D01*
X78140Y221423D01*
X78134Y221536D01*
X78124Y221649D01*
X78110Y221762D01*
X78093Y221874D01*
X78071Y221985D01*
X78046Y222095D01*
X78016Y222205D01*
X77983Y222313D01*
X77946Y222420D01*
X77906Y222526D01*
X77861Y222630D01*
X77813Y222733D01*
X77762Y222834D01*
X77707Y222933D01*
X77649Y223030D01*
X77587Y223125D01*
X77522Y223218D01*
X77454Y223308D01*
X77383Y223396D01*
X77308Y223482D01*
X77231Y223565D01*
X77151Y223645D01*
X77068Y223722D01*
X76982Y223797D01*
X76894Y223868D01*
X76804Y223936D01*
X76711Y224001D01*
X76616Y224063D01*
X76519Y224121D01*
X76420Y224176D01*
X76319Y224227D01*
X76216Y224275D01*
X76112Y224320D01*
X76006Y224360D01*
X75899Y224397D01*
X75791Y224430D01*
X75681Y224460D01*
X75571Y224485D01*
X75460Y224507D01*
X75348Y224524D01*
X75235Y224538D01*
X75122Y224548D01*
X75009Y224554D01*
X74896Y224556D01*
X74783Y224554D01*
X74670Y224548D01*
X74557Y224538D01*
X74444Y224524D01*
X74332Y224507D01*
X74221Y224485D01*
X74111Y224460D01*
X74001Y224430D01*
X73893Y224397D01*
X73786Y224360D01*
X73680Y224320D01*
X73576Y224275D01*
X73473Y224227D01*
X73372Y224176D01*
X73273Y224121D01*
X73176Y224063D01*
X73081Y224001D01*
X72988Y223936D01*
X72898Y223868D01*
X72810Y223797D01*
X72724Y223722D01*
X72641Y223645D01*
X72561Y223565D01*
X72484Y223482D01*
X72409Y223396D01*
X72338Y223308D01*
X72270Y223218D01*
X72205Y223125D01*
X72143Y223030D01*
X72085Y222933D01*
X72030Y222834D01*
X71979Y222733D01*
X71931Y222630D01*
X71886Y222526D01*
X71846Y222420D01*
X71809Y222313D01*
X71776Y222205D01*
X71746Y222095D01*
X71721Y221985D01*
X71699Y221874D01*
X71682Y221762D01*
X71668Y221649D01*
X71658Y221536D01*
X71652Y221423D01*
X71650Y221310D01*
X71651Y221310D02*
X71651Y218065D01*
X71651Y221959D02*
X66458Y224556D01*
X75546Y229421D02*
X78142Y232666D01*
X66458Y232666D01*
X66458Y229421D02*
X66458Y235912D01*
X71651Y243447D02*
X71651Y247342D01*
X71651Y243447D02*
X71653Y243348D01*
X71659Y243248D01*
X71668Y243149D01*
X71681Y243051D01*
X71698Y242953D01*
X71719Y242855D01*
X71744Y242759D01*
X71772Y242664D01*
X71804Y242570D01*
X71839Y242477D01*
X71878Y242385D01*
X71921Y242295D01*
X71966Y242207D01*
X72016Y242120D01*
X72068Y242036D01*
X72124Y241953D01*
X72182Y241873D01*
X72244Y241795D01*
X72309Y241720D01*
X72377Y241647D01*
X72447Y241577D01*
X72520Y241509D01*
X72595Y241444D01*
X72673Y241382D01*
X72753Y241324D01*
X72836Y241268D01*
X72920Y241216D01*
X73007Y241166D01*
X73095Y241121D01*
X73185Y241078D01*
X73277Y241039D01*
X73370Y241004D01*
X73464Y240972D01*
X73559Y240944D01*
X73655Y240919D01*
X73753Y240898D01*
X73851Y240881D01*
X73949Y240868D01*
X74048Y240859D01*
X74148Y240853D01*
X74247Y240851D01*
X74896Y240851D01*
X74896Y240850D02*
X75009Y240852D01*
X75122Y240858D01*
X75235Y240868D01*
X75348Y240882D01*
X75460Y240899D01*
X75571Y240921D01*
X75681Y240946D01*
X75791Y240976D01*
X75899Y241009D01*
X76006Y241046D01*
X76112Y241086D01*
X76216Y241131D01*
X76319Y241179D01*
X76420Y241230D01*
X76519Y241285D01*
X76616Y241343D01*
X76711Y241405D01*
X76804Y241470D01*
X76894Y241538D01*
X76982Y241609D01*
X77068Y241684D01*
X77151Y241761D01*
X77231Y241841D01*
X77308Y241924D01*
X77383Y242010D01*
X77454Y242098D01*
X77522Y242188D01*
X77587Y242281D01*
X77649Y242376D01*
X77707Y242473D01*
X77762Y242572D01*
X77813Y242673D01*
X77861Y242776D01*
X77906Y242880D01*
X77946Y242986D01*
X77983Y243093D01*
X78016Y243201D01*
X78046Y243311D01*
X78071Y243421D01*
X78093Y243532D01*
X78110Y243644D01*
X78124Y243757D01*
X78134Y243870D01*
X78140Y243983D01*
X78142Y244096D01*
X78140Y244209D01*
X78134Y244322D01*
X78124Y244435D01*
X78110Y244548D01*
X78093Y244660D01*
X78071Y244771D01*
X78046Y244881D01*
X78016Y244991D01*
X77983Y245099D01*
X77946Y245206D01*
X77906Y245312D01*
X77861Y245416D01*
X77813Y245519D01*
X77762Y245620D01*
X77707Y245719D01*
X77649Y245816D01*
X77587Y245911D01*
X77522Y246004D01*
X77454Y246094D01*
X77383Y246182D01*
X77308Y246268D01*
X77231Y246351D01*
X77151Y246431D01*
X77068Y246508D01*
X76982Y246583D01*
X76894Y246654D01*
X76804Y246722D01*
X76711Y246787D01*
X76616Y246849D01*
X76519Y246907D01*
X76420Y246962D01*
X76319Y247013D01*
X76216Y247061D01*
X76112Y247106D01*
X76006Y247146D01*
X75899Y247183D01*
X75791Y247216D01*
X75681Y247246D01*
X75571Y247271D01*
X75460Y247293D01*
X75348Y247310D01*
X75235Y247324D01*
X75122Y247334D01*
X75009Y247340D01*
X74896Y247342D01*
X71651Y247342D01*
X71508Y247340D01*
X71365Y247334D01*
X71222Y247324D01*
X71080Y247310D01*
X70938Y247293D01*
X70796Y247271D01*
X70655Y247246D01*
X70515Y247216D01*
X70376Y247183D01*
X70238Y247146D01*
X70101Y247105D01*
X69965Y247061D01*
X69830Y247012D01*
X69697Y246960D01*
X69565Y246905D01*
X69435Y246845D01*
X69306Y246782D01*
X69179Y246716D01*
X69055Y246646D01*
X68932Y246573D01*
X68811Y246496D01*
X68692Y246416D01*
X68576Y246333D01*
X68461Y246247D01*
X68350Y246158D01*
X68240Y246065D01*
X68134Y245970D01*
X68030Y245871D01*
X67929Y245770D01*
X67830Y245666D01*
X67735Y245560D01*
X67642Y245450D01*
X67553Y245339D01*
X67467Y245224D01*
X67384Y245108D01*
X67304Y244989D01*
X67227Y244868D01*
X67154Y244746D01*
X67084Y244621D01*
X67018Y244494D01*
X66955Y244365D01*
X66895Y244235D01*
X66840Y244103D01*
X66788Y243970D01*
X66739Y243835D01*
X66695Y243699D01*
X66654Y243562D01*
X66617Y243424D01*
X66584Y243285D01*
X66554Y243145D01*
X66529Y243004D01*
X66507Y242862D01*
X66490Y242720D01*
X66476Y242578D01*
X66466Y242435D01*
X66460Y242292D01*
X66458Y242149D01*
D12*
X280750Y118000D02*
X312500Y118000D01*
X312500Y168800D02*
X280750Y168800D01*
X312500Y122400D02*
X312500Y118400D01*
X312500Y133400D02*
X312500Y137400D01*
X312500Y149400D02*
X312500Y153400D01*
X312500Y164400D02*
X312500Y168400D01*
X280750Y168400D02*
X280750Y154400D01*
X280750Y131400D02*
X280750Y118000D01*
D11*
X267542Y134365D02*
X261855Y134365D01*
X261762Y134367D01*
X261670Y134373D01*
X261577Y134383D01*
X261485Y134396D01*
X261394Y134414D01*
X261304Y134436D01*
X261215Y134461D01*
X261126Y134490D01*
X261040Y134523D01*
X260954Y134559D01*
X260870Y134599D01*
X260788Y134643D01*
X260708Y134690D01*
X260630Y134740D01*
X260555Y134794D01*
X260481Y134850D01*
X260410Y134910D01*
X260342Y134973D01*
X260276Y135039D01*
X260213Y135107D01*
X260153Y135178D01*
X260097Y135252D01*
X260043Y135327D01*
X259993Y135405D01*
X259946Y135485D01*
X259902Y135567D01*
X259862Y135651D01*
X259826Y135737D01*
X259793Y135823D01*
X259764Y135912D01*
X259739Y136001D01*
X259717Y136091D01*
X259699Y136182D01*
X259686Y136274D01*
X259676Y136367D01*
X259670Y136459D01*
X259668Y136552D01*
X259670Y136645D01*
X259676Y136737D01*
X259686Y136830D01*
X259699Y136922D01*
X259717Y137013D01*
X259739Y137103D01*
X259764Y137192D01*
X259793Y137281D01*
X259826Y137367D01*
X259862Y137453D01*
X259902Y137537D01*
X259946Y137619D01*
X259993Y137699D01*
X260043Y137777D01*
X260097Y137852D01*
X260153Y137926D01*
X260213Y137997D01*
X260276Y138065D01*
X260342Y138131D01*
X260410Y138194D01*
X260481Y138254D01*
X260555Y138310D01*
X260630Y138364D01*
X260708Y138414D01*
X260788Y138461D01*
X260870Y138505D01*
X260954Y138545D01*
X261040Y138581D01*
X261126Y138614D01*
X261215Y138643D01*
X261304Y138668D01*
X261394Y138690D01*
X261485Y138708D01*
X261577Y138721D01*
X261670Y138731D01*
X261762Y138737D01*
X261855Y138739D01*
X267542Y138739D01*
X267542Y144286D02*
X259668Y144286D01*
X263605Y144286D02*
X264261Y143193D01*
X264300Y143132D01*
X264342Y143074D01*
X264387Y143018D01*
X264435Y142964D01*
X264486Y142913D01*
X264540Y142866D01*
X264596Y142821D01*
X264655Y142779D01*
X264715Y142741D01*
X264778Y142706D01*
X264843Y142674D01*
X264909Y142647D01*
X264977Y142622D01*
X265046Y142602D01*
X265116Y142585D01*
X265186Y142573D01*
X265258Y142564D01*
X265329Y142559D01*
X265401Y142558D01*
X265473Y142561D01*
X265545Y142568D01*
X265616Y142579D01*
X265686Y142594D01*
X265756Y142613D01*
X265824Y142635D01*
X265891Y142661D01*
X265956Y142691D01*
X266020Y142724D01*
X266082Y142761D01*
X266141Y142801D01*
X266199Y142845D01*
X266254Y142891D01*
X266306Y142940D01*
X266355Y142993D01*
X266402Y143047D01*
X266445Y143105D01*
X266485Y143164D01*
X266522Y143226D01*
X266556Y143290D01*
X266585Y143355D01*
X266612Y143422D01*
X266634Y143490D01*
X266653Y143560D01*
X266668Y143630D01*
X266686Y143742D01*
X266701Y143855D01*
X266712Y143968D01*
X266720Y144081D01*
X266724Y144195D01*
X266724Y144308D01*
X266720Y144422D01*
X266712Y144535D01*
X266701Y144648D01*
X266687Y144761D01*
X266668Y144873D01*
X266646Y144984D01*
X266620Y145095D01*
X266591Y145205D01*
X266558Y145314D01*
X266521Y145421D01*
X266481Y145527D01*
X266438Y145632D01*
X266391Y145736D01*
X266340Y145838D01*
X266287Y145938D01*
X266230Y146036D01*
X263605Y144286D02*
X262949Y145380D01*
X262910Y145441D01*
X262868Y145499D01*
X262823Y145555D01*
X262775Y145609D01*
X262724Y145660D01*
X262670Y145707D01*
X262614Y145752D01*
X262555Y145794D01*
X262495Y145832D01*
X262432Y145867D01*
X262367Y145899D01*
X262301Y145926D01*
X262233Y145951D01*
X262164Y145971D01*
X262094Y145988D01*
X262024Y146000D01*
X261952Y146009D01*
X261881Y146014D01*
X261809Y146015D01*
X261737Y146012D01*
X261665Y146005D01*
X261594Y145994D01*
X261524Y145979D01*
X261454Y145960D01*
X261386Y145938D01*
X261319Y145912D01*
X261254Y145882D01*
X261190Y145849D01*
X261128Y145812D01*
X261069Y145772D01*
X261011Y145728D01*
X260956Y145682D01*
X260904Y145633D01*
X260855Y145580D01*
X260808Y145526D01*
X260765Y145468D01*
X260725Y145409D01*
X260688Y145347D01*
X260654Y145283D01*
X260625Y145218D01*
X260598Y145151D01*
X260576Y145083D01*
X260557Y145013D01*
X260542Y144943D01*
X260542Y144942D02*
X260524Y144830D01*
X260509Y144717D01*
X260498Y144604D01*
X260490Y144491D01*
X260486Y144377D01*
X260486Y144264D01*
X260490Y144150D01*
X260498Y144037D01*
X260509Y143924D01*
X260523Y143811D01*
X260542Y143699D01*
X260564Y143588D01*
X260590Y143477D01*
X260619Y143367D01*
X260652Y143258D01*
X260689Y143151D01*
X260729Y143045D01*
X260772Y142940D01*
X260819Y142836D01*
X260870Y142734D01*
X260923Y142634D01*
X260980Y142536D01*
X265792Y149567D02*
X267542Y151754D01*
X259668Y151754D01*
X259668Y149567D02*
X259668Y153941D01*
X259668Y157568D02*
X259668Y159755D01*
X259670Y159848D01*
X259676Y159940D01*
X259686Y160033D01*
X259699Y160125D01*
X259717Y160216D01*
X259739Y160306D01*
X259764Y160395D01*
X259793Y160484D01*
X259826Y160570D01*
X259862Y160656D01*
X259902Y160740D01*
X259946Y160822D01*
X259993Y160902D01*
X260043Y160980D01*
X260097Y161055D01*
X260153Y161129D01*
X260213Y161200D01*
X260276Y161268D01*
X260342Y161334D01*
X260410Y161397D01*
X260481Y161457D01*
X260555Y161513D01*
X260630Y161567D01*
X260708Y161617D01*
X260788Y161664D01*
X260870Y161708D01*
X260954Y161748D01*
X261040Y161784D01*
X261126Y161817D01*
X261215Y161846D01*
X261304Y161871D01*
X261394Y161893D01*
X261485Y161911D01*
X261577Y161924D01*
X261670Y161934D01*
X261762Y161940D01*
X261855Y161942D01*
X261948Y161940D01*
X262040Y161934D01*
X262133Y161924D01*
X262225Y161911D01*
X262316Y161893D01*
X262406Y161871D01*
X262495Y161846D01*
X262584Y161817D01*
X262670Y161784D01*
X262756Y161748D01*
X262840Y161708D01*
X262922Y161664D01*
X263002Y161617D01*
X263080Y161567D01*
X263155Y161513D01*
X263229Y161457D01*
X263300Y161397D01*
X263368Y161334D01*
X263434Y161268D01*
X263497Y161200D01*
X263557Y161129D01*
X263613Y161055D01*
X263667Y160980D01*
X263717Y160902D01*
X263764Y160822D01*
X263808Y160740D01*
X263848Y160656D01*
X263884Y160570D01*
X263917Y160484D01*
X263946Y160395D01*
X263971Y160306D01*
X263993Y160216D01*
X264011Y160125D01*
X264024Y160033D01*
X264034Y159940D01*
X264040Y159848D01*
X264042Y159755D01*
X267542Y160192D02*
X267542Y157568D01*
X267542Y160192D02*
X267540Y160274D01*
X267534Y160356D01*
X267525Y160437D01*
X267511Y160518D01*
X267494Y160599D01*
X267473Y160678D01*
X267449Y160756D01*
X267420Y160833D01*
X267388Y160909D01*
X267353Y160983D01*
X267314Y161055D01*
X267272Y161126D01*
X267227Y161194D01*
X267178Y161260D01*
X267127Y161324D01*
X267072Y161385D01*
X267015Y161444D01*
X266955Y161500D01*
X266892Y161553D01*
X266827Y161603D01*
X266760Y161650D01*
X266691Y161694D01*
X266619Y161734D01*
X266546Y161771D01*
X266471Y161805D01*
X266395Y161835D01*
X266317Y161861D01*
X266238Y161884D01*
X266159Y161903D01*
X266078Y161918D01*
X265997Y161930D01*
X265915Y161938D01*
X265833Y161942D01*
X265751Y161942D01*
X265669Y161938D01*
X265587Y161930D01*
X265506Y161918D01*
X265425Y161903D01*
X265346Y161884D01*
X265267Y161861D01*
X265189Y161835D01*
X265113Y161805D01*
X265038Y161771D01*
X264965Y161734D01*
X264893Y161694D01*
X264824Y161650D01*
X264757Y161603D01*
X264692Y161553D01*
X264629Y161500D01*
X264569Y161444D01*
X264512Y161385D01*
X264457Y161324D01*
X264406Y161260D01*
X264357Y161194D01*
X264312Y161126D01*
X264270Y161055D01*
X264231Y160983D01*
X264196Y160909D01*
X264164Y160833D01*
X264135Y160756D01*
X264111Y160678D01*
X264090Y160599D01*
X264073Y160518D01*
X264059Y160437D01*
X264050Y160356D01*
X264044Y160274D01*
X264042Y160192D01*
X264042Y158442D01*
X162005Y103142D02*
X162005Y91458D01*
X162005Y103142D02*
X158760Y103142D01*
X158647Y103140D01*
X158534Y103134D01*
X158421Y103124D01*
X158308Y103110D01*
X158196Y103093D01*
X158085Y103071D01*
X157975Y103046D01*
X157865Y103016D01*
X157757Y102983D01*
X157650Y102946D01*
X157544Y102906D01*
X157440Y102861D01*
X157337Y102813D01*
X157236Y102762D01*
X157137Y102707D01*
X157040Y102649D01*
X156945Y102587D01*
X156852Y102522D01*
X156762Y102454D01*
X156674Y102383D01*
X156588Y102308D01*
X156505Y102231D01*
X156425Y102151D01*
X156348Y102068D01*
X156273Y101982D01*
X156202Y101894D01*
X156134Y101804D01*
X156069Y101711D01*
X156007Y101616D01*
X155949Y101519D01*
X155894Y101420D01*
X155843Y101319D01*
X155795Y101216D01*
X155750Y101112D01*
X155710Y101006D01*
X155673Y100899D01*
X155640Y100791D01*
X155610Y100681D01*
X155585Y100571D01*
X155563Y100460D01*
X155546Y100348D01*
X155532Y100235D01*
X155522Y100122D01*
X155516Y100009D01*
X155514Y99896D01*
X155516Y99783D01*
X155522Y99670D01*
X155532Y99557D01*
X155546Y99444D01*
X155563Y99332D01*
X155585Y99221D01*
X155610Y99111D01*
X155640Y99001D01*
X155673Y98893D01*
X155710Y98786D01*
X155750Y98680D01*
X155795Y98576D01*
X155843Y98473D01*
X155894Y98372D01*
X155949Y98273D01*
X156007Y98176D01*
X156069Y98081D01*
X156134Y97988D01*
X156202Y97898D01*
X156273Y97810D01*
X156348Y97724D01*
X156425Y97641D01*
X156505Y97561D01*
X156588Y97484D01*
X156674Y97409D01*
X156762Y97338D01*
X156852Y97270D01*
X156945Y97205D01*
X157040Y97143D01*
X157137Y97085D01*
X157236Y97030D01*
X157337Y96979D01*
X157440Y96931D01*
X157544Y96886D01*
X157650Y96846D01*
X157757Y96809D01*
X157865Y96776D01*
X157975Y96746D01*
X158085Y96721D01*
X158196Y96699D01*
X158308Y96682D01*
X158421Y96668D01*
X158534Y96658D01*
X158647Y96652D01*
X158760Y96650D01*
X158760Y96651D02*
X162005Y96651D01*
X158111Y96651D02*
X155514Y91458D01*
X150649Y94054D02*
X148053Y103142D01*
X150649Y94054D02*
X144158Y94054D01*
X146105Y96651D02*
X146105Y91458D01*
X359438Y439869D02*
X359438Y442466D01*
X359438Y439869D02*
X359440Y439770D01*
X359446Y439670D01*
X359455Y439571D01*
X359468Y439473D01*
X359485Y439375D01*
X359506Y439277D01*
X359531Y439181D01*
X359559Y439086D01*
X359591Y438992D01*
X359626Y438899D01*
X359665Y438807D01*
X359708Y438717D01*
X359753Y438629D01*
X359803Y438542D01*
X359855Y438458D01*
X359911Y438375D01*
X359969Y438295D01*
X360031Y438217D01*
X360096Y438142D01*
X360164Y438069D01*
X360234Y437999D01*
X360307Y437931D01*
X360382Y437866D01*
X360460Y437804D01*
X360540Y437746D01*
X360623Y437690D01*
X360707Y437638D01*
X360794Y437588D01*
X360882Y437543D01*
X360972Y437500D01*
X361064Y437461D01*
X361157Y437426D01*
X361251Y437394D01*
X361346Y437366D01*
X361442Y437341D01*
X361540Y437320D01*
X361638Y437303D01*
X361736Y437290D01*
X361835Y437281D01*
X361935Y437275D01*
X362034Y437273D01*
X368526Y437273D01*
X368625Y437275D01*
X368725Y437281D01*
X368824Y437290D01*
X368922Y437303D01*
X369020Y437320D01*
X369118Y437341D01*
X369214Y437366D01*
X369309Y437394D01*
X369403Y437426D01*
X369496Y437461D01*
X369588Y437500D01*
X369678Y437543D01*
X369766Y437588D01*
X369853Y437638D01*
X369937Y437690D01*
X370020Y437746D01*
X370100Y437804D01*
X370178Y437866D01*
X370253Y437931D01*
X370326Y437999D01*
X370396Y438069D01*
X370464Y438142D01*
X370529Y438217D01*
X370591Y438295D01*
X370649Y438375D01*
X370705Y438458D01*
X370757Y438542D01*
X370807Y438629D01*
X370852Y438717D01*
X370895Y438807D01*
X370934Y438899D01*
X370969Y438991D01*
X371001Y439086D01*
X371029Y439181D01*
X371054Y439277D01*
X371075Y439375D01*
X371092Y439473D01*
X371105Y439571D01*
X371114Y439670D01*
X371120Y439770D01*
X371122Y439869D01*
X371122Y442466D01*
X371122Y449427D02*
X362034Y446831D01*
X362034Y453322D01*
X364631Y451375D02*
X359438Y451375D01*
X381528Y443246D02*
X381528Y440649D01*
X381530Y440550D01*
X381536Y440450D01*
X381545Y440351D01*
X381558Y440253D01*
X381575Y440155D01*
X381596Y440057D01*
X381621Y439961D01*
X381649Y439866D01*
X381681Y439772D01*
X381716Y439679D01*
X381755Y439587D01*
X381798Y439497D01*
X381843Y439409D01*
X381893Y439322D01*
X381945Y439238D01*
X382001Y439155D01*
X382059Y439075D01*
X382121Y438997D01*
X382186Y438922D01*
X382254Y438849D01*
X382324Y438779D01*
X382397Y438711D01*
X382472Y438646D01*
X382550Y438584D01*
X382630Y438526D01*
X382713Y438470D01*
X382797Y438418D01*
X382884Y438368D01*
X382972Y438323D01*
X383062Y438280D01*
X383154Y438241D01*
X383247Y438206D01*
X383341Y438174D01*
X383436Y438146D01*
X383532Y438121D01*
X383630Y438100D01*
X383728Y438083D01*
X383826Y438070D01*
X383925Y438061D01*
X384025Y438055D01*
X384124Y438053D01*
X390616Y438053D01*
X390715Y438055D01*
X390815Y438061D01*
X390914Y438070D01*
X391012Y438083D01*
X391110Y438100D01*
X391208Y438121D01*
X391304Y438146D01*
X391399Y438174D01*
X391493Y438206D01*
X391586Y438241D01*
X391678Y438280D01*
X391768Y438323D01*
X391856Y438368D01*
X391943Y438418D01*
X392027Y438470D01*
X392110Y438526D01*
X392190Y438584D01*
X392268Y438646D01*
X392343Y438711D01*
X392416Y438779D01*
X392486Y438849D01*
X392554Y438922D01*
X392619Y438997D01*
X392681Y439075D01*
X392739Y439155D01*
X392795Y439238D01*
X392847Y439322D01*
X392897Y439409D01*
X392942Y439497D01*
X392985Y439587D01*
X393024Y439679D01*
X393059Y439771D01*
X393091Y439866D01*
X393119Y439961D01*
X393144Y440057D01*
X393165Y440155D01*
X393182Y440253D01*
X393195Y440351D01*
X393204Y440450D01*
X393210Y440550D01*
X393212Y440649D01*
X393212Y443246D01*
X381528Y447611D02*
X381528Y451506D01*
X381530Y451605D01*
X381536Y451705D01*
X381545Y451804D01*
X381558Y451902D01*
X381575Y452000D01*
X381596Y452098D01*
X381621Y452194D01*
X381649Y452289D01*
X381681Y452383D01*
X381716Y452476D01*
X381755Y452568D01*
X381798Y452658D01*
X381843Y452746D01*
X381893Y452833D01*
X381945Y452917D01*
X382001Y453000D01*
X382059Y453080D01*
X382121Y453158D01*
X382186Y453233D01*
X382254Y453306D01*
X382324Y453376D01*
X382397Y453444D01*
X382472Y453509D01*
X382550Y453571D01*
X382630Y453629D01*
X382713Y453685D01*
X382797Y453737D01*
X382884Y453787D01*
X382972Y453832D01*
X383062Y453875D01*
X383154Y453914D01*
X383247Y453949D01*
X383341Y453981D01*
X383436Y454009D01*
X383532Y454034D01*
X383630Y454055D01*
X383728Y454072D01*
X383826Y454085D01*
X383925Y454094D01*
X384025Y454100D01*
X384124Y454102D01*
X385423Y454102D01*
X385522Y454100D01*
X385622Y454094D01*
X385721Y454085D01*
X385819Y454072D01*
X385917Y454055D01*
X386015Y454034D01*
X386111Y454009D01*
X386206Y453981D01*
X386300Y453949D01*
X386393Y453914D01*
X386485Y453875D01*
X386575Y453832D01*
X386663Y453787D01*
X386750Y453737D01*
X386834Y453685D01*
X386917Y453629D01*
X386997Y453571D01*
X387075Y453509D01*
X387150Y453444D01*
X387223Y453376D01*
X387293Y453306D01*
X387361Y453233D01*
X387426Y453158D01*
X387488Y453080D01*
X387546Y453000D01*
X387602Y452917D01*
X387654Y452833D01*
X387704Y452746D01*
X387749Y452658D01*
X387792Y452568D01*
X387831Y452476D01*
X387866Y452383D01*
X387898Y452289D01*
X387926Y452194D01*
X387951Y452098D01*
X387972Y452000D01*
X387989Y451902D01*
X388002Y451804D01*
X388011Y451705D01*
X388017Y451605D01*
X388019Y451506D01*
X388019Y447611D01*
X393212Y447611D01*
X393212Y454102D01*
X409618Y440106D02*
X409618Y437509D01*
X409620Y437410D01*
X409626Y437310D01*
X409635Y437211D01*
X409648Y437113D01*
X409665Y437015D01*
X409686Y436917D01*
X409711Y436821D01*
X409739Y436726D01*
X409771Y436632D01*
X409806Y436539D01*
X409845Y436447D01*
X409888Y436357D01*
X409933Y436269D01*
X409983Y436182D01*
X410035Y436098D01*
X410091Y436015D01*
X410149Y435935D01*
X410211Y435857D01*
X410276Y435782D01*
X410344Y435709D01*
X410414Y435639D01*
X410487Y435571D01*
X410562Y435506D01*
X410640Y435444D01*
X410720Y435386D01*
X410803Y435330D01*
X410887Y435278D01*
X410974Y435228D01*
X411062Y435183D01*
X411152Y435140D01*
X411244Y435101D01*
X411337Y435066D01*
X411431Y435034D01*
X411526Y435006D01*
X411622Y434981D01*
X411720Y434960D01*
X411818Y434943D01*
X411916Y434930D01*
X412015Y434921D01*
X412115Y434915D01*
X412214Y434913D01*
X418706Y434913D01*
X418805Y434915D01*
X418905Y434921D01*
X419004Y434930D01*
X419102Y434943D01*
X419200Y434960D01*
X419298Y434981D01*
X419394Y435006D01*
X419489Y435034D01*
X419583Y435066D01*
X419676Y435101D01*
X419768Y435140D01*
X419858Y435183D01*
X419946Y435228D01*
X420033Y435278D01*
X420117Y435330D01*
X420200Y435386D01*
X420280Y435444D01*
X420358Y435506D01*
X420433Y435571D01*
X420506Y435639D01*
X420576Y435709D01*
X420644Y435782D01*
X420709Y435857D01*
X420771Y435935D01*
X420829Y436015D01*
X420885Y436098D01*
X420937Y436182D01*
X420987Y436269D01*
X421032Y436357D01*
X421075Y436447D01*
X421114Y436539D01*
X421149Y436631D01*
X421181Y436726D01*
X421209Y436821D01*
X421234Y436917D01*
X421255Y437015D01*
X421272Y437113D01*
X421285Y437211D01*
X421294Y437310D01*
X421300Y437410D01*
X421302Y437509D01*
X421302Y440106D01*
X416109Y444471D02*
X416109Y448366D01*
X416107Y448465D01*
X416101Y448565D01*
X416092Y448664D01*
X416079Y448762D01*
X416062Y448860D01*
X416041Y448958D01*
X416016Y449054D01*
X415988Y449149D01*
X415956Y449243D01*
X415921Y449336D01*
X415882Y449428D01*
X415839Y449518D01*
X415794Y449606D01*
X415744Y449693D01*
X415692Y449777D01*
X415636Y449860D01*
X415578Y449940D01*
X415516Y450018D01*
X415451Y450093D01*
X415383Y450166D01*
X415313Y450236D01*
X415240Y450304D01*
X415165Y450369D01*
X415087Y450431D01*
X415007Y450489D01*
X414924Y450545D01*
X414840Y450597D01*
X414753Y450647D01*
X414665Y450692D01*
X414575Y450735D01*
X414483Y450774D01*
X414390Y450809D01*
X414296Y450841D01*
X414201Y450869D01*
X414105Y450894D01*
X414007Y450915D01*
X413909Y450932D01*
X413811Y450945D01*
X413712Y450954D01*
X413612Y450960D01*
X413513Y450962D01*
X412864Y450962D01*
X412751Y450960D01*
X412638Y450954D01*
X412525Y450944D01*
X412412Y450930D01*
X412300Y450913D01*
X412189Y450891D01*
X412079Y450866D01*
X411969Y450836D01*
X411861Y450803D01*
X411754Y450766D01*
X411648Y450726D01*
X411544Y450681D01*
X411441Y450633D01*
X411340Y450582D01*
X411241Y450527D01*
X411144Y450469D01*
X411049Y450407D01*
X410956Y450342D01*
X410866Y450274D01*
X410778Y450203D01*
X410692Y450128D01*
X410609Y450051D01*
X410529Y449971D01*
X410452Y449888D01*
X410377Y449802D01*
X410306Y449714D01*
X410238Y449624D01*
X410173Y449531D01*
X410111Y449436D01*
X410053Y449339D01*
X409998Y449240D01*
X409947Y449139D01*
X409899Y449036D01*
X409854Y448932D01*
X409814Y448826D01*
X409777Y448719D01*
X409744Y448611D01*
X409714Y448501D01*
X409689Y448391D01*
X409667Y448280D01*
X409650Y448168D01*
X409636Y448055D01*
X409626Y447942D01*
X409620Y447829D01*
X409618Y447716D01*
X409620Y447603D01*
X409626Y447490D01*
X409636Y447377D01*
X409650Y447264D01*
X409667Y447152D01*
X409689Y447041D01*
X409714Y446931D01*
X409744Y446821D01*
X409777Y446713D01*
X409814Y446606D01*
X409854Y446500D01*
X409899Y446396D01*
X409947Y446293D01*
X409998Y446192D01*
X410053Y446093D01*
X410111Y445996D01*
X410173Y445901D01*
X410238Y445808D01*
X410306Y445718D01*
X410377Y445630D01*
X410452Y445544D01*
X410529Y445461D01*
X410609Y445381D01*
X410692Y445304D01*
X410778Y445229D01*
X410866Y445158D01*
X410956Y445090D01*
X411049Y445025D01*
X411144Y444963D01*
X411241Y444905D01*
X411340Y444850D01*
X411441Y444799D01*
X411544Y444751D01*
X411648Y444706D01*
X411754Y444666D01*
X411861Y444629D01*
X411969Y444596D01*
X412079Y444566D01*
X412189Y444541D01*
X412300Y444519D01*
X412412Y444502D01*
X412525Y444488D01*
X412638Y444478D01*
X412751Y444472D01*
X412864Y444470D01*
X412864Y444471D02*
X416109Y444471D01*
X416252Y444473D01*
X416395Y444479D01*
X416538Y444489D01*
X416680Y444503D01*
X416822Y444520D01*
X416964Y444542D01*
X417105Y444567D01*
X417245Y444597D01*
X417384Y444630D01*
X417522Y444667D01*
X417659Y444708D01*
X417795Y444752D01*
X417930Y444801D01*
X418063Y444853D01*
X418195Y444908D01*
X418325Y444968D01*
X418454Y445031D01*
X418581Y445097D01*
X418705Y445167D01*
X418828Y445240D01*
X418949Y445317D01*
X419068Y445397D01*
X419184Y445480D01*
X419299Y445566D01*
X419410Y445655D01*
X419520Y445748D01*
X419626Y445843D01*
X419730Y445942D01*
X419831Y446043D01*
X419930Y446147D01*
X420025Y446253D01*
X420118Y446363D01*
X420207Y446474D01*
X420293Y446589D01*
X420376Y446705D01*
X420456Y446824D01*
X420533Y446945D01*
X420606Y447067D01*
X420676Y447192D01*
X420742Y447319D01*
X420805Y447448D01*
X420865Y447578D01*
X420920Y447710D01*
X420972Y447843D01*
X421021Y447978D01*
X421065Y448114D01*
X421106Y448251D01*
X421143Y448389D01*
X421176Y448528D01*
X421206Y448668D01*
X421231Y448809D01*
X421253Y448951D01*
X421270Y449093D01*
X421284Y449235D01*
X421294Y449378D01*
X421300Y449521D01*
X421302Y449664D01*
X410851Y197918D02*
X408254Y197918D01*
X410851Y197918D02*
X410950Y197920D01*
X411050Y197926D01*
X411149Y197935D01*
X411247Y197948D01*
X411345Y197965D01*
X411443Y197986D01*
X411539Y198011D01*
X411634Y198039D01*
X411728Y198071D01*
X411821Y198106D01*
X411913Y198145D01*
X412003Y198188D01*
X412091Y198233D01*
X412178Y198283D01*
X412262Y198335D01*
X412345Y198391D01*
X412425Y198449D01*
X412503Y198511D01*
X412578Y198576D01*
X412651Y198644D01*
X412721Y198714D01*
X412789Y198787D01*
X412854Y198862D01*
X412916Y198940D01*
X412974Y199020D01*
X413030Y199103D01*
X413082Y199187D01*
X413132Y199274D01*
X413177Y199362D01*
X413220Y199452D01*
X413259Y199544D01*
X413294Y199637D01*
X413326Y199731D01*
X413354Y199826D01*
X413379Y199922D01*
X413400Y200020D01*
X413417Y200118D01*
X413430Y200216D01*
X413439Y200315D01*
X413445Y200415D01*
X413447Y200514D01*
X413447Y207006D01*
X413445Y207105D01*
X413439Y207205D01*
X413430Y207304D01*
X413417Y207402D01*
X413400Y207500D01*
X413379Y207598D01*
X413354Y207694D01*
X413326Y207789D01*
X413294Y207883D01*
X413259Y207976D01*
X413220Y208068D01*
X413177Y208158D01*
X413132Y208246D01*
X413082Y208333D01*
X413030Y208417D01*
X412974Y208500D01*
X412916Y208580D01*
X412854Y208658D01*
X412789Y208733D01*
X412721Y208806D01*
X412651Y208876D01*
X412578Y208944D01*
X412503Y209009D01*
X412425Y209071D01*
X412345Y209129D01*
X412262Y209185D01*
X412178Y209237D01*
X412091Y209287D01*
X412003Y209332D01*
X411913Y209375D01*
X411821Y209414D01*
X411728Y209449D01*
X411634Y209481D01*
X411539Y209509D01*
X411443Y209534D01*
X411345Y209555D01*
X411247Y209572D01*
X411149Y209585D01*
X411050Y209594D01*
X410950Y209600D01*
X410851Y209602D01*
X408254Y209602D01*
X403890Y201164D02*
X403888Y201277D01*
X403882Y201390D01*
X403872Y201503D01*
X403858Y201616D01*
X403841Y201728D01*
X403819Y201839D01*
X403794Y201949D01*
X403764Y202059D01*
X403731Y202167D01*
X403694Y202274D01*
X403654Y202380D01*
X403609Y202484D01*
X403561Y202587D01*
X403510Y202688D01*
X403455Y202787D01*
X403397Y202884D01*
X403335Y202979D01*
X403270Y203072D01*
X403202Y203162D01*
X403131Y203250D01*
X403056Y203336D01*
X402979Y203419D01*
X402899Y203499D01*
X402816Y203576D01*
X402730Y203651D01*
X402642Y203722D01*
X402552Y203790D01*
X402459Y203855D01*
X402364Y203917D01*
X402267Y203975D01*
X402168Y204030D01*
X402067Y204081D01*
X401964Y204129D01*
X401860Y204174D01*
X401754Y204214D01*
X401647Y204251D01*
X401539Y204284D01*
X401429Y204314D01*
X401319Y204339D01*
X401208Y204361D01*
X401096Y204378D01*
X400983Y204392D01*
X400870Y204402D01*
X400757Y204408D01*
X400644Y204410D01*
X400531Y204408D01*
X400418Y204402D01*
X400305Y204392D01*
X400192Y204378D01*
X400080Y204361D01*
X399969Y204339D01*
X399859Y204314D01*
X399749Y204284D01*
X399641Y204251D01*
X399534Y204214D01*
X399428Y204174D01*
X399324Y204129D01*
X399221Y204081D01*
X399120Y204030D01*
X399021Y203975D01*
X398924Y203917D01*
X398829Y203855D01*
X398736Y203790D01*
X398646Y203722D01*
X398558Y203651D01*
X398472Y203576D01*
X398389Y203499D01*
X398309Y203419D01*
X398232Y203336D01*
X398157Y203250D01*
X398086Y203162D01*
X398018Y203072D01*
X397953Y202979D01*
X397891Y202884D01*
X397833Y202787D01*
X397778Y202688D01*
X397727Y202587D01*
X397679Y202484D01*
X397634Y202380D01*
X397594Y202274D01*
X397557Y202167D01*
X397524Y202059D01*
X397494Y201949D01*
X397469Y201839D01*
X397447Y201728D01*
X397430Y201616D01*
X397416Y201503D01*
X397406Y201390D01*
X397400Y201277D01*
X397398Y201164D01*
X397400Y201051D01*
X397406Y200938D01*
X397416Y200825D01*
X397430Y200712D01*
X397447Y200600D01*
X397469Y200489D01*
X397494Y200379D01*
X397524Y200269D01*
X397557Y200161D01*
X397594Y200054D01*
X397634Y199948D01*
X397679Y199844D01*
X397727Y199741D01*
X397778Y199640D01*
X397833Y199541D01*
X397891Y199444D01*
X397953Y199349D01*
X398018Y199256D01*
X398086Y199166D01*
X398157Y199078D01*
X398232Y198992D01*
X398309Y198909D01*
X398389Y198829D01*
X398472Y198752D01*
X398558Y198677D01*
X398646Y198606D01*
X398736Y198538D01*
X398829Y198473D01*
X398924Y198411D01*
X399021Y198353D01*
X399120Y198298D01*
X399221Y198247D01*
X399324Y198199D01*
X399428Y198154D01*
X399534Y198114D01*
X399641Y198077D01*
X399749Y198044D01*
X399859Y198014D01*
X399969Y197989D01*
X400080Y197967D01*
X400192Y197950D01*
X400305Y197936D01*
X400418Y197926D01*
X400531Y197920D01*
X400644Y197918D01*
X400757Y197920D01*
X400870Y197926D01*
X400983Y197936D01*
X401096Y197950D01*
X401208Y197967D01*
X401319Y197989D01*
X401429Y198014D01*
X401539Y198044D01*
X401647Y198077D01*
X401754Y198114D01*
X401860Y198154D01*
X401964Y198199D01*
X402067Y198247D01*
X402168Y198298D01*
X402267Y198353D01*
X402364Y198411D01*
X402459Y198473D01*
X402552Y198538D01*
X402642Y198606D01*
X402730Y198677D01*
X402816Y198752D01*
X402899Y198829D01*
X402979Y198909D01*
X403056Y198992D01*
X403131Y199078D01*
X403202Y199166D01*
X403270Y199256D01*
X403335Y199349D01*
X403397Y199444D01*
X403455Y199541D01*
X403510Y199640D01*
X403561Y199741D01*
X403609Y199844D01*
X403654Y199948D01*
X403694Y200054D01*
X403731Y200161D01*
X403764Y200269D01*
X403794Y200379D01*
X403819Y200489D01*
X403841Y200600D01*
X403858Y200712D01*
X403872Y200825D01*
X403882Y200938D01*
X403888Y201051D01*
X403890Y201164D01*
X403240Y207006D02*
X403238Y207107D01*
X403232Y207207D01*
X403222Y207307D01*
X403209Y207407D01*
X403191Y207506D01*
X403170Y207605D01*
X403145Y207702D01*
X403116Y207799D01*
X403083Y207894D01*
X403047Y207988D01*
X403007Y208080D01*
X402964Y208171D01*
X402917Y208260D01*
X402867Y208347D01*
X402813Y208433D01*
X402756Y208516D01*
X402696Y208596D01*
X402633Y208675D01*
X402566Y208751D01*
X402497Y208824D01*
X402425Y208894D01*
X402351Y208962D01*
X402274Y209027D01*
X402194Y209088D01*
X402112Y209147D01*
X402028Y209202D01*
X401942Y209254D01*
X401854Y209303D01*
X401764Y209348D01*
X401672Y209390D01*
X401579Y209428D01*
X401484Y209462D01*
X401389Y209493D01*
X401292Y209520D01*
X401194Y209543D01*
X401095Y209563D01*
X400995Y209578D01*
X400895Y209590D01*
X400795Y209598D01*
X400694Y209602D01*
X400594Y209602D01*
X400493Y209598D01*
X400393Y209590D01*
X400293Y209578D01*
X400193Y209563D01*
X400094Y209543D01*
X399996Y209520D01*
X399899Y209493D01*
X399804Y209462D01*
X399709Y209428D01*
X399616Y209390D01*
X399524Y209348D01*
X399434Y209303D01*
X399346Y209254D01*
X399260Y209202D01*
X399176Y209147D01*
X399094Y209088D01*
X399014Y209027D01*
X398937Y208962D01*
X398863Y208894D01*
X398791Y208824D01*
X398722Y208751D01*
X398655Y208675D01*
X398592Y208596D01*
X398532Y208516D01*
X398475Y208433D01*
X398421Y208347D01*
X398371Y208260D01*
X398324Y208171D01*
X398281Y208080D01*
X398241Y207988D01*
X398205Y207894D01*
X398172Y207799D01*
X398143Y207702D01*
X398118Y207605D01*
X398097Y207506D01*
X398079Y207407D01*
X398066Y207307D01*
X398056Y207207D01*
X398050Y207107D01*
X398048Y207006D01*
X398050Y206905D01*
X398056Y206805D01*
X398066Y206705D01*
X398079Y206605D01*
X398097Y206506D01*
X398118Y206407D01*
X398143Y206310D01*
X398172Y206213D01*
X398205Y206118D01*
X398241Y206024D01*
X398281Y205932D01*
X398324Y205841D01*
X398371Y205752D01*
X398421Y205665D01*
X398475Y205579D01*
X398532Y205496D01*
X398592Y205416D01*
X398655Y205337D01*
X398722Y205261D01*
X398791Y205188D01*
X398863Y205118D01*
X398937Y205050D01*
X399014Y204985D01*
X399094Y204924D01*
X399176Y204865D01*
X399260Y204810D01*
X399346Y204758D01*
X399434Y204709D01*
X399524Y204664D01*
X399616Y204622D01*
X399709Y204584D01*
X399804Y204550D01*
X399899Y204519D01*
X399996Y204492D01*
X400094Y204469D01*
X400193Y204449D01*
X400293Y204434D01*
X400393Y204422D01*
X400493Y204414D01*
X400594Y204410D01*
X400694Y204410D01*
X400795Y204414D01*
X400895Y204422D01*
X400995Y204434D01*
X401095Y204449D01*
X401194Y204469D01*
X401292Y204492D01*
X401389Y204519D01*
X401484Y204550D01*
X401579Y204584D01*
X401672Y204622D01*
X401764Y204664D01*
X401854Y204709D01*
X401942Y204758D01*
X402028Y204810D01*
X402112Y204865D01*
X402194Y204924D01*
X402274Y204985D01*
X402351Y205050D01*
X402425Y205118D01*
X402497Y205188D01*
X402566Y205261D01*
X402633Y205337D01*
X402696Y205416D01*
X402756Y205496D01*
X402813Y205579D01*
X402867Y205665D01*
X402917Y205752D01*
X402964Y205841D01*
X403007Y205932D01*
X403047Y206024D01*
X403083Y206118D01*
X403116Y206213D01*
X403145Y206310D01*
X403170Y206407D01*
X403191Y206506D01*
X403209Y206605D01*
X403222Y206705D01*
X403232Y206805D01*
X403238Y206905D01*
X403240Y207006D01*
X408464Y223898D02*
X411061Y223898D01*
X411160Y223900D01*
X411260Y223906D01*
X411359Y223915D01*
X411457Y223928D01*
X411555Y223945D01*
X411653Y223966D01*
X411749Y223991D01*
X411844Y224019D01*
X411938Y224051D01*
X412031Y224086D01*
X412123Y224125D01*
X412213Y224168D01*
X412301Y224213D01*
X412388Y224263D01*
X412472Y224315D01*
X412555Y224371D01*
X412635Y224429D01*
X412713Y224491D01*
X412788Y224556D01*
X412861Y224624D01*
X412931Y224694D01*
X412999Y224767D01*
X413064Y224842D01*
X413126Y224920D01*
X413184Y225000D01*
X413240Y225083D01*
X413292Y225167D01*
X413342Y225254D01*
X413387Y225342D01*
X413430Y225432D01*
X413469Y225524D01*
X413504Y225617D01*
X413536Y225711D01*
X413564Y225806D01*
X413589Y225902D01*
X413610Y226000D01*
X413627Y226098D01*
X413640Y226196D01*
X413649Y226295D01*
X413655Y226395D01*
X413657Y226494D01*
X413657Y232986D01*
X413655Y233085D01*
X413649Y233185D01*
X413640Y233284D01*
X413627Y233382D01*
X413610Y233480D01*
X413589Y233578D01*
X413564Y233674D01*
X413536Y233769D01*
X413504Y233863D01*
X413469Y233956D01*
X413430Y234048D01*
X413387Y234138D01*
X413342Y234226D01*
X413292Y234313D01*
X413240Y234397D01*
X413184Y234480D01*
X413126Y234560D01*
X413064Y234638D01*
X412999Y234713D01*
X412931Y234786D01*
X412861Y234856D01*
X412788Y234924D01*
X412713Y234989D01*
X412635Y235051D01*
X412555Y235109D01*
X412472Y235165D01*
X412388Y235217D01*
X412301Y235267D01*
X412213Y235312D01*
X412123Y235355D01*
X412031Y235394D01*
X411938Y235429D01*
X411844Y235461D01*
X411749Y235489D01*
X411653Y235514D01*
X411555Y235535D01*
X411457Y235552D01*
X411359Y235565D01*
X411260Y235574D01*
X411160Y235580D01*
X411061Y235582D01*
X408464Y235582D01*
X401503Y229091D02*
X397608Y229091D01*
X401503Y229091D02*
X401602Y229093D01*
X401702Y229099D01*
X401801Y229108D01*
X401899Y229121D01*
X401997Y229138D01*
X402095Y229159D01*
X402191Y229184D01*
X402286Y229212D01*
X402380Y229244D01*
X402473Y229279D01*
X402565Y229318D01*
X402655Y229361D01*
X402743Y229406D01*
X402830Y229456D01*
X402914Y229508D01*
X402997Y229564D01*
X403077Y229622D01*
X403155Y229684D01*
X403230Y229749D01*
X403303Y229817D01*
X403373Y229887D01*
X403441Y229960D01*
X403506Y230035D01*
X403568Y230113D01*
X403626Y230193D01*
X403682Y230276D01*
X403734Y230360D01*
X403784Y230447D01*
X403829Y230535D01*
X403872Y230625D01*
X403911Y230717D01*
X403946Y230810D01*
X403978Y230904D01*
X404006Y230999D01*
X404031Y231095D01*
X404052Y231193D01*
X404069Y231291D01*
X404082Y231389D01*
X404091Y231488D01*
X404097Y231588D01*
X404099Y231687D01*
X404099Y232336D01*
X404100Y232336D02*
X404098Y232449D01*
X404092Y232562D01*
X404082Y232675D01*
X404068Y232788D01*
X404051Y232900D01*
X404029Y233011D01*
X404004Y233121D01*
X403974Y233231D01*
X403941Y233339D01*
X403904Y233446D01*
X403864Y233552D01*
X403819Y233656D01*
X403771Y233759D01*
X403720Y233860D01*
X403665Y233959D01*
X403607Y234056D01*
X403545Y234151D01*
X403480Y234244D01*
X403412Y234334D01*
X403341Y234422D01*
X403266Y234508D01*
X403189Y234591D01*
X403109Y234671D01*
X403026Y234748D01*
X402940Y234823D01*
X402852Y234894D01*
X402762Y234962D01*
X402669Y235027D01*
X402574Y235089D01*
X402477Y235147D01*
X402378Y235202D01*
X402277Y235253D01*
X402174Y235301D01*
X402070Y235346D01*
X401964Y235386D01*
X401857Y235423D01*
X401749Y235456D01*
X401639Y235486D01*
X401529Y235511D01*
X401418Y235533D01*
X401306Y235550D01*
X401193Y235564D01*
X401080Y235574D01*
X400967Y235580D01*
X400854Y235582D01*
X400741Y235580D01*
X400628Y235574D01*
X400515Y235564D01*
X400402Y235550D01*
X400290Y235533D01*
X400179Y235511D01*
X400069Y235486D01*
X399959Y235456D01*
X399851Y235423D01*
X399744Y235386D01*
X399638Y235346D01*
X399534Y235301D01*
X399431Y235253D01*
X399330Y235202D01*
X399231Y235147D01*
X399134Y235089D01*
X399039Y235027D01*
X398946Y234962D01*
X398856Y234894D01*
X398768Y234823D01*
X398682Y234748D01*
X398599Y234671D01*
X398519Y234591D01*
X398442Y234508D01*
X398367Y234422D01*
X398296Y234334D01*
X398228Y234244D01*
X398163Y234151D01*
X398101Y234056D01*
X398043Y233959D01*
X397988Y233860D01*
X397937Y233759D01*
X397889Y233656D01*
X397844Y233552D01*
X397804Y233446D01*
X397767Y233339D01*
X397734Y233231D01*
X397704Y233121D01*
X397679Y233011D01*
X397657Y232900D01*
X397640Y232788D01*
X397626Y232675D01*
X397616Y232562D01*
X397610Y232449D01*
X397608Y232336D01*
X397608Y229091D01*
X397610Y228948D01*
X397616Y228805D01*
X397626Y228662D01*
X397640Y228520D01*
X397657Y228378D01*
X397679Y228236D01*
X397704Y228095D01*
X397734Y227955D01*
X397767Y227816D01*
X397804Y227678D01*
X397845Y227541D01*
X397889Y227405D01*
X397938Y227270D01*
X397990Y227137D01*
X398045Y227005D01*
X398105Y226875D01*
X398168Y226746D01*
X398234Y226619D01*
X398304Y226495D01*
X398377Y226372D01*
X398454Y226251D01*
X398534Y226132D01*
X398617Y226016D01*
X398703Y225901D01*
X398792Y225790D01*
X398885Y225680D01*
X398980Y225574D01*
X399079Y225470D01*
X399180Y225369D01*
X399284Y225270D01*
X399390Y225175D01*
X399500Y225082D01*
X399611Y224993D01*
X399726Y224907D01*
X399842Y224824D01*
X399961Y224744D01*
X400082Y224667D01*
X400204Y224594D01*
X400329Y224524D01*
X400456Y224458D01*
X400585Y224395D01*
X400715Y224335D01*
X400847Y224280D01*
X400980Y224228D01*
X401115Y224179D01*
X401251Y224135D01*
X401388Y224094D01*
X401526Y224057D01*
X401665Y224024D01*
X401805Y223994D01*
X401946Y223969D01*
X402088Y223947D01*
X402230Y223930D01*
X402372Y223916D01*
X402515Y223906D01*
X402658Y223900D01*
X402801Y223898D01*
X418914Y250568D02*
X421511Y250568D01*
X421610Y250570D01*
X421710Y250576D01*
X421809Y250585D01*
X421907Y250598D01*
X422005Y250615D01*
X422103Y250636D01*
X422199Y250661D01*
X422294Y250689D01*
X422388Y250721D01*
X422481Y250756D01*
X422573Y250795D01*
X422663Y250838D01*
X422751Y250883D01*
X422838Y250933D01*
X422922Y250985D01*
X423005Y251041D01*
X423085Y251099D01*
X423163Y251161D01*
X423238Y251226D01*
X423311Y251294D01*
X423381Y251364D01*
X423449Y251437D01*
X423514Y251512D01*
X423576Y251590D01*
X423634Y251670D01*
X423690Y251753D01*
X423742Y251837D01*
X423792Y251924D01*
X423837Y252012D01*
X423880Y252102D01*
X423919Y252194D01*
X423954Y252287D01*
X423986Y252381D01*
X424014Y252476D01*
X424039Y252572D01*
X424060Y252670D01*
X424077Y252768D01*
X424090Y252866D01*
X424099Y252965D01*
X424105Y253065D01*
X424107Y253164D01*
X424107Y259656D01*
X424105Y259755D01*
X424099Y259855D01*
X424090Y259954D01*
X424077Y260052D01*
X424060Y260150D01*
X424039Y260248D01*
X424014Y260344D01*
X423986Y260439D01*
X423954Y260533D01*
X423919Y260626D01*
X423880Y260718D01*
X423837Y260808D01*
X423792Y260896D01*
X423742Y260983D01*
X423690Y261067D01*
X423634Y261150D01*
X423576Y261230D01*
X423514Y261308D01*
X423449Y261383D01*
X423381Y261456D01*
X423311Y261526D01*
X423238Y261594D01*
X423163Y261659D01*
X423085Y261721D01*
X423005Y261779D01*
X422922Y261835D01*
X422838Y261887D01*
X422751Y261937D01*
X422663Y261982D01*
X422573Y262025D01*
X422481Y262064D01*
X422388Y262099D01*
X422294Y262131D01*
X422199Y262159D01*
X422103Y262184D01*
X422005Y262205D01*
X421907Y262222D01*
X421809Y262235D01*
X421710Y262244D01*
X421610Y262250D01*
X421511Y262252D01*
X418914Y262252D01*
X414549Y259656D02*
X411304Y262252D01*
X411304Y250568D01*
X414549Y250568D02*
X408058Y250568D01*
X403120Y256410D02*
X403117Y256640D01*
X403109Y256870D01*
X403095Y257099D01*
X403076Y257328D01*
X403051Y257557D01*
X403021Y257785D01*
X402986Y258012D01*
X402945Y258238D01*
X402899Y258463D01*
X402847Y258687D01*
X402790Y258910D01*
X402728Y259131D01*
X402660Y259351D01*
X402587Y259569D01*
X402509Y259785D01*
X402426Y259999D01*
X402338Y260212D01*
X402245Y260422D01*
X402146Y260629D01*
X402113Y260719D01*
X402077Y260808D01*
X402037Y260896D01*
X401993Y260981D01*
X401946Y261065D01*
X401896Y261147D01*
X401842Y261227D01*
X401786Y261304D01*
X401726Y261380D01*
X401663Y261453D01*
X401598Y261523D01*
X401529Y261591D01*
X401458Y261655D01*
X401385Y261717D01*
X401309Y261776D01*
X401231Y261832D01*
X401150Y261885D01*
X401068Y261934D01*
X400984Y261980D01*
X400897Y262023D01*
X400810Y262062D01*
X400720Y262098D01*
X400630Y262130D01*
X400538Y262158D01*
X400445Y262183D01*
X400351Y262204D01*
X400257Y262221D01*
X400162Y262235D01*
X400066Y262244D01*
X399970Y262250D01*
X399874Y262252D01*
X399778Y262250D01*
X399682Y262244D01*
X399586Y262235D01*
X399491Y262221D01*
X399397Y262204D01*
X399303Y262183D01*
X399210Y262158D01*
X399118Y262130D01*
X399028Y262098D01*
X398938Y262062D01*
X398851Y262023D01*
X398764Y261980D01*
X398680Y261934D01*
X398598Y261885D01*
X398517Y261832D01*
X398439Y261776D01*
X398363Y261717D01*
X398290Y261655D01*
X398219Y261591D01*
X398150Y261523D01*
X398085Y261453D01*
X398022Y261380D01*
X397962Y261305D01*
X397906Y261227D01*
X397852Y261147D01*
X397802Y261065D01*
X397755Y260981D01*
X397712Y260896D01*
X397671Y260808D01*
X397635Y260719D01*
X397602Y260629D01*
X397503Y260421D01*
X397410Y260211D01*
X397322Y259999D01*
X397239Y259785D01*
X397161Y259568D01*
X397088Y259350D01*
X397020Y259131D01*
X396958Y258909D01*
X396901Y258687D01*
X396849Y258463D01*
X396803Y258238D01*
X396762Y258012D01*
X396727Y257784D01*
X396697Y257557D01*
X396672Y257328D01*
X396653Y257099D01*
X396639Y256870D01*
X396631Y256640D01*
X396628Y256410D01*
X403119Y256410D02*
X403116Y256180D01*
X403108Y255950D01*
X403094Y255721D01*
X403075Y255492D01*
X403050Y255263D01*
X403020Y255035D01*
X402985Y254808D01*
X402944Y254582D01*
X402898Y254357D01*
X402846Y254133D01*
X402789Y253910D01*
X402727Y253689D01*
X402659Y253469D01*
X402586Y253251D01*
X402508Y253035D01*
X402425Y252821D01*
X402337Y252609D01*
X402244Y252398D01*
X402145Y252191D01*
X402146Y252191D02*
X402113Y252101D01*
X402077Y252012D01*
X402036Y251924D01*
X401993Y251839D01*
X401946Y251755D01*
X401896Y251673D01*
X401842Y251593D01*
X401786Y251516D01*
X401726Y251440D01*
X401663Y251367D01*
X401598Y251297D01*
X401529Y251229D01*
X401458Y251165D01*
X401385Y251103D01*
X401309Y251044D01*
X401231Y250988D01*
X401150Y250935D01*
X401068Y250886D01*
X400984Y250840D01*
X400897Y250797D01*
X400810Y250758D01*
X400720Y250722D01*
X400630Y250690D01*
X400538Y250662D01*
X400445Y250637D01*
X400351Y250616D01*
X400257Y250599D01*
X400162Y250585D01*
X400066Y250576D01*
X399970Y250570D01*
X399874Y250568D01*
X397602Y252191D02*
X397503Y252398D01*
X397410Y252609D01*
X397322Y252821D01*
X397239Y253035D01*
X397161Y253251D01*
X397088Y253469D01*
X397020Y253689D01*
X396958Y253910D01*
X396901Y254133D01*
X396849Y254357D01*
X396803Y254582D01*
X396762Y254808D01*
X396727Y255035D01*
X396697Y255263D01*
X396672Y255492D01*
X396653Y255721D01*
X396639Y255950D01*
X396631Y256180D01*
X396628Y256410D01*
X397602Y252191D02*
X397635Y252101D01*
X397671Y252012D01*
X397712Y251924D01*
X397755Y251839D01*
X397802Y251755D01*
X397852Y251673D01*
X397906Y251593D01*
X397962Y251515D01*
X398022Y251440D01*
X398085Y251367D01*
X398150Y251297D01*
X398219Y251229D01*
X398290Y251165D01*
X398363Y251103D01*
X398439Y251044D01*
X398517Y250988D01*
X398598Y250935D01*
X398680Y250886D01*
X398764Y250840D01*
X398851Y250797D01*
X398938Y250758D01*
X399028Y250722D01*
X399118Y250690D01*
X399210Y250662D01*
X399303Y250637D01*
X399397Y250616D01*
X399491Y250599D01*
X399586Y250585D01*
X399682Y250576D01*
X399778Y250570D01*
X399874Y250568D01*
X402470Y253164D02*
X397277Y259656D01*
M02*
