M48
;GenerationSoftware,Autodesk,EAGLE,9.6.2*%
;CreationDate,2022-09-24T14:29:07Z*%
FMAT,2
ICI,OFF
METRIC,TZ,000.000
T2C0.350
T1C1.016
%
G90
M71
T1
X34405Y7021
X21750Y4497
X19210Y4497
X16670Y4497
X14130Y4497
X21750Y7037
X19210Y7037
X16670Y7037
X14130Y7037
X64885Y4481
X62345Y4481
X59805Y4481
X57265Y4481
X54725Y4481
X52185Y4481
X49645Y4481
X47105Y4481
X44565Y4481
X42025Y4481
X39485Y4481
X36945Y4481
X34405Y4481
X64885Y7021
X62345Y7021
X59805Y7021
X57265Y7021
X54725Y7021
X52185Y7021
X49645Y7021
X47105Y7021
X44565Y7021
X42025Y7021
X39485Y7021
X36945Y7021
T2
X5000Y20000
X5000Y25000
X19000Y28000
X22000Y28000
X19000Y32000
X22000Y32000
X22000Y39000
X19000Y39000
X22000Y44000
X25000Y42000
X10000Y48000
X10000Y26000
X7000Y26000
X7000Y48000
X2000Y53000
X4000Y55000
X6000Y54000
X3000Y51000
X58034Y14796
X52034Y14796
X52034Y10796
X57034Y13796
X71034Y53796
X71034Y55796
X72060Y60216
X78034Y2796
X78034Y3796
X78034Y1796
X77034Y1796
X76034Y1796
X76034Y2796
X76034Y3796
X77034Y3796
X77034Y2796
X77034Y60796
X78034Y60796
X78034Y59796
X77034Y59796
X77034Y58796
X78034Y58796
X76034Y58796
X76034Y59796
X76034Y60796
X4034Y57796
X4034Y56796
X4034Y55796
X40000Y33300
X52100Y33250
X62284Y34096
X61934Y52846
X69184Y52796
X68884Y34196
X73384Y16196
X55434Y13396
X63236Y33392
X68108Y33529
X65719Y33869
X63327Y34362
X68030Y34376
X53100Y25250
X53100Y22250
X54100Y19250
X40000Y2000
X34000Y2000
X10034Y34796
X7034Y34796
X39253Y18345
X39293Y17063
X39145Y14922
X51916Y16819
X51799Y18179
X52070Y12976
X38991Y12958
X38930Y11086
X39135Y53906
X59135Y53906
X59135Y55906
X31007Y54866
X34114Y56145
X43135Y55906
X60434Y10396
X60509Y12873
X56490Y12885
X56482Y10775
X43135Y53635
X53974Y53568
X53791Y56034
X39974Y46412
X51856Y46925
X51714Y49937
X4034Y58796
X4034Y59796
X2034Y59796
X3034Y59796
X1034Y59796
X1034Y60796
X2034Y60796
X3034Y60796
X4034Y60796
X5034Y60796
X5034Y59796
X5034Y58796
X5034Y57796
X5034Y56796
X5034Y55796
X5034Y54796
X6034Y54796
X6034Y55796
X6034Y56796
X15000Y32000
X13000Y32000
X13374Y28555
X9000Y20000
X16592Y29965
X24000Y29000
X36000Y21000
X35000Y40000
X37000Y42000
X61000Y41000
X61000Y40000
X61000Y39000
X61000Y38000
X62000Y41000
X62000Y40000
X62000Y39000
X62000Y38000
X63000Y38000
X62000Y37000
X62000Y36000
X63000Y36000
X63000Y37000
X63000Y39000
X63000Y40000
X63000Y41000
X64000Y41000
X64000Y40000
X64000Y39000
X64000Y38000
X64000Y37000
X64000Y36000
X65000Y36000
X65000Y37000
X65000Y38000
X65000Y39000
X65000Y40000
X65000Y41000
X66000Y41000
X66000Y40000
X66000Y39000
X66000Y38000
X66000Y37000
X66000Y36000
X67000Y36000
X67000Y37000
X67000Y38000
X67000Y39000
X67000Y40000
X67000Y41000
X68000Y41000
X68000Y40000
X68000Y39000
X68000Y38000
X68000Y37000
X68000Y36000
X69000Y36000
X69000Y37000
X69000Y38000
X69000Y39000
X69000Y40000
X69000Y41000
X70000Y41000
X70000Y40000
X70000Y39000
X70000Y38000
X70000Y37000
X70000Y36000
X36224Y22724
X59000Y32000
X59000Y31000
X59000Y30000
X59000Y29000
X70000Y28000
X70000Y27000
X60000Y27000
X61000Y27000
X62000Y27000
X63000Y27000
X64000Y27000
X65000Y27000
X66000Y27000
X67000Y27000
X68000Y27000
X69000Y27000
X69000Y28000
X69000Y29000
X69000Y30000
X69000Y31000
X69000Y32000
X68000Y32000
X68000Y31000
X68000Y30000
X68000Y29000
X68000Y28000
X67000Y28000
X67000Y29000
X67000Y30000
X67000Y31000
X67000Y32000
X60000Y32000
X61000Y32000
X63000Y32000
X62000Y32000
X64000Y32000
X65000Y32000
X66000Y32000
X66000Y31000
X65000Y31000
X64000Y31000
X63000Y31000
X62000Y31000
X61000Y31000
X60000Y31000
X60000Y30000
X61000Y30000
X62000Y30000
X63000Y30000
X64000Y30000
X65000Y30000
X66000Y30000
X66000Y29000
X66000Y28000
X65000Y28000
X65000Y29000
X64000Y29000
X64000Y28000
X28000Y39000
X63000Y29000
X62000Y29000
X62000Y28000
X61000Y28000
X61000Y29000
X60000Y29000
X60000Y28000
X15000Y13000
X16000Y9000
X17000Y9000
X17000Y13000
X21000Y13000
X12000Y13000
X9000Y13000
X9000Y9000
X9000Y5000
X15262Y5693
X17720Y5558
X17961Y3493
X15318Y3454
X2000Y2000
X2000Y3000
X3000Y3000
X3000Y4000
X4000Y4000
X4000Y3000
X3000Y2000
X2000Y16000
X3000Y16000
X2000Y15000
X3000Y15000
X4000Y15000
X4000Y14000
X3000Y14000
X23000Y16000
X23000Y15000
X22000Y15000
X22000Y16000
X4000Y16000
X2000Y14000
X2000Y4000
X4000Y2000
X72000Y55000
X63000Y28000
X59100Y34250
X2000Y55000
X18000Y20000
X35803Y26048
X21000Y9000
X37000Y12000
X53000Y12000
X38267Y16222
X56150Y18000
X37000Y45000
X35000Y39000
X34000Y30000
X28000Y30000
X37000Y18000
X35000Y13000
X35000Y11000
X29000Y11000
X30090Y17410
X34686Y17404
X38988Y52524
X39054Y56028
X35348Y56169
X35204Y52525
X36204Y46525
X32767Y46829
X33007Y49866
X36099Y49942
X33007Y52866
X30007Y49866
X30007Y46866
X73034Y33796
X78034Y33796
X78034Y49796
X73034Y49796
X72034Y23796
X77034Y23796
X34000Y36000
X28000Y36000
X15000Y20000
X15000Y29000
X23000Y25000
X23000Y20000
X6000Y25000
X39800Y34300
M30