G04 EAGLE Gerber RS-274X export*
G75*
%MOMM*%
%FSLAX34Y34*%
%LPD*%
%INTop Layer*%
%IPPOS*%
%AMOC8*
5,1,8,0,0,1.08239X$1,22.5*%
G01*
%ADD10C,0.000000*%
%ADD11R,1.100000X1.000000*%
%ADD12P,1.649562X8X202.500000*%
%ADD13R,0.911800X0.511800*%
%ADD14R,1.000000X1.100000*%
%ADD15R,2.000000X0.660000*%
%ADD16R,0.500000X1.000000*%
%ADD17R,0.910000X1.220000*%
%ADD18R,7.500000X7.500000*%
%ADD19R,3.810000X2.320000*%
%ADD20R,9.650000X11.000000*%
%ADD21R,2.320000X3.810000*%
%ADD22R,11.000000X9.650000*%
%ADD23C,1.016000*%
%ADD24C,0.654800*%
%ADD25C,0.812800*%
%ADD26C,0.609600*%
%ADD27C,0.152400*%

G36*
X790016Y5085D02*
X790016Y5085D01*
X790037Y5083D01*
X790923Y5170D01*
X790960Y5182D01*
X791031Y5197D01*
X792667Y5875D01*
X792669Y5876D01*
X792670Y5876D01*
X792676Y5880D01*
X792680Y5881D01*
X792690Y5889D01*
X792791Y5957D01*
X794043Y7209D01*
X794044Y7211D01*
X794045Y7212D01*
X794125Y7333D01*
X794803Y8969D01*
X794809Y9008D01*
X794830Y9077D01*
X794917Y9963D01*
X794915Y9979D01*
X794919Y10000D01*
X794919Y610000D01*
X794915Y610016D01*
X794917Y610037D01*
X794830Y610923D01*
X794818Y610960D01*
X794803Y611031D01*
X794125Y612667D01*
X794124Y612669D01*
X794124Y612670D01*
X794043Y612791D01*
X792791Y614043D01*
X792789Y614044D01*
X792788Y614045D01*
X792667Y614125D01*
X791031Y614803D01*
X790992Y614809D01*
X790923Y614830D01*
X790037Y614917D01*
X790021Y614915D01*
X790000Y614919D01*
X10000Y614919D01*
X9984Y614915D01*
X9963Y614917D01*
X9077Y614830D01*
X9040Y614818D01*
X8969Y614803D01*
X7333Y614125D01*
X7331Y614124D01*
X7330Y614124D01*
X7209Y614043D01*
X5957Y612791D01*
X5956Y612789D01*
X5955Y612788D01*
X5875Y612667D01*
X5197Y611031D01*
X5191Y610992D01*
X5170Y610923D01*
X5083Y610037D01*
X5085Y610021D01*
X5081Y610000D01*
X5081Y180000D01*
X5092Y179950D01*
X5094Y179899D01*
X5112Y179867D01*
X5120Y179831D01*
X5153Y179792D01*
X5177Y179747D01*
X5207Y179726D01*
X5230Y179698D01*
X5277Y179677D01*
X5319Y179647D01*
X5361Y179639D01*
X5389Y179627D01*
X5419Y179628D01*
X5461Y179620D01*
X249620Y179620D01*
X249620Y5461D01*
X249631Y5411D01*
X249633Y5360D01*
X249651Y5328D01*
X249659Y5292D01*
X249692Y5253D01*
X249716Y5208D01*
X249746Y5187D01*
X249769Y5159D01*
X249816Y5138D01*
X249858Y5108D01*
X249900Y5100D01*
X249928Y5088D01*
X249958Y5089D01*
X250000Y5081D01*
X790000Y5081D01*
X790016Y5085D01*
G37*
%LPC*%
G36*
X309211Y28094D02*
X309211Y28094D01*
X308094Y29211D01*
X308094Y227714D01*
X308083Y227764D01*
X308081Y227815D01*
X308063Y227847D01*
X308055Y227883D01*
X308022Y227922D01*
X307998Y227967D01*
X307968Y227988D01*
X307945Y228016D01*
X307898Y228037D01*
X307856Y228067D01*
X307814Y228075D01*
X307786Y228087D01*
X307756Y228086D01*
X307714Y228094D01*
X279211Y228094D01*
X278094Y229211D01*
X278094Y240789D01*
X279211Y241906D01*
X279270Y241906D01*
X279295Y241912D01*
X279321Y241909D01*
X279379Y241931D01*
X279439Y241945D01*
X279459Y241962D01*
X279483Y241971D01*
X279525Y242016D01*
X279572Y242055D01*
X279583Y242079D01*
X279600Y242098D01*
X279618Y242157D01*
X279643Y242214D01*
X279642Y242239D01*
X279650Y242264D01*
X279639Y242325D01*
X279637Y242387D01*
X279624Y242409D01*
X279620Y242435D01*
X279572Y242506D01*
X279554Y242539D01*
X279546Y242545D01*
X279539Y242555D01*
X277747Y244346D01*
X270667Y251426D01*
X270662Y251434D01*
X241765Y280331D01*
X241764Y280332D01*
X241763Y280334D01*
X241642Y280414D01*
X239259Y281401D01*
X234401Y286259D01*
X233395Y288686D01*
X233395Y291314D01*
X234401Y293741D01*
X236259Y295599D01*
X238686Y296605D01*
X241314Y296605D01*
X243741Y295599D01*
X248599Y290741D01*
X249586Y288358D01*
X249587Y288357D01*
X249588Y288355D01*
X249669Y288235D01*
X278195Y259709D01*
X278217Y259695D01*
X278233Y259675D01*
X278290Y259650D01*
X278342Y259617D01*
X278368Y259615D01*
X278392Y259604D01*
X278453Y259606D01*
X278515Y259601D01*
X278539Y259610D01*
X278565Y259611D01*
X278619Y259640D01*
X278677Y259662D01*
X278694Y259681D01*
X278717Y259693D01*
X278752Y259744D01*
X278794Y259789D01*
X278802Y259814D01*
X278817Y259835D01*
X278833Y259920D01*
X278844Y259955D01*
X278842Y259965D01*
X278844Y259977D01*
X278844Y270789D01*
X279961Y271906D01*
X287714Y271906D01*
X287764Y271917D01*
X287815Y271919D01*
X287847Y271937D01*
X287883Y271945D01*
X287922Y271978D01*
X287967Y272002D01*
X287988Y272032D01*
X288016Y272055D01*
X288037Y272102D01*
X288067Y272144D01*
X288075Y272186D01*
X288087Y272214D01*
X288086Y272244D01*
X288094Y272286D01*
X288094Y400789D01*
X289211Y401906D01*
X307714Y401906D01*
X307764Y401917D01*
X307815Y401919D01*
X307847Y401937D01*
X307883Y401945D01*
X307922Y401978D01*
X307967Y402002D01*
X307988Y402032D01*
X308016Y402055D01*
X308037Y402102D01*
X308067Y402144D01*
X308075Y402186D01*
X308087Y402214D01*
X308086Y402244D01*
X308094Y402286D01*
X308094Y417714D01*
X308083Y417764D01*
X308081Y417815D01*
X308063Y417847D01*
X308055Y417883D01*
X308022Y417922D01*
X307998Y417967D01*
X307968Y417988D01*
X307945Y418016D01*
X307898Y418037D01*
X307856Y418067D01*
X307814Y418075D01*
X307786Y418087D01*
X307756Y418086D01*
X307714Y418094D01*
X279211Y418094D01*
X278094Y419211D01*
X278094Y430581D01*
X278083Y430631D01*
X278081Y430682D01*
X278063Y430714D01*
X278055Y430750D01*
X278022Y430789D01*
X277998Y430834D01*
X277968Y430855D01*
X277945Y430883D01*
X277898Y430904D01*
X277856Y430934D01*
X277814Y430942D01*
X277786Y430954D01*
X277756Y430953D01*
X277714Y430961D01*
X244322Y430961D01*
X244248Y430944D01*
X244174Y430931D01*
X244164Y430924D01*
X244154Y430922D01*
X244125Y430898D01*
X244054Y430850D01*
X213966Y400762D01*
X213926Y400698D01*
X213882Y400636D01*
X213880Y400624D01*
X213875Y400615D01*
X213871Y400578D01*
X213855Y400494D01*
X213855Y204296D01*
X212849Y201869D01*
X211386Y200406D01*
X211375Y200388D01*
X211365Y200380D01*
X211352Y200350D01*
X211346Y200341D01*
X211302Y200279D01*
X211300Y200267D01*
X211295Y200258D01*
X211291Y200221D01*
X211275Y200137D01*
X211275Y199978D01*
X210382Y199085D01*
X208833Y199085D01*
X208831Y199085D01*
X208829Y199085D01*
X208687Y199056D01*
X208564Y199005D01*
X205936Y199005D01*
X205813Y199056D01*
X205811Y199057D01*
X205810Y199058D01*
X205667Y199085D01*
X204118Y199085D01*
X203225Y199978D01*
X203225Y200137D01*
X203208Y200211D01*
X203195Y200285D01*
X203188Y200296D01*
X203186Y200305D01*
X203162Y200334D01*
X203118Y200400D01*
X203117Y200402D01*
X203116Y200402D01*
X203114Y200406D01*
X201651Y201869D01*
X201251Y202833D01*
X201236Y202854D01*
X201229Y202879D01*
X201186Y202924D01*
X201150Y202974D01*
X201128Y202986D01*
X201110Y203005D01*
X201052Y203026D01*
X200997Y203055D01*
X200971Y203056D01*
X200947Y203065D01*
X200886Y203058D01*
X200824Y203060D01*
X200801Y203050D01*
X200775Y203047D01*
X200723Y203014D01*
X200667Y202988D01*
X200650Y202968D01*
X200629Y202954D01*
X200581Y202882D01*
X200558Y202853D01*
X200556Y202843D01*
X200549Y202833D01*
X200149Y201869D01*
X198686Y200406D01*
X198675Y200388D01*
X198665Y200380D01*
X198652Y200350D01*
X198646Y200341D01*
X198602Y200279D01*
X198600Y200267D01*
X198595Y200258D01*
X198591Y200221D01*
X198575Y200137D01*
X198575Y199978D01*
X197682Y199085D01*
X197523Y199085D01*
X197449Y199068D01*
X197375Y199055D01*
X197364Y199048D01*
X197355Y199046D01*
X197326Y199022D01*
X197254Y198974D01*
X192681Y194401D01*
X190254Y193395D01*
X178686Y193395D01*
X176259Y194401D01*
X174401Y196259D01*
X173395Y198686D01*
X173395Y201314D01*
X174401Y203741D01*
X176259Y205599D01*
X178686Y206605D01*
X186047Y206605D01*
X186121Y206622D01*
X186195Y206635D01*
X186206Y206642D01*
X186215Y206644D01*
X186244Y206668D01*
X186316Y206716D01*
X190414Y210814D01*
X190454Y210879D01*
X190498Y210941D01*
X190500Y210953D01*
X190505Y210962D01*
X190509Y210999D01*
X190525Y211083D01*
X190525Y211242D01*
X191418Y212135D01*
X192967Y212135D01*
X192969Y212135D01*
X192971Y212135D01*
X193113Y212164D01*
X193236Y212215D01*
X195864Y212215D01*
X195987Y212164D01*
X195989Y212163D01*
X195990Y212162D01*
X196133Y212135D01*
X197682Y212135D01*
X198575Y211242D01*
X198575Y211083D01*
X198592Y211009D01*
X198605Y210935D01*
X198612Y210924D01*
X198614Y210915D01*
X198638Y210886D01*
X198686Y210814D01*
X199996Y209504D01*
X200018Y209491D01*
X200034Y209471D01*
X200091Y209446D01*
X200143Y209413D01*
X200169Y209410D01*
X200193Y209400D01*
X200254Y209402D01*
X200316Y209396D01*
X200340Y209406D01*
X200366Y209407D01*
X200420Y209436D01*
X200478Y209458D01*
X200495Y209477D01*
X200518Y209489D01*
X200553Y209540D01*
X200595Y209585D01*
X200603Y209610D01*
X200618Y209631D01*
X200634Y209716D01*
X200645Y209751D01*
X200643Y209761D01*
X200645Y209773D01*
X200645Y246151D01*
X200628Y246225D01*
X200624Y246249D01*
X200623Y246260D01*
X200621Y246264D01*
X200615Y246300D01*
X200608Y246310D01*
X200606Y246320D01*
X200582Y246348D01*
X200547Y246400D01*
X200541Y246412D01*
X200538Y246414D01*
X200534Y246420D01*
X200415Y246538D01*
X200415Y258802D01*
X200534Y258920D01*
X200574Y258985D01*
X200618Y259047D01*
X200620Y259059D01*
X200625Y259067D01*
X200629Y259104D01*
X200645Y259189D01*
X200645Y403264D01*
X201651Y405691D01*
X203509Y407549D01*
X205892Y408536D01*
X205893Y408537D01*
X205895Y408538D01*
X206015Y408619D01*
X236150Y438754D01*
X239535Y442139D01*
X299165Y442139D01*
X299818Y441486D01*
X299882Y441446D01*
X299944Y441402D01*
X299956Y441400D01*
X299965Y441395D01*
X300002Y441391D01*
X300086Y441375D01*
X307490Y441375D01*
X307540Y441352D01*
X307592Y441320D01*
X307618Y441317D01*
X307642Y441307D01*
X307703Y441309D01*
X307765Y441303D01*
X307789Y441312D01*
X307815Y441313D01*
X307869Y441343D01*
X307927Y441365D01*
X307944Y441384D01*
X307967Y441396D01*
X308002Y441447D01*
X308044Y441492D01*
X308052Y441517D01*
X308067Y441538D01*
X308083Y441622D01*
X308094Y441658D01*
X308092Y441668D01*
X308094Y441680D01*
X308094Y443174D01*
X308083Y443224D01*
X308081Y443275D01*
X308063Y443307D01*
X308055Y443343D01*
X308022Y443382D01*
X307998Y443427D01*
X307968Y443448D01*
X307945Y443476D01*
X307898Y443497D01*
X307856Y443527D01*
X307814Y443535D01*
X307786Y443547D01*
X307756Y443546D01*
X307714Y443554D01*
X284051Y443554D01*
X282934Y444671D01*
X282934Y460789D01*
X284051Y461906D01*
X330789Y461906D01*
X331906Y460789D01*
X331906Y269211D01*
X330789Y268094D01*
X329246Y268094D01*
X329196Y268083D01*
X329145Y268081D01*
X329113Y268063D01*
X329077Y268055D01*
X329038Y268022D01*
X328993Y267998D01*
X328972Y267968D01*
X328944Y267945D01*
X328923Y267898D01*
X328893Y267856D01*
X328885Y267814D01*
X328873Y267786D01*
X328874Y267756D01*
X328866Y267714D01*
X328866Y264440D01*
X328872Y264415D01*
X328869Y264389D01*
X328891Y264331D01*
X328905Y264271D01*
X328922Y264251D01*
X328931Y264227D01*
X328976Y264185D01*
X329015Y264138D01*
X329039Y264127D01*
X329058Y264109D01*
X329117Y264092D01*
X329174Y264067D01*
X329200Y264068D01*
X329224Y264060D01*
X329285Y264071D01*
X329347Y264073D01*
X329349Y264075D01*
X336814Y264075D01*
X336888Y264092D01*
X336962Y264105D01*
X336972Y264112D01*
X336982Y264114D01*
X337011Y264138D01*
X337082Y264186D01*
X338525Y265629D01*
X338565Y265693D01*
X338609Y265755D01*
X338611Y265767D01*
X338616Y265776D01*
X338620Y265813D01*
X338629Y265858D01*
X338629Y265860D01*
X338629Y265861D01*
X338636Y265897D01*
X338636Y278425D01*
X338619Y278499D01*
X338606Y278574D01*
X338599Y278584D01*
X338597Y278594D01*
X338573Y278622D01*
X338525Y278694D01*
X338150Y279068D01*
X338150Y292532D01*
X339043Y293425D01*
X349407Y293425D01*
X350300Y292532D01*
X350300Y279068D01*
X349925Y278694D01*
X349885Y278629D01*
X349841Y278567D01*
X349839Y278555D01*
X349834Y278547D01*
X349830Y278510D01*
X349814Y278425D01*
X349814Y266449D01*
X349825Y266399D01*
X349827Y266348D01*
X349845Y266316D01*
X349853Y266280D01*
X349886Y266241D01*
X349910Y266196D01*
X349940Y266175D01*
X349963Y266147D01*
X350010Y266126D01*
X350052Y266096D01*
X350094Y266088D01*
X350122Y266076D01*
X350152Y266077D01*
X350194Y266069D01*
X360345Y266069D01*
X363619Y262795D01*
X363619Y258165D01*
X360345Y254891D01*
X351305Y254891D01*
X351231Y254874D01*
X351156Y254861D01*
X351146Y254854D01*
X351136Y254852D01*
X351108Y254828D01*
X351036Y254780D01*
X350682Y254425D01*
X346851Y254425D01*
X346777Y254408D01*
X346703Y254395D01*
X346693Y254388D01*
X346683Y254386D01*
X346654Y254362D01*
X346583Y254314D01*
X346540Y254271D01*
X343132Y254271D01*
X343058Y254254D01*
X342984Y254241D01*
X342974Y254234D01*
X342964Y254232D01*
X342935Y254208D01*
X342864Y254160D01*
X342365Y253661D01*
X337735Y253661D01*
X337082Y254314D01*
X337018Y254354D01*
X336956Y254398D01*
X336944Y254400D01*
X336935Y254405D01*
X336898Y254409D01*
X336814Y254425D01*
X329336Y254425D01*
X329318Y254433D01*
X329257Y254431D01*
X329196Y254437D01*
X329171Y254428D01*
X329145Y254427D01*
X329091Y254397D01*
X329034Y254375D01*
X329016Y254356D01*
X328993Y254344D01*
X328958Y254294D01*
X328916Y254248D01*
X328908Y254223D01*
X328893Y254202D01*
X328877Y254118D01*
X328866Y254082D01*
X328868Y254072D01*
X328866Y254060D01*
X328866Y251740D01*
X328872Y251715D01*
X328869Y251689D01*
X328891Y251631D01*
X328905Y251571D01*
X328922Y251551D01*
X328931Y251527D01*
X328976Y251485D01*
X329015Y251438D01*
X329039Y251427D01*
X329058Y251409D01*
X329117Y251392D01*
X329174Y251367D01*
X329200Y251368D01*
X329224Y251360D01*
X329285Y251371D01*
X329347Y251373D01*
X329349Y251375D01*
X350682Y251375D01*
X350822Y251234D01*
X350887Y251194D01*
X350949Y251150D01*
X350961Y251148D01*
X350969Y251143D01*
X351006Y251139D01*
X351091Y251123D01*
X358189Y251123D01*
X358263Y251140D01*
X358338Y251153D01*
X358348Y251160D01*
X358358Y251162D01*
X358386Y251186D01*
X358458Y251234D01*
X359388Y252165D01*
X370652Y252165D01*
X371545Y251272D01*
X371545Y239008D01*
X370652Y238115D01*
X360186Y238115D01*
X360161Y238109D01*
X360136Y238112D01*
X360078Y238090D01*
X360018Y238076D01*
X359998Y238059D01*
X359974Y238050D01*
X359932Y238005D01*
X359884Y237966D01*
X359873Y237942D01*
X359856Y237923D01*
X359838Y237864D01*
X359813Y237807D01*
X359814Y237782D01*
X359807Y237757D01*
X359817Y237696D01*
X359820Y237634D01*
X359832Y237612D01*
X359836Y237586D01*
X359885Y237515D01*
X359902Y237482D01*
X359911Y237476D01*
X359918Y237466D01*
X367829Y229555D01*
X367829Y224925D01*
X364555Y221651D01*
X359925Y221651D01*
X353426Y228150D01*
X353362Y228190D01*
X353300Y228234D01*
X353288Y228236D01*
X353279Y228241D01*
X353242Y228245D01*
X353158Y228261D01*
X337735Y228261D01*
X337082Y228914D01*
X337018Y228954D01*
X336956Y228998D01*
X336944Y229000D01*
X336935Y229005D01*
X336898Y229009D01*
X336814Y229025D01*
X329336Y229025D01*
X329318Y229033D01*
X329257Y229031D01*
X329196Y229037D01*
X329171Y229028D01*
X329145Y229027D01*
X329091Y228997D01*
X329034Y228975D01*
X329016Y228956D01*
X328993Y228944D01*
X328958Y228894D01*
X328916Y228848D01*
X328908Y228823D01*
X328893Y228802D01*
X328877Y228718D01*
X328866Y228682D01*
X328868Y228672D01*
X328866Y228660D01*
X328866Y226340D01*
X328872Y226315D01*
X328869Y226289D01*
X328891Y226231D01*
X328905Y226171D01*
X328922Y226151D01*
X328931Y226127D01*
X328976Y226085D01*
X329015Y226038D01*
X329039Y226027D01*
X329058Y226009D01*
X329117Y225992D01*
X329174Y225967D01*
X329200Y225968D01*
X329224Y225960D01*
X329285Y225971D01*
X329347Y225973D01*
X329349Y225975D01*
X336814Y225975D01*
X336888Y225992D01*
X336962Y226005D01*
X336972Y226012D01*
X336982Y226014D01*
X337011Y226038D01*
X337082Y226086D01*
X337735Y226739D01*
X351165Y226739D01*
X365589Y212315D01*
X365589Y207685D01*
X364684Y206780D01*
X364644Y206716D01*
X364600Y206654D01*
X364598Y206642D01*
X364593Y206633D01*
X364589Y206596D01*
X364573Y206512D01*
X364573Y195405D01*
X364584Y195355D01*
X364586Y195304D01*
X364604Y195272D01*
X364612Y195236D01*
X364645Y195197D01*
X364669Y195152D01*
X364699Y195131D01*
X364722Y195103D01*
X364769Y195082D01*
X364811Y195052D01*
X364853Y195044D01*
X364881Y195032D01*
X364911Y195033D01*
X364953Y195025D01*
X366132Y195025D01*
X367025Y194132D01*
X367025Y182868D01*
X366132Y181975D01*
X353868Y181975D01*
X352975Y182868D01*
X352975Y194132D01*
X353868Y195025D01*
X355047Y195025D01*
X355097Y195036D01*
X355148Y195038D01*
X355180Y195056D01*
X355216Y195064D01*
X355255Y195097D01*
X355300Y195121D01*
X355321Y195151D01*
X355349Y195174D01*
X355370Y195221D01*
X355400Y195263D01*
X355408Y195305D01*
X355420Y195333D01*
X355419Y195363D01*
X355427Y195405D01*
X355427Y206512D01*
X355410Y206586D01*
X355397Y206660D01*
X355390Y206670D01*
X355388Y206680D01*
X355364Y206709D01*
X355316Y206780D01*
X346646Y215450D01*
X346582Y215490D01*
X346520Y215534D01*
X346508Y215536D01*
X346499Y215541D01*
X346462Y215545D01*
X346378Y215561D01*
X337735Y215561D01*
X337082Y216214D01*
X337018Y216254D01*
X336956Y216298D01*
X336944Y216300D01*
X336935Y216305D01*
X336898Y216309D01*
X336814Y216325D01*
X329336Y216325D01*
X329318Y216333D01*
X329257Y216331D01*
X329196Y216337D01*
X329171Y216328D01*
X329145Y216327D01*
X329091Y216297D01*
X329034Y216275D01*
X329016Y216256D01*
X328993Y216244D01*
X328958Y216194D01*
X328916Y216148D01*
X328908Y216123D01*
X328893Y216102D01*
X328877Y216018D01*
X328866Y215982D01*
X328868Y215972D01*
X328866Y215960D01*
X328866Y102286D01*
X328877Y102236D01*
X328879Y102185D01*
X328897Y102153D01*
X328905Y102117D01*
X328938Y102078D01*
X328962Y102033D01*
X328992Y102012D01*
X329015Y101984D01*
X329062Y101963D01*
X329104Y101933D01*
X329146Y101925D01*
X329174Y101913D01*
X329204Y101914D01*
X329246Y101906D01*
X396924Y101906D01*
X396974Y101917D01*
X397025Y101919D01*
X397057Y101937D01*
X397093Y101945D01*
X397132Y101978D01*
X397177Y102002D01*
X397198Y102032D01*
X397226Y102055D01*
X397247Y102102D01*
X397277Y102144D01*
X397285Y102186D01*
X397297Y102214D01*
X397296Y102244D01*
X397304Y102286D01*
X397304Y277714D01*
X397293Y277764D01*
X397291Y277815D01*
X397273Y277847D01*
X397265Y277883D01*
X397232Y277922D01*
X397208Y277967D01*
X397178Y277988D01*
X397155Y278016D01*
X397108Y278037D01*
X397066Y278067D01*
X397024Y278075D01*
X396996Y278087D01*
X396966Y278086D01*
X396924Y278094D01*
X369211Y278094D01*
X368094Y279211D01*
X368094Y305599D01*
X369211Y306716D01*
X407714Y306716D01*
X407764Y306727D01*
X407815Y306729D01*
X407847Y306747D01*
X407883Y306755D01*
X407922Y306788D01*
X407967Y306812D01*
X407988Y306842D01*
X408016Y306865D01*
X408037Y306912D01*
X408067Y306954D01*
X408075Y306996D01*
X408087Y307024D01*
X408086Y307054D01*
X408094Y307096D01*
X408094Y477714D01*
X408083Y477764D01*
X408081Y477815D01*
X408063Y477847D01*
X408055Y477883D01*
X408022Y477922D01*
X407998Y477967D01*
X407968Y477988D01*
X407945Y478016D01*
X407898Y478037D01*
X407856Y478067D01*
X407814Y478075D01*
X407786Y478087D01*
X407756Y478086D01*
X407714Y478094D01*
X369211Y478094D01*
X368094Y479211D01*
X368094Y500789D01*
X369211Y501906D01*
X370790Y501906D01*
X370840Y501917D01*
X370891Y501919D01*
X370923Y501937D01*
X370959Y501945D01*
X370998Y501978D01*
X371043Y502002D01*
X371064Y502032D01*
X371092Y502055D01*
X371113Y502102D01*
X371143Y502144D01*
X371151Y502186D01*
X371163Y502214D01*
X371162Y502244D01*
X371170Y502286D01*
X371170Y515295D01*
X371159Y515345D01*
X371157Y515396D01*
X371139Y515428D01*
X371131Y515464D01*
X371098Y515503D01*
X371074Y515548D01*
X371044Y515569D01*
X371021Y515597D01*
X370974Y515618D01*
X370932Y515648D01*
X370890Y515656D01*
X370862Y515668D01*
X370832Y515667D01*
X370790Y515675D01*
X368868Y515675D01*
X367975Y516568D01*
X367975Y527832D01*
X368868Y528725D01*
X373417Y528725D01*
X373419Y528725D01*
X373421Y528725D01*
X373563Y528754D01*
X373686Y528805D01*
X376314Y528805D01*
X376437Y528754D01*
X376439Y528753D01*
X376440Y528752D01*
X376583Y528725D01*
X381132Y528725D01*
X382025Y527832D01*
X382025Y524673D01*
X382042Y524599D01*
X382055Y524524D01*
X382062Y524514D01*
X382064Y524505D01*
X382088Y524476D01*
X382136Y524404D01*
X383374Y523166D01*
X384380Y520739D01*
X384380Y502286D01*
X384391Y502236D01*
X384393Y502185D01*
X384411Y502153D01*
X384419Y502117D01*
X384452Y502078D01*
X384476Y502033D01*
X384506Y502012D01*
X384529Y501984D01*
X384576Y501963D01*
X384618Y501933D01*
X384660Y501925D01*
X384688Y501913D01*
X384718Y501914D01*
X384760Y501906D01*
X510789Y501906D01*
X511906Y500789D01*
X511906Y29211D01*
X510789Y28094D01*
X309211Y28094D01*
G37*
%LPD*%
G36*
X510050Y29631D02*
X510050Y29631D01*
X510101Y29633D01*
X510133Y29651D01*
X510169Y29659D01*
X510208Y29692D01*
X510253Y29716D01*
X510274Y29746D01*
X510302Y29769D01*
X510323Y29816D01*
X510353Y29858D01*
X510361Y29900D01*
X510373Y29928D01*
X510372Y29958D01*
X510380Y30000D01*
X510380Y500000D01*
X510369Y500050D01*
X510367Y500101D01*
X510349Y500133D01*
X510341Y500169D01*
X510308Y500208D01*
X510284Y500253D01*
X510254Y500274D01*
X510231Y500302D01*
X510184Y500323D01*
X510142Y500353D01*
X510100Y500361D01*
X510072Y500373D01*
X510042Y500372D01*
X510000Y500380D01*
X370000Y500380D01*
X369950Y500369D01*
X369899Y500367D01*
X369867Y500349D01*
X369831Y500341D01*
X369792Y500308D01*
X369747Y500284D01*
X369726Y500254D01*
X369698Y500231D01*
X369677Y500184D01*
X369647Y500142D01*
X369639Y500100D01*
X369627Y500072D01*
X369627Y500062D01*
X369627Y500061D01*
X369628Y500040D01*
X369620Y500000D01*
X369620Y480000D01*
X369631Y479950D01*
X369633Y479899D01*
X369651Y479867D01*
X369659Y479831D01*
X369692Y479792D01*
X369716Y479747D01*
X369746Y479726D01*
X369769Y479698D01*
X369816Y479677D01*
X369858Y479647D01*
X369900Y479639D01*
X369928Y479627D01*
X369958Y479628D01*
X370000Y479620D01*
X409620Y479620D01*
X409620Y305190D01*
X370000Y305190D01*
X369950Y305179D01*
X369899Y305177D01*
X369867Y305159D01*
X369831Y305151D01*
X369792Y305118D01*
X369747Y305094D01*
X369726Y305064D01*
X369698Y305041D01*
X369677Y304994D01*
X369647Y304952D01*
X369639Y304910D01*
X369627Y304882D01*
X369628Y304852D01*
X369620Y304810D01*
X369620Y280000D01*
X369631Y279950D01*
X369633Y279899D01*
X369651Y279867D01*
X369659Y279831D01*
X369692Y279792D01*
X369716Y279747D01*
X369746Y279726D01*
X369769Y279698D01*
X369816Y279677D01*
X369858Y279647D01*
X369900Y279639D01*
X369928Y279627D01*
X369958Y279628D01*
X370000Y279620D01*
X398830Y279620D01*
X398830Y100380D01*
X327340Y100380D01*
X327340Y269620D01*
X330000Y269620D01*
X330050Y269631D01*
X330101Y269633D01*
X330133Y269651D01*
X330169Y269659D01*
X330208Y269692D01*
X330253Y269716D01*
X330274Y269746D01*
X330302Y269769D01*
X330323Y269816D01*
X330353Y269858D01*
X330361Y269900D01*
X330373Y269928D01*
X330372Y269958D01*
X330380Y270000D01*
X330380Y460000D01*
X330369Y460050D01*
X330367Y460101D01*
X330349Y460133D01*
X330341Y460169D01*
X330308Y460208D01*
X330284Y460253D01*
X330254Y460274D01*
X330231Y460302D01*
X330184Y460323D01*
X330142Y460353D01*
X330100Y460361D01*
X330072Y460373D01*
X330042Y460372D01*
X330000Y460380D01*
X284840Y460380D01*
X284790Y460369D01*
X284739Y460367D01*
X284707Y460349D01*
X284671Y460341D01*
X284632Y460308D01*
X284587Y460284D01*
X284566Y460254D01*
X284538Y460231D01*
X284517Y460184D01*
X284487Y460142D01*
X284479Y460100D01*
X284467Y460072D01*
X284468Y460042D01*
X284460Y460000D01*
X284460Y445460D01*
X284471Y445410D01*
X284473Y445359D01*
X284491Y445327D01*
X284499Y445291D01*
X284532Y445252D01*
X284556Y445207D01*
X284586Y445186D01*
X284609Y445158D01*
X284656Y445137D01*
X284698Y445107D01*
X284740Y445099D01*
X284768Y445087D01*
X284798Y445088D01*
X284840Y445080D01*
X309620Y445080D01*
X309620Y430380D01*
X280000Y430380D01*
X279950Y430369D01*
X279899Y430367D01*
X279867Y430349D01*
X279831Y430341D01*
X279792Y430308D01*
X279747Y430284D01*
X279726Y430254D01*
X279698Y430231D01*
X279677Y430184D01*
X279647Y430142D01*
X279639Y430100D01*
X279627Y430072D01*
X279628Y430042D01*
X279620Y430000D01*
X279620Y420000D01*
X279631Y419950D01*
X279633Y419899D01*
X279651Y419867D01*
X279659Y419831D01*
X279692Y419792D01*
X279716Y419747D01*
X279746Y419726D01*
X279769Y419698D01*
X279816Y419677D01*
X279858Y419647D01*
X279900Y419639D01*
X279928Y419627D01*
X279958Y419628D01*
X280000Y419620D01*
X309620Y419620D01*
X309620Y400380D01*
X290000Y400380D01*
X289950Y400369D01*
X289899Y400367D01*
X289867Y400349D01*
X289831Y400341D01*
X289792Y400308D01*
X289747Y400284D01*
X289726Y400254D01*
X289698Y400231D01*
X289677Y400184D01*
X289647Y400142D01*
X289639Y400100D01*
X289627Y400072D01*
X289627Y400057D01*
X289627Y400056D01*
X289627Y400039D01*
X289620Y400000D01*
X289620Y270380D01*
X280750Y270380D01*
X280700Y270369D01*
X280649Y270367D01*
X280617Y270349D01*
X280581Y270341D01*
X280542Y270308D01*
X280497Y270284D01*
X280476Y270254D01*
X280448Y270231D01*
X280427Y270184D01*
X280397Y270142D01*
X280389Y270100D01*
X280377Y270072D01*
X280378Y270042D01*
X280370Y270000D01*
X280370Y257691D01*
X280387Y257617D01*
X280400Y257543D01*
X280407Y257532D01*
X280409Y257523D01*
X280433Y257494D01*
X280481Y257423D01*
X282057Y255847D01*
X282062Y255839D01*
X282500Y255401D01*
X282565Y255361D01*
X282627Y255317D01*
X282639Y255315D01*
X282647Y255310D01*
X282684Y255306D01*
X282769Y255290D01*
X309620Y255290D01*
X309620Y240380D01*
X280000Y240380D01*
X279950Y240369D01*
X279899Y240367D01*
X279867Y240349D01*
X279831Y240341D01*
X279792Y240308D01*
X279747Y240284D01*
X279726Y240254D01*
X279698Y240231D01*
X279677Y240184D01*
X279647Y240142D01*
X279639Y240100D01*
X279627Y240072D01*
X279628Y240042D01*
X279620Y240000D01*
X279620Y230000D01*
X279631Y229950D01*
X279633Y229899D01*
X279651Y229867D01*
X279659Y229831D01*
X279692Y229792D01*
X279716Y229747D01*
X279746Y229726D01*
X279769Y229698D01*
X279816Y229677D01*
X279858Y229647D01*
X279900Y229639D01*
X279928Y229627D01*
X279958Y229628D01*
X280000Y229620D01*
X309620Y229620D01*
X309620Y30000D01*
X309631Y29950D01*
X309633Y29899D01*
X309651Y29867D01*
X309659Y29831D01*
X309692Y29792D01*
X309716Y29747D01*
X309746Y29726D01*
X309769Y29698D01*
X309816Y29677D01*
X309858Y29647D01*
X309900Y29639D01*
X309928Y29627D01*
X309958Y29628D01*
X310000Y29620D01*
X510000Y29620D01*
X510050Y29631D01*
G37*
%LPC*%
G36*
X599838Y336505D02*
X599838Y336505D01*
X598945Y337398D01*
X598945Y337547D01*
X598934Y337597D01*
X598932Y337648D01*
X598914Y337680D01*
X598906Y337716D01*
X598873Y337755D01*
X598849Y337800D01*
X598819Y337821D01*
X598796Y337849D01*
X598749Y337870D01*
X598707Y337900D01*
X598665Y337908D01*
X598637Y337920D01*
X598607Y337919D01*
X598565Y337927D01*
X593371Y337927D01*
X593297Y337910D01*
X593222Y337897D01*
X593212Y337890D01*
X593202Y337888D01*
X593174Y337864D01*
X593102Y337816D01*
X592988Y337701D01*
X589012Y337701D01*
X586201Y340512D01*
X586201Y344488D01*
X586316Y344602D01*
X586356Y344667D01*
X586400Y344729D01*
X586402Y344741D01*
X586407Y344750D01*
X586411Y344787D01*
X586427Y344871D01*
X586427Y379228D01*
X586410Y379302D01*
X586397Y379377D01*
X586390Y379387D01*
X586388Y379397D01*
X586364Y379426D01*
X586316Y379497D01*
X577830Y387983D01*
X577766Y388023D01*
X577704Y388067D01*
X577692Y388069D01*
X577683Y388074D01*
X577646Y388078D01*
X577561Y388094D01*
X543581Y388094D01*
X542464Y389211D01*
X542464Y441233D01*
X542463Y441237D01*
X542464Y441242D01*
X542452Y441288D01*
X542451Y441328D01*
X542435Y441356D01*
X542425Y441402D01*
X542422Y441405D01*
X542421Y441409D01*
X542376Y441465D01*
X542368Y441480D01*
X542359Y441487D01*
X542330Y441523D01*
X542319Y441532D01*
X542309Y441587D01*
X542292Y441612D01*
X542285Y441633D01*
X542264Y441655D01*
X542264Y442368D01*
X542261Y442381D01*
X542263Y442398D01*
X542205Y443113D01*
X542237Y443158D01*
X542242Y443187D01*
X542253Y443208D01*
X542253Y443239D01*
X542757Y443742D01*
X542764Y443754D01*
X542778Y443765D01*
X543242Y444311D01*
X543297Y444321D01*
X543322Y444338D01*
X543343Y444345D01*
X543365Y444366D01*
X544078Y444366D01*
X544091Y444369D01*
X544108Y444367D01*
X544823Y444425D01*
X544868Y444393D01*
X544897Y444388D01*
X544918Y444377D01*
X544955Y444377D01*
X545010Y444366D01*
X547714Y444366D01*
X547764Y444377D01*
X547815Y444379D01*
X547847Y444397D01*
X547883Y444405D01*
X547922Y444438D01*
X547967Y444462D01*
X547988Y444492D01*
X548016Y444515D01*
X548037Y444562D01*
X548067Y444604D01*
X548075Y444646D01*
X548087Y444674D01*
X548086Y444704D01*
X548094Y444746D01*
X548094Y520789D01*
X549211Y521906D01*
X710789Y521906D01*
X711906Y520789D01*
X711906Y492286D01*
X711917Y492236D01*
X711919Y492185D01*
X711937Y492153D01*
X711945Y492117D01*
X711978Y492078D01*
X712002Y492033D01*
X712032Y492012D01*
X712055Y491984D01*
X712102Y491963D01*
X712144Y491933D01*
X712186Y491925D01*
X712214Y491913D01*
X712244Y491914D01*
X712286Y491906D01*
X790789Y491906D01*
X791906Y490789D01*
X791906Y345761D01*
X790789Y344644D01*
X709741Y344644D01*
X708624Y345761D01*
X708624Y348164D01*
X708613Y348214D01*
X708611Y348265D01*
X708593Y348297D01*
X708585Y348333D01*
X708552Y348372D01*
X708528Y348417D01*
X708498Y348438D01*
X708475Y348466D01*
X708428Y348487D01*
X708386Y348517D01*
X708344Y348525D01*
X708316Y348537D01*
X708286Y348536D01*
X708244Y348544D01*
X613375Y348544D01*
X613325Y348533D01*
X613274Y348531D01*
X613242Y348513D01*
X613206Y348505D01*
X613167Y348472D01*
X613122Y348448D01*
X613101Y348418D01*
X613073Y348395D01*
X613052Y348348D01*
X613022Y348306D01*
X613014Y348264D01*
X613002Y348236D01*
X613003Y348206D01*
X612995Y348164D01*
X612995Y337398D01*
X612102Y336505D01*
X599838Y336505D01*
G37*
%LPD*%
G36*
X240050Y5092D02*
X240050Y5092D01*
X240101Y5094D01*
X240133Y5112D01*
X240169Y5120D01*
X240208Y5153D01*
X240253Y5177D01*
X240274Y5207D01*
X240302Y5230D01*
X240323Y5277D01*
X240353Y5319D01*
X240361Y5361D01*
X240373Y5389D01*
X240372Y5419D01*
X240380Y5461D01*
X240380Y170000D01*
X240369Y170050D01*
X240367Y170101D01*
X240349Y170133D01*
X240341Y170169D01*
X240308Y170208D01*
X240284Y170253D01*
X240254Y170274D01*
X240231Y170302D01*
X240184Y170323D01*
X240142Y170353D01*
X240100Y170361D01*
X240072Y170373D01*
X240042Y170372D01*
X240000Y170380D01*
X5461Y170380D01*
X5411Y170369D01*
X5360Y170367D01*
X5328Y170349D01*
X5292Y170341D01*
X5253Y170308D01*
X5208Y170284D01*
X5187Y170254D01*
X5159Y170231D01*
X5138Y170184D01*
X5108Y170142D01*
X5100Y170100D01*
X5088Y170072D01*
X5089Y170042D01*
X5081Y170000D01*
X5081Y10000D01*
X5085Y9984D01*
X5083Y9963D01*
X5170Y9077D01*
X5182Y9040D01*
X5197Y8969D01*
X5875Y7333D01*
X5876Y7331D01*
X5876Y7330D01*
X5957Y7209D01*
X7209Y5957D01*
X7211Y5956D01*
X7212Y5955D01*
X7333Y5875D01*
X8969Y5197D01*
X9008Y5191D01*
X9077Y5170D01*
X9963Y5083D01*
X9979Y5085D01*
X10000Y5081D01*
X240000Y5081D01*
X240050Y5092D01*
G37*
G36*
X790050Y346181D02*
X790050Y346181D01*
X790101Y346183D01*
X790133Y346201D01*
X790169Y346209D01*
X790208Y346242D01*
X790253Y346266D01*
X790274Y346296D01*
X790302Y346319D01*
X790323Y346366D01*
X790353Y346408D01*
X790361Y346450D01*
X790373Y346478D01*
X790372Y346508D01*
X790380Y346550D01*
X790380Y490000D01*
X790369Y490050D01*
X790367Y490101D01*
X790349Y490133D01*
X790341Y490169D01*
X790308Y490208D01*
X790284Y490253D01*
X790254Y490274D01*
X790231Y490302D01*
X790184Y490323D01*
X790142Y490353D01*
X790100Y490361D01*
X790072Y490373D01*
X790042Y490372D01*
X790000Y490380D01*
X710380Y490380D01*
X710380Y520000D01*
X710369Y520050D01*
X710367Y520101D01*
X710349Y520133D01*
X710341Y520169D01*
X710308Y520208D01*
X710284Y520253D01*
X710254Y520274D01*
X710231Y520302D01*
X710184Y520323D01*
X710142Y520353D01*
X710100Y520361D01*
X710072Y520373D01*
X710042Y520372D01*
X710000Y520380D01*
X550000Y520380D01*
X549950Y520369D01*
X549899Y520367D01*
X549867Y520349D01*
X549831Y520341D01*
X549792Y520308D01*
X549747Y520284D01*
X549726Y520254D01*
X549698Y520231D01*
X549677Y520184D01*
X549647Y520142D01*
X549639Y520100D01*
X549627Y520072D01*
X549628Y520042D01*
X549620Y520000D01*
X549620Y442840D01*
X544170Y442840D01*
X544130Y442831D01*
X544089Y442832D01*
X544047Y442811D01*
X544001Y442801D01*
X543970Y442775D01*
X543933Y442757D01*
X543904Y442720D01*
X543868Y442691D01*
X543851Y442653D01*
X543825Y442621D01*
X543816Y442575D01*
X543797Y442532D01*
X543798Y442491D01*
X543790Y442451D01*
X543802Y442406D01*
X543803Y442359D01*
X543823Y442323D01*
X543833Y442283D01*
X543869Y442239D01*
X543886Y442207D01*
X543905Y442194D01*
X543924Y442170D01*
X543990Y442114D01*
X543990Y390000D01*
X544001Y389950D01*
X544003Y389899D01*
X544021Y389867D01*
X544029Y389831D01*
X544062Y389792D01*
X544086Y389747D01*
X544116Y389726D01*
X544139Y389698D01*
X544186Y389677D01*
X544228Y389647D01*
X544270Y389639D01*
X544298Y389627D01*
X544328Y389628D01*
X544370Y389620D01*
X575275Y389620D01*
X575301Y389626D01*
X575326Y389623D01*
X575384Y389645D01*
X575444Y389659D01*
X575464Y389676D01*
X575488Y389685D01*
X575530Y389730D01*
X575578Y389769D01*
X575588Y389793D01*
X575606Y389812D01*
X575623Y389871D01*
X575649Y389928D01*
X575648Y389953D01*
X575655Y389978D01*
X575644Y390039D01*
X575642Y390101D01*
X575630Y390123D01*
X575625Y390149D01*
X575577Y390220D01*
X575559Y390253D01*
X575551Y390259D01*
X575544Y390269D01*
X574449Y391364D01*
X574385Y391404D01*
X574323Y391448D01*
X574311Y391450D01*
X574302Y391455D01*
X574265Y391459D01*
X574180Y391475D01*
X550768Y391475D01*
X549875Y392368D01*
X549875Y416832D01*
X550768Y417725D01*
X590132Y417725D01*
X591025Y416832D01*
X591025Y392368D01*
X590132Y391475D01*
X588190Y391475D01*
X588164Y391469D01*
X588139Y391472D01*
X588081Y391450D01*
X588021Y391436D01*
X588001Y391419D01*
X587977Y391410D01*
X587935Y391365D01*
X587887Y391326D01*
X587877Y391302D01*
X587859Y391283D01*
X587842Y391224D01*
X587816Y391167D01*
X587817Y391142D01*
X587810Y391117D01*
X587821Y391056D01*
X587823Y390994D01*
X587835Y390972D01*
X587840Y390946D01*
X587888Y390875D01*
X587906Y390842D01*
X587914Y390836D01*
X587921Y390826D01*
X589016Y389731D01*
X589080Y389691D01*
X589142Y389647D01*
X589154Y389645D01*
X589163Y389640D01*
X589200Y389636D01*
X589285Y389620D01*
X599620Y389620D01*
X599620Y350450D01*
X599631Y350400D01*
X599633Y350349D01*
X599651Y350317D01*
X599659Y350281D01*
X599692Y350242D01*
X599716Y350197D01*
X599746Y350176D01*
X599769Y350148D01*
X599816Y350127D01*
X599858Y350097D01*
X599900Y350089D01*
X599928Y350077D01*
X599958Y350078D01*
X600000Y350070D01*
X710150Y350070D01*
X710150Y346550D01*
X710161Y346500D01*
X710163Y346449D01*
X710181Y346417D01*
X710189Y346381D01*
X710222Y346342D01*
X710246Y346297D01*
X710276Y346276D01*
X710299Y346248D01*
X710346Y346227D01*
X710388Y346197D01*
X710430Y346189D01*
X710458Y346177D01*
X710488Y346178D01*
X710530Y346170D01*
X790000Y346170D01*
X790050Y346181D01*
G37*
%LPC*%
G36*
X581118Y164029D02*
X581118Y164029D01*
X580557Y164590D01*
X580557Y165379D01*
X580520Y209905D01*
X580509Y209955D01*
X580507Y210006D01*
X580489Y210038D01*
X580481Y210074D01*
X580448Y210113D01*
X580424Y210158D01*
X580394Y210179D01*
X580370Y210208D01*
X580324Y210228D01*
X580282Y210258D01*
X580240Y210266D01*
X580212Y210278D01*
X580182Y210277D01*
X580140Y210285D01*
X576033Y210285D01*
X575983Y210274D01*
X575932Y210272D01*
X575900Y210254D01*
X575864Y210246D01*
X575825Y210213D01*
X575780Y210189D01*
X575759Y210159D01*
X575731Y210136D01*
X575710Y210089D01*
X575680Y210047D01*
X575672Y210005D01*
X575660Y209977D01*
X575661Y209947D01*
X575653Y209905D01*
X575653Y197405D01*
X575664Y197355D01*
X575666Y197304D01*
X575684Y197272D01*
X575692Y197236D01*
X575725Y197197D01*
X575749Y197152D01*
X575779Y197131D01*
X575802Y197103D01*
X575849Y197082D01*
X575891Y197052D01*
X575933Y197044D01*
X575961Y197032D01*
X575991Y197033D01*
X576033Y197025D01*
X577132Y197025D01*
X578025Y196132D01*
X578025Y183868D01*
X577132Y182975D01*
X571100Y182975D01*
X571026Y182958D01*
X570951Y182945D01*
X570941Y182938D01*
X570931Y182936D01*
X570902Y182912D01*
X570831Y182864D01*
X566410Y178443D01*
X566370Y178379D01*
X566326Y178317D01*
X566324Y178305D01*
X566319Y178296D01*
X566315Y178259D01*
X566299Y178174D01*
X566299Y178012D01*
X563488Y175201D01*
X559512Y175201D01*
X556701Y178012D01*
X556701Y181988D01*
X559512Y184799D01*
X559674Y184799D01*
X559748Y184816D01*
X559823Y184829D01*
X559833Y184836D01*
X559843Y184838D01*
X559872Y184862D01*
X559943Y184910D01*
X564864Y189831D01*
X564904Y189895D01*
X564948Y189957D01*
X564950Y189969D01*
X564955Y189978D01*
X564959Y190015D01*
X564975Y190100D01*
X564975Y196132D01*
X565868Y197025D01*
X566127Y197025D01*
X566177Y197036D01*
X566228Y197038D01*
X566260Y197056D01*
X566296Y197064D01*
X566335Y197097D01*
X566380Y197121D01*
X566401Y197151D01*
X566429Y197174D01*
X566450Y197221D01*
X566480Y197263D01*
X566488Y197305D01*
X566500Y197333D01*
X566499Y197363D01*
X566507Y197405D01*
X566507Y209905D01*
X566496Y209955D01*
X566494Y210006D01*
X566476Y210038D01*
X566468Y210074D01*
X566435Y210113D01*
X566411Y210158D01*
X566381Y210179D01*
X566358Y210207D01*
X566311Y210228D01*
X566269Y210258D01*
X566227Y210266D01*
X566199Y210278D01*
X566169Y210277D01*
X566127Y210285D01*
X541398Y210285D01*
X540505Y211178D01*
X540505Y235642D01*
X541398Y236535D01*
X580118Y236535D01*
X580168Y236546D01*
X580219Y236548D01*
X580251Y236566D01*
X580287Y236574D01*
X580326Y236607D01*
X580371Y236631D01*
X580392Y236661D01*
X580420Y236684D01*
X580441Y236731D01*
X580471Y236773D01*
X580479Y236815D01*
X580491Y236843D01*
X580490Y236873D01*
X580498Y236915D01*
X580488Y249064D01*
X580477Y249114D01*
X580475Y249165D01*
X580457Y249197D01*
X580449Y249233D01*
X580416Y249272D01*
X580392Y249317D01*
X580362Y249338D01*
X580338Y249367D01*
X580292Y249387D01*
X580250Y249417D01*
X580208Y249425D01*
X580180Y249437D01*
X580150Y249436D01*
X580108Y249444D01*
X539211Y249444D01*
X538094Y250561D01*
X538094Y328109D01*
X539211Y329226D01*
X790789Y329226D01*
X791906Y328109D01*
X791906Y249211D01*
X790789Y248094D01*
X712286Y248094D01*
X712236Y248083D01*
X712185Y248081D01*
X712153Y248063D01*
X712117Y248055D01*
X712078Y248022D01*
X712033Y247998D01*
X712012Y247968D01*
X711984Y247945D01*
X711963Y247898D01*
X711933Y247856D01*
X711925Y247814D01*
X711913Y247786D01*
X711914Y247756D01*
X711914Y247755D01*
X711913Y247753D01*
X711913Y247750D01*
X711906Y247714D01*
X711906Y164591D01*
X710789Y163474D01*
X582467Y163474D01*
X581674Y163474D01*
X581118Y164029D01*
G37*
%LPD*%
G36*
X710050Y165011D02*
X710050Y165011D01*
X710101Y165013D01*
X710133Y165031D01*
X710169Y165039D01*
X710208Y165072D01*
X710253Y165096D01*
X710274Y165126D01*
X710302Y165149D01*
X710323Y165196D01*
X710353Y165238D01*
X710361Y165280D01*
X710373Y165308D01*
X710372Y165338D01*
X710380Y165380D01*
X710380Y249620D01*
X790000Y249620D01*
X790050Y249631D01*
X790101Y249633D01*
X790133Y249651D01*
X790169Y249659D01*
X790208Y249692D01*
X790253Y249716D01*
X790274Y249746D01*
X790302Y249769D01*
X790323Y249816D01*
X790353Y249858D01*
X790361Y249900D01*
X790373Y249928D01*
X790372Y249958D01*
X790380Y250000D01*
X790380Y327320D01*
X790369Y327370D01*
X790367Y327421D01*
X790349Y327453D01*
X790341Y327489D01*
X790308Y327528D01*
X790284Y327573D01*
X790254Y327594D01*
X790231Y327622D01*
X790184Y327643D01*
X790142Y327673D01*
X790100Y327681D01*
X790072Y327693D01*
X790042Y327692D01*
X790000Y327700D01*
X540000Y327700D01*
X539950Y327689D01*
X539899Y327687D01*
X539867Y327669D01*
X539831Y327661D01*
X539792Y327628D01*
X539747Y327604D01*
X539726Y327574D01*
X539698Y327551D01*
X539677Y327504D01*
X539647Y327462D01*
X539639Y327420D01*
X539627Y327392D01*
X539628Y327362D01*
X539620Y327320D01*
X539620Y251350D01*
X539631Y251300D01*
X539633Y251249D01*
X539651Y251217D01*
X539659Y251181D01*
X539692Y251142D01*
X539716Y251097D01*
X539746Y251076D01*
X539769Y251048D01*
X539816Y251027D01*
X539858Y250997D01*
X539900Y250989D01*
X539928Y250977D01*
X539958Y250978D01*
X540000Y250970D01*
X582012Y250970D01*
X582082Y165380D01*
X582094Y165330D01*
X582096Y165279D01*
X582114Y165247D01*
X582122Y165211D01*
X582154Y165172D01*
X582179Y165127D01*
X582209Y165106D01*
X582232Y165077D01*
X582279Y165057D01*
X582320Y165027D01*
X582362Y165019D01*
X582391Y165007D01*
X582421Y165008D01*
X582463Y165000D01*
X710000Y165000D01*
X710050Y165011D01*
G37*
%LPC*%
G36*
X88686Y193395D02*
X88686Y193395D01*
X86259Y194401D01*
X84401Y196259D01*
X83395Y198686D01*
X83395Y201314D01*
X84401Y203741D01*
X86259Y205599D01*
X88686Y206605D01*
X94557Y206605D01*
X94631Y206622D01*
X94705Y206635D01*
X94716Y206642D01*
X94725Y206644D01*
X94754Y206668D01*
X94826Y206716D01*
X100414Y212304D01*
X100454Y212369D01*
X100498Y212431D01*
X100500Y212443D01*
X100505Y212452D01*
X100509Y212489D01*
X100525Y212573D01*
X100525Y212732D01*
X101418Y213625D01*
X102967Y213625D01*
X102969Y213625D01*
X102971Y213625D01*
X103113Y213654D01*
X103236Y213705D01*
X105864Y213705D01*
X105987Y213654D01*
X105989Y213653D01*
X105990Y213652D01*
X106133Y213625D01*
X107682Y213625D01*
X108575Y212732D01*
X108575Y212573D01*
X108592Y212499D01*
X108605Y212425D01*
X108612Y212414D01*
X108614Y212405D01*
X108638Y212376D01*
X108686Y212304D01*
X109996Y210994D01*
X110018Y210981D01*
X110034Y210961D01*
X110091Y210936D01*
X110143Y210903D01*
X110169Y210900D01*
X110193Y210890D01*
X110254Y210892D01*
X110316Y210886D01*
X110340Y210896D01*
X110366Y210897D01*
X110420Y210926D01*
X110478Y210948D01*
X110495Y210967D01*
X110518Y210979D01*
X110553Y211030D01*
X110595Y211075D01*
X110603Y211100D01*
X110618Y211121D01*
X110634Y211206D01*
X110645Y211241D01*
X110643Y211251D01*
X110645Y211263D01*
X110645Y265561D01*
X110633Y265612D01*
X110632Y265653D01*
X110622Y265671D01*
X110615Y265710D01*
X110608Y265720D01*
X110606Y265730D01*
X110582Y265758D01*
X110534Y265830D01*
X109935Y266428D01*
X109935Y278692D01*
X110534Y279290D01*
X110574Y279355D01*
X110618Y279417D01*
X110620Y279429D01*
X110625Y279437D01*
X110629Y279474D01*
X110645Y279559D01*
X110645Y288634D01*
X111651Y291061D01*
X126739Y306149D01*
X129166Y307155D01*
X166334Y307155D01*
X168761Y306149D01*
X171519Y303391D01*
X172525Y300964D01*
X172525Y298336D01*
X171519Y295909D01*
X169661Y294051D01*
X167234Y293045D01*
X164606Y293045D01*
X162503Y293916D01*
X162502Y293917D01*
X162500Y293918D01*
X162358Y293945D01*
X133373Y293945D01*
X133299Y293928D01*
X133225Y293915D01*
X133214Y293908D01*
X133205Y293906D01*
X133176Y293882D01*
X133104Y293834D01*
X123966Y284696D01*
X123926Y284631D01*
X123882Y284569D01*
X123880Y284557D01*
X123875Y284548D01*
X123871Y284511D01*
X123855Y284427D01*
X123855Y205786D01*
X122849Y203359D01*
X121386Y201896D01*
X121346Y201831D01*
X121302Y201769D01*
X121300Y201757D01*
X121295Y201748D01*
X121291Y201711D01*
X121275Y201627D01*
X121275Y201468D01*
X120382Y200575D01*
X118833Y200575D01*
X118831Y200575D01*
X118829Y200575D01*
X118687Y200546D01*
X118564Y200495D01*
X115936Y200495D01*
X115813Y200546D01*
X115811Y200547D01*
X115810Y200548D01*
X115667Y200575D01*
X114118Y200575D01*
X113225Y201468D01*
X113225Y201627D01*
X113208Y201701D01*
X113195Y201775D01*
X113188Y201786D01*
X113186Y201795D01*
X113162Y201824D01*
X113114Y201896D01*
X111651Y203359D01*
X111251Y204323D01*
X111236Y204344D01*
X111229Y204369D01*
X111186Y204414D01*
X111150Y204464D01*
X111127Y204476D01*
X111110Y204495D01*
X111052Y204516D01*
X110997Y204545D01*
X110971Y204546D01*
X110947Y204555D01*
X110886Y204548D01*
X110824Y204550D01*
X110801Y204539D01*
X110775Y204537D01*
X110723Y204504D01*
X110667Y204478D01*
X110650Y204458D01*
X110629Y204444D01*
X110581Y204372D01*
X110558Y204343D01*
X110555Y204333D01*
X110549Y204323D01*
X110149Y203359D01*
X108686Y201896D01*
X108646Y201831D01*
X108602Y201769D01*
X108600Y201757D01*
X108595Y201748D01*
X108591Y201711D01*
X108575Y201627D01*
X108575Y201468D01*
X107682Y200575D01*
X107523Y200575D01*
X107449Y200558D01*
X107375Y200545D01*
X107364Y200538D01*
X107355Y200536D01*
X107326Y200512D01*
X107254Y200464D01*
X101191Y194401D01*
X98764Y193395D01*
X88686Y193395D01*
G37*
%LPD*%
%LPC*%
G36*
X613138Y82825D02*
X613138Y82825D01*
X612245Y83718D01*
X612245Y109900D01*
X612228Y109974D01*
X612215Y110049D01*
X612208Y110059D01*
X612206Y110069D01*
X612182Y110098D01*
X612134Y110169D01*
X608487Y113816D01*
X608423Y113856D01*
X608361Y113900D01*
X608349Y113902D01*
X608340Y113907D01*
X608303Y113911D01*
X608218Y113927D01*
X557405Y113927D01*
X557355Y113916D01*
X557304Y113914D01*
X557272Y113896D01*
X557236Y113888D01*
X557197Y113855D01*
X557152Y113831D01*
X557131Y113801D01*
X557103Y113778D01*
X557082Y113731D01*
X557052Y113689D01*
X557044Y113647D01*
X557032Y113619D01*
X557033Y113589D01*
X557025Y113547D01*
X557025Y112868D01*
X556132Y111975D01*
X543868Y111975D01*
X542975Y112868D01*
X542975Y115047D01*
X542964Y115097D01*
X542962Y115148D01*
X542944Y115180D01*
X542936Y115216D01*
X542903Y115255D01*
X542879Y115300D01*
X542849Y115321D01*
X542826Y115349D01*
X542779Y115370D01*
X542737Y115400D01*
X542695Y115408D01*
X542667Y115420D01*
X542637Y115419D01*
X542595Y115427D01*
X532371Y115427D01*
X532297Y115410D01*
X532222Y115397D01*
X532212Y115390D01*
X532202Y115388D01*
X532174Y115364D01*
X532102Y115316D01*
X531988Y115201D01*
X528012Y115201D01*
X525201Y118012D01*
X525201Y121988D01*
X528012Y124799D01*
X531988Y124799D01*
X532102Y124684D01*
X532167Y124644D01*
X532229Y124600D01*
X532241Y124598D01*
X532250Y124593D01*
X532287Y124589D01*
X532371Y124573D01*
X543259Y124573D01*
X543333Y124590D01*
X543408Y124603D01*
X543418Y124610D01*
X543428Y124612D01*
X543456Y124636D01*
X543528Y124684D01*
X543868Y125025D01*
X556132Y125025D01*
X557025Y124132D01*
X557025Y123453D01*
X557036Y123403D01*
X557038Y123352D01*
X557056Y123320D01*
X557064Y123284D01*
X557097Y123245D01*
X557121Y123200D01*
X557151Y123179D01*
X557174Y123151D01*
X557221Y123130D01*
X557263Y123100D01*
X557305Y123092D01*
X557333Y123080D01*
X557363Y123081D01*
X557405Y123073D01*
X612079Y123073D01*
X612153Y123090D01*
X612228Y123103D01*
X612238Y123110D01*
X612248Y123112D01*
X612276Y123136D01*
X612348Y123184D01*
X613138Y123975D01*
X637602Y123975D01*
X638495Y123082D01*
X638495Y83718D01*
X637602Y82825D01*
X613138Y82825D01*
G37*
%LPD*%
%LPC*%
G36*
X717685Y544411D02*
X717685Y544411D01*
X714411Y547685D01*
X714411Y567528D01*
X714394Y567602D01*
X714381Y567676D01*
X714374Y567686D01*
X714372Y567696D01*
X714348Y567725D01*
X714300Y567796D01*
X707796Y574300D01*
X707732Y574340D01*
X707670Y574384D01*
X707658Y574386D01*
X707649Y574391D01*
X707612Y574395D01*
X707528Y574411D01*
X688905Y574411D01*
X688855Y574400D01*
X688804Y574398D01*
X688772Y574380D01*
X688736Y574372D01*
X688697Y574339D01*
X688652Y574315D01*
X688631Y574285D01*
X688603Y574262D01*
X688582Y574215D01*
X688552Y574173D01*
X688544Y574131D01*
X688532Y574103D01*
X688533Y574073D01*
X688525Y574031D01*
X688525Y560768D01*
X687632Y559875D01*
X663168Y559875D01*
X662275Y560768D01*
X662275Y600132D01*
X663168Y601025D01*
X687632Y601025D01*
X688525Y600132D01*
X688525Y585969D01*
X688536Y585919D01*
X688538Y585868D01*
X688556Y585836D01*
X688564Y585800D01*
X688597Y585761D01*
X688621Y585716D01*
X688651Y585695D01*
X688674Y585667D01*
X688721Y585646D01*
X688763Y585616D01*
X688805Y585608D01*
X688833Y585596D01*
X688863Y585597D01*
X688905Y585589D01*
X712315Y585589D01*
X725589Y572315D01*
X725589Y547685D01*
X722315Y544411D01*
X717685Y544411D01*
G37*
%LPD*%
%LPC*%
G36*
X96268Y37975D02*
X96268Y37975D01*
X95375Y38868D01*
X95375Y43417D01*
X95375Y43419D01*
X95375Y43421D01*
X95346Y43563D01*
X95295Y43686D01*
X95295Y140964D01*
X96301Y143391D01*
X100414Y147504D01*
X100454Y147569D01*
X100498Y147631D01*
X100500Y147643D01*
X100505Y147652D01*
X100509Y147689D01*
X100525Y147773D01*
X100525Y147932D01*
X101418Y148825D01*
X102967Y148825D01*
X102969Y148825D01*
X102971Y148825D01*
X103113Y148854D01*
X103236Y148905D01*
X105864Y148905D01*
X105987Y148854D01*
X105989Y148853D01*
X105990Y148852D01*
X106133Y148825D01*
X107682Y148825D01*
X108575Y147932D01*
X108575Y147773D01*
X108592Y147699D01*
X108605Y147625D01*
X108612Y147614D01*
X108614Y147605D01*
X108638Y147576D01*
X108686Y147504D01*
X110149Y146041D01*
X111155Y143614D01*
X111155Y140986D01*
X110149Y138559D01*
X108686Y137096D01*
X108646Y137031D01*
X108602Y136969D01*
X108600Y136957D01*
X108595Y136948D01*
X108591Y136911D01*
X108575Y136827D01*
X108575Y136643D01*
X108532Y136583D01*
X108530Y136571D01*
X108525Y136563D01*
X108521Y136526D01*
X108505Y136441D01*
X108505Y43686D01*
X108454Y43563D01*
X108453Y43561D01*
X108452Y43560D01*
X108425Y43417D01*
X108425Y38868D01*
X107532Y37975D01*
X96268Y37975D01*
G37*
%LPD*%
%LPC*%
G36*
X137512Y61225D02*
X137512Y61225D01*
X132155Y66582D01*
X132155Y74158D01*
X134584Y76586D01*
X134624Y76651D01*
X134668Y76713D01*
X134670Y76725D01*
X134675Y76734D01*
X134679Y76771D01*
X134695Y76855D01*
X134695Y92614D01*
X135701Y95041D01*
X148519Y107859D01*
X150946Y108865D01*
X192004Y108865D01*
X192127Y108814D01*
X192129Y108813D01*
X192130Y108812D01*
X192273Y108785D01*
X196822Y108785D01*
X197715Y107892D01*
X197715Y96628D01*
X196822Y95735D01*
X192273Y95735D01*
X192271Y95735D01*
X192269Y95735D01*
X192127Y95706D01*
X192004Y95655D01*
X155153Y95655D01*
X155079Y95638D01*
X155005Y95625D01*
X154994Y95618D01*
X154985Y95616D01*
X154956Y95592D01*
X154884Y95544D01*
X148016Y88676D01*
X147976Y88611D01*
X147932Y88549D01*
X147930Y88537D01*
X147925Y88528D01*
X147921Y88491D01*
X147905Y88407D01*
X147905Y76855D01*
X147922Y76781D01*
X147935Y76707D01*
X147942Y76696D01*
X147944Y76687D01*
X147968Y76658D01*
X148016Y76586D01*
X150445Y74158D01*
X150445Y66582D01*
X145088Y61225D01*
X137512Y61225D01*
G37*
%LPD*%
%LPC*%
G36*
X396012Y338201D02*
X396012Y338201D01*
X393201Y341012D01*
X393201Y341174D01*
X393184Y341248D01*
X393171Y341323D01*
X393164Y341333D01*
X393162Y341343D01*
X393138Y341372D01*
X393090Y341443D01*
X384027Y350506D01*
X384027Y427595D01*
X384016Y427645D01*
X384014Y427696D01*
X383996Y427728D01*
X383988Y427764D01*
X383955Y427803D01*
X383931Y427848D01*
X383901Y427869D01*
X383878Y427897D01*
X383831Y427918D01*
X383789Y427948D01*
X383747Y427956D01*
X383719Y427968D01*
X383689Y427967D01*
X383647Y427975D01*
X382968Y427975D01*
X382075Y428868D01*
X382075Y441132D01*
X382968Y442025D01*
X394232Y442025D01*
X395125Y441132D01*
X395125Y428868D01*
X394232Y427975D01*
X393553Y427975D01*
X393503Y427964D01*
X393452Y427962D01*
X393420Y427944D01*
X393384Y427936D01*
X393345Y427903D01*
X393300Y427879D01*
X393279Y427849D01*
X393251Y427826D01*
X393230Y427779D01*
X393200Y427737D01*
X393192Y427695D01*
X393180Y427667D01*
X393181Y427637D01*
X393173Y427595D01*
X393173Y354452D01*
X393190Y354378D01*
X393203Y354303D01*
X393210Y354293D01*
X393212Y354283D01*
X393236Y354254D01*
X393284Y354183D01*
X399557Y347910D01*
X399621Y347870D01*
X399683Y347826D01*
X399695Y347824D01*
X399704Y347819D01*
X399741Y347815D01*
X399826Y347799D01*
X399988Y347799D01*
X402799Y344988D01*
X402799Y341012D01*
X399988Y338201D01*
X396012Y338201D01*
G37*
%LPD*%
%LPC*%
G36*
X367685Y414411D02*
X367685Y414411D01*
X363946Y418150D01*
X363882Y418190D01*
X363820Y418234D01*
X363808Y418236D01*
X363799Y418241D01*
X363762Y418245D01*
X363678Y418261D01*
X342635Y418261D01*
X341982Y418914D01*
X341918Y418954D01*
X341856Y418998D01*
X341844Y419000D01*
X341835Y419005D01*
X341798Y419009D01*
X341714Y419025D01*
X334318Y419025D01*
X333425Y419918D01*
X333425Y427782D01*
X334318Y428675D01*
X341714Y428675D01*
X341788Y428692D01*
X341862Y428705D01*
X341873Y428712D01*
X341882Y428714D01*
X341911Y428738D01*
X341982Y428786D01*
X342635Y429439D01*
X364695Y429439D01*
X364745Y429450D01*
X364796Y429452D01*
X364828Y429470D01*
X364864Y429478D01*
X364903Y429511D01*
X364948Y429535D01*
X364969Y429565D01*
X364997Y429588D01*
X365018Y429635D01*
X365048Y429677D01*
X365056Y429719D01*
X365068Y429747D01*
X365068Y429748D01*
X365067Y429777D01*
X365075Y429819D01*
X365075Y430581D01*
X365064Y430631D01*
X365062Y430682D01*
X365044Y430714D01*
X365036Y430750D01*
X365003Y430789D01*
X364979Y430834D01*
X364949Y430855D01*
X364926Y430883D01*
X364879Y430904D01*
X364837Y430934D01*
X364795Y430942D01*
X364767Y430954D01*
X364737Y430953D01*
X364695Y430961D01*
X342635Y430961D01*
X341982Y431614D01*
X341918Y431654D01*
X341856Y431698D01*
X341844Y431700D01*
X341835Y431705D01*
X341798Y431709D01*
X341714Y431725D01*
X334318Y431725D01*
X333425Y432618D01*
X333425Y440482D01*
X334318Y441375D01*
X341714Y441375D01*
X341788Y441392D01*
X341862Y441405D01*
X341873Y441412D01*
X341882Y441414D01*
X341911Y441438D01*
X341982Y441486D01*
X342635Y442139D01*
X372365Y442139D01*
X372368Y442136D01*
X372432Y442096D01*
X372494Y442052D01*
X372506Y442050D01*
X372515Y442045D01*
X372552Y442041D01*
X372636Y442025D01*
X377232Y442025D01*
X378125Y441132D01*
X378125Y428868D01*
X377232Y427975D01*
X370846Y427975D01*
X370821Y427969D01*
X370796Y427972D01*
X370738Y427950D01*
X370678Y427936D01*
X370658Y427919D01*
X370634Y427910D01*
X370592Y427865D01*
X370544Y427826D01*
X370533Y427802D01*
X370516Y427783D01*
X370498Y427724D01*
X370473Y427667D01*
X370474Y427642D01*
X370467Y427617D01*
X370477Y427556D01*
X370480Y427494D01*
X370492Y427472D01*
X370496Y427446D01*
X370545Y427375D01*
X370562Y427342D01*
X370571Y427336D01*
X370578Y427326D01*
X375589Y422315D01*
X375589Y417685D01*
X372315Y414411D01*
X367685Y414411D01*
G37*
%LPD*%
%LPC*%
G36*
X380682Y157421D02*
X380682Y157421D01*
X377871Y160232D01*
X377871Y160394D01*
X377854Y160468D01*
X377841Y160543D01*
X377834Y160553D01*
X377832Y160563D01*
X377808Y160592D01*
X377760Y160663D01*
X377447Y160976D01*
X377447Y237735D01*
X377436Y237785D01*
X377434Y237836D01*
X377416Y237868D01*
X377408Y237904D01*
X377375Y237943D01*
X377351Y237988D01*
X377321Y238009D01*
X377298Y238037D01*
X377251Y238058D01*
X377209Y238088D01*
X377167Y238096D01*
X377139Y238108D01*
X377109Y238107D01*
X377067Y238115D01*
X376388Y238115D01*
X375495Y239008D01*
X375495Y251272D01*
X376388Y252165D01*
X387652Y252165D01*
X388545Y251272D01*
X388545Y239008D01*
X387652Y238115D01*
X386973Y238115D01*
X386923Y238104D01*
X386872Y238102D01*
X386840Y238084D01*
X386804Y238076D01*
X386765Y238043D01*
X386720Y238019D01*
X386699Y237989D01*
X386671Y237966D01*
X386650Y237919D01*
X386620Y237877D01*
X386612Y237835D01*
X386600Y237807D01*
X386601Y237777D01*
X386593Y237735D01*
X386593Y165241D01*
X386610Y165167D01*
X386623Y165092D01*
X386630Y165082D01*
X386632Y165072D01*
X386656Y165044D01*
X386704Y164972D01*
X387469Y164208D01*
X387469Y160232D01*
X384658Y157421D01*
X380682Y157421D01*
G37*
%LPD*%
%LPC*%
G36*
X342635Y443661D02*
X342635Y443661D01*
X341982Y444314D01*
X341918Y444354D01*
X341856Y444398D01*
X341844Y444400D01*
X341835Y444405D01*
X341798Y444409D01*
X341714Y444425D01*
X334318Y444425D01*
X333425Y445318D01*
X333425Y453182D01*
X334318Y454075D01*
X339056Y454075D01*
X339106Y454086D01*
X339157Y454088D01*
X339189Y454106D01*
X339225Y454114D01*
X339264Y454147D01*
X339309Y454171D01*
X339330Y454201D01*
X339358Y454224D01*
X339379Y454271D01*
X339409Y454313D01*
X339417Y454355D01*
X339429Y454383D01*
X339428Y454413D01*
X339436Y454455D01*
X339436Y478425D01*
X339419Y478499D01*
X339406Y478574D01*
X339399Y478584D01*
X339397Y478594D01*
X339373Y478622D01*
X339325Y478694D01*
X338950Y479068D01*
X338950Y492532D01*
X339843Y493425D01*
X350207Y493425D01*
X351100Y492532D01*
X351100Y479068D01*
X350725Y478694D01*
X350685Y478629D01*
X350641Y478567D01*
X350639Y478555D01*
X350634Y478547D01*
X350630Y478510D01*
X350614Y478425D01*
X350614Y455969D01*
X350625Y455919D01*
X350627Y455868D01*
X350645Y455836D01*
X350653Y455800D01*
X350686Y455761D01*
X350710Y455716D01*
X350740Y455695D01*
X350763Y455667D01*
X350810Y455646D01*
X350852Y455616D01*
X350894Y455608D01*
X350922Y455596D01*
X350952Y455597D01*
X350994Y455589D01*
X372315Y455589D01*
X375589Y452315D01*
X375589Y447685D01*
X372315Y444411D01*
X348172Y444411D01*
X348098Y444394D01*
X348024Y444381D01*
X348014Y444374D01*
X348004Y444372D01*
X347975Y444348D01*
X347904Y444300D01*
X347265Y443661D01*
X342635Y443661D01*
G37*
%LPD*%
%LPC*%
G36*
X137512Y35825D02*
X137512Y35825D01*
X135084Y38254D01*
X135019Y38294D01*
X134957Y38338D01*
X134945Y38340D01*
X134936Y38345D01*
X134899Y38349D01*
X134815Y38365D01*
X125079Y38365D01*
X125005Y38348D01*
X124930Y38335D01*
X124920Y38328D01*
X124910Y38326D01*
X124882Y38302D01*
X124810Y38254D01*
X124532Y37975D01*
X113268Y37975D01*
X112375Y38868D01*
X112375Y43417D01*
X112375Y43419D01*
X112375Y43421D01*
X112346Y43563D01*
X112295Y43686D01*
X112295Y60751D01*
X112278Y60825D01*
X112265Y60900D01*
X112258Y60910D01*
X112256Y60920D01*
X112232Y60948D01*
X112184Y61020D01*
X111905Y61298D01*
X111905Y72562D01*
X112798Y73455D01*
X117347Y73455D01*
X117349Y73455D01*
X117351Y73455D01*
X117493Y73484D01*
X117616Y73535D01*
X120244Y73535D01*
X120367Y73484D01*
X120369Y73483D01*
X120370Y73482D01*
X120513Y73455D01*
X125062Y73455D01*
X125955Y72562D01*
X125955Y61298D01*
X125616Y60960D01*
X125576Y60895D01*
X125532Y60833D01*
X125530Y60821D01*
X125525Y60813D01*
X125521Y60776D01*
X125505Y60691D01*
X125505Y51955D01*
X125516Y51905D01*
X125518Y51854D01*
X125536Y51822D01*
X125544Y51786D01*
X125577Y51747D01*
X125601Y51702D01*
X125631Y51681D01*
X125654Y51653D01*
X125701Y51632D01*
X125743Y51602D01*
X125785Y51594D01*
X125813Y51582D01*
X125843Y51583D01*
X125885Y51575D01*
X134815Y51575D01*
X134889Y51592D01*
X134963Y51605D01*
X134974Y51612D01*
X134983Y51614D01*
X135012Y51638D01*
X135084Y51686D01*
X137512Y54115D01*
X145088Y54115D01*
X150445Y48758D01*
X150445Y41182D01*
X145088Y35825D01*
X137512Y35825D01*
G37*
%LPD*%
%LPC*%
G36*
X368012Y115201D02*
X368012Y115201D01*
X365201Y118012D01*
X365201Y118174D01*
X365184Y118248D01*
X365171Y118323D01*
X365164Y118333D01*
X365162Y118343D01*
X365138Y118372D01*
X365090Y118443D01*
X355427Y128106D01*
X355427Y164595D01*
X355416Y164645D01*
X355414Y164696D01*
X355396Y164728D01*
X355388Y164764D01*
X355355Y164803D01*
X355331Y164848D01*
X355301Y164869D01*
X355278Y164897D01*
X355231Y164918D01*
X355189Y164948D01*
X355147Y164956D01*
X355119Y164968D01*
X355089Y164967D01*
X355047Y164975D01*
X353868Y164975D01*
X352975Y165868D01*
X352975Y177132D01*
X353868Y178025D01*
X366132Y178025D01*
X367025Y177132D01*
X367025Y165868D01*
X366132Y164975D01*
X364953Y164975D01*
X364903Y164964D01*
X364852Y164962D01*
X364820Y164944D01*
X364784Y164936D01*
X364745Y164903D01*
X364700Y164879D01*
X364679Y164849D01*
X364651Y164826D01*
X364630Y164779D01*
X364600Y164737D01*
X364592Y164695D01*
X364580Y164667D01*
X364581Y164637D01*
X364573Y164595D01*
X364573Y132052D01*
X364586Y131996D01*
X364586Y131984D01*
X364590Y131976D01*
X364603Y131903D01*
X364610Y131893D01*
X364612Y131883D01*
X364636Y131854D01*
X364684Y131783D01*
X371557Y124910D01*
X371621Y124870D01*
X371683Y124826D01*
X371695Y124824D01*
X371704Y124819D01*
X371741Y124815D01*
X371826Y124799D01*
X371988Y124799D01*
X374799Y121988D01*
X374799Y118012D01*
X371988Y115201D01*
X368012Y115201D01*
G37*
%LPD*%
%LPC*%
G36*
X373686Y532595D02*
X373686Y532595D01*
X373563Y532646D01*
X373561Y532647D01*
X373560Y532648D01*
X373417Y532675D01*
X368868Y532675D01*
X367975Y533568D01*
X367975Y544832D01*
X368284Y545140D01*
X368306Y545176D01*
X368317Y545185D01*
X368330Y545213D01*
X368368Y545267D01*
X368370Y545279D01*
X368375Y545287D01*
X368379Y545322D01*
X368388Y545344D01*
X368387Y545368D01*
X368395Y545409D01*
X368395Y553407D01*
X368383Y553457D01*
X368382Y553502D01*
X368371Y553522D01*
X368365Y553555D01*
X368358Y553566D01*
X368356Y553575D01*
X368332Y553604D01*
X368301Y553650D01*
X368299Y553654D01*
X368298Y553655D01*
X368284Y553676D01*
X362401Y559559D01*
X362383Y559602D01*
X362382Y559603D01*
X362382Y559605D01*
X362300Y559725D01*
X361916Y560109D01*
X361916Y560653D01*
X361916Y560655D01*
X361916Y560656D01*
X361903Y560722D01*
X361903Y560727D01*
X361901Y560729D01*
X361887Y560798D01*
X361395Y561986D01*
X361395Y564614D01*
X361887Y565802D01*
X361888Y565804D01*
X361889Y565805D01*
X361898Y565851D01*
X361909Y565877D01*
X361908Y565906D01*
X361916Y565947D01*
X361916Y566491D01*
X362300Y566875D01*
X362301Y566876D01*
X362303Y566877D01*
X362383Y566998D01*
X362401Y567041D01*
X364259Y568899D01*
X366686Y569905D01*
X369314Y569905D01*
X371741Y568899D01*
X380599Y560041D01*
X381605Y557614D01*
X381605Y545409D01*
X381617Y545358D01*
X381618Y545315D01*
X381629Y545296D01*
X381635Y545260D01*
X381642Y545250D01*
X381644Y545240D01*
X381668Y545212D01*
X381716Y545140D01*
X382025Y544832D01*
X382025Y533568D01*
X381132Y532675D01*
X376583Y532675D01*
X376581Y532675D01*
X376579Y532675D01*
X376437Y532646D01*
X376314Y532595D01*
X373686Y532595D01*
G37*
%LPD*%
%LPC*%
G36*
X189376Y112655D02*
X189376Y112655D01*
X189253Y112706D01*
X189251Y112707D01*
X189250Y112708D01*
X189107Y112735D01*
X184558Y112735D01*
X183665Y113628D01*
X183665Y124892D01*
X183974Y125200D01*
X184014Y125265D01*
X184058Y125327D01*
X184060Y125339D01*
X184065Y125347D01*
X184069Y125384D01*
X184085Y125469D01*
X184085Y138264D01*
X185091Y140691D01*
X190414Y146014D01*
X190454Y146079D01*
X190498Y146141D01*
X190500Y146153D01*
X190505Y146162D01*
X190509Y146199D01*
X190525Y146283D01*
X190525Y146442D01*
X191418Y147335D01*
X192967Y147335D01*
X192969Y147335D01*
X192971Y147335D01*
X193113Y147364D01*
X193236Y147415D01*
X195864Y147415D01*
X195987Y147364D01*
X195989Y147363D01*
X195990Y147362D01*
X196133Y147335D01*
X197682Y147335D01*
X198575Y146442D01*
X198575Y146283D01*
X198592Y146209D01*
X198605Y146135D01*
X198612Y146124D01*
X198614Y146115D01*
X198638Y146086D01*
X198686Y146014D01*
X200149Y144551D01*
X201155Y142124D01*
X201155Y139496D01*
X200149Y137069D01*
X198686Y135606D01*
X198646Y135541D01*
X198602Y135479D01*
X198600Y135467D01*
X198595Y135458D01*
X198591Y135421D01*
X198575Y135337D01*
X198575Y135178D01*
X197682Y134285D01*
X197675Y134285D01*
X197625Y134274D01*
X197574Y134272D01*
X197542Y134254D01*
X197506Y134246D01*
X197467Y134213D01*
X197422Y134189D01*
X197401Y134159D01*
X197373Y134136D01*
X197352Y134089D01*
X197322Y134047D01*
X197314Y134005D01*
X197302Y133977D01*
X197303Y133947D01*
X197295Y133905D01*
X197295Y125469D01*
X197312Y125395D01*
X197325Y125320D01*
X197332Y125310D01*
X197334Y125300D01*
X197358Y125272D01*
X197406Y125200D01*
X197715Y124892D01*
X197715Y113628D01*
X196822Y112735D01*
X192273Y112735D01*
X192271Y112735D01*
X192269Y112735D01*
X192127Y112706D01*
X192004Y112655D01*
X189376Y112655D01*
G37*
%LPD*%
%LPC*%
G36*
X117616Y77325D02*
X117616Y77325D01*
X117493Y77376D01*
X117491Y77377D01*
X117490Y77378D01*
X117347Y77405D01*
X112798Y77405D01*
X111905Y78298D01*
X111905Y89562D01*
X112214Y89870D01*
X112254Y89935D01*
X112298Y89997D01*
X112300Y90009D01*
X112305Y90017D01*
X112309Y90054D01*
X112325Y90139D01*
X112325Y102244D01*
X113331Y104671D01*
X116259Y107599D01*
X118686Y108605D01*
X121314Y108605D01*
X123741Y107599D01*
X125599Y105741D01*
X125617Y105698D01*
X125618Y105697D01*
X125618Y105695D01*
X125669Y105620D01*
X125683Y105594D01*
X125690Y105590D01*
X125699Y105575D01*
X126084Y105191D01*
X126084Y104647D01*
X126084Y104645D01*
X126084Y104644D01*
X126113Y104502D01*
X126605Y103314D01*
X126605Y100686D01*
X126113Y99498D01*
X126112Y99496D01*
X126111Y99495D01*
X126104Y99457D01*
X126103Y99455D01*
X126103Y99453D01*
X126084Y99353D01*
X126084Y98809D01*
X125699Y98425D01*
X125699Y98424D01*
X125697Y98423D01*
X125617Y98302D01*
X125572Y98192D01*
X125562Y98179D01*
X125560Y98167D01*
X125555Y98158D01*
X125551Y98121D01*
X125535Y98037D01*
X125535Y90139D01*
X125552Y90065D01*
X125565Y89990D01*
X125572Y89980D01*
X125574Y89970D01*
X125598Y89942D01*
X125646Y89870D01*
X125955Y89562D01*
X125955Y78298D01*
X125062Y77405D01*
X120513Y77405D01*
X120511Y77405D01*
X120509Y77405D01*
X120367Y77376D01*
X120244Y77325D01*
X117616Y77325D01*
G37*
%LPD*%
%LPC*%
G36*
X347685Y394411D02*
X347685Y394411D01*
X344411Y397685D01*
X344411Y403628D01*
X344394Y403702D01*
X344381Y403776D01*
X344374Y403786D01*
X344372Y403796D01*
X344348Y403825D01*
X344300Y403896D01*
X341982Y406214D01*
X341918Y406254D01*
X341856Y406298D01*
X341844Y406300D01*
X341835Y406305D01*
X341798Y406309D01*
X341714Y406325D01*
X334318Y406325D01*
X333425Y407218D01*
X333425Y415082D01*
X334318Y415975D01*
X341714Y415975D01*
X341788Y415992D01*
X341862Y416005D01*
X341872Y416012D01*
X341882Y416014D01*
X341911Y416038D01*
X341982Y416086D01*
X342635Y416739D01*
X347265Y416739D01*
X347918Y416086D01*
X347982Y416046D01*
X348044Y416002D01*
X348056Y416000D01*
X348065Y415995D01*
X348102Y415991D01*
X348186Y415975D01*
X355582Y415975D01*
X356475Y415082D01*
X356475Y407218D01*
X355700Y406444D01*
X355660Y406379D01*
X355616Y406317D01*
X355614Y406305D01*
X355609Y406297D01*
X355605Y406260D01*
X355589Y406175D01*
X355589Y397685D01*
X352315Y394411D01*
X347685Y394411D01*
G37*
%LPD*%
%LPC*%
G36*
X208686Y83395D02*
X208686Y83395D01*
X206259Y84401D01*
X204401Y86259D01*
X203395Y88686D01*
X203395Y98514D01*
X204401Y100941D01*
X210899Y107439D01*
X213326Y108445D01*
X215954Y108445D01*
X218381Y107439D01*
X220239Y105581D01*
X220257Y105538D01*
X220258Y105537D01*
X220258Y105535D01*
X220339Y105415D01*
X220724Y105031D01*
X220724Y104487D01*
X220724Y104485D01*
X220724Y104484D01*
X220753Y104342D01*
X221245Y103154D01*
X221245Y100526D01*
X220753Y99338D01*
X220752Y99336D01*
X220751Y99335D01*
X220724Y99193D01*
X220724Y98649D01*
X220339Y98265D01*
X220339Y98264D01*
X220337Y98263D01*
X220257Y98142D01*
X220239Y98099D01*
X216716Y94576D01*
X216676Y94511D01*
X216632Y94449D01*
X216630Y94437D01*
X216625Y94428D01*
X216621Y94391D01*
X216605Y94307D01*
X216605Y88686D01*
X215599Y86259D01*
X213741Y84401D01*
X211314Y83395D01*
X208686Y83395D01*
G37*
%LPD*%
%LPC*%
G36*
X18686Y543395D02*
X18686Y543395D01*
X16259Y544401D01*
X14401Y546259D01*
X13395Y548686D01*
X13395Y557007D01*
X13378Y557081D01*
X13365Y557155D01*
X13358Y557166D01*
X13356Y557175D01*
X13332Y557204D01*
X13284Y557276D01*
X12401Y558159D01*
X12383Y558202D01*
X12382Y558203D01*
X12382Y558205D01*
X12301Y558325D01*
X11916Y558709D01*
X11916Y559253D01*
X11916Y559255D01*
X11916Y559256D01*
X11887Y559398D01*
X11395Y560586D01*
X11395Y563214D01*
X11887Y564402D01*
X11888Y564403D01*
X11889Y564405D01*
X11916Y564547D01*
X11916Y565091D01*
X12301Y565475D01*
X12301Y565476D01*
X12303Y565477D01*
X12383Y565598D01*
X12401Y565641D01*
X14259Y567499D01*
X16686Y568505D01*
X19314Y568505D01*
X21741Y567499D01*
X25599Y563641D01*
X26605Y561214D01*
X26605Y548686D01*
X25599Y546259D01*
X23741Y544401D01*
X21314Y543395D01*
X18686Y543395D01*
G37*
%LPD*%
D10*
X10000Y0D02*
X790000Y0D01*
X790242Y3D01*
X790483Y12D01*
X790724Y26D01*
X790965Y47D01*
X791205Y73D01*
X791445Y105D01*
X791684Y143D01*
X791921Y186D01*
X792158Y236D01*
X792393Y291D01*
X792627Y351D01*
X792859Y418D01*
X793090Y489D01*
X793319Y567D01*
X793546Y650D01*
X793771Y738D01*
X793994Y832D01*
X794214Y931D01*
X794432Y1036D01*
X794647Y1145D01*
X794860Y1260D01*
X795070Y1380D01*
X795276Y1505D01*
X795480Y1635D01*
X795681Y1770D01*
X795878Y1910D01*
X796072Y2054D01*
X796262Y2203D01*
X796448Y2357D01*
X796631Y2515D01*
X796810Y2677D01*
X796985Y2844D01*
X797156Y3015D01*
X797323Y3190D01*
X797485Y3369D01*
X797643Y3552D01*
X797797Y3738D01*
X797946Y3928D01*
X798090Y4122D01*
X798230Y4319D01*
X798365Y4520D01*
X798495Y4724D01*
X798620Y4930D01*
X798740Y5140D01*
X798855Y5353D01*
X798964Y5568D01*
X799069Y5786D01*
X799168Y6006D01*
X799262Y6229D01*
X799350Y6454D01*
X799433Y6681D01*
X799511Y6910D01*
X799582Y7141D01*
X799649Y7373D01*
X799709Y7607D01*
X799764Y7842D01*
X799814Y8079D01*
X799857Y8316D01*
X799895Y8555D01*
X799927Y8795D01*
X799953Y9035D01*
X799974Y9276D01*
X799988Y9517D01*
X799997Y9758D01*
X800000Y10000D01*
X800000Y610000D01*
X799997Y610242D01*
X799988Y610483D01*
X799974Y610724D01*
X799953Y610965D01*
X799927Y611205D01*
X799895Y611445D01*
X799857Y611684D01*
X799814Y611921D01*
X799764Y612158D01*
X799709Y612393D01*
X799649Y612627D01*
X799582Y612859D01*
X799511Y613090D01*
X799433Y613319D01*
X799350Y613546D01*
X799262Y613771D01*
X799168Y613994D01*
X799069Y614214D01*
X798964Y614432D01*
X798855Y614647D01*
X798740Y614860D01*
X798620Y615070D01*
X798495Y615276D01*
X798365Y615480D01*
X798230Y615681D01*
X798090Y615878D01*
X797946Y616072D01*
X797797Y616262D01*
X797643Y616448D01*
X797485Y616631D01*
X797323Y616810D01*
X797156Y616985D01*
X796985Y617156D01*
X796810Y617323D01*
X796631Y617485D01*
X796448Y617643D01*
X796262Y617797D01*
X796072Y617946D01*
X795878Y618090D01*
X795681Y618230D01*
X795480Y618365D01*
X795276Y618495D01*
X795070Y618620D01*
X794860Y618740D01*
X794647Y618855D01*
X794432Y618964D01*
X794214Y619069D01*
X793994Y619168D01*
X793771Y619262D01*
X793546Y619350D01*
X793319Y619433D01*
X793090Y619511D01*
X792859Y619582D01*
X792627Y619649D01*
X792393Y619709D01*
X792158Y619764D01*
X791921Y619814D01*
X791684Y619857D01*
X791445Y619895D01*
X791205Y619927D01*
X790965Y619953D01*
X790724Y619974D01*
X790483Y619988D01*
X790242Y619997D01*
X790000Y620000D01*
X10000Y620000D01*
X9758Y619997D01*
X9517Y619988D01*
X9276Y619974D01*
X9035Y619953D01*
X8795Y619927D01*
X8555Y619895D01*
X8316Y619857D01*
X8079Y619814D01*
X7842Y619764D01*
X7607Y619709D01*
X7373Y619649D01*
X7141Y619582D01*
X6910Y619511D01*
X6681Y619433D01*
X6454Y619350D01*
X6229Y619262D01*
X6006Y619168D01*
X5786Y619069D01*
X5568Y618964D01*
X5353Y618855D01*
X5140Y618740D01*
X4930Y618620D01*
X4724Y618495D01*
X4520Y618365D01*
X4319Y618230D01*
X4122Y618090D01*
X3928Y617946D01*
X3738Y617797D01*
X3552Y617643D01*
X3369Y617485D01*
X3190Y617323D01*
X3015Y617156D01*
X2844Y616985D01*
X2677Y616810D01*
X2515Y616631D01*
X2357Y616448D01*
X2203Y616262D01*
X2054Y616072D01*
X1910Y615878D01*
X1770Y615681D01*
X1635Y615480D01*
X1505Y615276D01*
X1380Y615070D01*
X1260Y614860D01*
X1145Y614647D01*
X1036Y614432D01*
X931Y614214D01*
X832Y613994D01*
X738Y613771D01*
X650Y613546D01*
X567Y613319D01*
X489Y613090D01*
X418Y612859D01*
X351Y612627D01*
X291Y612393D01*
X236Y612158D01*
X186Y611921D01*
X143Y611684D01*
X105Y611445D01*
X73Y611205D01*
X47Y610965D01*
X26Y610724D01*
X12Y610483D01*
X3Y610242D01*
X0Y610000D01*
X0Y10000D01*
X3Y9758D01*
X12Y9517D01*
X26Y9276D01*
X47Y9035D01*
X73Y8795D01*
X105Y8555D01*
X143Y8316D01*
X186Y8079D01*
X236Y7842D01*
X291Y7607D01*
X351Y7373D01*
X418Y7141D01*
X489Y6910D01*
X567Y6681D01*
X650Y6454D01*
X738Y6229D01*
X832Y6006D01*
X931Y5786D01*
X1036Y5568D01*
X1145Y5353D01*
X1260Y5140D01*
X1380Y4930D01*
X1505Y4724D01*
X1635Y4520D01*
X1770Y4319D01*
X1910Y4122D01*
X2054Y3928D01*
X2203Y3738D01*
X2357Y3552D01*
X2515Y3369D01*
X2677Y3190D01*
X2844Y3015D01*
X3015Y2844D01*
X3190Y2677D01*
X3369Y2515D01*
X3552Y2357D01*
X3738Y2203D01*
X3928Y2054D01*
X4122Y1910D01*
X4319Y1770D01*
X4520Y1635D01*
X4724Y1505D01*
X4930Y1380D01*
X5140Y1260D01*
X5353Y1145D01*
X5568Y1036D01*
X5786Y931D01*
X6006Y832D01*
X6229Y738D01*
X6454Y650D01*
X6681Y567D01*
X6910Y489D01*
X7141Y418D01*
X7373Y351D01*
X7607Y291D01*
X7842Y236D01*
X8079Y186D01*
X8316Y143D01*
X8555Y105D01*
X8795Y73D01*
X9035Y47D01*
X9276Y26D01*
X9517Y12D01*
X9758Y3D01*
X10000Y0D01*
D11*
X338400Y378500D03*
X321400Y378500D03*
X300800Y201500D03*
X317800Y201500D03*
D12*
X217500Y44970D03*
X192100Y44970D03*
X166700Y44970D03*
X141300Y44970D03*
X217500Y70370D03*
X192100Y70370D03*
X166700Y70370D03*
X141300Y70370D03*
X648850Y44810D03*
X623450Y44810D03*
X598050Y44810D03*
X572650Y44810D03*
X547250Y44810D03*
X521850Y44810D03*
X496450Y44810D03*
X471050Y44810D03*
X445650Y44810D03*
X420250Y44810D03*
X394850Y44810D03*
X369450Y44810D03*
X344050Y44810D03*
X648850Y70210D03*
X623450Y70210D03*
X598050Y70210D03*
X572650Y70210D03*
X547250Y70210D03*
X521850Y70210D03*
X496450Y70210D03*
X471050Y70210D03*
X445650Y70210D03*
X420250Y70210D03*
X394850Y70210D03*
X369450Y70210D03*
X344050Y70210D03*
D13*
X368000Y579300D03*
X368000Y563300D03*
X18000Y577900D03*
X18000Y561900D03*
D14*
X118900Y45000D03*
X101900Y45000D03*
X371600Y435000D03*
X388600Y435000D03*
D11*
X605970Y360030D03*
X605970Y343030D03*
X190690Y102260D03*
X190690Y119260D03*
X375000Y539200D03*
X375000Y522200D03*
D14*
X116460Y272560D03*
X99460Y272560D03*
X206940Y252670D03*
X189940Y252670D03*
D15*
X291950Y259250D03*
X291950Y246550D03*
X291950Y233850D03*
X291950Y221150D03*
X340050Y221150D03*
X340050Y233850D03*
X340050Y246550D03*
X340050Y259250D03*
D16*
X194550Y140810D03*
X207250Y140810D03*
X207250Y205610D03*
X194550Y205610D03*
X104550Y142300D03*
X117250Y142300D03*
X117250Y207100D03*
X104550Y207100D03*
D17*
X377775Y485800D03*
X345025Y485800D03*
X376975Y285800D03*
X344225Y285800D03*
D15*
X296850Y449250D03*
X296850Y436550D03*
X296850Y423850D03*
X296850Y411150D03*
X344950Y411150D03*
X344950Y423850D03*
X344950Y436550D03*
X344950Y449250D03*
D18*
X752880Y408300D03*
D11*
X118930Y66930D03*
X118930Y83930D03*
D13*
X120000Y118000D03*
X120000Y102000D03*
X214640Y117840D03*
X214640Y101840D03*
D19*
X570450Y404600D03*
X570450Y455400D03*
D20*
X458750Y430000D03*
D21*
X675400Y580450D03*
X624600Y580450D03*
D22*
X650000Y468750D03*
D14*
X365020Y245140D03*
X382020Y245140D03*
X588500Y190000D03*
X571500Y190000D03*
D11*
X550000Y101500D03*
X550000Y118500D03*
X360000Y188500D03*
X360000Y171500D03*
D18*
X750000Y290000D03*
D19*
X561080Y223410D03*
X561080Y274210D03*
D20*
X449380Y248810D03*
D21*
X625370Y103400D03*
X676170Y103400D03*
D22*
X650770Y215100D03*
D23*
X377775Y519425D02*
X375000Y522200D01*
X377775Y519425D02*
X377775Y485800D01*
D24*
X280000Y390000D03*
X350000Y390000D03*
X340000Y300000D03*
X280000Y300000D03*
X370000Y180000D03*
X350000Y130000D03*
X350000Y110000D03*
X290000Y110000D03*
X300900Y174100D03*
X346860Y174040D03*
X389880Y525240D03*
X390540Y560280D03*
X353480Y561690D03*
X352040Y525250D03*
X362040Y465250D03*
X327670Y468290D03*
X330070Y498660D03*
X360990Y499420D03*
X330070Y528660D03*
X300070Y498660D03*
X300070Y468660D03*
X730340Y337960D03*
X780340Y337960D03*
X780340Y497960D03*
X730340Y497960D03*
X720340Y237960D03*
X770340Y237960D03*
X340000Y360000D03*
X280000Y360000D03*
X150000Y200000D03*
X150000Y290000D03*
X230000Y250000D03*
X230000Y200000D03*
X60000Y250000D03*
X50000Y200000D03*
X50000Y250000D03*
X190000Y280000D03*
X220000Y280000D03*
X190000Y320000D03*
X220000Y320000D03*
X220000Y390000D03*
X190000Y390000D03*
X220000Y440000D03*
X250000Y420000D03*
X100000Y480000D03*
X100000Y260000D03*
X70000Y260000D03*
X70000Y480000D03*
X20000Y530000D03*
X40000Y550000D03*
X60000Y540000D03*
X30000Y510000D03*
X580340Y147960D03*
X520340Y147960D03*
X520340Y107960D03*
X570340Y137960D03*
X710340Y537960D03*
X710340Y557960D03*
X720600Y602160D03*
X780340Y27960D03*
X780340Y37960D03*
X780340Y17960D03*
X770340Y17960D03*
X760340Y17960D03*
X760340Y27960D03*
X760340Y37960D03*
X770340Y37960D03*
X770340Y27960D03*
X770340Y607960D03*
X780340Y607960D03*
X780340Y597960D03*
X770340Y597960D03*
X770340Y587960D03*
X780340Y587960D03*
X760340Y587960D03*
X760340Y597960D03*
X760340Y607960D03*
X40340Y577960D03*
X40340Y567960D03*
X40340Y557960D03*
X400000Y333000D03*
X521000Y332500D03*
X622840Y340960D03*
X619340Y528460D03*
X691840Y527960D03*
X688840Y341960D03*
X733840Y161960D03*
X554340Y133960D03*
X632360Y333920D03*
X681080Y335290D03*
X657190Y338690D03*
X633270Y343620D03*
X680300Y343760D03*
X531000Y252500D03*
X531000Y222500D03*
X541000Y192500D03*
X400000Y20000D03*
X340000Y20000D03*
X100340Y347960D03*
X70340Y347960D03*
X392530Y183450D03*
X392930Y170630D03*
X391450Y149220D03*
X519160Y168190D03*
X517990Y181790D03*
X520700Y129760D03*
X389910Y129580D03*
X389300Y110860D03*
X391350Y539060D03*
X591350Y539060D03*
X591350Y559060D03*
X310070Y548660D03*
X341140Y561450D03*
X431350Y559060D03*
X604340Y103960D03*
X605090Y128730D03*
X564900Y128850D03*
X564820Y107750D03*
X431350Y536350D03*
X539740Y535680D03*
X537910Y560340D03*
X399740Y464120D03*
X518560Y469250D03*
X517140Y499370D03*
X40340Y587960D03*
X40340Y597960D03*
X20340Y597960D03*
X30340Y597960D03*
X10340Y597960D03*
X10340Y607960D03*
X20340Y607960D03*
X30340Y607960D03*
X40340Y607960D03*
X50340Y607960D03*
X50340Y597960D03*
X50340Y587960D03*
X50340Y577960D03*
X50340Y567960D03*
X50340Y557960D03*
X50340Y547960D03*
X60340Y547960D03*
X60340Y557960D03*
X60340Y567960D03*
X150000Y320000D03*
X130000Y320000D03*
X133740Y285550D03*
X90000Y200000D03*
D23*
X97450Y200000D01*
X104550Y207100D01*
X117250Y207100D02*
X117250Y287320D01*
X165020Y300550D02*
X165920Y299650D01*
X165020Y300550D02*
X130480Y300550D01*
X117250Y287320D01*
D24*
X165920Y299650D03*
X240000Y290000D03*
D23*
X243000Y287000D01*
D25*
X240000Y290000D02*
X276362Y253638D01*
X276362Y253635D01*
X283447Y246550D01*
X291950Y246550D01*
D24*
X360000Y210000D03*
D25*
X348850Y221150D01*
X340050Y221150D01*
D26*
X360000Y210000D02*
X360000Y188500D01*
D25*
X350000Y406100D02*
X344950Y411150D01*
X350000Y406100D02*
X350000Y400000D01*
D24*
X350000Y400000D03*
D25*
X344950Y436550D02*
X370050Y436550D01*
X371600Y435000D01*
D26*
X365610Y246550D02*
X340050Y246550D01*
X365610Y246550D02*
X365610Y245730D01*
X365020Y245140D01*
D25*
X366150Y423850D02*
X344950Y423850D01*
X366150Y423850D02*
X370000Y420000D01*
D24*
X370000Y420000D03*
X610000Y410000D03*
X610000Y400000D03*
X610000Y390000D03*
X610000Y380000D03*
X620000Y410000D03*
X620000Y400000D03*
X620000Y390000D03*
X620000Y380000D03*
X630000Y380000D03*
X620000Y370000D03*
X620000Y360000D03*
X630000Y360000D03*
X630000Y370000D03*
X630000Y390000D03*
X630000Y400000D03*
X630000Y410000D03*
X640000Y410000D03*
X640000Y400000D03*
X640000Y390000D03*
X640000Y380000D03*
X640000Y370000D03*
X640000Y360000D03*
X650000Y360000D03*
X650000Y370000D03*
X650000Y380000D03*
X650000Y390000D03*
X650000Y400000D03*
X650000Y410000D03*
X660000Y410000D03*
X660000Y400000D03*
X660000Y390000D03*
X660000Y380000D03*
X660000Y370000D03*
X660000Y360000D03*
X670000Y360000D03*
X670000Y370000D03*
X670000Y380000D03*
X670000Y390000D03*
X670000Y400000D03*
X670000Y410000D03*
X680000Y410000D03*
X680000Y400000D03*
X680000Y390000D03*
X680000Y380000D03*
X680000Y370000D03*
X680000Y360000D03*
X690000Y360000D03*
X690000Y370000D03*
X690000Y380000D03*
X690000Y390000D03*
X690000Y400000D03*
X690000Y410000D03*
X700000Y410000D03*
X700000Y400000D03*
X700000Y390000D03*
X700000Y380000D03*
X700000Y370000D03*
X700000Y360000D03*
D25*
X355630Y233850D02*
X340050Y233850D01*
X355630Y233850D02*
X362240Y227240D01*
D24*
X362240Y227240D03*
X590000Y320000D03*
X590000Y310000D03*
X590000Y300000D03*
X590000Y290000D03*
X700000Y280000D03*
X700000Y270000D03*
X600000Y270000D03*
X610000Y270000D03*
X620000Y270000D03*
X630000Y270000D03*
X640000Y270000D03*
X650000Y270000D03*
X660000Y270000D03*
X670000Y270000D03*
X680000Y270000D03*
X690000Y270000D03*
X690000Y280000D03*
X690000Y290000D03*
X690000Y300000D03*
X690000Y310000D03*
X690000Y320000D03*
X680000Y320000D03*
X680000Y310000D03*
X680000Y300000D03*
X680000Y290000D03*
X680000Y280000D03*
X670000Y280000D03*
X670000Y290000D03*
X670000Y300000D03*
X670000Y310000D03*
X670000Y320000D03*
X600000Y320000D03*
X610000Y320000D03*
X630000Y320000D03*
X620000Y320000D03*
X640000Y320000D03*
X650000Y320000D03*
X660000Y320000D03*
X660000Y310000D03*
X650000Y310000D03*
X640000Y310000D03*
X630000Y310000D03*
X620000Y310000D03*
X610000Y310000D03*
X600000Y310000D03*
X600000Y300000D03*
X610000Y300000D03*
X620000Y300000D03*
X630000Y300000D03*
X640000Y300000D03*
X650000Y300000D03*
X660000Y300000D03*
X660000Y290000D03*
X660000Y280000D03*
X650000Y280000D03*
X650000Y290000D03*
X640000Y290000D03*
X640000Y280000D03*
X630000Y280000D03*
X630000Y290000D03*
X620000Y290000D03*
X620000Y280000D03*
X610000Y280000D03*
X610000Y290000D03*
X600000Y290000D03*
X600000Y280000D03*
X150000Y130000D03*
X160000Y90000D03*
X170000Y90000D03*
X170000Y130000D03*
X210000Y130000D03*
X120000Y130000D03*
X90000Y130000D03*
X90000Y90000D03*
X90000Y50000D03*
X152620Y56930D03*
X177200Y55580D03*
X179610Y34930D03*
X153180Y34540D03*
X20000Y20000D03*
X20000Y30000D03*
X30000Y30000D03*
X30000Y40000D03*
X40000Y40000D03*
X40000Y30000D03*
X30000Y20000D03*
X20000Y160000D03*
X30000Y160000D03*
X20000Y150000D03*
X30000Y150000D03*
X40000Y150000D03*
X40000Y140000D03*
X30000Y140000D03*
X230000Y160000D03*
X230000Y150000D03*
X220000Y150000D03*
X220000Y160000D03*
X40000Y160000D03*
X20000Y140000D03*
X20000Y40000D03*
X40000Y20000D03*
D23*
X141300Y70370D02*
X141300Y91300D01*
X152260Y102260D02*
X190690Y102260D01*
X152260Y102260D02*
X141300Y91300D01*
X141300Y44970D02*
X118930Y44970D01*
X118900Y45000D01*
X118900Y66900D01*
X118930Y66930D01*
D24*
X720000Y550000D03*
D25*
X720000Y570000D01*
X710000Y580000D01*
X680000Y580000D01*
X677540Y580000D01*
D27*
X679550Y580450D02*
X675400Y580450D01*
X679550Y580450D02*
X680000Y580000D01*
D26*
X388600Y435000D02*
X388600Y352400D01*
X398000Y343000D01*
D24*
X398000Y343000D03*
X591000Y342500D03*
D26*
X605440Y342500D01*
D25*
X605970Y343030D01*
D26*
X591000Y342500D02*
X591000Y381280D01*
X569210Y403070D01*
X570450Y404310D02*
X570450Y404600D01*
X570450Y404310D02*
X569210Y403070D01*
D23*
X375000Y556300D02*
X368000Y563300D01*
X375000Y556300D02*
X375000Y539200D01*
D24*
X20000Y550000D03*
D23*
X20000Y559900D01*
X18000Y561900D01*
X190690Y136950D02*
X190690Y119260D01*
X190690Y136950D02*
X194550Y140810D01*
X101900Y139650D02*
X101900Y45000D01*
X101900Y139650D02*
X104550Y142300D01*
X207250Y205610D02*
X207250Y401950D01*
D25*
X241850Y436550D01*
X296850Y436550D01*
D24*
X180000Y200000D03*
D23*
X188940Y200000D01*
X194550Y205610D01*
D25*
X340050Y259250D02*
X340800Y260000D01*
X344225Y259860D02*
X344225Y285800D01*
X344225Y260000D02*
X340800Y260000D01*
D24*
X358030Y260480D03*
D25*
X341280Y260480D01*
X340050Y259250D01*
D23*
X118930Y100930D02*
X118930Y83930D01*
X118930Y100930D02*
X120000Y102000D01*
D24*
X210000Y90000D03*
D23*
X210000Y97200D01*
X214640Y101840D01*
D26*
X360000Y130000D02*
X370000Y120000D01*
X360000Y130000D02*
X360000Y171500D01*
D24*
X370000Y120000D03*
X530000Y120000D03*
D26*
X548500Y120000D01*
X550000Y118500D01*
X610270Y118500D01*
X625370Y103400D01*
X382020Y162870D02*
X382020Y245140D01*
X382020Y162870D02*
X382670Y162220D01*
D24*
X382670Y162220D03*
D26*
X561080Y223410D02*
X571080Y213410D01*
X571080Y190420D01*
X571500Y190000D01*
D24*
X561500Y180000D03*
D26*
X571500Y190000D01*
D24*
X370000Y450000D03*
D25*
X345700Y450000D01*
X344950Y449250D01*
X345025Y450000D02*
X345025Y485800D01*
X345025Y450000D02*
X345700Y450000D01*
M02*
